<svg width="327" height="132" viewBox="0 0 327 132" fill="none" xmlns="http://www.w3.org/2000/svg">
<rect x="0.5" y="0.5" width="326" height="131" rx="9.5" fill="url(#paint0_radial_2_100)" stroke="#1E9891"/>
<circle opacity="0.3" cx="163.75" cy="65.75" r="46.75" fill="#1D1D1D"/>
<g filter="url(#filter0_d_2_100)">
<path d="M109.424 76.4776C108.773 76.4776 108.201 76.298 107.707 75.9389C107.236 75.5573 107 75.0073 107 74.2891C107 73.6606 107.292 73.0545 107.875 72.4709L124.138 56.074H107.303V52H128.717C129.345 52 129.906 52.1908 130.4 52.5724C130.894 52.9315 131.141 53.4702 131.141 54.1885C131.141 54.817 130.849 55.423 130.265 56.0066L114.003 72.4036H131.04V76.4776H109.424Z" fill="white"/>
<path d="M134.769 76.4776V52H156.62V56.276H139.011V72.2016H156.654V76.4776H134.769ZM142.143 65.8381V62.2355H155.711V65.8381H142.143Z" fill="white"/>
<path d="M183.044 76.4776L176.849 69.6764H167.69V65.9054H177.892C179.441 65.9054 180.608 65.4902 181.394 64.6597C182.179 63.8067 182.572 62.5834 182.572 60.9897C182.572 59.396 182.157 58.2176 181.327 57.4544C180.518 56.6688 179.374 56.276 177.892 56.276H164.559V76.4776H160.317V52H177.892C179.284 52 180.53 52.2132 181.63 52.6397C182.729 53.0437 183.661 53.6386 184.424 54.4242C185.187 55.1874 185.771 56.1189 186.175 57.2187C186.579 58.3186 186.781 59.5531 186.781 60.9224C186.781 62.965 186.332 64.6821 185.434 66.0738C184.559 67.443 183.324 68.4306 181.731 69.0367L189.104 76.4776H183.044Z" fill="white"/>
<path d="M201.942 76.4776C200.236 76.4776 198.654 76.1633 197.195 75.5348C195.758 74.8839 194.501 74.0085 193.424 72.9086C192.369 71.7863 191.538 70.462 190.932 68.9357C190.349 67.4093 190.057 65.7595 190.057 63.9863C190.057 62.1906 190.349 60.552 190.932 59.0706C191.538 57.5891 192.369 56.3321 193.424 55.2996C194.501 54.2446 195.758 53.4366 197.195 52.8754C198.654 52.2918 200.236 52 201.942 52H207.902C209.675 52 211.291 52.2918 212.75 52.8754C214.231 53.459 215.5 54.2783 216.555 55.3333C217.61 56.3882 218.429 57.6564 219.012 59.1379C219.596 60.5969 219.888 62.213 219.888 63.9863C219.888 65.7595 219.585 67.4093 218.979 68.9357C218.395 70.462 217.565 71.7863 216.487 72.9086C215.432 74.0085 214.175 74.8839 212.716 75.5348C211.257 76.1633 209.652 76.4776 207.902 76.4776H201.942ZM207.902 72.2016C209.024 72.2016 210.056 71.9996 210.999 71.5955C211.942 71.1915 212.75 70.6416 213.423 69.9457C214.119 69.2275 214.658 68.3745 215.039 67.3869C215.421 66.3992 215.612 65.333 215.612 64.1883C215.612 63.0435 215.421 61.9886 215.039 61.0234C214.658 60.0357 214.119 59.194 213.423 58.4982C212.75 57.8023 211.942 57.2636 210.999 56.882C210.056 56.478 209.024 56.276 207.902 56.276H201.942C200.842 56.276 199.821 56.478 198.878 56.882C197.958 57.2636 197.161 57.8023 196.488 58.4982C195.814 59.194 195.287 60.0245 194.905 60.9897C194.524 61.9549 194.333 63.0211 194.333 64.1883C194.333 65.333 194.524 66.3992 194.905 67.3869C195.287 68.3745 195.814 69.2275 196.488 69.9457C197.161 70.6416 197.958 71.1915 198.878 71.5955C199.821 71.9996 200.842 72.2016 201.942 72.2016H207.902Z" fill="white"/>
</g>
<g opacity="0.3">
<g filter="url(#filter1_f_2_100)">
<path d="M147.381 92.8719C146.466 93.792 145.59 94.6767 144.707 95.5549C144.149 96.1124 143.576 96.645 143.02 97.2007C142.339 97.8828 141.669 98.5751 140.995 99.2647C140.779 99.4877 140.659 99.4933 140.437 99.2703C139.844 98.6681 139.257 98.0622 138.662 97.459C137.815 96.6059 136.964 95.7593 136.114 94.9099L133.598 92.3905C132.717 91.5096 131.835 90.6286 130.954 89.7476C130.651 89.4465 130.343 89.1491 130 88.8127C130.206 88.5869 130.378 88.3889 130.558 88.2012C130.889 87.8617 131.224 87.5256 131.562 87.1929C131.753 87.007 131.955 86.8314 132.144 86.6437C133.09 85.7023 134.031 84.7553 134.978 83.8148C135.472 83.3241 135.977 82.8437 136.492 82.3437C131.983 74.8228 130.541 66.8167 132.419 58.2587C133.814 51.917 136.934 46.5223 141.618 42.0886C146.89 37.0963 153.203 34.1903 160.438 33.4803C167.656 32.7722 174.381 34.3632 180.562 38.1697C180.597 38.1604 180.633 38.1613 180.655 38.1427C181.351 37.455 182.046 36.7658 182.74 36.075C182.961 35.8566 183.183 35.6391 183.402 35.4189C184.358 34.4654 185.312 33.5113 186.265 32.5566C186.401 32.42 186.517 32.2639 186.654 32.1282C186.821 31.9618 186.945 31.9553 187.112 32.1207C187.599 32.5993 188.076 33.0872 188.556 33.5714C188.849 33.866 189.144 34.1587 189.435 34.4552C189.664 34.6875 189.885 34.9273 190.116 35.1578C191.027 36.0722 191.94 36.9851 192.854 37.8964C193.609 38.651 194.361 39.4084 195.12 40.1593C195.771 40.8098 196.438 41.4446 197.09 42.0914C197.257 42.2568 197.403 42.4436 197.595 42.6629L191.199 49.0538C195.049 55.7238 196.384 62.8507 195.203 70.4346C194.22 76.7353 191.518 82.2369 187.22 86.915C182.128 92.4575 175.808 95.8727 168.357 96.9516C160.944 98.0241 153.914 96.7081 147.381 92.8719ZM146.422 72.3341C146.777 71.9939 147.102 71.6928 147.416 71.3806C148.194 70.6086 148.969 69.8342 149.74 69.0573C150.601 68.1986 151.461 67.3393 152.32 66.4794L154.803 63.9972L157.383 61.4193L159.8 59.003L162.411 56.3935C163.248 55.5571 164.091 54.7208 164.922 53.8788C165.507 53.2887 166.076 52.6846 166.662 52.0982C167.324 51.4384 168 50.7972 168.664 50.1383C169.129 49.6811 169.591 49.2195 170.048 48.7536C170.241 48.5566 170.415 48.3401 170.606 48.1226C164.504 45.5252 156.346 46.3569 150.502 52.1373C145.478 57.1184 143.39 64.9906 146.422 72.3378V72.3341ZM181.094 59.0449L157.424 82.8019C162.752 84.8464 170.979 84.4932 177.105 78.1125C182.215 72.7913 183.449 65.1421 181.094 59.0523V59.0449Z" fill="white" fill-opacity="0.7"/>
</g>
<path d="M147.381 92.8719C146.466 93.792 145.59 94.6767 144.707 95.5549C144.149 96.1124 143.576 96.645 143.02 97.2007C142.339 97.8828 141.669 98.5751 140.995 99.2647C140.779 99.4877 140.659 99.4933 140.437 99.2703C139.844 98.6681 139.257 98.0622 138.662 97.459C137.815 96.6059 136.964 95.7593 136.114 94.9099L133.598 92.3905C132.717 91.5096 131.835 90.6286 130.954 89.7476C130.651 89.4465 130.343 89.1491 130 88.8127C130.206 88.5869 130.378 88.3889 130.558 88.2012C130.889 87.8617 131.224 87.5256 131.562 87.1929C131.753 87.007 131.955 86.8314 132.144 86.6437C133.09 85.7023 134.031 84.7553 134.978 83.8148C135.472 83.3241 135.977 82.8437 136.492 82.3437C131.983 74.8228 130.541 66.8167 132.419 58.2587C133.814 51.917 136.934 46.5223 141.618 42.0886C146.89 37.0963 153.203 34.1903 160.438 33.4803C167.656 32.7722 174.381 34.3632 180.562 38.1697C180.597 38.1604 180.633 38.1613 180.655 38.1427C181.351 37.455 182.046 36.7658 182.74 36.075C182.961 35.8566 183.183 35.6391 183.402 35.4189C184.358 34.4654 185.312 33.5113 186.265 32.5566C186.401 32.42 186.517 32.2639 186.654 32.1282C186.821 31.9618 186.945 31.9553 187.112 32.1207C187.599 32.5993 188.076 33.0872 188.556 33.5714C188.849 33.866 189.144 34.1587 189.435 34.4552C189.664 34.6875 189.885 34.9273 190.116 35.1578C191.027 36.0722 191.94 36.9851 192.854 37.8964C193.609 38.651 194.361 39.4084 195.12 40.1593C195.771 40.8098 196.438 41.4446 197.09 42.0914C197.257 42.2568 197.403 42.4436 197.595 42.6629L191.199 49.0538C195.049 55.7238 196.384 62.8507 195.203 70.4346C194.22 76.7353 191.518 82.2369 187.22 86.915C182.128 92.4575 175.808 95.8727 168.357 96.9516C160.944 98.0241 153.914 96.7081 147.381 92.8719ZM146.422 72.3341C146.777 71.9939 147.102 71.6928 147.416 71.3806C148.194 70.6086 148.969 69.8342 149.74 69.0573C150.601 68.1986 151.461 67.3393 152.32 66.4794L154.803 63.9972L157.383 61.4193L159.8 59.003L162.411 56.3935C163.248 55.5571 164.091 54.7208 164.922 53.8788C165.507 53.2887 166.076 52.6846 166.662 52.0982C167.324 51.4384 168 50.7972 168.664 50.1383C169.129 49.6811 169.591 49.2195 170.048 48.7536C170.241 48.5566 170.415 48.3401 170.606 48.1226C164.504 45.5252 156.346 46.3569 150.502 52.1373C145.478 57.1184 143.39 64.9906 146.422 72.3378V72.3341ZM181.094 59.0449L157.424 82.8019C162.752 84.8464 170.979 84.4932 177.105 78.1125C182.215 72.7913 183.449 65.1421 181.094 59.0523V59.0449Z" fill="white"/>
</g>
<g filter="url(#filter2_d_2_100)">
<path d="M30.5436 34.216C34.5396 34.216 35.8536 32.65 35.8536 27.97C35.8536 23.29 34.5396 21.724 30.5436 21.724C26.5476 21.724 25.2336 23.29 25.2336 27.97C25.2336 32.65 26.5476 34.216 30.5436 34.216ZM30.5436 32.722C27.7176 32.722 26.9076 31.624 26.9076 27.97C26.9076 24.316 27.7176 23.218 30.5436 23.218C33.3696 23.218 34.1796 24.316 34.1796 27.97C34.1796 31.624 33.3696 32.722 30.5436 32.722ZM40.6141 28.708C42.9901 28.708 43.9261 27.7 43.9261 25.216C43.9261 22.732 42.9901 21.724 40.6141 21.724C38.2381 21.724 37.2841 22.732 37.2841 25.216C37.2841 27.7 38.2381 28.708 40.6141 28.708ZM40.0561 34.216H41.6221L49.7041 21.724H48.1381L40.0561 34.216ZM40.6141 27.376C39.2821 27.376 38.8321 26.818 38.8321 25.216C38.8321 23.596 39.2821 23.056 40.6141 23.056C41.9281 23.056 42.3781 23.596 42.3781 25.216C42.3781 26.818 41.9281 27.376 40.6141 27.376ZM49.1461 34.216C51.5221 34.216 52.4761 33.208 52.4761 30.742C52.4761 28.24 51.5221 27.232 49.1461 27.232C46.7701 27.232 45.8341 28.24 45.8341 30.742C45.8341 33.208 46.7701 34.216 49.1461 34.216ZM49.1461 32.884C47.8321 32.884 47.3821 32.344 47.3821 30.742C47.3821 29.122 47.8321 28.564 49.1461 28.564C50.4781 28.564 50.9281 29.122 50.9281 30.742C50.9281 32.344 50.4781 32.884 49.1461 32.884ZM58.1843 23.74H59.9843V21.94H58.1843V23.74ZM58.2743 34H59.8943V25.378H58.2743V34ZM62.6336 34H64.2536V27.682C65.4056 26.962 66.1976 26.674 67.2596 26.674C68.6996 26.674 69.2936 27.25 69.2936 28.708V34H70.9136V28.33C70.9136 26.152 69.9056 25.162 67.6916 25.162C66.4316 25.162 65.4056 25.468 64.0376 26.278L63.8576 25.378H62.6336V34ZM76.7562 34H78.4482V32.578H77.0982C76.0002 32.578 75.7122 32.308 75.7122 31.138V26.746H78.4482V25.378H75.7122V22.912H74.2722L74.1282 25.378H72.2022V26.746H74.0922V31.282C74.0922 33.298 74.8302 34 76.7562 34ZM84.8193 34.216C86.1693 34.216 87.0873 34.072 88.3293 33.658L88.1853 32.164C87.0693 32.596 86.1693 32.758 84.8373 32.758C82.4073 32.758 81.5433 32.218 81.3993 30.31H88.7793C88.8153 29.968 88.8333 29.518 88.8333 29.176C88.8333 26.314 87.5733 25.162 84.3693 25.162C81.0213 25.162 79.7433 26.422 79.7433 29.716C79.7433 33.1 81.1113 34.216 84.8193 34.216ZM81.4173 28.924C81.5613 27.196 82.3533 26.62 84.3873 26.62C86.3853 26.62 87.1053 27.16 87.2313 28.924H81.4173ZM90.9871 34H92.6071V27.61C93.7231 26.944 94.6951 26.674 95.8831 26.674H96.2431V25.162H95.8651C94.7491 25.162 93.7411 25.486 92.4091 26.314L92.2111 25.378H90.9871V34ZM102.257 34.216C103.607 34.216 104.525 34.072 105.767 33.658L105.623 32.164C104.507 32.596 103.607 32.758 102.275 32.758C99.8448 32.758 98.9808 32.218 98.8368 30.31H106.217C106.253 29.968 106.271 29.518 106.271 29.176C106.271 26.314 105.011 25.162 101.807 25.162C98.4588 25.162 97.1808 26.422 97.1808 29.716C97.1808 33.1 98.5488 34.216 102.257 34.216ZM98.8548 28.924C98.9988 27.196 99.7908 26.62 101.825 26.62C103.823 26.62 104.543 27.16 104.669 28.924H98.8548ZM111.877 34.216C115.027 34.216 116.071 33.514 116.071 31.516C116.071 29.752 115.261 29.176 112.957 28.942L111.715 28.816C110.005 28.636 109.609 28.456 109.609 27.754C109.609 26.872 110.203 26.62 112.021 26.62C113.407 26.62 114.325 26.782 115.495 27.124L115.639 25.612C114.523 25.27 113.443 25.162 112.219 25.162C109.123 25.162 108.025 25.846 108.025 27.826C108.025 29.5 108.799 30.076 111.175 30.31L112.417 30.436C114.109 30.598 114.487 30.832 114.487 31.57C114.487 32.506 113.893 32.758 112.003 32.758C110.329 32.758 109.285 32.542 108.061 32.128L107.917 33.658C109.069 34.036 110.275 34.216 111.877 34.216ZM121.317 34H123.009V32.578H121.659C120.561 32.578 120.273 32.308 120.273 31.138V26.746H123.009V25.378H120.273V22.912H118.833L118.689 25.378H116.763V26.746H118.653V31.282C118.653 33.298 119.391 34 121.317 34ZM128.657 34H130.277V21.292H128.657V34ZM137.264 34.216C140.72 34.216 141.998 32.974 141.998 29.698C141.998 26.404 140.72 25.162 137.264 25.162C133.808 25.162 132.53 26.404 132.53 29.698C132.53 32.974 133.808 34.216 137.264 34.216ZM137.264 32.758C134.942 32.758 134.168 32.002 134.168 29.698C134.168 27.376 134.942 26.62 137.264 26.62C139.586 26.62 140.36 27.376 140.36 29.698C140.36 32.002 139.586 32.758 137.264 32.758ZM146.715 34.216C148.083 34.216 149.289 33.874 150.675 33.01L150.891 34H152.115V28.672C152.115 26.008 151.071 25.162 147.813 25.162C146.481 25.162 145.491 25.306 144.321 25.648L144.465 27.16C145.455 26.8 146.355 26.62 147.669 26.62C149.847 26.62 150.495 27.124 150.495 28.78V28.996C149.199 28.852 148.173 28.798 147.399 28.798C144.591 28.798 143.529 29.518 143.529 31.48C143.529 33.352 144.501 34.216 146.715 34.216ZM147.111 32.758C145.779 32.758 145.167 32.362 145.167 31.426C145.167 30.562 145.689 30.184 147.417 30.184C148.011 30.184 149.109 30.22 150.495 30.382V31.624C149.235 32.416 148.335 32.758 147.111 32.758ZM154.655 34H156.275V27.682C157.427 26.962 158.219 26.674 159.281 26.674C160.721 26.674 161.315 27.25 161.315 28.708V34H162.935V28.33C162.935 26.152 161.927 25.162 159.713 25.162C158.453 25.162 157.427 25.468 156.059 26.278L155.879 25.378H154.655V34ZM168.778 34.216C171.928 34.216 172.972 33.514 172.972 31.516C172.972 29.752 172.162 29.176 169.858 28.942L168.616 28.816C166.906 28.636 166.51 28.456 166.51 27.754C166.51 26.872 167.104 26.62 168.922 26.62C170.308 26.62 171.226 26.782 172.396 27.124L172.54 25.612C171.424 25.27 170.344 25.162 169.12 25.162C166.024 25.162 164.926 25.846 164.926 27.826C164.926 29.5 165.7 30.076 168.076 30.31L169.318 30.436C171.01 30.598 171.388 30.832 171.388 31.57C171.388 32.506 170.794 32.758 168.904 32.758C167.23 32.758 166.186 32.542 164.962 32.128L164.818 33.658C165.97 34.036 167.176 34.216 168.778 34.216ZM183.126 34.216C186.582 34.216 187.86 32.974 187.86 29.698C187.86 26.404 186.582 25.162 183.126 25.162C179.67 25.162 178.392 26.404 178.392 29.698C178.392 32.974 179.67 34.216 183.126 34.216ZM183.126 32.758C180.804 32.758 180.03 32.002 180.03 29.698C180.03 27.376 180.804 26.62 183.126 26.62C185.448 26.62 186.222 27.376 186.222 29.698C186.222 32.002 185.448 32.758 183.126 32.758ZM190.11 34H191.73V27.682C192.882 26.962 193.674 26.674 194.736 26.674C196.176 26.674 196.77 27.25 196.77 28.708V34H198.39V28.33C198.39 26.152 197.382 25.162 195.168 25.162C193.908 25.162 192.882 25.468 191.514 26.278L191.334 25.378H190.11V34ZM204.338 37.69H205.076C206.768 37.69 207.362 37.276 208.028 35.638L212.204 25.378H210.494L207.938 31.786L205.292 25.378H203.528L207.092 33.802L206.606 34.99C206.174 36.034 205.904 36.268 205.022 36.268H204.338V37.69ZM217.772 34.216C221.228 34.216 222.506 32.974 222.506 29.698C222.506 26.404 221.228 25.162 217.772 25.162C214.316 25.162 213.038 26.404 213.038 29.698C213.038 32.974 214.316 34.216 217.772 34.216ZM217.772 32.758C215.45 32.758 214.676 32.002 214.676 29.698C214.676 27.376 215.45 26.62 217.772 26.62C220.094 26.62 220.868 27.376 220.868 29.698C220.868 32.002 220.094 32.758 217.772 32.758ZM227.799 34.216C229.077 34.216 230.103 33.91 231.471 33.1L231.651 34H232.875V25.378H231.255V31.696C230.103 32.416 229.293 32.704 228.231 32.704C226.773 32.704 226.179 32.128 226.179 30.67V25.378H224.559V31.048C224.559 33.226 225.567 34.216 227.799 34.216ZM235.602 34H237.222V27.61C238.338 26.944 239.31 26.674 240.498 26.674H240.858V25.162H240.48C239.364 25.162 238.356 25.486 237.024 26.314L236.826 25.378H235.602V34ZM251.313 34.216C254.067 34.216 255.183 32.92 255.183 29.68C255.183 26.458 254.067 25.162 251.313 25.162C250.071 25.162 249.009 25.432 247.857 26.062V21.292H246.237V34H247.461L247.623 33.19C248.865 33.91 249.981 34.216 251.313 34.216ZM250.989 32.758C249.873 32.758 248.991 32.47 247.857 31.75V27.628C248.991 26.908 249.873 26.62 250.989 26.62C252.879 26.62 253.545 27.43 253.545 29.698C253.545 31.948 252.879 32.758 250.989 32.758ZM257.344 23.74H259.144V21.94H257.344V23.74ZM257.434 34H259.054V25.378H257.434V34ZM265.106 34H266.798V32.578H265.448C264.35 32.578 264.062 32.308 264.062 31.138V26.746H266.798V25.378H264.062V22.912H262.622L262.478 25.378H260.552V26.746H262.442V31.282C262.442 33.298 263.18 34 265.106 34ZM272.665 34.216C273.745 34.216 274.645 34.072 275.617 33.766L275.473 32.308C274.645 32.596 273.817 32.74 272.827 32.74C270.505 32.74 269.731 31.948 269.731 29.68C269.731 27.412 270.505 26.638 272.827 26.638C273.817 26.638 274.645 26.782 275.473 27.07L275.617 25.612C274.645 25.306 273.745 25.162 272.665 25.162C269.407 25.162 268.093 26.458 268.093 29.698C268.093 32.938 269.407 34.216 272.665 34.216ZM281.862 34.216C285.318 34.216 286.596 32.974 286.596 29.698C286.596 26.404 285.318 25.162 281.862 25.162C278.406 25.162 277.128 26.404 277.128 29.698C277.128 32.974 278.406 34.216 281.862 34.216ZM281.862 32.758C279.54 32.758 278.766 32.002 278.766 29.698C278.766 27.376 279.54 26.62 281.862 26.62C284.184 26.62 284.958 27.376 284.958 29.698C284.958 32.002 284.184 32.758 281.862 32.758ZM288.757 23.74H290.557V21.94H288.757V23.74ZM288.847 34H290.467V25.378H288.847V34ZM293.206 34H294.826V27.682C295.978 26.962 296.77 26.674 297.832 26.674C299.272 26.674 299.866 27.25 299.866 28.708V34H301.486V28.33C301.486 26.152 300.478 25.162 298.264 25.162C297.004 25.162 295.978 25.468 294.61 26.278L294.43 25.378H293.206V34Z" fill="white"/>
</g>
<defs>
<filter id="filter0_d_2_100" x="97" y="46" width="132.888" height="44.4776" filterUnits="userSpaceOnUse" color-interpolation-filters="sRGB">
<feFlood flood-opacity="0" result="BackgroundImageFix"/>
<feColorMatrix in="SourceAlpha" type="matrix" values="0 0 0 0 0 0 0 0 0 0 0 0 0 0 0 0 0 0 127 0" result="hardAlpha"/>
<feOffset dy="4"/>
<feGaussianBlur stdDeviation="5"/>
<feComposite in2="hardAlpha" operator="out"/>
<feColorMatrix type="matrix" values="0 0 0 0 0 0 0 0 0 0 0 0 0 0 0 0 0 0 0.15 0"/>
<feBlend mode="normal" in2="BackgroundImageFix" result="effect1_dropShadow_2_100"/>
<feBlend mode="normal" in="SourceGraphic" in2="effect1_dropShadow_2_100" result="shape"/>
</filter>
<filter id="filter1_f_2_100" x="85" y="-13" width="157.595" height="157.435" filterUnits="userSpaceOnUse" color-interpolation-filters="sRGB">
<feFlood flood-opacity="0" result="BackgroundImageFix"/>
<feBlend mode="normal" in="SourceGraphic" in2="BackgroundImageFix" result="shape"/>
<feGaussianBlur stdDeviation="22.5" result="effect1_foregroundBlur_2_100"/>
</filter>
<filter id="filter2_d_2_100" x="21.2336" y="21.292" width="284.252" height="24.398" filterUnits="userSpaceOnUse" color-interpolation-filters="sRGB">
<feFlood flood-opacity="0" result="BackgroundImageFix"/>
<feColorMatrix in="SourceAlpha" type="matrix" values="0 0 0 0 0 0 0 0 0 0 0 0 0 0 0 0 0 0 127 0" result="hardAlpha"/>
<feOffset dy="4"/>
<feGaussianBlur stdDeviation="2"/>
<feComposite in2="hardAlpha" operator="out"/>
<feColorMatrix type="matrix" values="0 0 0 0 0 0 0 0 0 0 0 0 0 0 0 0 0 0 0.15 0"/>
<feBlend mode="normal" in2="BackgroundImageFix" result="effect1_dropShadow_2_100"/>
<feBlend mode="normal" in="SourceGraphic" in2="effect1_dropShadow_2_100" result="shape"/>
</filter>
<filter id="filter3_d_2_100" x="84" y="89" width="160" height="39" filterUnits="userSpaceOnUse" color-interpolation-filters="sRGB">
<feFlood flood-opacity="0" result="BackgroundImageFix"/>
<feColorMatrix in="SourceAlpha" type="matrix" values="0 0 0 0 0 0 0 0 0 0 0 0 0 0 0 0 0 0 127 0" result="hardAlpha"/>
<feOffset dy="4"/>
<feGaussianBlur stdDeviation="2"/>
<feComposite in2="hardAlpha" operator="out"/>
<feColorMatrix type="matrix" values="0 0 0 0 0 0 0 0 0 0 0 0 0 0 0 0 0 0 0.25 0"/>
<feBlend mode="normal" in2="BackgroundImageFix" result="effect1_dropShadow_2_100"/>
<feBlend mode="normal" in="SourceGraphic" in2="effect1_dropShadow_2_100" result="shape"/>
</filter>
<radialGradient id="paint0_radial_2_100" cx="0" cy="0" r="1" gradientUnits="userSpaceOnUse" gradientTransform="translate(163.5 66) rotate(90) scale(104.079 163.5)">
<stop stop-color="#35CBC2"/>
<stop offset="1"/>
</radialGradient>
</defs>
</svg>
