<svg width="715" height="288" viewBox="0 0 715 288" fill="none" xmlns="http://www.w3.org/2000/svg">
<rect x="0.5" y="0.5" width="714" height="287" rx="9.5" fill="url(#paint0_radial_378_4)" stroke="#1E9891"/>
<circle opacity="0.3" cx="357.943" cy="134.743" r="87.4286" fill="#1D1D1D"/>
<g filter="url(#filter0_d_378_4)">
<path d="M256.534 162.005C255.316 162.005 254.246 161.669 253.322 160.997C252.441 160.284 252 159.255 252 157.912C252 156.737 252.546 155.603 253.637 154.512L284.05 123.848H252.567V116.229H292.613C293.788 116.229 294.838 116.585 295.761 117.299C296.685 117.971 297.147 118.978 297.147 120.321C297.147 121.497 296.601 122.63 295.509 123.722L265.097 154.386H296.958V162.005H256.534Z" fill="white"/>
<path d="M303.932 162.005V116.229H344.797V124.225H311.865V154.008H344.86V162.005H303.932ZM317.721 142.108V135.37H343.096V142.108H317.721Z" fill="white"/>
<path d="M394.212 162.005L382.626 149.286H365.499V142.234H384.578C387.474 142.234 389.657 141.457 391.126 139.904C392.595 138.309 393.33 136.021 393.33 133.041C393.33 130.06 392.553 127.856 391 126.429C389.489 124.96 387.348 124.225 384.578 124.225H359.643V162.005H351.71V116.229H384.578C387.18 116.229 389.51 116.627 391.567 117.425C393.624 118.181 395.366 119.293 396.793 120.762C398.22 122.189 399.312 123.931 400.067 125.988C400.823 128.045 401.201 130.354 401.201 132.915C401.201 136.735 400.361 139.946 398.682 142.548C397.045 145.109 394.736 146.956 391.756 148.089L405.545 162.005H394.212Z" fill="white"/>
<path d="M429.554 162.005C426.364 162.005 423.404 161.417 420.676 160.242C417.989 159.024 415.639 157.387 413.624 155.33C411.651 153.232 410.098 150.755 408.964 147.901C407.873 145.046 407.327 141.961 407.327 138.645C407.327 135.286 407.873 132.222 408.964 129.451C410.098 126.681 411.651 124.33 413.624 122.399C415.639 120.426 417.989 118.915 420.676 117.866C423.404 116.774 426.364 116.229 429.554 116.229H440.699C444.015 116.229 447.038 116.774 449.766 117.866C452.537 118.957 454.908 120.489 456.881 122.462C458.854 124.435 460.386 126.807 461.478 129.577C462.569 132.306 463.115 135.328 463.115 138.645C463.115 141.961 462.548 145.046 461.415 147.901C460.323 150.755 458.77 153.232 456.755 155.33C454.782 157.387 452.432 159.024 449.703 160.242C446.975 161.417 443.973 162.005 440.699 162.005H429.554ZM440.699 154.008C442.798 154.008 444.729 153.63 446.492 152.875C448.255 152.119 449.766 151.091 451.026 149.789C452.327 148.446 453.334 146.851 454.048 145.004C454.761 143.157 455.118 141.163 455.118 139.022C455.118 136.881 454.761 134.909 454.048 133.104C453.334 131.257 452.327 129.682 451.026 128.381C449.766 127.08 448.255 126.072 446.492 125.359C444.729 124.603 442.798 124.225 440.699 124.225H429.554C427.497 124.225 425.587 124.603 423.824 125.359C422.103 126.072 420.613 127.08 419.354 128.381C418.094 129.682 417.108 131.236 416.394 133.041C415.681 134.846 415.324 136.839 415.324 139.022C415.324 141.163 415.681 143.157 416.394 145.004C417.108 146.851 418.094 148.446 419.354 149.789C420.613 151.091 422.103 152.119 423.824 152.875C425.587 153.63 427.497 154.008 429.554 154.008H440.699Z" fill="white"/>
</g>
<g opacity="0.3">
<g filter="url(#filter1_f_378_4)">
<path d="M326.843 188.525C325.13 190.246 323.492 191.901 321.842 193.543C320.799 194.586 319.726 195.581 318.688 196.621C317.413 197.896 316.161 199.191 314.9 200.481C314.495 200.898 314.271 200.908 313.857 200.491C312.748 199.365 311.65 198.232 310.537 197.104C308.953 195.508 307.36 193.925 305.771 192.337L301.067 187.625C299.419 185.978 297.77 184.33 296.122 182.682C295.555 182.119 294.979 181.563 294.338 180.934C294.724 180.512 295.044 180.142 295.381 179.791C296 179.156 296.626 178.527 297.259 177.905C297.616 177.557 297.995 177.229 298.348 176.878C300.116 175.117 301.876 173.346 303.648 171.587C304.571 170.67 305.515 169.771 306.479 168.836C298.047 154.771 295.35 139.799 298.862 123.794C301.471 111.934 307.305 101.846 316.065 93.554C325.925 84.2178 337.731 78.7832 351.261 77.4554C364.758 76.1311 377.336 79.1065 388.895 86.2251C388.961 86.2077 389.028 86.2094 389.068 86.1747C390.37 84.8886 391.67 83.5996 392.969 82.3078C393.381 81.8993 393.797 81.4927 394.207 81.0808C395.993 79.2977 397.778 77.5134 399.561 75.7279C399.815 75.4724 400.032 75.1805 400.288 74.9267C400.601 74.6156 400.832 74.6035 401.145 74.9128C402.055 75.8079 402.947 76.7203 403.846 77.6258C404.393 78.1767 404.945 78.7241 405.489 79.2785C405.917 79.713 406.331 80.1614 406.762 80.5924C408.466 82.3025 410.173 84.0098 411.883 85.7141C413.295 87.1253 414.702 88.5418 416.121 89.946C417.338 91.1626 418.585 92.3496 419.805 93.5592C420.117 93.8685 420.39 94.2179 420.75 94.628L408.788 106.58C415.988 119.054 418.484 132.382 416.275 146.565C414.437 158.348 409.384 168.636 401.347 177.385C391.823 187.75 380.005 194.137 366.07 196.155C352.207 198.161 339.061 195.7 326.843 188.525ZM325.049 150.117C325.713 149.481 326.32 148.918 326.907 148.334C328.364 146.89 329.813 145.442 331.255 143.989C332.864 142.383 334.472 140.776 336.079 139.168L340.723 134.526L345.547 129.705L350.068 125.186L354.951 120.306C356.516 118.742 358.091 117.178 359.646 115.603C360.74 114.5 361.804 113.37 362.901 112.273C364.138 111.039 365.402 109.84 366.645 108.608C367.515 107.753 368.377 106.89 369.233 106.018C369.594 105.65 369.92 105.245 370.276 104.838C358.865 99.9809 343.608 101.536 332.679 112.346C323.284 121.662 319.378 136.384 325.049 150.124V150.117ZM389.889 125.264L345.623 169.693C355.587 173.517 370.973 172.856 382.429 160.923C391.986 150.972 394.294 136.667 389.889 125.278V125.264Z" fill="white" fill-opacity="0.7"/>
</g>
<path d="M326.843 188.525C325.13 190.246 323.492 191.901 321.842 193.543C320.799 194.586 319.726 195.581 318.688 196.621C317.413 197.896 316.161 199.191 314.9 200.481C314.495 200.898 314.271 200.908 313.857 200.491C312.748 199.365 311.65 198.232 310.537 197.104C308.953 195.508 307.36 193.925 305.771 192.337L301.067 187.625C299.419 185.978 297.77 184.33 296.122 182.682C295.555 182.119 294.979 181.563 294.338 180.934C294.724 180.512 295.044 180.142 295.381 179.791C296 179.156 296.626 178.527 297.259 177.905C297.616 177.557 297.995 177.229 298.348 176.878C300.116 175.117 301.876 173.346 303.648 171.587C304.571 170.67 305.515 169.771 306.479 168.836C298.047 154.771 295.35 139.799 298.862 123.794C301.471 111.934 307.305 101.846 316.065 93.554C325.925 84.2178 337.731 78.7832 351.261 77.4554C364.758 76.1311 377.336 79.1065 388.895 86.2251C388.961 86.2077 389.028 86.2094 389.068 86.1747C390.37 84.8886 391.67 83.5996 392.969 82.3078C393.381 81.8993 393.797 81.4927 394.207 81.0808C395.993 79.2977 397.778 77.5134 399.561 75.7279C399.815 75.4724 400.032 75.1805 400.288 74.9267C400.601 74.6156 400.832 74.6035 401.145 74.9128C402.055 75.8079 402.947 76.7203 403.846 77.6258C404.393 78.1767 404.945 78.7241 405.489 79.2785C405.917 79.713 406.331 80.1614 406.762 80.5924C408.466 82.3025 410.173 84.0098 411.883 85.7141C413.295 87.1253 414.702 88.5418 416.121 89.946C417.338 91.1626 418.585 92.3496 419.805 93.5592C420.117 93.8685 420.39 94.2179 420.75 94.628L408.788 106.58C415.988 119.054 418.484 132.382 416.275 146.565C414.437 158.348 409.384 168.636 401.347 177.385C391.823 187.75 380.005 194.137 366.07 196.155C352.207 198.161 339.061 195.7 326.843 188.525ZM325.049 150.117C325.713 149.481 326.32 148.918 326.907 148.334C328.364 146.89 329.813 145.442 331.255 143.989C332.864 142.383 334.472 140.776 336.079 139.168L340.723 134.526L345.547 129.705L350.068 125.186L354.951 120.306C356.516 118.742 358.091 117.178 359.646 115.603C360.74 114.5 361.804 113.37 362.901 112.273C364.138 111.039 365.402 109.84 366.645 108.608C367.515 107.753 368.377 106.89 369.233 106.018C369.594 105.65 369.92 105.245 370.276 104.838C358.865 99.9809 343.608 101.536 332.679 112.346C323.284 121.662 319.378 136.384 325.049 150.124V150.117ZM389.889 125.264L345.623 169.693C355.587 173.517 370.973 172.856 382.429 160.923C391.986 150.972 394.294 136.667 389.889 125.278V125.264Z" fill="white"/>
</g>
<g filter="url(#filter2_d_378_4)">
<path d="M136.248 73.2999C142.908 73.2999 145.098 70.6899 145.098 62.8899C145.098 55.0899 142.908 52.4799 136.248 52.4799C129.588 52.4799 127.398 55.0899 127.398 62.8899C127.398 70.6899 129.588 73.2999 136.248 73.2999ZM136.248 70.8099C131.538 70.8099 130.188 68.9799 130.188 62.8899C130.188 56.7999 131.538 54.9699 136.248 54.9699C140.958 54.9699 142.308 56.7999 142.308 62.8899C142.308 68.9799 140.958 70.8099 136.248 70.8099ZM153.032 64.1199C156.992 64.1199 158.552 62.4399 158.552 58.2999C158.552 54.1599 156.992 52.4799 153.032 52.4799C149.072 52.4799 147.482 54.1599 147.482 58.2999C147.482 62.4399 149.072 64.1199 153.032 64.1199ZM152.102 73.2999H154.712L168.182 52.4799H165.572L152.102 73.2999ZM153.032 61.8999C150.812 61.8999 150.062 60.9699 150.062 58.2999C150.062 55.5999 150.812 54.6999 153.032 54.6999C155.222 54.6999 155.972 55.5999 155.972 58.2999C155.972 60.9699 155.222 61.8999 153.032 61.8999ZM167.252 73.2999C171.212 73.2999 172.802 71.6199 172.802 67.5099C172.802 63.3399 171.212 61.6599 167.252 61.6599C163.292 61.6599 161.732 63.3399 161.732 67.5099C161.732 71.6199 163.292 73.2999 167.252 73.2999ZM167.252 71.0799C165.062 71.0799 164.312 70.1799 164.312 67.5099C164.312 64.8099 165.062 63.8799 167.252 63.8799C169.472 63.8799 170.222 64.8099 170.222 67.5099C170.222 70.1799 169.472 71.0799 167.252 71.0799ZM182.316 55.8399H185.316V52.8399H182.316V55.8399ZM182.466 72.9399H185.166V58.5699H182.466V72.9399ZM189.731 72.9399H192.431V62.4099C194.351 61.2099 195.671 60.7299 197.441 60.7299C199.841 60.7299 200.831 61.6899 200.831 64.1199V72.9399H203.531V63.4899C203.531 59.8599 201.851 58.2099 198.161 58.2099C196.061 58.2099 194.351 58.7199 192.071 60.0699L191.771 58.5699H189.731V72.9399ZM213.269 72.9399H216.089V70.5699H213.839C212.009 70.5699 211.529 70.1199 211.529 68.1699V60.8499H216.089V58.5699H211.529V54.4599H209.129L208.889 58.5699H205.679V60.8499H208.829V68.4099C208.829 71.7699 210.059 72.9399 213.269 72.9399ZM226.708 73.2999C228.958 73.2999 230.488 73.0599 232.558 72.3699L232.318 69.8799C230.458 70.5999 228.958 70.8699 226.738 70.8699C222.688 70.8699 221.248 69.9699 221.008 66.7899H233.308C233.368 66.2199 233.398 65.4699 233.398 64.8999C233.398 60.1299 231.298 58.2099 225.958 58.2099C220.378 58.2099 218.248 60.3099 218.248 65.7999C218.248 71.4399 220.528 73.2999 226.708 73.2999ZM221.038 64.4799C221.278 61.5999 222.598 60.6399 225.988 60.6399C229.318 60.6399 230.518 61.5399 230.728 64.4799H221.038ZM236.987 72.9399H239.687V62.2899C241.547 61.1799 243.167 60.7299 245.147 60.7299H245.747V58.2099H245.117C243.257 58.2099 241.577 58.7499 239.357 60.1299L239.027 58.5699H236.987V72.9399ZM255.77 73.2999C258.02 73.2999 259.55 73.0599 261.62 72.3699L261.38 69.8799C259.52 70.5999 258.02 70.8699 255.8 70.8699C251.75 70.8699 250.31 69.9699 250.07 66.7899H262.37C262.43 66.2199 262.46 65.4699 262.46 64.8999C262.46 60.1299 260.36 58.2099 255.02 58.2099C249.44 58.2099 247.31 60.3099 247.31 65.7999C247.31 71.4399 249.59 73.2999 255.77 73.2999ZM250.1 64.4799C250.34 61.5999 251.66 60.6399 255.05 60.6399C258.38 60.6399 259.58 61.5399 259.79 64.4799H250.1ZM271.804 73.2999C277.054 73.2999 278.794 72.1299 278.794 68.7999C278.794 65.8599 277.444 64.8999 273.604 64.5099L271.534 64.2999C268.684 63.9999 268.024 63.6999 268.024 62.5299C268.024 61.0599 269.014 60.6399 272.044 60.6399C274.354 60.6399 275.884 60.9099 277.834 61.4799L278.074 58.9599C276.214 58.3899 274.414 58.2099 272.374 58.2099C267.214 58.2099 265.384 59.3499 265.384 62.6499C265.384 65.4399 266.674 66.3999 270.634 66.7899L272.704 66.9999C275.524 67.2699 276.154 67.6599 276.154 68.8899C276.154 70.4499 275.164 70.8699 272.014 70.8699C269.224 70.8699 267.484 70.5099 265.444 69.8199L265.204 72.3699C267.124 72.9999 269.134 73.2999 271.804 73.2999ZM287.537 72.9399H290.357V70.5699H288.107C286.277 70.5699 285.797 70.1199 285.797 68.1699V60.8499H290.357V58.5699H285.797V54.4599H283.397L283.157 58.5699H279.947V60.8499H283.097V68.4099C283.097 71.7699 284.327 72.9399 287.537 72.9399ZM299.771 72.9399H302.471V51.7599H299.771V72.9399ZM314.116 73.2999C319.876 73.2999 322.006 71.2299 322.006 65.7699C322.006 60.2799 319.876 58.2099 314.116 58.2099C308.356 58.2099 306.226 60.2799 306.226 65.7699C306.226 71.2299 308.356 73.2999 314.116 73.2999ZM314.116 70.8699C310.246 70.8699 308.956 69.6099 308.956 65.7699C308.956 61.8999 310.246 60.6399 314.116 60.6399C317.986 60.6399 319.276 61.8999 319.276 65.7699C319.276 69.6099 317.986 70.8699 314.116 70.8699ZM329.868 73.2999C332.148 73.2999 334.158 72.7299 336.468 71.2899L336.828 72.9399H338.868V64.0599C338.868 59.6199 337.128 58.2099 331.698 58.2099C329.478 58.2099 327.828 58.4499 325.878 59.0199L326.118 61.5399C327.768 60.9399 329.268 60.6399 331.458 60.6399C335.088 60.6399 336.168 61.4799 336.168 64.2399V64.5999C334.008 64.3599 332.298 64.2699 331.008 64.2699C326.328 64.2699 324.558 65.4699 324.558 68.7399C324.558 71.8599 326.178 73.2999 329.868 73.2999ZM330.528 70.8699C328.308 70.8699 327.288 70.2099 327.288 68.6499C327.288 67.2099 328.158 66.5799 331.038 66.5799C332.028 66.5799 333.858 66.6399 336.168 66.9099V68.9799C334.068 70.2999 332.568 70.8699 330.528 70.8699ZM343.101 72.9399H345.801V62.4099C347.721 61.2099 349.041 60.7299 350.811 60.7299C353.211 60.7299 354.201 61.6899 354.201 64.1199V72.9399H356.901V63.4899C356.901 59.8599 355.221 58.2099 351.531 58.2099C349.431 58.2099 347.721 58.7199 345.441 60.0699L345.141 58.5699H343.101V72.9399ZM366.638 73.2999C371.888 73.2999 373.628 72.1299 373.628 68.7999C373.628 65.8599 372.278 64.8999 368.438 64.5099L366.368 64.2999C363.518 63.9999 362.858 63.6999 362.858 62.5299C362.858 61.0599 363.848 60.6399 366.878 60.6399C369.188 60.6399 370.718 60.9099 372.668 61.4799L372.908 58.9599C371.048 58.3899 369.248 58.2099 367.208 58.2099C362.048 58.2099 360.218 59.3499 360.218 62.6499C360.218 65.4399 361.508 66.3999 365.468 66.7899L367.538 66.9999C370.358 67.2699 370.988 67.6599 370.988 68.8899C370.988 70.4499 369.998 70.8699 366.848 70.8699C364.058 70.8699 362.318 70.5099 360.278 69.8199L360.038 72.3699C361.958 72.9999 363.968 73.2999 366.638 73.2999ZM390.552 73.2999C396.312 73.2999 398.442 71.2299 398.442 65.7699C398.442 60.2799 396.312 58.2099 390.552 58.2099C384.792 58.2099 382.662 60.2799 382.662 65.7699C382.662 71.2299 384.792 73.2999 390.552 73.2999ZM390.552 70.8699C386.682 70.8699 385.392 69.6099 385.392 65.7699C385.392 61.8999 386.682 60.6399 390.552 60.6399C394.422 60.6399 395.712 61.8999 395.712 65.7699C395.712 69.6099 394.422 70.8699 390.552 70.8699ZM402.192 72.9399H404.892V62.4099C406.812 61.2099 408.132 60.7299 409.902 60.7299C412.302 60.7299 413.292 61.6899 413.292 64.1199V72.9399H415.992V63.4899C415.992 59.8599 414.312 58.2099 410.622 58.2099C408.522 58.2099 406.812 58.7199 404.532 60.0699L404.232 58.5699H402.192V72.9399ZM425.905 79.0899H427.135C429.955 79.0899 430.945 78.3999 432.055 75.6699L439.015 58.5699H436.165L431.905 69.2499L427.495 58.5699H424.555L430.495 72.6099L429.685 74.5899C428.965 76.3299 428.515 76.7199 427.045 76.7199H425.905V79.0899ZM448.296 73.2999C454.056 73.2999 456.186 71.2299 456.186 65.7699C456.186 60.2799 454.056 58.2099 448.296 58.2099C442.536 58.2099 440.406 60.2799 440.406 65.7699C440.406 71.2299 442.536 73.2999 448.296 73.2999ZM448.296 70.8699C444.426 70.8699 443.136 69.6099 443.136 65.7699C443.136 61.8999 444.426 60.6399 448.296 60.6399C452.166 60.6399 453.456 61.8999 453.456 65.7699C453.456 69.6099 452.166 70.8699 448.296 70.8699ZM465.007 73.2999C467.137 73.2999 468.847 72.7899 471.127 71.4399L471.427 72.9399H473.467V58.5699H470.767V69.0999C468.847 70.2999 467.497 70.7799 465.727 70.7799C463.297 70.7799 462.307 69.8199 462.307 67.3899V58.5699H459.607V68.0199C459.607 71.6499 461.287 73.2999 465.007 73.2999ZM478.013 72.9399H480.713V62.2899C482.573 61.1799 484.193 60.7299 486.173 60.7299H486.773V58.2099H486.143C484.283 58.2099 482.603 58.7499 480.383 60.1299L480.053 58.5699H478.013V72.9399ZM504.197 73.2999C508.787 73.2999 510.647 71.1399 510.647 65.7399C510.647 60.3699 508.787 58.2099 504.197 58.2099C502.127 58.2099 500.357 58.6599 498.437 59.7099V51.7599H495.737V72.9399H497.777L498.047 71.5899C500.117 72.7899 501.977 73.2999 504.197 73.2999ZM503.657 70.8699C501.797 70.8699 500.327 70.3899 498.437 69.1899V62.3199C500.327 61.1199 501.797 60.6399 503.657 60.6399C506.807 60.6399 507.917 61.9899 507.917 65.7699C507.917 69.5199 506.807 70.8699 503.657 70.8699ZM514.249 55.8399H517.249V52.8399H514.249V55.8399ZM514.399 72.9399H517.099V58.5699H514.399V72.9399ZM527.185 72.9399H530.005V70.5699H527.755C525.925 70.5699 525.445 70.1199 525.445 68.1699V60.8499H530.005V58.5699H525.445V54.4599H523.045L522.805 58.5699H519.595V60.8499H522.745V68.4099C522.745 71.7699 523.975 72.9399 527.185 72.9399ZM539.784 73.2999C541.584 73.2999 543.084 73.0599 544.704 72.5499L544.464 70.1199C543.084 70.5999 541.704 70.8399 540.054 70.8399C536.184 70.8399 534.894 69.5199 534.894 65.7399C534.894 61.9599 536.184 60.6699 540.054 60.6699C541.704 60.6699 543.084 60.9099 544.464 61.3899L544.704 58.9599C543.084 58.4499 541.584 58.2099 539.784 58.2099C534.354 58.2099 532.164 60.3699 532.164 65.7699C532.164 71.1699 534.354 73.2999 539.784 73.2999ZM555.112 73.2999C560.872 73.2999 563.002 71.2299 563.002 65.7699C563.002 60.2799 560.872 58.2099 555.112 58.2099C549.352 58.2099 547.222 60.2799 547.222 65.7699C547.222 71.2299 549.352 73.2999 555.112 73.2999ZM555.112 70.8699C551.242 70.8699 549.952 69.6099 549.952 65.7699C549.952 61.8999 551.242 60.6399 555.112 60.6399C558.982 60.6399 560.272 61.8999 560.272 65.7699C560.272 69.6099 558.982 70.8699 555.112 70.8699ZM566.603 55.8399H569.603V52.8399H566.603V55.8399ZM566.753 72.9399H569.453V58.5699H566.753V72.9399ZM574.019 72.9399H576.719V62.4099C578.639 61.2099 579.959 60.7299 581.729 60.7299C584.129 60.7299 585.119 61.6899 585.119 64.1199V72.9399H587.819V63.4899C587.819 59.8599 586.139 58.2099 582.449 58.2099C580.349 58.2099 578.639 58.7199 576.359 60.0699L576.059 58.5699H574.019V72.9399Z" fill="white"/>
</g>
<g filter="url(#filter3_d_378_4)">
<path d="M279.495 244.31C282.575 244.31 284.215 242.69 284.215 239.39V230.11H276.635V232.29H281.615V239.53C281.615 241.25 280.875 242.11 279.435 242.11C278.335 242.11 277.415 241.55 276.655 240.51L275.175 242.29C276.135 243.59 277.735 244.31 279.495 244.31ZM292.422 244.25C295.742 244.25 298.122 241.97 298.122 238.77C298.122 235.57 295.742 233.31 292.422 233.31C289.142 233.31 286.742 235.57 286.742 238.77C286.742 241.97 289.142 244.25 292.422 244.25ZM292.422 242.11C290.622 242.11 289.262 240.81 289.262 238.77C289.262 236.73 290.622 235.43 292.422 235.43C294.242 235.43 295.602 236.73 295.602 238.77C295.602 240.81 294.242 242.11 292.422 242.11ZM301.772 231.67C302.712 231.67 303.372 230.99 303.372 230.11C303.372 229.29 302.692 228.67 301.772 228.67C300.852 228.67 300.172 229.33 300.172 230.17C300.172 231.01 300.852 231.67 301.772 231.67ZM300.512 244.11H303.012V233.43H300.512V244.11ZM312.354 233.31C310.794 233.31 309.494 233.83 308.674 234.81V233.43H306.294V244.11H308.794V238.71C308.794 236.57 309.994 235.49 311.774 235.49C313.374 235.49 314.314 236.41 314.314 238.31V244.11H316.814V237.99C316.814 234.77 314.914 233.31 312.354 233.31ZM331.232 241.75C330.852 242.05 330.352 242.19 329.832 242.19C328.872 242.19 328.352 241.63 328.352 240.59V235.51H331.212V233.51H328.352V231.07H325.852V233.51H324.092V235.51H325.852V240.65C325.852 243.01 327.192 244.25 329.532 244.25C330.432 244.25 331.332 244.01 331.932 243.53L331.232 241.75ZM340.049 233.31C338.569 233.31 337.309 233.79 336.489 234.67V229.27H333.989V244.11H336.489V238.71C336.489 236.57 337.689 235.49 339.469 235.49C341.069 235.49 342.009 236.41 342.009 238.31V244.11H344.509V237.99C344.509 234.77 342.609 233.31 340.049 233.31ZM357.818 238.83C357.818 235.49 355.538 233.31 352.418 233.31C349.238 233.31 346.898 235.59 346.898 238.77C346.898 241.95 349.218 244.25 352.798 244.25C354.638 244.25 356.138 243.65 357.098 242.51L355.758 240.97C354.998 241.75 354.058 242.13 352.858 242.13C350.998 242.13 349.698 241.13 349.398 239.57H357.778C357.798 239.33 357.818 239.03 357.818 238.83ZM352.418 235.31C354.058 235.31 355.238 236.37 355.438 237.91H349.378C349.618 236.35 350.798 235.31 352.418 235.31ZM380.187 233.43L377.287 241.35L374.407 233.43H372.307L369.367 241.31L366.547 233.43H364.187L368.107 244.11H370.507L373.307 236.75L376.067 244.11H378.467L382.407 233.43H380.187ZM387.874 233.31C386.154 233.31 384.494 233.75 383.354 234.63L384.334 236.45C385.134 235.79 386.374 235.39 387.574 235.39C389.354 235.39 390.234 236.25 390.234 237.71V237.87H387.474C384.234 237.87 383.034 239.27 383.034 241.05C383.034 242.91 384.574 244.25 387.014 244.25C388.614 244.25 389.774 243.73 390.374 242.81V244.11H392.734V237.85C392.734 234.77 390.954 233.31 387.874 233.31ZM387.534 242.43C386.254 242.43 385.494 241.85 385.494 240.95C385.494 240.17 385.954 239.53 387.654 239.53H390.234V240.77C389.814 241.87 388.754 242.43 387.534 242.43ZM397.202 231.67C398.142 231.67 398.802 230.99 398.802 230.11C398.802 229.29 398.122 228.67 397.202 228.67C396.282 228.67 395.602 229.33 395.602 230.17C395.602 231.01 396.282 231.67 397.202 231.67ZM395.942 244.11H398.442V233.43H395.942V244.11ZM407.443 241.75C407.063 242.05 406.563 242.19 406.043 242.19C405.083 242.19 404.563 241.63 404.563 240.59V235.51H407.423V233.51H404.563V231.07H402.063V233.51H400.303V235.51H402.063V240.65C402.063 243.01 403.403 244.25 405.743 244.25C406.643 244.25 407.543 244.01 408.143 243.53L407.443 241.75ZM410.2 244.11H412.7V229.27H410.2V244.11ZM417.241 231.67C418.181 231.67 418.841 230.99 418.841 230.11C418.841 229.29 418.161 228.67 417.241 228.67C416.321 228.67 415.641 229.33 415.641 230.17C415.641 231.01 416.321 231.67 417.241 231.67ZM415.981 244.11H418.481V233.43H415.981V244.11ZM425.062 244.25C428.062 244.25 429.902 242.95 429.902 240.95C429.902 236.77 423.302 238.69 423.302 236.53C423.302 235.83 424.022 235.33 425.542 235.33C426.562 235.33 427.582 235.53 428.602 236.13L429.562 234.23C428.602 233.65 426.982 233.31 425.562 233.31C422.682 233.31 420.862 234.63 420.862 236.65C420.862 240.91 427.462 238.99 427.462 241.03C427.462 241.77 426.802 242.21 425.222 242.21C423.882 242.21 422.442 241.77 421.502 241.15L420.542 243.05C421.502 243.73 423.282 244.25 425.062 244.25ZM437.775 241.75C437.395 242.05 436.895 242.19 436.375 242.19C435.415 242.19 434.895 241.63 434.895 240.59V235.51H437.755V233.51H434.895V231.07H432.395V233.51H430.635V235.51H432.395V240.65C432.395 243.01 433.735 244.25 436.075 244.25C436.975 244.25 437.875 244.01 438.475 243.53L437.775 241.75Z" fill="#F6C143"/>
<rect x="234" y="213.914" width="246.327" height="48.0226" rx="9" stroke="#F6C143" stroke-width="2"/>
</g>
<defs>
<filter id="filter0_d_378_4" x="242" y="110.229" width="231.115" height="65.7762" filterUnits="userSpaceOnUse" color-interpolation-filters="sRGB">
<feFlood flood-opacity="0" result="BackgroundImageFix"/>
<feColorMatrix in="SourceAlpha" type="matrix" values="0 0 0 0 0 0 0 0 0 0 0 0 0 0 0 0 0 0 127 0" result="hardAlpha"/>
<feOffset dy="4"/>
<feGaussianBlur stdDeviation="5"/>
<feComposite in2="hardAlpha" operator="out"/>
<feColorMatrix type="matrix" values="0 0 0 0 0 0 0 0 0 0 0 0 0 0 0 0 0 0 0.15 0"/>
<feBlend mode="normal" in2="BackgroundImageFix" result="effect1_dropShadow_378_4"/>
<feBlend mode="normal" in="SourceGraphic" in2="effect1_dropShadow_378_4" result="shape"/>
</filter>
<filter id="filter1_f_378_4" x="249.338" y="29.687" width="216.412" height="216.112" filterUnits="userSpaceOnUse" color-interpolation-filters="sRGB">
<feFlood flood-opacity="0" result="BackgroundImageFix"/>
<feBlend mode="normal" in="SourceGraphic" in2="BackgroundImageFix" result="shape"/>
<feGaussianBlur stdDeviation="22.5" result="effect1_foregroundBlur_378_4"/>
</filter>
<filter id="filter2_d_378_4" x="123.398" y="51.7599" width="468.421" height="35.3301" filterUnits="userSpaceOnUse" color-interpolation-filters="sRGB">
<feFlood flood-opacity="0" result="BackgroundImageFix"/>
<feColorMatrix in="SourceAlpha" type="matrix" values="0 0 0 0 0 0 0 0 0 0 0 0 0 0 0 0 0 0 127 0" result="hardAlpha"/>
<feOffset dy="4"/>
<feGaussianBlur stdDeviation="2"/>
<feComposite in2="hardAlpha" operator="out"/>
<feColorMatrix type="matrix" values="0 0 0 0 0 0 0 0 0 0 0 0 0 0 0 0 0 0 0.15 0"/>
<feBlend mode="normal" in2="BackgroundImageFix" result="effect1_dropShadow_378_4"/>
<feBlend mode="normal" in="SourceGraphic" in2="effect1_dropShadow_378_4" result="shape"/>
</filter>
<filter id="filter3_d_378_4" x="229" y="212.914" width="256.327" height="58.0226" filterUnits="userSpaceOnUse" color-interpolation-filters="sRGB">
<feFlood flood-opacity="0" result="BackgroundImageFix"/>
<feColorMatrix in="SourceAlpha" type="matrix" values="0 0 0 0 0 0 0 0 0 0 0 0 0 0 0 0 0 0 127 0" result="hardAlpha"/>
<feOffset dy="4"/>
<feGaussianBlur stdDeviation="2"/>
<feComposite in2="hardAlpha" operator="out"/>
<feColorMatrix type="matrix" values="0 0 0 0 0 0 0 0 0 0 0 0 0 0 0 0 0 0 0.25 0"/>
<feBlend mode="normal" in2="BackgroundImageFix" result="effect1_dropShadow_378_4"/>
<feBlend mode="normal" in="SourceGraphic" in2="effect1_dropShadow_378_4" result="shape"/>
</filter>
<radialGradient id="paint0_radial_378_4" cx="0" cy="0" r="1" gradientUnits="userSpaceOnUse" gradientTransform="translate(357.5 144) rotate(90) scale(227.081 357.5)">
<stop stop-color="#35CBC2"/>
<stop offset="1"/>
</radialGradient>
</defs>
</svg>
