<svg width="327" height="158" viewBox="0 0 327 158" fill="none" xmlns="http://www.w3.org/2000/svg">
<rect x="0.5" y="13.5" width="326" height="131" rx="9.5" fill="url(#paint0_radial_378_19)" stroke="#1E9891"/>
<circle opacity="0.3" cx="163.75" cy="78.75" r="46.75" fill="#1D1D1D"/>
<g filter="url(#filter0_d_378_19)">
<path d="M109.424 89.4776C108.773 89.4776 108.201 89.298 107.707 88.9389C107.236 88.5573 107 88.0073 107 87.2891C107 86.6606 107.292 86.0545 107.875 85.4709L124.138 69.074H107.303V65H128.717C129.345 65 129.906 65.1908 130.4 65.5724C130.894 65.9315 131.141 66.4702 131.141 67.1885C131.141 67.817 130.849 68.423 130.265 69.0066L114.003 85.4036H131.04V89.4776H109.424Z" fill="white"/>
<path d="M134.769 89.4776V65H156.62V69.276H139.011V85.2016H156.654V89.4776H134.769ZM142.143 78.8381V75.2355H155.711V78.8381H142.143Z" fill="white"/>
<path d="M183.044 89.4776L176.849 82.6764H167.69V78.9054H177.892C179.441 78.9054 180.608 78.4902 181.394 77.6597C182.179 76.8067 182.572 75.5834 182.572 73.9897C182.572 72.396 182.157 71.2176 181.327 70.4544C180.518 69.6688 179.374 69.276 177.892 69.276H164.559V89.4776H160.317V65H177.892C179.284 65 180.53 65.2132 181.63 65.6397C182.729 66.0437 183.661 66.6386 184.424 67.4242C185.187 68.1874 185.771 69.1189 186.175 70.2187C186.579 71.3186 186.781 72.5531 186.781 73.9224C186.781 75.965 186.332 77.6821 185.434 79.0738C184.559 80.443 183.324 81.4306 181.731 82.0367L189.104 89.4776H183.044Z" fill="white"/>
<path d="M201.942 89.4776C200.236 89.4776 198.654 89.1633 197.195 88.5348C195.758 87.8839 194.501 87.0085 193.424 85.9086C192.369 84.7863 191.538 83.462 190.932 81.9357C190.349 80.4093 190.057 78.7595 190.057 76.9863C190.057 75.1906 190.349 73.552 190.932 72.0706C191.538 70.5891 192.369 69.3321 193.424 68.2996C194.501 67.2446 195.758 66.4366 197.195 65.8754C198.654 65.2918 200.236 65 201.942 65H207.902C209.675 65 211.291 65.2918 212.75 65.8754C214.231 66.459 215.5 67.2783 216.555 68.3333C217.61 69.3882 218.429 70.6564 219.012 72.1379C219.596 73.5969 219.888 75.213 219.888 76.9863C219.888 78.7595 219.585 80.4093 218.979 81.9357C218.395 83.462 217.565 84.7863 216.487 85.9086C215.432 87.0085 214.175 87.8839 212.716 88.5348C211.257 89.1633 209.652 89.4776 207.902 89.4776H201.942ZM207.902 85.2016C209.024 85.2016 210.056 84.9996 210.999 84.5955C211.942 84.1915 212.75 83.6416 213.423 82.9457C214.119 82.2275 214.658 81.3745 215.039 80.3869C215.421 79.3992 215.612 78.333 215.612 77.1883C215.612 76.0435 215.421 74.9886 215.039 74.0234C214.658 73.0357 214.119 72.194 213.423 71.4982C212.75 70.8023 211.942 70.2636 210.999 69.882C210.056 69.478 209.024 69.276 207.902 69.276H201.942C200.842 69.276 199.821 69.478 198.878 69.882C197.958 70.2636 197.161 70.8023 196.488 71.4982C195.814 72.194 195.287 73.0245 194.905 73.9897C194.524 74.9549 194.333 76.0211 194.333 77.1883C194.333 78.333 194.524 79.3992 194.905 80.3869C195.287 81.3745 195.814 82.2275 196.488 82.9457C197.161 83.6416 197.958 84.1915 198.878 84.5955C199.821 84.9996 200.842 85.2016 201.942 85.2016H207.902Z" fill="white"/>
</g>
<g opacity="0.3">
<g filter="url(#filter1_f_378_19)">
<path d="M147.381 105.872C146.466 106.792 145.59 107.677 144.707 108.555C144.149 109.112 143.576 109.645 143.02 110.201C142.339 110.883 141.669 111.575 140.995 112.265C140.779 112.488 140.659 112.493 140.437 112.27C139.844 111.668 139.257 111.062 138.662 110.459C137.815 109.606 136.964 108.759 136.114 107.91L133.598 105.391C132.717 104.51 131.835 103.629 130.954 102.748C130.651 102.446 130.343 102.149 130 101.813C130.206 101.587 130.378 101.389 130.558 101.201C130.889 100.862 131.224 100.526 131.562 100.193C131.753 100.007 131.955 99.8314 132.144 99.6437C133.09 98.7023 134.031 97.7553 134.978 96.8148C135.472 96.3241 135.977 95.8437 136.492 95.3437C131.983 87.8228 130.541 79.8167 132.419 71.2587C133.814 64.917 136.934 59.5223 141.618 55.0886C146.89 50.0963 153.203 47.1903 160.438 46.4803C167.656 45.7722 174.381 47.3632 180.562 51.1697C180.597 51.1604 180.633 51.1613 180.655 51.1427C181.351 50.455 182.046 49.7658 182.74 49.075C182.961 48.8566 183.183 48.6391 183.402 48.4189C184.358 47.4654 185.312 46.5113 186.265 45.5566C186.401 45.42 186.517 45.2639 186.654 45.1282C186.821 44.9618 186.945 44.9553 187.112 45.1207C187.599 45.5993 188.076 46.0872 188.556 46.5714C188.849 46.866 189.144 47.1587 189.435 47.4552C189.664 47.6875 189.885 47.9273 190.116 48.1578C191.027 49.0722 191.94 49.9851 192.854 50.8964C193.609 51.651 194.361 52.4084 195.12 53.1593C195.771 53.8098 196.438 54.4446 197.09 55.0914C197.257 55.2568 197.403 55.4436 197.595 55.6629L191.199 62.0538C195.049 68.7238 196.384 75.8507 195.203 83.4345C194.22 89.7353 191.518 95.2369 187.22 99.915C182.128 105.457 175.808 108.873 168.357 109.952C160.944 111.024 153.914 109.708 147.381 105.872ZM146.422 85.3341C146.777 84.9939 147.102 84.6928 147.416 84.3806C148.194 83.6086 148.969 82.8342 149.74 82.0573C150.601 81.1986 151.461 80.3393 152.32 79.4794L154.803 76.9972L157.383 74.4193L159.8 72.003L162.411 69.3935C163.248 68.5571 164.091 67.7208 164.922 66.8788C165.507 66.2887 166.076 65.6846 166.662 65.0982C167.324 64.4384 168 63.7972 168.664 63.1383C169.129 62.6811 169.591 62.2195 170.048 61.7536C170.241 61.5566 170.415 61.3401 170.606 61.1226C164.504 58.5252 156.346 59.3569 150.502 65.1373C145.478 70.1184 143.39 77.9906 146.422 85.3378V85.3341ZM181.094 72.0449L157.424 95.8019C162.752 97.8464 170.979 97.4932 177.105 91.1125C182.215 85.7913 183.449 78.1421 181.094 72.0523V72.0449Z" fill="white" fill-opacity="0.7"/>
</g>
<path d="M147.381 105.872C146.466 106.792 145.59 107.677 144.707 108.555C144.149 109.112 143.576 109.645 143.02 110.201C142.339 110.883 141.669 111.575 140.995 112.265C140.779 112.488 140.659 112.493 140.437 112.27C139.844 111.668 139.257 111.062 138.662 110.459C137.815 109.606 136.964 108.759 136.114 107.91L133.598 105.391C132.717 104.51 131.835 103.629 130.954 102.748C130.651 102.446 130.343 102.149 130 101.813C130.206 101.587 130.378 101.389 130.558 101.201C130.889 100.862 131.224 100.526 131.562 100.193C131.753 100.007 131.955 99.8314 132.144 99.6437C133.09 98.7023 134.031 97.7553 134.978 96.8148C135.472 96.3241 135.977 95.8437 136.492 95.3437C131.983 87.8228 130.541 79.8167 132.419 71.2587C133.814 64.917 136.934 59.5223 141.618 55.0886C146.89 50.0963 153.203 47.1903 160.438 46.4803C167.656 45.7722 174.381 47.3632 180.562 51.1697C180.597 51.1604 180.633 51.1613 180.655 51.1427C181.351 50.455 182.046 49.7658 182.74 49.075C182.961 48.8566 183.183 48.6391 183.402 48.4189C184.358 47.4654 185.312 46.5113 186.265 45.5566C186.401 45.42 186.517 45.2639 186.654 45.1282C186.821 44.9618 186.945 44.9553 187.112 45.1207C187.599 45.5993 188.076 46.0872 188.556 46.5714C188.849 46.866 189.144 47.1587 189.435 47.4552C189.664 47.6875 189.885 47.9273 190.116 48.1578C191.027 49.0722 191.94 49.9851 192.854 50.8964C193.609 51.651 194.361 52.4084 195.12 53.1593C195.771 53.8098 196.438 54.4446 197.09 55.0914C197.257 55.2568 197.403 55.4436 197.595 55.6629L191.199 62.0538C195.049 68.7238 196.384 75.8507 195.203 83.4345C194.22 89.7353 191.518 95.2369 187.22 99.915C182.128 105.457 175.808 108.873 168.357 109.952C160.944 111.024 153.914 109.708 147.381 105.872ZM146.422 85.3341C146.777 84.9939 147.102 84.6928 147.416 84.3806C148.194 83.6086 148.969 82.8342 149.74 82.0573C150.601 81.1986 151.461 80.3393 152.32 79.4794L154.803 76.9972L157.383 74.4193L159.8 72.003L162.411 69.3935C163.248 68.5571 164.091 67.7208 164.922 66.8788C165.507 66.2887 166.076 65.6846 166.662 65.0982C167.324 64.4384 168 63.7972 168.664 63.1383C169.129 62.6811 169.591 62.2195 170.048 61.7536C170.241 61.5566 170.415 61.3401 170.606 61.1226C164.504 58.5252 156.346 59.3569 150.502 65.1373C145.478 70.1184 143.39 77.9906 146.422 85.3378V85.3341ZM181.094 72.0449L157.424 95.8019C162.752 97.8464 170.979 97.4932 177.105 91.1125C182.215 85.7913 183.449 78.1421 181.094 72.0523V72.0449Z" fill="white"/>
</g>
<g filter="url(#filter2_d_378_19)">
<path d="M30.5436 47.216C34.5396 47.216 35.8536 45.65 35.8536 40.97C35.8536 36.29 34.5396 34.724 30.5436 34.724C26.5476 34.724 25.2336 36.29 25.2336 40.97C25.2336 45.65 26.5476 47.216 30.5436 47.216ZM30.5436 45.722C27.7176 45.722 26.9076 44.624 26.9076 40.97C26.9076 37.316 27.7176 36.218 30.5436 36.218C33.3696 36.218 34.1796 37.316 34.1796 40.97C34.1796 44.624 33.3696 45.722 30.5436 45.722ZM40.6141 41.708C42.9901 41.708 43.9261 40.7 43.9261 38.216C43.9261 35.732 42.9901 34.724 40.6141 34.724C38.2381 34.724 37.2841 35.732 37.2841 38.216C37.2841 40.7 38.2381 41.708 40.6141 41.708ZM40.0561 47.216H41.6221L49.7041 34.724H48.1381L40.0561 47.216ZM40.6141 40.376C39.2821 40.376 38.8321 39.818 38.8321 38.216C38.8321 36.596 39.2821 36.056 40.6141 36.056C41.9281 36.056 42.3781 36.596 42.3781 38.216C42.3781 39.818 41.9281 40.376 40.6141 40.376ZM49.1461 47.216C51.5221 47.216 52.4761 46.208 52.4761 43.742C52.4761 41.24 51.5221 40.232 49.1461 40.232C46.7701 40.232 45.8341 41.24 45.8341 43.742C45.8341 46.208 46.7701 47.216 49.1461 47.216ZM49.1461 45.884C47.8321 45.884 47.3821 45.344 47.3821 43.742C47.3821 42.122 47.8321 41.564 49.1461 41.564C50.4781 41.564 50.9281 42.122 50.9281 43.742C50.9281 45.344 50.4781 45.884 49.1461 45.884ZM58.1843 36.74H59.9843V34.94H58.1843V36.74ZM58.2743 47H59.8943V38.378H58.2743V47ZM62.6336 47H64.2536V40.682C65.4056 39.962 66.1976 39.674 67.2596 39.674C68.6996 39.674 69.2936 40.25 69.2936 41.708V47H70.9136V41.33C70.9136 39.152 69.9056 38.162 67.6916 38.162C66.4316 38.162 65.4056 38.468 64.0376 39.278L63.8576 38.378H62.6336V47ZM76.7562 47H78.4482V45.578H77.0982C76.0002 45.578 75.7122 45.308 75.7122 44.138V39.746H78.4482V38.378H75.7122V35.912H74.2722L74.1282 38.378H72.2022V39.746H74.0922V44.282C74.0922 46.298 74.8302 47 76.7562 47ZM84.8193 47.216C86.1693 47.216 87.0873 47.072 88.3293 46.658L88.1853 45.164C87.0693 45.596 86.1693 45.758 84.8373 45.758C82.4073 45.758 81.5433 45.218 81.3993 43.31H88.7793C88.8153 42.968 88.8333 42.518 88.8333 42.176C88.8333 39.314 87.5733 38.162 84.3693 38.162C81.0213 38.162 79.7433 39.422 79.7433 42.716C79.7433 46.1 81.1113 47.216 84.8193 47.216ZM81.4173 41.924C81.5613 40.196 82.3533 39.62 84.3873 39.62C86.3853 39.62 87.1053 40.16 87.2313 41.924H81.4173ZM90.9871 47H92.6071V40.61C93.7231 39.944 94.6951 39.674 95.8831 39.674H96.2431V38.162H95.8651C94.7491 38.162 93.7411 38.486 92.4091 39.314L92.2111 38.378H90.9871V47ZM102.257 47.216C103.607 47.216 104.525 47.072 105.767 46.658L105.623 45.164C104.507 45.596 103.607 45.758 102.275 45.758C99.8448 45.758 98.9808 45.218 98.8368 43.31H106.217C106.253 42.968 106.271 42.518 106.271 42.176C106.271 39.314 105.011 38.162 101.807 38.162C98.4588 38.162 97.1808 39.422 97.1808 42.716C97.1808 46.1 98.5488 47.216 102.257 47.216ZM98.8548 41.924C98.9988 40.196 99.7908 39.62 101.825 39.62C103.823 39.62 104.543 40.16 104.669 41.924H98.8548ZM111.877 47.216C115.027 47.216 116.071 46.514 116.071 44.516C116.071 42.752 115.261 42.176 112.957 41.942L111.715 41.816C110.005 41.636 109.609 41.456 109.609 40.754C109.609 39.872 110.203 39.62 112.021 39.62C113.407 39.62 114.325 39.782 115.495 40.124L115.639 38.612C114.523 38.27 113.443 38.162 112.219 38.162C109.123 38.162 108.025 38.846 108.025 40.826C108.025 42.5 108.799 43.076 111.175 43.31L112.417 43.436C114.109 43.598 114.487 43.832 114.487 44.57C114.487 45.506 113.893 45.758 112.003 45.758C110.329 45.758 109.285 45.542 108.061 45.128L107.917 46.658C109.069 47.036 110.275 47.216 111.877 47.216ZM121.317 47H123.009V45.578H121.659C120.561 45.578 120.273 45.308 120.273 44.138V39.746H123.009V38.378H120.273V35.912H118.833L118.689 38.378H116.763V39.746H118.653V44.282C118.653 46.298 119.391 47 121.317 47ZM128.657 47H130.277V34.292H128.657V47ZM137.264 47.216C140.72 47.216 141.998 45.974 141.998 42.698C141.998 39.404 140.72 38.162 137.264 38.162C133.808 38.162 132.53 39.404 132.53 42.698C132.53 45.974 133.808 47.216 137.264 47.216ZM137.264 45.758C134.942 45.758 134.168 45.002 134.168 42.698C134.168 40.376 134.942 39.62 137.264 39.62C139.586 39.62 140.36 40.376 140.36 42.698C140.36 45.002 139.586 45.758 137.264 45.758ZM146.715 47.216C148.083 47.216 149.289 46.874 150.675 46.01L150.891 47H152.115V41.672C152.115 39.008 151.071 38.162 147.813 38.162C146.481 38.162 145.491 38.306 144.321 38.648L144.465 40.16C145.455 39.8 146.355 39.62 147.669 39.62C149.847 39.62 150.495 40.124 150.495 41.78V41.996C149.199 41.852 148.173 41.798 147.399 41.798C144.591 41.798 143.529 42.518 143.529 44.48C143.529 46.352 144.501 47.216 146.715 47.216ZM147.111 45.758C145.779 45.758 145.167 45.362 145.167 44.426C145.167 43.562 145.689 43.184 147.417 43.184C148.011 43.184 149.109 43.22 150.495 43.382V44.624C149.235 45.416 148.335 45.758 147.111 45.758ZM154.655 47H156.275V40.682C157.427 39.962 158.219 39.674 159.281 39.674C160.721 39.674 161.315 40.25 161.315 41.708V47H162.935V41.33C162.935 39.152 161.927 38.162 159.713 38.162C158.453 38.162 157.427 38.468 156.059 39.278L155.879 38.378H154.655V47ZM168.778 47.216C171.928 47.216 172.972 46.514 172.972 44.516C172.972 42.752 172.162 42.176 169.858 41.942L168.616 41.816C166.906 41.636 166.51 41.456 166.51 40.754C166.51 39.872 167.104 39.62 168.922 39.62C170.308 39.62 171.226 39.782 172.396 40.124L172.54 38.612C171.424 38.27 170.344 38.162 169.12 38.162C166.024 38.162 164.926 38.846 164.926 40.826C164.926 42.5 165.7 43.076 168.076 43.31L169.318 43.436C171.01 43.598 171.388 43.832 171.388 44.57C171.388 45.506 170.794 45.758 168.904 45.758C167.23 45.758 166.186 45.542 164.962 45.128L164.818 46.658C165.97 47.036 167.176 47.216 168.778 47.216ZM183.126 47.216C186.582 47.216 187.86 45.974 187.86 42.698C187.86 39.404 186.582 38.162 183.126 38.162C179.67 38.162 178.392 39.404 178.392 42.698C178.392 45.974 179.67 47.216 183.126 47.216ZM183.126 45.758C180.804 45.758 180.03 45.002 180.03 42.698C180.03 40.376 180.804 39.62 183.126 39.62C185.448 39.62 186.222 40.376 186.222 42.698C186.222 45.002 185.448 45.758 183.126 45.758ZM190.11 47H191.73V40.682C192.882 39.962 193.674 39.674 194.736 39.674C196.176 39.674 196.77 40.25 196.77 41.708V47H198.39V41.33C198.39 39.152 197.382 38.162 195.168 38.162C193.908 38.162 192.882 38.468 191.514 39.278L191.334 38.378H190.11V47ZM204.338 50.69H205.076C206.768 50.69 207.362 50.276 208.028 48.638L212.204 38.378H210.494L207.938 44.786L205.292 38.378H203.528L207.092 46.802L206.606 47.99C206.174 49.034 205.904 49.268 205.022 49.268H204.338V50.69ZM217.772 47.216C221.228 47.216 222.506 45.974 222.506 42.698C222.506 39.404 221.228 38.162 217.772 38.162C214.316 38.162 213.038 39.404 213.038 42.698C213.038 45.974 214.316 47.216 217.772 47.216ZM217.772 45.758C215.45 45.758 214.676 45.002 214.676 42.698C214.676 40.376 215.45 39.62 217.772 39.62C220.094 39.62 220.868 40.376 220.868 42.698C220.868 45.002 220.094 45.758 217.772 45.758ZM227.799 47.216C229.077 47.216 230.103 46.91 231.471 46.1L231.651 47H232.875V38.378H231.255V44.696C230.103 45.416 229.293 45.704 228.231 45.704C226.773 45.704 226.179 45.128 226.179 43.67V38.378H224.559V44.048C224.559 46.226 225.567 47.216 227.799 47.216ZM235.602 47H237.222V40.61C238.338 39.944 239.31 39.674 240.498 39.674H240.858V38.162H240.48C239.364 38.162 238.356 38.486 237.024 39.314L236.826 38.378H235.602V47ZM251.313 47.216C254.067 47.216 255.183 45.92 255.183 42.68C255.183 39.458 254.067 38.162 251.313 38.162C250.071 38.162 249.009 38.432 247.857 39.062V34.292H246.237V47H247.461L247.623 46.19C248.865 46.91 249.981 47.216 251.313 47.216ZM250.989 45.758C249.873 45.758 248.991 45.47 247.857 44.75V40.628C248.991 39.908 249.873 39.62 250.989 39.62C252.879 39.62 253.545 40.43 253.545 42.698C253.545 44.948 252.879 45.758 250.989 45.758ZM257.344 36.74H259.144V34.94H257.344V36.74ZM257.434 47H259.054V38.378H257.434V47ZM265.106 47H266.798V45.578H265.448C264.35 45.578 264.062 45.308 264.062 44.138V39.746H266.798V38.378H264.062V35.912H262.622L262.478 38.378H260.552V39.746H262.442V44.282C262.442 46.298 263.18 47 265.106 47ZM272.665 47.216C273.745 47.216 274.645 47.072 275.617 46.766L275.473 45.308C274.645 45.596 273.817 45.74 272.827 45.74C270.505 45.74 269.731 44.948 269.731 42.68C269.731 40.412 270.505 39.638 272.827 39.638C273.817 39.638 274.645 39.782 275.473 40.07L275.617 38.612C274.645 38.306 273.745 38.162 272.665 38.162C269.407 38.162 268.093 39.458 268.093 42.698C268.093 45.938 269.407 47.216 272.665 47.216ZM281.862 47.216C285.318 47.216 286.596 45.974 286.596 42.698C286.596 39.404 285.318 38.162 281.862 38.162C278.406 38.162 277.128 39.404 277.128 42.698C277.128 45.974 278.406 47.216 281.862 47.216ZM281.862 45.758C279.54 45.758 278.766 45.002 278.766 42.698C278.766 40.376 279.54 39.62 281.862 39.62C284.184 39.62 284.958 40.376 284.958 42.698C284.958 45.002 284.184 45.758 281.862 45.758ZM288.757 36.74H290.557V34.94H288.757V36.74ZM288.847 47H290.467V38.378H288.847V47ZM293.206 47H294.826V40.682C295.978 39.962 296.77 39.674 297.832 39.674C299.272 39.674 299.866 40.25 299.866 41.708V47H301.486V41.33C301.486 39.152 300.478 38.162 298.264 38.162C297.004 38.162 295.978 38.468 294.61 39.278L294.43 38.378H293.206V47Z" fill="white"/>
</g>
<g filter="url(#filter3_d_378_19)">
<path d="M109.632 122.14C111.788 122.14 112.936 121.006 112.936 118.696V112.2H107.63V113.726H111.116V118.794C111.116 119.998 110.598 120.6 109.59 120.6C108.82 120.6 108.176 120.208 107.644 119.48L106.608 120.726C107.28 121.636 108.4 122.14 109.632 122.14ZM118.681 122.098C121.005 122.098 122.671 120.502 122.671 118.262C122.671 116.022 121.005 114.44 118.681 114.44C116.385 114.44 114.705 116.022 114.705 118.262C114.705 120.502 116.385 122.098 118.681 122.098ZM118.681 120.6C117.421 120.6 116.469 119.69 116.469 118.262C116.469 116.834 117.421 115.924 118.681 115.924C119.955 115.924 120.907 116.834 120.907 118.262C120.907 119.69 119.955 120.6 118.681 120.6ZM125.226 113.292C125.884 113.292 126.346 112.816 126.346 112.2C126.346 111.626 125.87 111.192 125.226 111.192C124.582 111.192 124.106 111.654 124.106 112.242C124.106 112.83 124.582 113.292 125.226 113.292ZM124.344 122H126.094V114.524H124.344V122ZM132.633 114.44C131.541 114.44 130.631 114.804 130.057 115.49V114.524H128.391V122H130.141V118.22C130.141 116.722 130.981 115.966 132.227 115.966C133.347 115.966 134.005 116.61 134.005 117.94V122H135.755V117.716C135.755 115.462 134.425 114.44 132.633 114.44ZM145.848 120.348C145.582 120.558 145.232 120.656 144.868 120.656C144.196 120.656 143.832 120.264 143.832 119.536V115.98H145.834V114.58H143.832V112.872H142.082V114.58H140.85V115.98H142.082V119.578C142.082 121.23 143.02 122.098 144.658 122.098C145.288 122.098 145.918 121.93 146.338 121.594L145.848 120.348ZM152.02 114.44C150.984 114.44 150.102 114.776 149.528 115.392V111.612H147.778V122H149.528V118.22C149.528 116.722 150.368 115.966 151.614 115.966C152.734 115.966 153.392 116.61 153.392 117.94V122H155.142V117.716C155.142 115.462 153.812 114.44 152.02 114.44ZM164.458 118.304C164.458 115.966 162.862 114.44 160.678 114.44C158.452 114.44 156.814 116.036 156.814 118.262C156.814 120.488 158.438 122.098 160.944 122.098C162.232 122.098 163.282 121.678 163.954 120.88L163.016 119.802C162.484 120.348 161.826 120.614 160.986 120.614C159.684 120.614 158.774 119.914 158.564 118.822H164.43C164.444 118.654 164.458 118.444 164.458 118.304ZM160.678 115.84C161.826 115.84 162.652 116.582 162.792 117.66H158.55C158.718 116.568 159.544 115.84 160.678 115.84ZM180.116 114.524L178.086 120.068L176.07 114.524H174.6L172.542 120.04L170.568 114.524H168.916L171.66 122H173.34L175.3 116.848L177.232 122H178.912L181.67 114.524H180.116ZM185.497 114.44C184.293 114.44 183.131 114.748 182.333 115.364L183.019 116.638C183.579 116.176 184.447 115.896 185.287 115.896C186.533 115.896 187.149 116.498 187.149 117.52V117.632H185.217C182.949 117.632 182.109 118.612 182.109 119.858C182.109 121.16 183.187 122.098 184.895 122.098C186.015 122.098 186.827 121.734 187.247 121.09V122H188.899V117.618C188.899 115.462 187.653 114.44 185.497 114.44ZM185.259 120.824C184.363 120.824 183.831 120.418 183.831 119.788C183.831 119.242 184.153 118.794 185.343 118.794H187.149V119.662C186.855 120.432 186.113 120.824 185.259 120.824ZM192.027 113.292C192.685 113.292 193.147 112.816 193.147 112.2C193.147 111.626 192.671 111.192 192.027 111.192C191.383 111.192 190.907 111.654 190.907 112.242C190.907 112.83 191.383 113.292 192.027 113.292ZM191.145 122H192.895V114.524H191.145V122ZM199.196 120.348C198.93 120.558 198.58 120.656 198.216 120.656C197.544 120.656 197.18 120.264 197.18 119.536V115.98H199.182V114.58H197.18V112.872H195.43V114.58H194.198V115.98H195.43V119.578C195.43 121.23 196.368 122.098 198.006 122.098C198.636 122.098 199.266 121.93 199.686 121.594L199.196 120.348ZM201.126 122H202.876V111.612H201.126V122ZM206.054 113.292C206.712 113.292 207.174 112.816 207.174 112.2C207.174 111.626 206.698 111.192 206.054 111.192C205.41 111.192 204.934 111.654 204.934 112.242C204.934 112.83 205.41 113.292 206.054 113.292ZM205.172 122H206.922V114.524H205.172V122ZM211.529 122.098C213.629 122.098 214.917 121.188 214.917 119.788C214.917 116.862 210.297 118.206 210.297 116.694C210.297 116.204 210.801 115.854 211.865 115.854C212.579 115.854 213.293 115.994 214.007 116.414L214.679 115.084C214.007 114.678 212.873 114.44 211.879 114.44C209.863 114.44 208.589 115.364 208.589 116.778C208.589 119.76 213.209 118.416 213.209 119.844C213.209 120.362 212.747 120.67 211.641 120.67C210.703 120.67 209.695 120.362 209.037 119.928L208.365 121.258C209.037 121.734 210.283 122.098 211.529 122.098ZM220.428 120.348C220.162 120.558 219.812 120.656 219.448 120.656C218.776 120.656 218.412 120.264 218.412 119.536V115.98H220.414V114.58H218.412V112.872H216.662V114.58H215.43V115.98H216.662V119.578C216.662 121.23 217.6 122.098 219.238 122.098C219.868 122.098 220.498 121.93 220.918 121.594L220.428 120.348Z" fill="#F6C143"/>
<rect x="89" y="103" width="150" height="29" rx="4" stroke="#F6C143" stroke-width="2"/>
</g>
<defs>
<filter id="filter0_d_378_19" x="97" y="59" width="132.888" height="44.4775" filterUnits="userSpaceOnUse" color-interpolation-filters="sRGB">
<feFlood flood-opacity="0" result="BackgroundImageFix"/>
<feColorMatrix in="SourceAlpha" type="matrix" values="0 0 0 0 0 0 0 0 0 0 0 0 0 0 0 0 0 0 127 0" result="hardAlpha"/>
<feOffset dy="4"/>
<feGaussianBlur stdDeviation="5"/>
<feComposite in2="hardAlpha" operator="out"/>
<feColorMatrix type="matrix" values="0 0 0 0 0 0 0 0 0 0 0 0 0 0 0 0 0 0 0.15 0"/>
<feBlend mode="normal" in2="BackgroundImageFix" result="effect1_dropShadow_378_19"/>
<feBlend mode="normal" in="SourceGraphic" in2="effect1_dropShadow_378_19" result="shape"/>
</filter>
<filter id="filter1_f_378_19" x="85" y="0" width="157.595" height="157.435" filterUnits="userSpaceOnUse" color-interpolation-filters="sRGB">
<feFlood flood-opacity="0" result="BackgroundImageFix"/>
<feBlend mode="normal" in="SourceGraphic" in2="BackgroundImageFix" result="shape"/>
<feGaussianBlur stdDeviation="22.5" result="effect1_foregroundBlur_378_19"/>
</filter>
<filter id="filter2_d_378_19" x="21.2336" y="34.292" width="284.252" height="24.3979" filterUnits="userSpaceOnUse" color-interpolation-filters="sRGB">
<feFlood flood-opacity="0" result="BackgroundImageFix"/>
<feColorMatrix in="SourceAlpha" type="matrix" values="0 0 0 0 0 0 0 0 0 0 0 0 0 0 0 0 0 0 127 0" result="hardAlpha"/>
<feOffset dy="4"/>
<feGaussianBlur stdDeviation="2"/>
<feComposite in2="hardAlpha" operator="out"/>
<feColorMatrix type="matrix" values="0 0 0 0 0 0 0 0 0 0 0 0 0 0 0 0 0 0 0.15 0"/>
<feBlend mode="normal" in2="BackgroundImageFix" result="effect1_dropShadow_378_19"/>
<feBlend mode="normal" in="SourceGraphic" in2="effect1_dropShadow_378_19" result="shape"/>
</filter>
<filter id="filter3_d_378_19" x="84" y="102" width="160" height="39" filterUnits="userSpaceOnUse" color-interpolation-filters="sRGB">
<feFlood flood-opacity="0" result="BackgroundImageFix"/>
<feColorMatrix in="SourceAlpha" type="matrix" values="0 0 0 0 0 0 0 0 0 0 0 0 0 0 0 0 0 0 127 0" result="hardAlpha"/>
<feOffset dy="4"/>
<feGaussianBlur stdDeviation="2"/>
<feComposite in2="hardAlpha" operator="out"/>
<feColorMatrix type="matrix" values="0 0 0 0 0 0 0 0 0 0 0 0 0 0 0 0 0 0 0.25 0"/>
<feBlend mode="normal" in2="BackgroundImageFix" result="effect1_dropShadow_378_19"/>
<feBlend mode="normal" in="SourceGraphic" in2="effect1_dropShadow_378_19" result="shape"/>
</filter>
<radialGradient id="paint0_radial_378_19" cx="0" cy="0" r="1" gradientUnits="userSpaceOnUse" gradientTransform="translate(163.5 79) rotate(90) scale(104.079 163.5)">
<stop stop-color="#35CBC2"/>
<stop offset="1"/>
</radialGradient>
</defs>
</svg>
