<?xml version="1.0" encoding="utf-8"?>
<!-- Generator: Adobe Illustrator 22.0.0, SVG Export Plug-In . SVG Version: 6.00 Build 0)  -->
<svg version="1.1" id="Capa_1" xmlns="http://www.w3.org/2000/svg" xmlns:xlink="http://www.w3.org/1999/xlink" x="0px" y="0px"
	 viewBox="0 0 279 214.8" style="enable-background:new 0 0 279 214.8;" xml:space="preserve">
<style type="text/css">
	.st0_logobtc{clip-path:url(#SVGID_2_);fill:#FF9931;}
	.st1_logobtc{clip-path:url(#SVGID_2_);fill:#FFFFFF;}
	.st2_logobtc{clip-path:url(#SVGID_2_);fill:#006E3C;}
	.st3_logobtc{clip-path:url(#SVGID_2_);fill:#06B23C;}
</style>
<title>btc-logo</title>
<g>
	<defs>
		<rect id="SVGID_1_" x="8.8" y="-13.9" width="258" height="240"/>
	</defs>
	<clipPath id="SVGID_2_">
		<use xlink:href="#SVGID_1_"  style="overflow:visible;"/>
	</clipPath>
	<path class="st0_logobtc" d="M127.6,216.6c-60.9,0-110.4-49.5-110.4-110.4C17.2,45.3,66.7-4.3,127.6-4.3S238,45.3,238,106.2
		C238,167,188.5,216.6,127.6,216.6"/>
	<path class="st1_logobtc" d="M127.6,3.1c56.9,0,103.1,46.2,103.1,103.1c0,56.9-46.2,103.1-103.1,103.1c-56.9,0-103.1-46.2-103.1-103.1
		C24.5,49.2,70.7,3.1,127.6,3.1 M127.6-11.6C62.7-11.6,9.8,41.2,9.8,106.2c0,64.9,52.8,117.8,117.8,117.8s117.8-52.8,117.8-117.8
		C245.4,41.2,192.5-11.6,127.6-11.6"/>
	<path class="st2_logobtc" d="M250.5,40.9c-5.4-2.3-13.4-5-22-5.3c-7.1-0.3-13.5,1.1-19,4.1c-1.1,0.6-2.2,1.3-3.2,2
		c-8.8,6.2-13.3,15.9-15.6,23.4l-1,3.2l2.9-1.6l15.5-8.3c1-0.5,2.1-0.8,3.2-0.7c2.2,0.1,4.1,1.3,5.2,3.2c0,0,0,0,0,0.1l0.1,0.2
		c0.1,0.2,0.2,0.4,0.3,0.6l35.7-19.8C252.4,41.6,250.8,41,250.5,40.9"/>
	<path class="st3_logobtc" d="M244.8,64.8c-17.7,29.3-49.2,14.7-49.2,14.7l11.4-6.1c1-0.6,7.2-3.8,7.2-3.8c5.5-3.5,2.3-8.8,2.6-8.3l36-19.5
		C252.7,41.8,252,52.9,244.8,64.8"/>
	<path class="st1_logobtc" d="M262.4,32.6c-1.6-0.9-16-9.1-33.4-9.7c-9.3-0.3-17.8,1.5-25.3,5.6c-2.5,1.4-4.8,2.9-6.9,4.5
		C181,45.6,176.9,66,175.9,75l-0.1,0.7l-0.6,0.4l-4.6,2.5c-4.4-4.5-11-7.9-16.1-9.2c-0.3-0.1-0.6-0.2-0.9-0.2l4.6-18.4l-11-2.8
		l-4.6,18.3c-2.9-0.8-5.6-1.5-8.3-2.2l4.6-18.2l-11-2.8L123.4,61c-13.3-3.5-21.9-5.6-21.9-5.6s-1.8,9.2-2.6,11.4
		c0,0,2.3,0.5,4.7,1.3c1.6,0.5,9.5,1.3,6.8,11c-1.5,5.5-10,42.1-10.7,44.6c-0.8,2.9-1.6,4.5-5.2,3.7c-5.6-1.3-8.8-2-8.8-2l-5.5,13.1
		c2,0.7,8.9,2.3,22,5.6l-4.5,18.1l11,2.8l4.5-18.1c2.6,0.7,5.4,1.4,8.3,2.2l-4.5,18.1l11,2.8l4.6-18.4c12.8,2.4,20.1,1.6,21.9,1.3
		c10.7-2,15.2-10.2,17.2-18c5.5-22.1-12.6-24-10.3-24.5c10.2-2.1,15-11.8,14.5-20.4l5.2-2.8l0.6-0.4l0.6,0.3
		c6.8,3.5,17.4,7.8,29.5,8.3c7.7,0.3,14.9-1.1,21.5-4.1c0.9-0.4,1.8-0.9,2.7-1.4c25.9-13.9,29.3-47.8,29.5-51.7l0.3-3.9L262.4,32.6z
		 M149.8,130.4c-3,12-23.4,6-23.4,6l-9.7-2.5l6-24l11.6,3C134.4,112.8,153.2,116.9,149.8,130.4 M153.5,94.6
		c-2.8,11-19.7,5.9-19.7,5.9l-8.1-2.1l5.5-22.1l9.6,2.5C140.8,78.9,156.6,82.2,153.5,94.6 M252.3,42.7l0,0.1
		c-1.8,10-7.1,28-22.2,36.1c-0.1,0.1-0.3,0.1-0.4,0.2c-5.2,2.7-11.1,4-17.5,3.7c-4.3-0.1-8.8-1-13.4-2.4l-3.2-1l2.9-1.6l15.6-8.4
		c1.5-0.8,2.5-2.1,3-3.7c0.2-0.6,0.2-1.1,0.3-1.6c0-0.9-0.1-1.8-0.4-2.6c-0.1-0.2-0.2-0.4-0.3-0.6l-0.1-0.2c0,0,0,0,0-0.1
		c-1.1-1.9-3-3.1-5.2-3.2c-1.1,0-2.2,0.2-3.2,0.7l-15.5,8.3l-2.9,1.6l1-3.2c2.3-7.5,6.8-17.2,15.6-23.4c1-0.7,2.1-1.4,3.2-2
		c5.5-3,11.9-4.3,19-4.1c8.6,0.3,16.5,2.9,22,5.3c0.3,0.2,0.7,0.3,1,0.4l1,0.5L252.3,42.7z"/>
</g>
</svg>
