<svg width="58" height="79" viewBox="0 0 58 79" fill="none" xmlns="http://www.w3.org/2000/svg">
<path d="M46.4939 36.2592C50.7158 34.1255 53.3574 30.3678 52.7403 24.1076C51.9094 15.5524 44.4632 12.6837 35.0635 11.8667L35.0617 0H27.7788L27.7767 11.5546C25.8605 11.5546 23.9072 11.592 21.9626 11.6307L21.9611 0.00157499L14.6847 0.000900042L14.6833 11.8647C13.1063 11.8966 11.5577 11.927 10.0455 11.927V11.8919L0 11.8879L0.00135977 19.6013C0.00135977 19.6013 5.37968 19.501 5.29108 19.5984C8.23993 19.6004 9.20279 21.2992 9.4797 22.7655L9.48197 36.2842V55.2735C9.35212 56.1937 8.80577 57.6641 6.74386 57.6668C6.83768 57.7487 1.44599 57.6659 1.44599 57.6659L0.00135977 66.2913H9.47744C11.2432 66.2933 12.9781 66.3205 14.6801 66.334L14.6865 78.3351L21.9611 78.3371L21.959 66.4618C23.9604 66.5023 25.8923 66.5199 27.7792 66.5174L27.7772 78.3371H35.0599L35.064 66.3561C47.3058 65.6586 55.8762 62.5993 56.9417 51.1945C57.8005 42.0124 53.4442 37.9138 46.4939 36.2592ZM22.1367 20.122C26.2442 20.122 39.1622 18.8244 39.164 27.3364C39.1622 35.4969 26.2483 34.5436 22.1367 34.5436V20.122ZM22.1335 57.7253L22.1367 41.8241C27.0718 41.8228 42.5507 40.4154 42.5527 49.7711C42.5548 58.7432 27.0718 57.7217 22.1335 57.7253Z" fill="#E8E8E8"/>
</svg>
