<?xml version="1.0" encoding="utf-8"?>
<!-- Generator: Adobe Illustrator 22.0.0, SVG Export Plug-In . SVG Version: 6.00 Build 0)  -->
<svg version="1.2" baseProfile="tiny" id="Capa_1" xmlns="http://www.w3.org/2000/svg" xmlns:xlink="http://www.w3.org/1999/xlink"
	 x="0px" y="0px" viewBox="0 0 95 95" xml:space="preserve">
<g>
	<path fill="#17A2BD" d="M47.5,91.6c-24.3,0-44.1-19.8-44.1-44.1c0-24.3,19.8-44.1,44.1-44.1s44.1,19.8,44.1,44.1
		C91.6,71.8,71.8,91.6,47.5,91.6"/>
	<path fill="#FFFFFF" d="M47.5,6.4c22.7,0,41.1,18.4,41.1,41.1c0,22.7-18.4,41.1-41.1,41.1c-22.7,0-41.1-18.4-41.1-41.1
		C6.4,24.8,24.8,6.4,47.5,6.4 M47.5,0.5c-25.9,0-47,21.1-47,47c0,25.9,21.1,47,47,47s47-21.1,47-47C94.5,21.6,73.4,0.5,47.5,0.5"/>
	<g>
		<g>
			<path fill="#FFFFFF" d="M43.7,72.9l0.1-3.7c-2.4-0.2-4.7-0.6-7.1-1.2c-2.4-0.6-4.5-1.3-6.3-2c-1.8-0.8-3.2-1.6-4-2.4l3.4-8.3
				c2.3,1.2,4.6,2.2,7,3c2.3,0.8,4.8,1.4,7.5,1.7l0.4-9.7c-0.6-0.1-1.1-0.2-1.6-0.3c-4.1-0.7-7.4-1.6-9.8-2.7
				c-2.5-1.1-4.2-2.6-5.3-4.4c-1.1-1.8-1.6-4-1.6-6.6c0-4,1.6-7.1,4.7-9.2c3.1-2.2,7.4-3.4,12.8-3.8l-0.2-4h8.2l-0.2,4
				c4.3,0.2,7.5,0.7,9.7,1.5c2.2,0.8,3.7,1.4,4.6,1.9l-2.8,8.3c-1.1-0.4-2.6-0.8-4.5-1.4c-1.9-0.5-4.4-1-7.4-1.3l-0.4,9.7
				c0.5,0.1,0.9,0.2,1.3,0.2c3.2,0.5,6.1,1.3,8.6,2.3c2.5,1,4.5,2.4,5.9,4.2c1.4,1.8,2.2,4.2,2.2,7.1c0,4-1.5,7.1-4.4,9.3
				c-2.9,2.2-7.2,3.5-12.7,4l0.1,3.6H43.7z M36.2,37.1c0,1.3,0.8,2.3,2.5,2.9c1.6,0.6,3.7,1.1,6.1,1.4L44.4,32c-0.3,0-0.6,0-0.9,0
				c-2.3,0-4.1,0.5-5.4,1.4C36.9,34.3,36.2,35.5,36.2,37.1z M58.8,55.4c0-1-0.7-1.8-2.2-2.4c-1.5-0.6-3.4-1.1-5.7-1.6l0.5,9.1
				C56.3,60.4,58.8,58.7,58.8,55.4z"/>
		</g>
	</g>
</g>
</svg>
