<svg xmlns="http://www.w3.org/2000/svg" xmlns:xlink="http://www.w3.org/1999/xlink" width="156.334" height="149.54" viewBox="0 0 156.334 149.54">
  <defs>
    <clipPath id="clip-path">
      <path id="Path_6211" data-name="Path 6211" d="M785.338-1232.739l-7.4,10.474,12.96,18.9,1.764-3.491,60.672-119.1Zm-7.321-26.938-25.646-.051,18.918,25.911a3.67,3.67,0,0,0,5.621.01l8.456-11.522,3.169-4.186c.351-.35.351-.7.706-1.05,2.125-8.388,3.549-16.776-5.582-18.89a10.152,10.152,0,0,1,.7,3.147C784.7-1262.459,781.881-1259.669,778.016-1259.676ZM697-1326.271l74.523,147.694a3.639,3.639,0,0,0,6.324.014l10.23-19.906-13.308-19.956Zm95.058,72.566,28.533-38.4-46.725-.1a6.654,6.654,0,0,1-6.661-6.657c-16.87,3.813-20.752,12.194-23.59,25.826l34.428.072h.7C796.664-1272.223,796.994-1263.483,792.058-1253.7Zm-49.5-19.332c.738-17.475,7.089-30.052,30.28-32.1H773.9l56.209.115,9.159-12.568a3.491,3.491,0,0,0-2.8-5.6l-124.013-.251c-2.807-.007-4.57,3.483-2.821,5.587Z" transform="translate(-697.001 1326.271)" fill="none" clip-rule="evenodd"/>
    </clipPath>
    <clipPath id="clip-path-2">
      <path id="Path_6210" data-name="Path 6210" d="M625-1055.115h645.727V-1327H625Z" transform="translate(-625 1327)" fill="none"/>
    </clipPath>
  </defs>
  <g id="Group_6604" data-name="Group 6604" opacity="0.05" clip-path="url(#clip-path)">
    <g id="Group_6603" data-name="Group 6603" transform="translate(-244.696 -2.478)" clip-path="url(#clip-path-2)">
      <path id="Path_6209" data-name="Path 6209" d="M692-1331.272H882.319v183.522H692Z" transform="translate(-464.297 1316.757)" fill="#fff"/>
    </g>
  </g>
</svg>
