<svg width="44" height="44" viewBox="0 0 44 44" fill="none" 
    xmlns="http://www.w3.org/2000/svg">
    <path d="M0 8.8C0 3.93989 3.91873 0 8.75273 0H35.0109C39.8449 0 43.7637 3.93989 43.7637 8.8V35.2C43.7637 40.0601 39.8449 44 35.0109 44H8.75273C3.91873 44 0 40.0601 0 35.2V8.8Z" fill="url(#paint0_linear)"/>
    <path d="M20.6434 20.4129C19.7828 20.7241 19.1988 21.5955 19.2603 22.5291C19.2603 22.7158 19.3218 22.9337 19.3832 23.1204L19.7521 24.1163C20.1516 25.2055 21.3196 25.7968 22.3953 25.3922L23.8399 24.8632L27.4975 23.5561C28.5732 23.1515 29.1572 21.9689 28.7577 20.8797L28.3888 19.8838C27.9893 18.7946 26.8213 18.2033 25.7455 18.6078L21.6577 20.0705L20.7663 20.3817L20.6434 20.4129Z" fill="white"/>
    <path d="M24.6228 31.5375C24.375 31.6313 24.1273 31.7564 23.8795 31.8189C21.5258 32.632 19.2959 32.5069 17.0351 31.4124C16.4777 31.1309 15.9202 30.8182 15.4247 30.4429C14.9911 30.0989 14.5575 29.7549 14.1859 29.3171C13.8142 28.9106 13.4736 28.4415 13.1639 27.9724C12.8542 27.4408 12.5754 26.8466 12.3587 26.2524C11.7083 24.4386 11.6463 22.6873 12.1419 20.936C12.2967 20.3731 12.5135 19.8415 12.7613 19.3098C13.4426 17.8713 14.3717 16.7455 15.5486 15.8698C16.2609 15.3695 17.0351 14.9629 17.8403 14.6502C18.0881 14.5564 18.3668 14.4626 18.6146 14.4L19.265 14.2124L17.4997 9.24001L16.9112 9.42765C16.6325 9.52147 16.3848 9.58401 16.106 9.67783C14.2169 10.3658 12.6064 11.304 11.2437 12.5549C11.1508 12.6487 11.0579 12.7426 10.934 12.8364C9.72621 14.0247 8.73517 15.432 7.99189 16.9957C6.38145 20.4357 6.13369 23.9695 7.24861 27.5346C7.31055 27.6909 7.34152 27.8473 7.40346 28.0037C8.14674 30.1615 9.29263 31.9753 10.8102 33.4764C11.956 34.6022 13.2878 35.5091 14.7124 36.1971C15.1769 36.416 15.6415 36.6037 16.106 36.7913C16.4157 36.9164 16.6945 37.0102 17.0042 37.104C19.203 37.7295 21.5567 37.792 23.7866 37.2604C24.375 37.1353 24.9634 36.9477 25.5519 36.7288C25.8306 36.635 26.1093 36.5099 26.3571 36.416L26.9146 36.1659L25.5519 32.2568L25.1802 31.2248L24.6228 31.5375Z" fill="white"/>
    <path d="M27.079 5.55062L25.8481 5.98952L23.5095 6.83597L21.4786 7.55702L19.6938 8.18402L21.4478 13.2L21.5401 13.1687L22.6171 12.7925L29.5714 10.2845L31.9101 9.43802L33.2025 8.96777L34.7103 8.43482L39.7875 6.58517L43.3262 5.29982C42.9877 3.45017 41.9723 1.81997 40.526 0.660019L38.0336 1.60052L27.079 5.55062Z" fill="white"/>
    <defs>
        <linearGradient id="paint0_linear" x1="40.919" y1="41.14" x2="5.71955" y2="6.12957" gradientUnits="userSpaceOnUse">
            <stop offset="0.159375" stop-color="#003CDA"/>
            <stop offset="1" stop-color="#33DFCC"/>
        </linearGradient>
    </defs>
</svg>