<svg width="200" height="44" viewBox="0 0 200 44" fill="none" xmlns="http://www.w3.org/2000/svg">
    <path d="M0 8.8C0 3.93989 3.91873 0 8.75274 0H35.0109C39.8449 0 43.7637 3.93989 43.7637 8.8V35.2C43.7637 40.0601 39.8449 44 35.0109 44H8.75273C3.91873 44 0 40.0601 0 35.2V8.8Z" fill="url(#logo)"></path>
    <path d="M198.107 17.1491C196.792 15.7567 195.139 15.0435 193.082 15.0435C191.801 15.0435 190.621 15.3492 189.508 15.9605C188.395 16.5718 187.552 17.3868 186.945 18.4057C185.832 16.1642 183.91 15.0435 181.145 15.0435C178.886 15.0435 177.065 15.8925 175.716 17.6246V16.2322C175.716 15.8246 175.311 15.5869 174.974 15.7227L170.961 17.3529V34.1295C170.961 34.3673 171.062 34.605 171.231 34.7748C171.399 34.9446 171.602 35.0465 171.872 35.0465H175.041C175.311 35.0465 175.547 34.9446 175.682 34.7748C175.851 34.605 175.918 34.4012 175.918 34.1295V23.6017C175.918 22.0395 176.255 20.9188 176.964 20.1716C177.638 19.4584 178.481 19.0849 179.459 19.0849C180.504 19.0849 181.381 19.4584 182.056 20.1716C182.73 20.8848 183.067 22.0395 183.067 23.6017V34.1295C183.067 34.3673 183.168 34.605 183.337 34.7748C183.506 34.9446 183.708 35.0465 183.978 35.0465H187.114C187.384 35.0465 187.62 34.9446 187.754 34.7748C187.923 34.605 187.991 34.4012 187.991 34.1295V23.6017C187.991 22.0395 188.328 20.9188 189.036 20.1716C189.71 19.4584 190.553 19.0849 191.531 19.0849C192.61 19.0849 193.487 19.4245 194.128 20.1377C194.802 20.8508 195.106 21.9715 195.106 23.5677V34.605C195.106 34.8427 195.746 34.9785 196.016 34.9785H199.119C199.388 34.9785 199.624 34.8767 199.759 34.7069C199.928 34.5371 199.995 34.3333 199.995 34.0616V23.296C200.063 20.6131 199.388 18.5415 198.107 17.1491ZM94.7165 15.7567L93.0642 16.4359L92.0188 16.8774L91.142 17.251L90.4339 17.5566V26.6921C90.4339 28.1185 90.063 29.2731 89.2874 30.0882C88.5118 30.9032 87.5001 31.3447 86.185 31.3447C83.521 31.3447 82.1721 29.7825 82.1721 26.6921V16.2661C82.1721 15.8246 81.7337 15.5529 81.3291 15.7227L76.979 17.5227V26.9298C76.979 29.5788 77.6534 31.6504 78.9685 33.1447C80.2837 34.6389 82.1047 35.42 84.3977 35.42C87.1629 35.42 89.2536 34.4691 90.6025 32.6013V34.4691C90.6025 34.9106 91.0409 35.1823 91.4455 35.0125L95.5259 33.3145V16.3001C95.5596 15.8925 95.1212 15.5869 94.7165 15.7567ZM104.563 7.09669L100.652 8.72681V34.2314C100.652 34.7748 101.191 35.1144 101.663 34.9106L105.575 33.2805V7.77591C105.609 7.26649 105.069 6.89292 104.563 7.09669ZM73.8429 7.09669H71.2463C68.7846 7.09669 66.9299 7.64006 65.716 8.76077C64.502 9.88148 63.895 11.5795 63.895 13.8549V34.1635C63.895 34.7069 64.4345 35.0465 64.9066 34.8427L68.7846 33.2465V19.4584H73.4382C73.6743 19.4584 73.944 19.3566 74.1126 19.1868C74.2812 19.0169 74.3487 18.8132 74.3487 18.5415V16.3001C74.3487 16.0624 74.2475 15.8246 74.0789 15.6548C73.9103 15.485 73.708 15.3831 73.4382 15.3831H68.7509V14.0587C68.7509 13.0398 68.9532 12.3267 69.3579 11.8172C69.7625 11.3418 70.437 11.1041 71.4149 11.1041H73.8091C74.0452 11.1041 74.2812 11.0022 74.4499 10.8324C74.6185 10.6626 74.7196 10.4588 74.7196 10.1871V7.94571C74.7196 7.70798 74.6185 7.47026 74.4499 7.30045C74.315 7.19857 74.0789 7.09669 73.8429 7.09669ZM165.228 15.7567L163.576 16.4359L162.531 16.8774L161.654 17.251L160.946 17.5566V26.6921C160.946 28.1185 160.575 29.2731 159.799 30.0882C159.024 30.9032 158.012 31.3447 156.697 31.3447C154.033 31.3447 152.684 29.7825 152.684 26.6921V16.2661C152.684 15.8246 152.246 15.5529 151.841 15.7227L147.491 17.5227V26.9298C147.491 29.5788 148.165 31.6504 149.48 33.1447C150.796 34.6389 152.617 35.42 154.91 35.42C157.675 35.42 159.766 34.4691 161.114 32.6013V34.4691C161.114 34.9106 161.553 35.1823 161.957 35.0125L166.038 33.3145V16.3001C166.038 15.8925 165.599 15.5869 165.228 15.7567ZM127.696 24.5186L125.167 25.4695C124.729 25.6393 124.425 26.0129 124.29 26.4544C123.785 28.2543 122.503 29.7825 120.648 30.4957C117.411 31.7183 113.803 29.9523 112.791 26.5563C111.982 23.7715 113.263 20.7829 115.826 19.4584C117.85 18.4396 120.109 18.6773 121.829 19.798C122.233 20.0697 122.705 20.1037 123.144 19.9679L125.673 19.0169C126.145 18.8471 126.314 18.2358 125.943 17.8623C123.076 14.8058 118.49 13.7191 114.41 15.5529C109.689 17.6585 107.295 23.0923 108.88 28.0505C110.667 33.6541 116.737 36.5407 122.132 34.5031C126.078 33.0088 128.539 29.3071 128.708 25.2997C128.674 24.7224 128.168 24.3488 127.696 24.5186ZM143.883 15.4171H142.298C139.937 15.4171 138.15 16.2322 136.902 17.8962V16.334C136.902 16.0624 136.801 15.8246 136.632 15.6548C136.464 15.485 136.228 15.3831 135.958 15.3831H132.889C132.653 15.3831 132.417 15.485 132.249 15.6548C132.08 15.8246 131.979 16.0624 131.979 16.334V34.2314C131.979 34.7748 132.518 35.1144 132.991 34.9106L137.105 33.2126V23.7715C137.105 22.5828 137.442 21.6659 138.116 20.9867C138.791 20.3075 139.701 19.9679 140.881 19.9679H143.849C144.119 19.9679 144.355 19.866 144.49 19.6962C144.658 19.5264 144.726 19.3226 144.726 19.0509V16.3001C144.726 16.0284 144.658 15.7907 144.49 15.6548C144.355 15.485 144.152 15.4171 143.883 15.4171Z" class="primary"></path>
    <path d="M20.6435 20.4128C19.7829 20.724 19.1989 21.5954 19.2604 22.529C19.2604 22.7158 19.3219 22.9336 19.3834 23.1203L19.7522 24.1162C20.1518 25.2055 21.3197 25.7968 22.3955 25.3922L23.84 24.8631L27.4976 23.556C28.5734 23.1515 29.1573 21.9689 28.7578 20.8796L28.3889 19.8837C27.9894 18.7945 26.8214 18.2032 25.7457 18.6078L21.6578 20.0705L20.7665 20.3817L20.6435 20.4128Z" fill="white"></path>
    <path d="M24.6228 31.5375C24.3751 31.6313 24.1273 31.7564 23.8796 31.8189C21.5258 32.632 19.296 32.5069 17.0352 31.4124C16.4777 31.1309 15.9203 30.8182 15.4248 30.4429C14.9912 30.0989 14.5576 29.7549 14.186 29.3171C13.8143 28.9106 13.4736 28.4415 13.1639 27.9724C12.8542 27.4407 12.5755 26.8466 12.3587 26.2524C11.7083 24.4386 11.6464 22.6873 12.1419 20.936C12.2968 20.3731 12.5136 19.8415 12.7613 19.3098C13.4427 17.8713 14.3718 16.7455 15.5486 15.8698C16.2609 15.3695 17.0352 14.9629 17.8404 14.6502C18.0882 14.5564 18.3669 14.4625 18.6147 14.4L19.265 14.2124L17.4997 9.23999L16.9113 9.42763C16.6326 9.52145 16.3848 9.58399 16.1061 9.67781C14.2169 10.3658 12.6065 11.304 11.2438 12.5549C11.1509 12.6487 11.058 12.7425 10.9341 12.8364C9.72627 14.0247 8.73523 15.432 7.99195 16.9956C6.38151 20.4356 6.13375 23.9695 7.24867 27.5346C7.31061 27.6909 7.34158 27.8473 7.40352 28.0036C8.1468 30.1615 9.29269 31.9753 10.8102 33.4764C11.9561 34.6022 13.2878 35.5091 14.7124 36.1971C15.177 36.416 15.6415 36.6037 16.1061 36.7913C16.4158 36.9164 16.6945 37.0102 17.0042 37.104C19.2031 37.7295 21.5568 37.792 23.7867 37.2604C24.3751 37.1353 24.9635 36.9477 25.5519 36.7288C25.8307 36.6349 26.1094 36.5098 26.3572 36.416L26.9146 36.1658L25.5519 32.2567L25.1803 31.2247L24.6228 31.5375Z" fill="#ffffff"></path>
    <path d="M27.0788 5.55051L25.848 5.98941L23.5094 6.83586L21.4785 7.55691L19.6937 8.18391L21.4477 13.1999L21.54 13.1686L22.617 12.7924L29.5713 10.2844L31.9099 9.43791L33.2023 8.96766L34.7101 8.43471L39.7874 6.58506L43.3261 5.29971C42.9876 3.45006 41.9722 1.81986 40.5259 0.659912L38.0334 1.60041L27.0788 5.55051Z" fill="white"></path>
    <defs>
        <linearGradient id="logo" x1="40.919" y1="41.14" x2="5.71955" y2="6.12957" gradientUnits="userSpaceOnUse">
            <stop offset="0.159375" stop-color="#003CDA"></stop>
            <stop offset="1" stop-color="#33DFCC"></stop>
        </linearGradient>
    </defs>
</svg>