<svg width="24" height="24" viewBox="0 0 24 24" fill="none" xmlns="http://www.w3.org/2000/svg">
<circle cx="12" cy="12" r="11.5" stroke="#B9C7D6"/>
<path d="M9 5.684C9.396 5.456 9.816 5.288 10.26 5.18C10.716 5.06 11.166 5 11.61 5C12.318 5 12.948 5.12 13.5 5.36C14.052 5.6 14.478 5.942 14.778 6.386C15.078 6.818 15.228 7.322 15.228 7.898C15.228 8.534 15.084 9.092 14.796 9.572C14.508 10.04 14.082 10.574 13.518 11.174C13.014 11.726 12.63 12.206 12.366 12.614C12.102 13.022 11.94 13.484 11.88 14L11.808 14.414H10.746V13.838C10.746 13.13 10.872 12.53 11.124 12.038C11.376 11.534 11.742 10.982 12.222 10.382C12.606 9.902 12.888 9.5 13.068 9.176C13.26 8.84 13.356 8.462 13.356 8.042C13.356 7.574 13.194 7.208 12.87 6.944C12.546 6.668 12.09 6.53 11.502 6.53C10.662 6.53 9.828 6.782 9 7.286V5.684ZM10.224 17.96V15.8H12.366V17.96H10.224Z" fill="#B9C7D6"/>
</svg>
