<svg xmlns="http://www.w3.org/2000/svg" id="ic___token_selector___rep" width="12" height="12" viewBox="0 0 12 12">
    <defs>
        <style>
            .cls-1{fill:none}.cls-2{fill:#fff;stroke:#fff;stroke-width:.2px}
        </style>
    </defs>
    <path id="Rectangle_527" d="M0 0h12v12H0z" class="cls-1" data-name="Rectangle 527"/>
    <path id="Path_336" d="M434.495 301.656l-4.546-8.028a.454.454 0 0 0-.792 0l-4.544 8.028a.44.44 0 0 0 .162.6l4.551 2.679a.485.485 0 0 0 .473 0l4.544-2.674a.45.45 0 0 0 .153-.6m-3.435-3.235l-.111-.092-.007-.007a1.1 1.1 0 0 0-.111-.079l-.007-.007a1.738 1.738 0 0 0-.118-.074c-.007 0-.007-.007-.012-.007a1.115 1.115 0 0 0-.118-.062c-.007 0-.007-.007-.012-.007-.036-.019-.08-.036-.123-.055-.007 0-.007-.007-.012-.007-.036-.012-.075-.031-.111-.043a1.931 1.931 0 0 0-.309-.086 1.53 1.53 0 0 1-.316.4 1.777 1.777 0 0 1 .546.128 2.113 2.113 0 0 1 .285.147.018.018 0 0 1 .012.007.431.431 0 0 1 .068.05.129.129 0 0 1 .031.024.4.4 0 0 1 .063.05c.012.012.024.019.036.031l.056.05.036.036.05.05.036.036a.424.424 0 0 0 .043.05c.012.014.024.031.037.043l.036.055a.266.266 0 0 1 .031.05l.036.055a.421.421 0 0 0 .031.05c.012.019.019.036.031.055s.019.036.031.055.019.036.024.055a.621.621 0 0 0 .031.067 1.558 1.558 0 0 1 .106.39l.056.214a1.955 1.955 0 0 0 .768 1.136c.6.3 1.383.684 1.693.83l-4.084 2.406v-1.648c0-.262.526-.568.768-.671l.012-.007c.05-.024.1-.05.149-.079l.019-.012a1.919 1.919 0 0 0 .3-.214c.007-.007.019-.012.024-.024s.019-.019.031-.024c.031-.024.056-.055.087-.079l.012-.012a.665.665 0 0 0 .087-.1c.007-.012.019-.019.024-.031a.947.947 0 0 0 .068-.086c.007-.007.012-.019.019-.024l.075-.109c0-.007.007-.007.007-.012l.094-.152a2.362 2.362 0 0 1-.292-.452 1.656 1.656 0 0 1-.118.262c-.019.036-.043.074-.062.109-.007.007-.007.012-.012.012a.934.934 0 0 1-.063.086c-.007.007-.012.019-.019.024a.427.427 0 0 1-.068.079c-.007.007-.007.012-.012.012a1.731 1.731 0 0 1-.533.4l-.036.019c-.106.043-1.017.452-1.017 1.068v1.645l-4.092-2.4a8.843 8.843 0 0 1 1.668-.806c.249-.079.775.25 1.072.488l.019.019a1.04 1.04 0 0 0 .123.1l.012.012a1.765 1.765 0 0 0 .3.2l.075.036a.018.018 0 0 1 .012.007c.068.036.136.067.21.1l.031.012c.007 0 .012.007.024.007.106.036.21.067.316.092a1.518 1.518 0 0 1 .323-.4 1.8 1.8 0 0 1-.509-.11c-.007-.007-.019-.007-.024-.012a.258.258 0 0 1-.056-.024c-.007-.007-.019-.007-.024-.012s-.036-.019-.05-.024a1.778 1.778 0 0 1-.341-.214l-.162-.147a3.057 3.057 0 0 0-.483-.342 1.333 1.333 0 0 0-1-.219 8.643 8.643 0 0 0-1.526.708l4.085-7.227v3.169c0 .109-.167.4-.732.654l-.036.019c-.056.024-.106.055-.162.086l-.012.007a2.378 2.378 0 0 0-.3.214 1.337 1.337 0 0 0-.167.159l-.007.007a1.257 1.257 0 0 0-.149.171l-.007.007c-.024.031-.043.062-.068.092 0 .007-.007.007-.007.012l-.056.086c0 .007-.007.007-.007.012l-.056.092c-.007.007-.007.012-.012.024-.019.031-.031.062-.043.086a.017.017 0 0 1-.007.012c-.012.031-.024.055-.037.086a.229.229 0 0 0-.012.031l-.036.092a.215.215 0 0 0-.012.031.339.339 0 0 1-.024.067.311.311 0 0 0-.012.036c-.007.031-.019.062-.024.086a.387.387 0 0 0-.012.043c-.007.019-.007.043-.012.062l-.012.055c-.005.019-.007.05-.012.074s-.007.031-.007.05-.007.043-.007.067a.217.217 0 0 1-.007.067v.092a2.063 2.063 0 0 0 .024.33 2.474 2.474 0 0 1 .509.19 1.8 1.8 0 0 1-.08-.494v-.031a.713.713 0 0 1 .007-.121v-.031a.739.739 0 0 1 .012-.1v-.012c.007-.036.012-.074.019-.116 0-.012.007-.019.007-.031.007-.031.019-.062.024-.092 0-.007.007-.012.007-.019l.036-.109c.007-.007.007-.019.012-.024.012-.031.024-.062.037-.086.007-.007.007-.012.012-.024a.594.594 0 0 1 .056-.1.12.12 0 0 0 .012-.019l.05-.086a.116.116 0 0 0 .012-.019 1.033 1.033 0 0 1 .068-.092h.005l.068-.086a.109.109 0 0 0 .012-.019 1.934 1.934 0 0 1 .379-.318l.193-.092c.106-.043 1.011-.464 1.011-1.081v-3.157l4.124 7.289a77.213 77.213 0 0 1-1.519-.751 1.565 1.565 0 0 1-.539-.855l-.056-.219a1.161 1.161 0 0 0-.068-.347 2.25 2.25 0 0 0-.648-.939" class="cls-2" data-name="Path 336" transform="translate(-423.555 -293.196)"/>
</svg>
