<svg xmlns="http://www.w3.org/2000/svg" id="ic___token_selector___usdc" width="12" height="12" viewBox="0 0 12 12">
    <defs>
        <style>
            .cls-1{fill:none}.cls-2{fill:#fff}
        </style>
    </defs>
    <path id="Rectangle_527" d="M0 0h12v12H0z" class="cls-1" data-name="Rectangle 527"/>
    <g id="Group_1115" data-name="Group 1115" transform="translate(-8.029 -9.158)">
        <path id="Path_552" d="M12.529 20.634a.236.236 0 0 1-.325.237 6 6 0 0 1 0-11.437.235.235 0 0 1 .325.237v.469a.359.359 0 0 1-.212.313 5 5 0 0 0 0 9.394.358.358 0 0 1 .212.313v.475z" class="cls-2" data-name="Path 552"/>
        <path id="Path_553" d="M25.7 24.1a.251.251 0 0 1-.25.25h-.5a.251.251 0 0 1-.25-.25v-.787a1.855 1.855 0 0 1-1.769-1.594.231.231 0 0 1 .231-.269h.569a.254.254 0 0 1 .244.2c.106.494.394.875 1.269.875.644 0 1.106-.362 1.106-.9s-.269-.744-1.219-.9c-1.4-.188-2.063-.613-2.063-1.706a1.712 1.712 0 0 1 1.632-1.644V16.6a.251.251 0 0 1 .25-.25h.5a.251.251 0 0 1 .25.25v.794a1.7 1.7 0 0 1 1.488 1.362.23.23 0 0 1-.231.275h-.525a.248.248 0 0 1-.237-.181c-.144-.481-.488-.694-1.088-.694-.663 0-1.006.319-1.006.769 0 .475.194.713 1.213.856 1.375.188 2.087.581 2.087 1.75a1.833 1.833 0 0 1-1.69 1.769v.8z" class="cls-2" data-name="Path 553" transform="translate(-11.175 -5.198)"/>
        <path id="Path_554" d="M38.339 20.908a.235.235 0 0 1-.325-.237V20.2a.325.325 0 0 1 .212-.313 4.994 4.994 0 0 0 0-9.387.358.358 0 0 1-.212-.313V9.72a.236.236 0 0 1 .325-.237 6 6 0 0 1 0 11.425z" class="cls-2" data-name="Path 554" transform="translate(-22.485 -.037)"/>
    </g>
</svg>
