<svg xmlns="http://www.w3.org/2000/svg" id="ic___token_selector___mkr" width="12.001" height="12" viewBox="0 0 12.001 12">
    <defs>
        <style>
            .cls-1{fill:none}.cls-2{fill:#fff;stroke:#fff}
        </style>
    </defs>
    <path id="Rectangle_527" d="M0 0h12v12H0z" class="cls-1" data-name="Rectangle 527"/>
    <path id="path0_fill" d="M-293.873 144.459a.231.231 0 0 1 .242.021l4.038 3.034a.234.234 0 0 1 .093.185v3.469a.232.232 0 0 1-.231.231.232.232 0 0 1-.231-.231v-3.352l-3.576-2.688v6.04a.232.232 0 0 1-.231.231.229.229 0 0 1-.231-.229v-6.5a.23.23 0 0 1 .127-.211z" class="cls-2" transform="translate(294.5 -141.935)"/>
    <path id="path1_fill" d="M5.273 144.459a.231.231 0 0 1 .127.206v6.507a.231.231 0 1 1-.462 0v-6.044l-3.575 2.689v3.356a.231.231 0 1 1-.462 0V147.7a.227.227 0 0 1 .093-.185l4.036-3.036a.234.234 0 0 1 .244-.021z" class="cls-2" transform="translate(6.1 -141.937)"/>
</svg>
