<svg xmlns="http://www.w3.org/2000/svg" width="12" height="14.41" viewBox="0 0 12 14.41">
    <defs>
        <style>
            .cls-1{fill:none}.cls-2{fill:#fff;stroke:rgba(0,0,0,0)}
        </style>
    </defs>
    <g id="ic___token_selector___eth" transform="translate(2.3 1.91)">
        <path id="Rectangle_528" d="M0 0h12v12H0z" class="cls-1" data-name="Rectangle 528" transform="translate(-2.3)"/>
        <path id="Union_9" d="M7958.383 17578.063a.037.037 0 0 0-.013-.025c-.371-.525-.741-1.045-1.112-1.566s-.759-1.068-1.134-1.6q-.549-.768-1.1-1.543l-.287-.406c-.009-.01-.013-.023-.022-.031a.041.041 0 0 1 .035.014c.517.3 1.037.607 1.553.918.591.348 1.187.7 1.782 1.049.1.063.2.119.3.182.251-.15.5-.3.746-.441a847.63 847.63 0 0 1 2.9-1.713.1.1 0 0 1 .022-.012c0 .012-.013.021-.018.035q-1.648 2.323-3.3 4.641c-.119.162-.233.324-.347.482a.057.057 0 0 0 0 .008v.012zm-3.684-5.857l.061-.014 3.636-6.166v-.026l.007.012.006-.012v.023l3.648 6.18-3.679 1.641zm7.358 0l-3.655-2.109-3.616 2.09 3.591-.824zm-7.358-.031h.018v.008z" class="cls-2" data-name="Union 9" transform="translate(-7954.7 -17566.063)"/>
    </g>
</svg>
