<svg width="13" height="13" viewBox="0 0 13 13" fill="none" xmlns="http://www.w3.org/2000/svg">
<path d="M7.38767 5.69799C7.83232 5.69799 8.19278 6.05709 8.19278 6.50006C8.19278 6.94304 7.83232 7.30214 7.38767 7.30214H5.29786C3.27382 7.30214 1.63301 5.6675 1.63301 3.65107C1.63301 1.63464 3.27382 0 5.29786 0H10.6874C11.132 0 11.4925 0.359103 11.4925 0.802078C11.4925 1.24505 11.132 1.60416 10.6874 1.60416H5.29786C4.16311 1.60416 3.24322 2.52059 3.24322 3.65107C3.24322 4.78155 4.16311 5.69799 5.29786 5.69799H7.38767Z" fill="white"/>
<path d="M5.73771 7.30201C5.29306 7.30201 4.9326 6.94291 4.9326 6.49993C4.9326 6.05696 5.29306 5.69786 5.73771 5.69786H7.82752C9.85156 5.69786 11.4924 7.3325 11.4924 9.34893C11.4924 11.3654 9.85156 13 7.82752 13L2.438 13C1.99336 13 1.6329 12.6409 1.6329 12.1979C1.6329 11.7549 1.99336 11.3958 2.438 11.3958L7.82752 11.3958C8.96227 11.3958 9.88216 10.4794 9.88216 9.34893C9.88216 8.21845 8.96227 7.30201 7.82752 7.30201H5.73771Z" fill="white"/>
<path d="M3.07418 12.6764L1.7653 11.742L9.9976 0.296631L11.3065 1.23099L3.07418 12.6764Z" fill="white" fill-opacity="0.5"/>
</svg>
