<svg xmlns="http://www.w3.org/2000/svg" id="ic___token_selector___zrx" width="12" height="12" viewBox="0 0 12 12">
    <defs>
        <style>
            .cls-1{fill:none}.cls-2{fill:#fff}
        </style>
    </defs>
    <path id="Rectangle_527" d="M0 0h12v12H0z" class="cls-1" data-name="Rectangle 527"/>
    <path id="Path_331" d="M5.795 0h.36c.226.015.451.028.676.06a5.915 5.915 0 0 1 2.181.758c-.153.122-.318.229-.475.346-1.065.761-2.126 1.526-3.191 2.286-.086-.072-.161-.155-.243-.232-.243-.233-.479-.472-.725-.7a1.939 1.939 0 0 0-.254.127 3.92 3.92 0 0 0-1.375 1.3 47.961 47.961 0 0 1-1.3-1.732c-.013-.019-.025-.04-.037-.06a5.823 5.823 0 0 1 .517-.542A6 6 0 0 1 5.287.045c.169-.023.339-.027.508-.045zM8.71 2.244c.376-.284.753-.567 1.139-.839a5.985 5.985 0 0 1 1.9 6.295 5.92 5.92 0 0 1-.534 1.252.634.634 0 0 1-.087-.106L8.953 5.967c-.141-.189-.286-.374-.425-.564.318-.342.65-.671.969-1.012a3.872 3.872 0 0 0-.936-1.262 4.527 4.527 0 0 0-.5-.381c.211-.174.431-.337.648-.5M.421 3.8A5.383 5.383 0 0 1 .8 3.024c.211.266.413.54.621.81L3.393 6.42a2.046 2.046 0 0 1 .126.172c-.332.347-.673.685-1 1.033a3.337 3.337 0 0 0 .3.534 3.878 3.878 0 0 0 .6.687 4.582 4.582 0 0 0 .525.406c-.158.133-.326.256-.489.382q-.437.334-.881.659c-.14.1-.274.207-.419.3A6.023 6.023 0 0 1 .213 7.575 6.33 6.33 0 0 1 0 6.15v-.3l.021-.312a5.963 5.963 0 0 1 .4-1.738zm8.436 4.779a4.591 4.591 0 0 0 .4-.519c.134.165.262.335.392.5.322.423.64.848.948 1.281a3.4 3.4 0 0 1-.3.339 6.015 6.015 0 0 1-3.224 1.72 7.084 7.084 0 0 1-.873.1h-.435c-.129-.016-.259-.019-.388-.034a5.912 5.912 0 0 1-2.386-.782c.249-.189.5-.374.75-.562L6.6 8.487c.162.149.314.308.473.46.186.178.365.364.555.539a3.823 3.823 0 0 0 1.229-.907" class="cls-2" data-name="Path 331"/>
</svg>
