<svg xmlns="http://www.w3.org/2000/svg" width="12" height="12.012" viewBox="0 0 12 12.012">
    <defs>
        <style>
            .cls-1{fill:none}.cls-2{fill:#fff}
        </style>
    </defs>
    <g id="ic___token_selector___wbtc" transform="translate(-.002 .008)">
        <path id="Rectangle_527" d="M0 0h12v12H0z" class="cls-1" data-name="Rectangle 527" transform="translate(.002 -.008)"/>
        <g id="Group_1107" data-name="Group 1107" transform="translate(1.002 -.008)">
            <path id="Path_189" d="M104.421 93.54l.96.243c.327.082.655.16.981.246.083.022.114.009.135-.079.119-.5.245-1 .365-1.495.02-.083.049-.107.134-.084q.423.116.85.217c.079.019.089.05.071.123-.122.488-.24.977-.359 1.466-.008.033-.012.067-.02.109.249.061.488.121.73.173.02 0 .068-.049.076-.083.1-.379.189-.76.282-1.14l.085-.346c.013-.054.04-.075.1-.06l.9.229a.389.389 0 0 1 .069.035l-.273 1.121c-.037.152-.072.306-.116.456-.025.086-.006.123.08.161.328.145.658.289.972.462a2.008 2.008 0 0 1 .755.72 1.8 1.8 0 0 1 .173 1.408 1.762 1.762 0 0 1-.454.87 1.623 1.623 0 0 1-.653.391l-.119.039c.121.08.235.15.343.229a1.669 1.669 0 0 1 .693 1.023 2.148 2.148 0 0 1-.053 1.007 2.805 2.805 0 0 1-.543 1.11 1.956 1.956 0 0 1-1.211.666 5.187 5.187 0 0 1-1.808-.072c-.1-.019-.141 0-.165.1-.116.49-.237.979-.356 1.467-.033.134-.033.135-.165.1-.274-.069-.547-.142-.822-.207-.085-.02-.092-.059-.073-.134.125-.5.246-1 .371-1.5.012-.05.023-.092-.038-.108l-.728-.19-.2.809c-.067.271-.136.541-.2.813-.016.067-.038.083-.106.065-.29-.077-.58-.149-.872-.219-.076-.018-.087-.055-.069-.129.126-.5.247-1 .37-1.507.009-.037.015-.074.025-.122l-2.055-.528.133-.321c.112-.264.227-.526.336-.791.033-.081.072-.1.158-.076.215.061.433.113.651.164a.354.354 0 0 0 .455-.283q.566-2.3 1.128-4.6a.5.5 0 0 0-.348-.59c-.255-.082-.518-.142-.777-.211-.045-.012-.089-.016-.071-.086.086-.342.169-.684.254-1.026a.232.232 0 0 1 .019-.035zm1.508 7.383a.614.614 0 0 0 .069.028 9.07 9.07 0 0 0 1.463.3 2.457 2.457 0 0 0 1-.082.952.952 0 0 0 .471-1.4 1.648 1.648 0 0 0-.631-.53 7.43 7.43 0 0 0-1.727-.551c-.081-.02-.1.006-.116.078-.067.289-.142.577-.212.865l-.317 1.292zm2.473-3.056c.073-.012.2-.025.316-.053a.9.9 0 0 0 .572-1.292 1.4 1.4 0 0 0-.682-.571 6.372 6.372 0 0 0-1.252-.382c-.083-.02-.116 0-.136.082q-.224.93-.456 1.858c-.018.071.005.095.066.109.11.026.22.057.33.084a4.344 4.344 0 0 0 1.24.165z" class="cls-2" data-name="Path 189" transform="translate(-102.48 -92.364)"/>
        </g>
    </g>
</svg>
