<svg xmlns="http://www.w3.org/2000/svg" width="16px" height="16px" viewBox="0 0 16 16">
  <defs>
    <style>
      .cls-1{fill:#ff5358}
    </style>
  </defs>
  <path id="ic_progress_failed" d="M8,0C3.584,0.006,0.005,3.584,0,8c0.004,4.416,3.583,7.996,8,8c4.417-0.005,7.995-3.583,8-8 C15.995,3.584,12.417,0.006,8,0z M8.576,3.438l-0.168,5.77H7.592l-0.168-5.77H8.576z M7.988,11.653 c-0.408,0-0.695-0.323-0.695-0.743c0-0.432,0.3-0.744,0.719-0.744c0.42,0,0.695,0.313,0.695,0.744 C8.707,11.33,8.432,11.653,7.988,11.653z" class="cls-1"/>
</svg>
