<svg width="64" height="64" viewBox="0 0 64 64" fill="none" xmlns="http://www.w3.org/2000/svg">
<circle cx="32" cy="32" r="32" fill="url(#paint1_linear)"/>
<path d="M47.4317 39.2135C47.4317 37.1182 45.9311 35.7366 44.0842 35.7366L38.6011 35.7366L38.6011 37.5326L44.0957 37.5326C45.0423 37.5326 45.8041 38.1428 45.8041 39.225C45.8041 40.2612 45.0423 40.8599 44.0957 40.8599L38.6011 40.8599L38.6011 42.771L44.0842 42.771C45.9311 42.771 47.4317 41.3895 47.4317 39.2135Z" fill="white"/>
<path d="M47.4317 31.1569C47.4317 29.2343 46.3928 27.9218 44.7421 27.9218C43.2992 27.9218 42.4335 28.8774 42.1102 30.4546L41.9255 31.2836C41.7409 32.1125 41.4292 32.4349 40.9559 32.4349C40.3787 32.4349 39.9978 31.9974 39.9978 31.1915C39.9978 30.2935 40.4365 29.8675 41.0252 29.7178L41.0252 28.2211L40.1479 28.2211C39.0859 28.4629 38.4279 29.5566 38.4279 31.1454C38.4279 33.045 39.3976 34.2884 41.0598 34.2884C42.4565 34.2884 43.2992 33.4134 43.6109 31.8362L43.7609 31.0418C43.9572 30.1668 44.2804 29.7754 44.846 29.7754C45.4924 29.7754 45.8618 30.3165 45.8618 31.1224C45.8618 32.0434 45.4578 32.596 44.8114 32.8263L44.8114 34.3345L45.6771 34.3345C46.6352 33.9661 47.4317 32.9414 47.4317 31.1569Z" fill="white"/>
<path d="M47.2586 26.5001L47.2586 23.4723C47.2586 20.8128 45.2962 19.1664 42.8952 19.1664C40.5288 19.1664 38.6011 20.8128 38.6011 23.4723L38.6011 26.5001L47.2586 26.5001ZM45.631 24.589L40.2287 24.589L40.2287 23.5068C40.2287 21.9986 41.4292 21.1351 42.8952 21.1351C44.4074 21.1351 45.631 21.9986 45.631 23.5068L45.631 24.589Z" fill="white"/>
<path d="M27.3772 29.765C28.2562 29.765 28.9689 30.475 28.9689 31.3507C28.9689 32.2265 28.2562 32.9365 27.3772 32.9365H23.2456C19.244 32.9365 16.0001 29.7047 16.0001 25.7182C16.0001 21.7317 19.244 18.5 23.2456 18.5H33.9007C34.7798 18.5 35.4924 19.21 35.4924 20.0857C35.4924 20.9615 34.7798 21.6714 33.9007 21.6714H23.2456C21.0021 21.6714 19.1835 23.4833 19.1835 25.7182C19.1835 27.9532 21.0021 29.765 23.2456 29.765H27.3772Z" fill="white"/>
<path d="M24.1152 32.9364C23.2362 32.9364 22.5235 32.2264 22.5235 31.3507C22.5235 30.4749 23.2362 29.765 24.1152 29.765H28.2468C32.2484 29.765 35.4923 32.9967 35.4923 36.9832C35.4923 40.9697 32.2484 44.2014 28.2468 44.2014H17.5917C16.7126 44.2014 16 43.4915 16 42.6157C16 41.7399 16.7126 41.03 17.5917 41.03H28.2468C30.4903 41.03 32.3089 39.2182 32.3089 36.9832C32.3089 34.7482 30.4903 32.9364 28.2468 32.9364H24.1152Z" fill="white"/>
<path d="M18.8494 43.5617L16.2617 41.7144L32.5371 19.0867L35.1248 20.9339L18.8494 43.5617Z" fill="white" fill-opacity="0.5"/>
<defs>
<linearGradient id="paint1_linear" x1="14.75" y1="5.25" x2="61.25" y2="51.75" gradientUnits="userSpaceOnUse">
<stop stop-color="#342F49"/>
<stop offset="1"/>
</linearGradient>
</defs>
</svg>
