<svg width="25" height="25" viewBox="0 0 25 25" fill="none" xmlns="http://www.w3.org/2000/svg">
<circle cx="12.5" cy="12.5" r="12.5" fill="white"/>
<path fill-rule="evenodd" clip-rule="evenodd" d="M7.06443 8.10742H11.9263V15.053H7.06443V14.011H4.7196V13.664H4.28564V9.49663H4.7196V9.06263H7.06443V8.10742ZM7.06443 9.75719V13.3164H4.9802L4.9802 9.75719H7.06443ZM7.75764 15.0531H11.925V15.7475H16.0067V16.4421H10.5372V17.1365H4.98072V16.442H9.14797V15.7476H7.75764V15.0531ZM18.6108 17.1369H6.36918V17.8314H18.6108V17.1369Z" fill="#A52639"/>
<path fill-rule="evenodd" clip-rule="evenodd" d="M18.1772 8.10742H10.4502V14.3584H11.1451V15.0528H17.483V14.3584H18.1772V8.10742ZM16.7003 15.0531H11.9252V15.7476H16.7003V15.0531ZM20.0001 16.442H10.5367V17.1365H20.0001V16.442Z" fill="#DD3745"/>
<rect x="17.4824" y="16.4424" width="0.694559" height="0.694563" fill="#FFE091"/>
<rect x="6.80322" y="7.5" width="11.6338" height="0.607737" fill="#CCE2E1"/>
<path d="M15.2251 12.2754H14.5305V12.9699H13.8359V15.0536H15.9196V12.9699H15.2251V12.2754Z" fill="#431E66"/>
<rect x="14.5308" y="7.5" width="0.694557" height="4.77508" fill="#FFAA6E"/>
<rect x="16.6143" y="9.66992" width="0.694555" height="2.60459" fill="#FFE091"/>
</svg>
