<svg width="60" height="60" viewBox="0 0 60 60" fill="none" 
    xmlns="http://www.w3.org/2000/svg">
    <path d="M51.1193 51.3771C48.3247 54.1723 44.9971 56.3758 41.3348 57.8562C37.6725 59.3366 33.7503 60.0638 29.8017 59.9944C25.8777 60.0717 21.9793 59.3467 18.3445 57.8638C14.7096 56.3809 11.4148 54.1712 8.66124 51.3697C5.84288 48.6207 3.61996 45.3198 2.13106 41.6725C0.642149 38.0252 -0.0808355 34.1097 0.00716968 30.1702C0.00716968 21.5504 2.89678 14.3681 8.67601 8.62316C11.4313 5.82243 14.7277 3.61379 18.3638 2.13216C21.9998 0.650526 25.8992 -0.0729885 29.8238 0.00580953C33.7717 -0.0611818 37.6927 0.667833 41.3536 2.1495C45.0146 3.63116 48.3407 5.83521 51.1341 8.63056C57.0413 14.3804 59.9949 21.5652 59.9949 30.185C60.0696 34.1417 59.3187 38.0704 57.7903 41.7196C56.262 45.3688 53.9898 48.6582 51.1193 51.3771V51.3771Z" class="fill-svg" fill="#2A5ADA"/>
    <path fill-rule="evenodd" clip-rule="evenodd" d="M30.0001 11.4592L46.2858 20.9592V39.8978L30.0001 49.3978L13.7144 39.8978V20.9592L30.0001 11.4592ZM20.5715 24.8978V35.9592L30.0001 41.4592L39.4286 35.9592V24.8978L30.0001 19.3978L20.5715 24.8978Z" fill="white"/>
</svg>
