<svg viewBox="0 0 128 128" fill="none" 
    xmlns="http://www.w3.org/2000/svg">
    <path d="M109.083 109.562C103.126 115.53 96.0309 120.237 88.2197 123.403C80.4084 126.569 72.041 128.128 63.6154 127.989C55.2385 128.15 46.9166 126.6 39.1585 123.432C31.4004 120.263 24.369 115.544 18.4943 109.562C12.4824 103.7 7.73935 96.663 4.56011 88.8872C1.38086 81.1114 -0.166535 72.7636 0.0141886 64.3633C0.0141886 45.9683 6.17422 30.6444 18.4943 18.3916C24.373 12.4182 31.4062 7.70754 39.1641 4.54749C46.9221 1.38745 55.2419 -0.155671 63.6154 0.0123907C72.0376 -0.133452 80.4031 1.4185 88.2141 4.57593C96.0252 7.73336 103.122 12.4318 109.083 18.3916C121.687 30.6444 127.989 45.9683 127.989 64.3633C128.152 72.7998 126.555 81.1776 123.299 88.9605C120.044 96.7435 115.202 103.76 109.083 109.562V109.562Z" class="fill-svg eth-svg" fill="white"/>
    <path d="M64.0001 20.1143L38.4 63.7393L64.0001 51.7841V20.1143Z" fill="#8B8B8B"/>
    <path d="M64.0001 51.7842L38.4 63.7394L64.0001 79.271V51.7842Z" fill="#393939"/>
    <path d="M64 20.1143V51.7841L89.5755 63.7393L64 20.1143Z" fill="#343434"/>
    <path d="M64 51.7842V79.271L89.5755 63.7394L64 51.7842Z" fill="#161616"/>
    <path d="M38.4 68.7183L64.0001 105.772V84.2625L38.4 68.7183Z" fill="#8B8B8B"/>
    <path d="M89.6001 68.7183L64 84.2625V105.772L89.6001 68.7183Z" fill="#343434"/>
</svg>
