<svg viewBox="0 0 70 70" fill="none" 
    xmlns="http://www.w3.org/2000/svg">
    <circle cx="35" cy="35" r="35" fill="#41365B"/>
    <path fill-rule="evenodd" clip-rule="evenodd" d="M41.6635 33.8446C43.229 32.9972 44.2086 31.5048 43.9798 29.0186C43.6717 25.621 40.9104 24.4817 37.4247 24.1572L37.4241 19.4444H34.7233L34.7226 24.0333C34.012 24.0333 33.2876 24.0481 32.5665 24.0635L32.5659 19.4451L29.8676 19.4448L29.8671 24.1564C29.2824 24.1691 28.708 24.1812 28.1473 24.1812V24.1672L24.4221 24.1656L24.4226 27.229C24.4226 27.229 26.4171 27.1891 26.3842 27.2278C27.4777 27.2286 27.8348 27.9033 27.9375 28.4856L27.9383 41.396C27.8901 41.7614 27.6875 42.3454 26.923 42.3464C26.9577 42.379 24.9583 42.3461 24.9583 42.3461L24.4226 45.7716H27.9366C28.3656 45.7721 28.7896 45.777 29.2085 45.7817C29.4285 45.7842 29.6488 45.7867 29.8659 45.7886L29.8683 50.5547L32.5659 50.5556L32.5652 45.8394C33.3073 45.8555 34.0238 45.8624 34.7235 45.8614L34.7227 50.5556H37.4234L37.4249 45.7974C41.9646 45.5203 45.1427 44.3054 45.5378 39.776C45.8562 36.1295 44.2408 34.5017 41.6635 33.8446ZM32.631 27.4358C32.7852 27.4358 32.9727 27.4305 33.1854 27.4245C35.0747 27.3714 38.9447 27.2625 38.9453 30.3009C38.9447 33.2718 34.9204 33.2012 33.0754 33.1688C32.9077 33.1658 32.7581 33.1632 32.631 33.1632V27.4358ZM32.6299 42.3697L32.631 36.0547C32.8142 36.0546 33.0364 36.049 33.2882 36.0426C35.5523 35.985 40.2013 35.8669 40.2019 39.2108C40.2026 42.4803 35.3685 42.4082 33.1569 42.3752C32.9583 42.3722 32.7808 42.3696 32.6299 42.3697Z" fill="white"/>
    <path d="M35 15.2564C29.4099 15.2564 24.3625 17.5796 20.7704 21.3131L19.1435 19.7497C23.1461 15.589 28.7707 13 35 13C41.2328 13 46.8602 15.5919 50.8632 19.7566L49.244 21.3282C45.6511 17.5858 40.5976 15.2564 35 15.2564Z" fill="white"/>
    <path d="M17.6623 21.4557L19.2988 23.0283C16.7627 26.3493 15.2564 30.4988 15.2564 35C15.2564 40.365 17.3963 45.2301 20.869 48.7886L19.2473 50.3575C15.3816 46.393 13 40.9746 13 35C13 29.8915 14.7411 25.1897 17.6623 21.4557Z" fill="white"/>
    <path d="M22.5375 50.314L20.9054 51.8928C24.7228 55.0813 29.6373 57 35 57C40.3787 57 45.3067 55.0697 49.1288 51.8641L47.4972 50.2857C44.0934 53.0719 39.7419 54.7436 35 54.7436C30.2742 54.7436 25.9362 53.0832 22.5375 50.314Z" fill="white"/>
    <path d="M50.7837 50.3256L49.162 48.7568C52.6165 45.2012 54.7436 40.349 54.7436 35C54.7436 30.5065 53.2425 26.3637 50.7144 23.0455L52.344 21.4638C55.2614 25.1966 57 29.8953 57 35C57 40.9586 54.6311 46.364 50.7837 50.3256Z" fill="white"/>
    <path fill-rule="evenodd" clip-rule="evenodd" d="M63 35C63 50.464 50.464 63 35 63C19.536 63 7 50.464 7 35C7 19.536 19.536 7 35 7C50.464 7 63 19.536 63 35ZM35 61C49.3594 61 61 49.3594 61 35C61 20.6406 49.3594 9 35 9C20.6406 9 9 20.6406 9 35C9 49.3594 20.6406 61 35 61Z" fill="white"/>
</svg>
