<svg xmlns="http://www.w3.org/2000/svg" width="64" height="64" viewBox="0 0 64 64">
    <defs>
        <style>
            .cls-1{fill:#8a3d78}.cls-2{fill:#fff}
        </style>
    </defs>
    <g id="ic_token_rep" transform="translate(-32 -472)">
        <rect id="Rectangle_413" width="64" height="64" class="cls-1" data-name="Rectangle 413" rx="32" transform="translate(32 472)"/>
        <g id="Group_406" data-name="Group 406" transform="translate(36.112 476.785)">
            <path id="Path_336" d="M456.588 320.433l-14.65-26.275a1.451 1.451 0 0 0-2.554 0l-14.644 26.275a1.454 1.454 0 0 0 .521 1.96l14.666 8.77a1.54 1.54 0 0 0 1.523 0l14.65-8.753a1.485 1.485 0 0 0 .493-1.977m-11.071-10.59l-.358-.3-.022-.022a3.576 3.576 0 0 0-.358-.258l-.022-.022c-.118-.078-.241-.162-.381-.241-.022 0-.022-.022-.039-.022a3.558 3.558 0 0 0-.381-.2c-.022 0-.022-.022-.039-.022-.118-.062-.258-.118-.4-.179-.022 0-.022-.022-.039-.022-.118-.039-.241-.1-.358-.14a6.123 6.123 0 0 0-1-.28 5 5 0 0 1-1.019 1.316 5.659 5.659 0 0 1 1.758.42 6.79 6.79 0 0 1 .918.482.056.056 0 0 1 .039.022 1.379 1.379 0 0 1 .218.162.411.411 0 0 1 .1.078 1.281 1.281 0 0 1 .2.162c.039.039.078.062.118.1.062.062.118.1.179.162l.118.118.162.162.118.118a1.394 1.394 0 0 0 .14.162c.039.045.078.1.118.14l.118.179a.856.856 0 0 1 .1.162l.118.179a1.383 1.383 0 0 0 .1.162c.039.062.062.118.1.179s.062.118.1.179c.022.062.062.118.078.179a2.054 2.054 0 0 0 .1.218 5.158 5.158 0 0 1 .342 1.277l.179.7c.078.3.8 2.856 2.475 3.718 1.921 1 4.458 2.24 5.454 2.716L441.4 329.46v-5.393c0-.857 1.7-1.859 2.475-2.2l.039-.022c.162-.078.319-.162.482-.258l.062-.039a6.169 6.169 0 0 0 .958-.7c.022-.022.062-.039.078-.078.039-.022.062-.062.1-.078.1-.078.179-.179.28-.258l.039-.039a2.156 2.156 0 0 0 .28-.319c.022-.039.062-.062.078-.1a3.05 3.05 0 0 0 .218-.28c.022-.022.039-.062.062-.078l.241-.358c0-.022.022-.022.022-.039.1-.162.2-.342.3-.5a7.755 7.755 0 0 1-.941-1.478 5.431 5.431 0 0 1-.381.857c-.062.118-.14.241-.2.358-.022.022-.022.039-.039.039a3.037 3.037 0 0 1-.2.28c-.022.022-.039.062-.062.078a1.4 1.4 0 0 1-.218.258c-.022.022-.022.039-.039.039a5.588 5.588 0 0 1-1.719 1.316l-.118.062c-.342.14-3.276 1.478-3.276 3.494v5.393l-13.188-7.851a28.329 28.329 0 0 1 5.376-2.638c.8-.258 2.5.818 3.455 1.6l.062.062a3.365 3.365 0 0 0 .4.342l.039.039a5.666 5.666 0 0 0 .98.661l.241.118a.056.056 0 0 1 .039.022c.218.118.437.218.678.319a.746.746 0 0 0 .1.039c.022 0 .039.022.078.022.342.118.678.218 1.019.3a4.96 4.96 0 0 1 1.042-1.316 5.725 5.725 0 0 1-1.641-.358c-.022-.022-.062-.022-.078-.039a.832.832 0 0 1-.179-.078c-.022-.022-.062-.022-.078-.039-.062-.022-.118-.062-.162-.078a5.71 5.71 0 0 1-1.1-.7l-.521-.482a9.863 9.863 0 0 0-1.557-1.12 4.244 4.244 0 0 0-3.237-.717 27.646 27.646 0 0 0-4.917 2.318l13.166-23.654v10.371c0 .358-.538 1.316-2.358 2.139l-.118.062a5.91 5.91 0 0 0-.521.28l-.039.022a7.675 7.675 0 0 0-.98.7 4.324 4.324 0 0 0-.538.521l-.022.022a4.11 4.11 0 0 0-.482.56l-.022.022c-.078.1-.14.2-.218.3 0 .022-.022.022-.022.039-.062.1-.118.179-.179.28 0 .022-.022.022-.022.039l-.179.3c-.022.022-.022.039-.039.078-.062.1-.1.2-.14.28a.056.056 0 0 1-.022.039c-.039.1-.078.179-.118.28a.749.749 0 0 0-.039.1l-.118.3a.749.749 0 0 0-.039.1 1.137 1.137 0 0 1-.078.218.967.967 0 0 0-.039.118c-.022.1-.062.2-.078.28a1.318 1.318 0 0 0-.039.14c-.022.062-.022.14-.039.2s-.022.118-.039.179c-.022.078-.022.162-.039.241 0 .062-.022.1-.022.162 0 .078-.022.14-.022.218a.725.725 0 0 1-.022.218v.3a6.858 6.858 0 0 0 .078 1.081 7.9 7.9 0 0 1 1.641.622 6 6 0 0 1-.258-1.618v-.1a2.364 2.364 0 0 1 .022-.4v-.1a2.459 2.459 0 0 1 .039-.342v-.039c.022-.118.039-.241.062-.381 0-.039.022-.062.022-.1.022-.1.062-.2.078-.3 0-.022.022-.039.022-.062l.118-.358c.022-.022.022-.062.039-.078.039-.1.078-.2.118-.28.022-.022.022-.039.039-.078a1.961 1.961 0 0 1 .179-.319.38.38 0 0 0 .039-.062c.062-.1.1-.179.162-.28a.379.379 0 0 0 .039-.062 3.419 3.419 0 0 1 .218-.3.022.022 0 0 1 .022-.022l.218-.28a.38.38 0 0 0 .039-.062 6.253 6.253 0 0 1 1.221-1.042l.622-.3c.342-.14 3.259-1.518 3.259-3.539v-10.322l13.289 23.856a252.932 252.932 0 0 1-4.894-2.458c-.941-.482-1.557-2.178-1.736-2.8l-.179-.717a3.853 3.853 0 0 0-.218-1.137 7.364 7.364 0 0 0-2.089-3.074" class="cls-2" data-name="Path 336" transform="translate(-412.667 -285.181)"/>
        </g>
    </g>
</svg>
