<svg width="70" height="70" viewBox="0 0 70 70" fill="none" 
    xmlns="http://www.w3.org/2000/svg">
    <path d="M59.6548 59.9312C56.3954 63.1925 52.5145 65.7639 48.2428 67.4925C43.9712 69.2211 39.3961 70.0716 34.7897 69.9935C30.2099 70.0838 25.6597 69.2381 21.4171 67.508C17.1746 65.778 13.3286 63.1999 10.1141 59.9312C6.82634 56.7249 4.23246 52.8753 2.49381 48.6219C0.755157 44.3685 -0.0910737 39.8022 0.00775939 35.2071C0.00775939 25.1564 3.37653 16.7769 10.1141 10.0688C13.3286 6.8001 17.1746 4.22201 21.4171 2.49197C25.6597 0.761928 30.2099 -0.0837635 34.7897 0.0065401C39.3961 -0.0716167 43.9712 0.778903 48.2428 2.50752C52.5145 4.23613 56.3954 6.80753 59.6548 10.0688C66.5475 16.7769 69.9938 25.1564 69.9938 35.2071C70.0831 39.822 69.2096 44.4047 67.4293 48.662C65.649 52.9194 63.0011 56.7577 59.6548 59.9312Z" fill="#8778B7"/>
    <path d="M34.7526 14.2188L55.5116 34.7058L34.9964 55.4461L14.228 34.959L34.7526 14.2188Z" fill="#FFCE45"/>
    <path d="M34.9121 41.5599L14.2188 34.9496L34.7527 14.2188L55.5305 34.7058L34.9121 41.5599Z" fill="#FDBC43"/>
    <path d="M21.3916 33.5619L30.8241 33.5057L34.8371 28.9957L39.3565 33.4588L48.789 33.4025L34.7715 18.4568L21.3916 33.5619Z" fill="white"/>
    <path d="M55.5023 34.7151L34.9121 41.5597L34.9965 55.446L55.5023 34.7151Z" fill="#EDBB46"/>
    <path d="M34.7529 14.2188L34.7717 18.4568L48.7892 33.4025L39.3567 33.4588L34.8373 28.9957L34.9123 41.5599L55.5026 34.7152L55.5119 34.7058L34.7529 14.2188Z" fill="#ECB343"/>
    <path d="M34.7715 18.4568L34.8371 28.9957L39.3565 33.4588L48.789 33.4025L34.7715 18.4568Z" fill="#EFD8B1"/>
</svg>
