<svg width="60" height="60" viewBox="0 0 60 60" fill="none" 
    xmlns="http://www.w3.org/2000/svg">
    <path d="M51.1139 51.407C48.3136 54.199 44.9806 56.3982 41.3134 57.8736C37.6462 59.3489 33.72 60.0703 29.7685 59.9946C25.8418 60.0659 21.9419 59.3345 18.3073 57.8452C14.6727 56.3559 11.3797 54.14 8.62987 51.333C2.86188 45.5783 -0.0147204 38.5094 5.66412e-05 30.1264C5.66412e-05 21.5117 2.90129 14.3343 8.70375 8.59443C11.4647 5.79689 14.7666 3.59246 18.4075 2.1159C22.0484 0.639338 25.9519 -0.0783282 29.8793 0.00677267C33.83 -0.055076 37.7526 0.67995 41.4135 2.16804C45.0744 3.65614 48.3985 5.86684 51.1878 8.66839C57.0987 14.4231 60.0344 21.6103 59.995 30.23C60.0694 34.1844 59.3179 38.1107 57.7886 41.7575C56.2592 45.4042 53.9858 48.6909 51.1139 51.407Z" class="fill-svg" fill="#000004"/>
    <path d="M18.9501 23.1428C18.6982 22.7995 18.4503 22.4622 18.2054 22.129C17.4931 21.1597 16.8061 20.225 16.1232 19.2831C15.9017 18.9792 15.6862 18.6708 15.471 18.3628C15.2307 18.0187 14.9906 17.6752 14.7432 17.3394C14.6894 17.2913 14.6461 17.2319 14.6165 17.165C14.5869 17.0982 14.5716 17.0255 14.5716 16.952C14.5716 16.8785 14.5869 16.8059 14.6165 16.739C14.6461 16.6722 14.6894 16.6127 14.7432 16.5647C17.5898 13.2594 21.3651 10.9548 25.5417 9.97279C28.3083 9.30527 31.1805 9.25105 33.9689 9.8137C36.0648 10.2349 38.0849 10.9886 39.9576 12.0479C40.0734 12.1318 40.1831 12.2242 40.2859 12.3246L40.1337 12.4393C39.3458 13.0334 38.596 13.5987 37.8408 14.1576C36.8756 14.8688 35.9092 15.5788 34.9434 16.2882L34.9423 16.289C32.7715 17.8837 30.6041 19.4758 28.4624 21.0746C28.0337 21.3927 27.7925 21.3928 27.404 20.9846C27.012 20.5586 26.6024 20.1489 26.1923 19.7388C25.8035 19.35 25.4142 18.9607 25.0393 18.5568C24.9252 18.4033 24.7569 18.3026 24.5712 18.2767C24.3855 18.2508 24.1974 18.3017 24.0479 18.4184C22.2711 19.3926 20.7248 20.7602 19.5195 22.4234C19.4493 22.5132 19.3804 22.5994 19.3062 22.6921C19.2033 22.8207 19.0902 22.962 18.9501 23.1428Z" fill="white"/>
    <path d="M21.9558 42.0173L21.959 42.015L21.976 42.0027C22.362 41.7222 22.7507 41.4398 23.143 41.1554C23.0289 41.0619 22.9397 40.9872 22.8629 40.923C22.7681 40.8437 22.6921 40.7801 22.6121 40.7167C20.9244 39.5091 19.5247 37.9571 18.5099 36.168C18.4343 36.0795 18.3781 35.9768 18.3446 35.8662C18.3112 35.7557 18.3013 35.6395 18.3155 35.5251C18.3297 35.4106 18.3678 35.3002 18.4273 35.2006C18.4868 35.1011 18.5665 35.0146 18.6615 34.9464C19.1163 34.5289 19.5493 34.092 19.982 33.6556C20.3956 33.2383 20.8088 32.8214 21.2401 32.4223C21.3279 32.3651 21.4011 32.289 21.4541 32.1997C21.5071 32.1104 21.5385 32.0104 21.5458 31.9074C21.5531 31.8044 21.5362 31.7012 21.4964 31.6056C21.4565 31.51 21.3948 31.4246 21.3159 31.356C19.5102 29.0586 17.7185 26.7509 15.9283 24.4452C15.21 23.52 14.4919 22.5951 13.7733 21.6714C13.5555 21.4011 13.335 21.1175 13.1087 20.8265C12.8264 20.4634 12.5351 20.0888 12.2289 19.7142C12.1573 19.8415 12.0938 19.9508 12.0365 20.0495C11.945 20.207 11.8693 20.3372 11.8015 20.4701C10.4199 23.0835 9.62085 25.9544 9.45732 28.8927C9.31219 31.5614 9.72026 34.2313 10.657 36.7416C11.8247 40.0183 13.8361 42.9449 16.4967 45.2385C16.5981 45.3225 16.7189 45.3811 16.8486 45.4093C16.9783 45.4376 17.113 45.4345 17.2413 45.4005C18.8124 44.3011 20.3614 43.1758 21.9558 42.0173Z" fill="white"/>
    <path d="M24.3414 44.1133C22.8047 45.2882 21.2648 46.4656 19.7144 47.6548C19.8058 47.7483 19.9046 47.8337 20.0097 47.9104C22.7067 49.4537 25.707 50.351 28.7875 50.5356C31.3101 50.6909 33.8379 50.3389 36.2298 49.4993C39.6779 48.3455 42.7701 46.2773 45.1955 43.5029C45.2646 43.4476 45.3212 43.3775 45.3613 43.2974C45.4015 43.2174 45.4243 43.1293 45.4281 43.0392C45.432 42.9492 45.4167 42.8594 45.3835 42.7761C45.3503 42.6927 45.2999 42.6178 45.2357 42.5564C44.9306 42.1356 44.6311 41.7119 44.3296 41.2854C43.9679 40.7737 43.603 40.2576 43.2225 39.7378C42.6167 38.9104 42.006 38.0934 41.3726 37.2462L41.0817 36.857C41.0238 36.931 40.9722 36.9951 40.9255 37.0532C40.8369 37.1633 40.765 37.2527 40.6992 37.3475C39.4947 39.0675 37.9278 40.4846 36.1157 41.4925C36.0248 41.5652 35.9205 41.618 35.8091 41.6477C35.6977 41.6773 35.5816 41.6833 35.4679 41.6652C35.3542 41.6471 35.2453 41.6053 35.1478 41.5423C35.0503 41.4794 34.9664 41.3966 34.901 41.2991C34.2375 40.577 33.5372 39.8756 32.8307 39.1681L32.83 39.1674C32.5364 38.8734 32.2418 38.5782 31.9483 38.2802C29.4 40.2455 26.8752 42.1759 24.3414 44.1133Z" fill="white"/>
    <path d="M38.1334 18.0419C37.7143 18.355 37.29 18.672 36.8573 18.9942L37.5185 19.495C39.1976 20.7204 40.5786 22.2969 41.5618 24.1106C41.6854 24.2713 41.7402 24.4731 41.7145 24.6729C41.6887 24.8726 41.5845 25.0546 41.424 25.18C40.6319 25.9244 39.8191 26.7704 39.1303 27.5013C38.7885 27.864 38.5807 27.9901 38.5523 28.1483C38.5236 28.3088 38.6797 28.5025 39.0683 29.0105C41.4057 32.047 43.7338 35.0789 46.0528 38.1064C46.3779 38.5323 46.7078 38.9514 47.0395 39.373C47.2771 39.6748 47.5156 39.9778 47.7541 40.2856C47.8027 40.2429 47.8456 40.2114 47.8803 40.1859C47.9392 40.1426 47.9746 40.1166 47.9746 40.0826C49.5172 37.3155 50.3981 34.2396 50.5507 31.0882C50.6546 28.8644 50.3703 26.6395 49.7103 24.5099C48.5973 20.7288 46.4055 17.3399 43.394 14.7441C43.1116 14.5004 42.9187 14.5275 42.6294 14.7441C42.1856 15.1066 41.7021 15.4408 41.2076 15.7826C41.019 15.9129 40.8289 16.0443 40.6388 16.1788C39.8089 16.7904 38.982 17.4081 38.1334 18.0419Z" fill="white"/>
</svg>
