<svg width="25" height="25" viewBox="0 0 25 25" fill="none" xmlns="http://www.w3.org/2000/svg">
<path d="M17.8573 21.2501C17.8573 22.1645 16.5874 23.1931 14.58 23.5716C13.7606 23.5716 13.3614 23.5716 12.0716 23.5716C7.57439 23.5716 3.92871 22.5322 3.92871 21.2501C3.92871 19.968 7.57439 18.9287 12.0716 18.9287C16.5687 18.9287 17.8573 19.968 17.8573 21.2501Z" fill="black"/>
<path d="M23.9287 11.8435C23.9287 17.5725 18.8499 23.2142 13.0805 23.2142C7.31109 23.2142 1.42871 17.1735 1.42871 11.4445C1.42871 5.71554 6.10574 1.07129 11.8751 1.07129C17.6445 1.07129 23.9287 6.11451 23.9287 11.8435Z" fill="#F61F7D"/>
<path fill-rule="evenodd" clip-rule="evenodd" d="M19.886 18.9449C21.7181 16.9879 22.8573 14.3987 22.8573 11.8435C22.8573 9.37711 21.4964 6.95801 19.3657 5.12038C17.237 3.28447 14.4647 2.14272 11.8751 2.14272C6.69035 2.14272 2.50014 6.31437 2.50014 11.4445C2.50014 13.9571 3.80433 16.6435 5.85459 18.726C7.90485 20.8086 10.5582 22.1427 13.0805 22.1427C15.6113 22.1427 18.0547 20.901 19.886 18.9449ZM13.0805 23.2142C18.8499 23.2142 23.9287 17.5725 23.9287 11.8435C23.9287 6.11451 17.6445 1.07129 11.8751 1.07129C6.10574 1.07129 1.42871 5.71554 1.42871 11.4445C1.42871 17.1735 7.31109 23.2142 13.0805 23.2142Z" fill="black"/>
<path d="M24.6427 13.0357C24.6427 18.8544 19.9257 23.5714 14.107 23.5714C8.28829 23.5714 3.57129 18.8544 3.57129 13.0357C3.57129 7.217 8.28829 2.5 14.107 2.5C19.9257 2.5 24.6427 7.217 24.6427 13.0357Z" fill="white"/>
<path fill-rule="evenodd" clip-rule="evenodd" d="M14.107 22.5C19.334 22.5 23.5713 18.2627 23.5713 13.0357C23.5713 7.80873 19.334 3.57143 14.107 3.57143C8.88002 3.57143 4.64272 7.80873 4.64272 13.0357C4.64272 18.2627 8.88002 22.5 14.107 22.5ZM14.107 23.5714C19.9257 23.5714 24.6427 18.8544 24.6427 13.0357C24.6427 7.217 19.9257 2.5 14.107 2.5C8.28829 2.5 3.57129 7.217 3.57129 13.0357C3.57129 18.8544 8.28829 23.5714 14.107 23.5714Z" fill="black"/>
<path fill-rule="evenodd" clip-rule="evenodd" d="M3.94266 11.4828L1.7998 9.69712L2.48572 8.87402L4.62857 10.6597L3.94266 11.4828Z" fill="black"/>
<path d="M6.78564 10.7139H7.76969L8.08044 13.6274L8.47536 10.72H9.24576L9.6601 13.6089L9.97732 10.7139H10.9484L10.3204 15.7139H9.3105L8.8638 12.6953L8.44299 15.7139H7.4201L6.78564 10.7139Z" fill="black"/>
<path d="M11.8371 10.7139H14.1936V11.467H12.9959V12.7077H13.9088V13.4731H12.9959V14.967H14.2066V15.7139H11.8371V10.7139Z" fill="black"/>
<path d="M15.5354 11.5349H14.7327V10.7139H17.4971V11.5349H16.7008V15.7139H15.5354V11.5349Z" fill="black"/>
<path d="M18.2951 10.7139H19.4539V12.7386H20.2632V10.7139H21.4285V15.7139H20.2632V13.5287H19.4539V15.7139H18.2951V10.7139Z" fill="black"/>
</svg>
