<svg width="70" height="70" viewBox="0 0 70 70" fill="none" xmlns="http://www.w3.org/2000/svg">
<ellipse cx="35" cy="35" rx="35" ry="35" fill="#26A17B"/>
<path d="M38.865 37.959V37.9534C38.6199 37.9702 37.3549 38.0432 34.5399 38.0432C32.289 38.0432 30.7106 37.9814 30.1521 37.9534V37.959C21.4963 37.583 15.04 36.1016 15.04 34.3227C15.04 32.5495 21.502 31.0624 30.1521 30.6865V36.4832C30.7163 36.5224 32.3403 36.6178 34.5798 36.6178C37.2694 36.6178 38.6142 36.5056 38.865 36.4832V30.6921C47.5037 31.0737 53.9429 32.5551 53.9429 34.3283C53.9429 36.1016 47.498 37.583 38.865 37.9646V37.959ZM38.865 30.0917V24.9066H50.917V17H18.1058V24.9066H30.1578V30.0917C20.3623 30.535 13 32.4429 13 34.7324C13 37.0219 20.368 38.9298 30.1578 39.3787V56H38.8707V39.3787C48.6491 38.9354 56 37.0275 56 34.738C56 32.4541 48.6491 30.5406 38.8707 30.0973" fill="white"/>
</svg>
