<svg id="cached-24px" xmlns="http://www.w3.org/2000/svg" width="28" height="28" viewBox="0 0 28 28">
  <path d="M0,0H28V28H0Z" fill="none"/>
  <path d="M22.325,9.063l-4.739,5.063H21.14a7.37,7.37,0,0,1-7.108,7.595,6.6,6.6,0,0,1-3.317-.886l-1.73,1.848a8.962,8.962,0,0,0,5.047,1.57c5.236,0,9.478-4.532,9.478-10.127h3.554Zm-15.4,5.063a7.37,7.37,0,0,1,7.108-7.595,6.6,6.6,0,0,1,3.317.886l1.73-1.848A8.962,8.962,0,0,0,14.032,4C8.8,4,4.554,8.532,4.554,14.127H1L5.739,19.19l4.739-5.063Z" transform="translate(-0.032 -0.127)" fill="#e8e8e8"/>
</svg>
