<svg xmlns="http://www.w3.org/2000/svg" xmlns:xlink="http://www.w3.org/1999/xlink" width="52" height="52" viewBox="0 0 52 52">
  <defs>
    <clipPath id="clip-path">
      <path id="Path_2935" data-name="Path 2935" d="M714.956-1307.259l-1.5,2.13,2.634,3.842.359-.71,12.332-24.208Zm-1.488-5.476-5.213-.011,3.845,5.267a.746.746,0,0,0,1.143,0l1.719-2.342.644-.851c.071-.071.071-.142.144-.213.432-1.705.721-3.41-1.135-3.84a2.073,2.073,0,0,1,.141.639A1.216,1.216,0,0,1,713.467-1312.735ZM697-1326.271l15.148,30.021a.74.74,0,0,0,1.285,0l2.079-4.047-2.7-4.056Zm19.322,14.75,5.8-7.8-9.5-.02a1.353,1.353,0,0,1-1.354-1.353c-3.429.775-4.218,2.478-4.8,5.249l7,.015h.143C717.258-1315.285,717.325-1313.509,716.322-1311.521Zm-10.061-3.929c.15-3.552,1.441-6.109,6.155-6.525h.214l11.425.024,1.862-2.555a.71.71,0,0,0-.569-1.138l-25.207-.05a.719.719,0,0,0-.573,1.135Z" transform="translate(-697 1326.271)" fill="none" clip-rule="evenodd"/>
    </clipPath>
    <clipPath id="clip-path-2">
      <path id="Path_2934" data-name="Path 2934" d="M625-1271.736H756.252V-1327H625Z" transform="translate(-625 1327)" fill="none"/>
    </clipPath>
  </defs>
  <g id="SOV" transform="translate(-128 -298.594)">
    <g id="Group_3951" data-name="Group 3951" transform="translate(137.5 312.33)" clip-path="url(#clip-path)">
      <g id="Group_3950" data-name="Group 3950" transform="translate(-49.738 -0.504)" clip-path="url(#clip-path-2)">
        <path id="Path_2933" data-name="Path 2933" d="M692-1331.271h38.685v37.3H692Z" transform="translate(-645.716 1328.32)" fill="#fff"/>
      </g>
    </g>
    <g id="Ellipse_357" data-name="Ellipse 357" transform="translate(128 298.594)" fill="none" stroke="#fff" stroke-width="4">
      <circle cx="26" cy="26" r="26" stroke="none"/>
      <circle cx="26" cy="26" r="24" fill="none"/>
    </g>
  </g>
</svg>
