<svg width="111" height="35" viewBox="0 0 111 35" fill="none" 
    xmlns="http://www.w3.org/2000/svg">
    <path d="M0.331085 20.0322L1.13891 19.6814L11.0814 15.3859L21.8237 20.0322L17.7903 28.3155L7.91429 29.7029L0.50067 21.7408L0.331085 20.0322Z" fill="#133444"/>
    <path d="M19.5894 14.9178C17.816 12.7929 15.3024 11.4101 12.5493 11.0449L12.374 11.0222C11.5151 10.9185 10.6468 10.9185 9.78785 11.0222L9.61025 11.0438C6.85686 11.4079 4.34288 12.7909 2.57017 14.9166L2.12329 15.6536L1.38078 16.8838L0.837653 17.7825C0.831373 17.8082 0.821335 17.8327 0.807861 17.8554V17.8702L2.00527 18.5799L9.62171 23.0564L11.0918 23.9187V13.2194L9.62171 13.8778V12.282L11.0918 11.6236L12.5608 12.282L20.034 15.6639L19.5894 14.9178Z" fill="#C42370"/>
    <path d="M22.1538 22.6896C22.1433 24.423 21.7487 26.1327 20.9981 27.6972C20.2475 29.2618 19.1594 30.6427 17.811 31.7418C16.7727 32.5903 15.5877 33.2437 14.3139 33.6702C13.274 34.0095 12.1863 34.1818 11.0918 34.1805C4.96724 34.1805 0 28.7677 0 22.6896C0.00340587 21.7909 0.114573 20.8957 0.331149 20.0231L11.0735 26.3415L21.8169 20.0231C22.0426 20.8941 22.1558 21.7902 22.1538 22.6896V22.6896Z" fill="#1C4D6B"/>
    <path d="M9.78317 11.0324L11.0757 11.6099L9.60556 12.2729V10.9516L9.78317 11.0324Z" fill="black"/>
    <path d="M9.61127 13.8767L11.0814 13.2115V23.913L9.61127 23.0508V13.8767Z" fill="black"/>
    <path d="M11.0813 13.216V23.9176L21.3756 17.8691L11.0813 13.216Z" fill="#1D4259"/>
    <path d="M11.0813 0.885593V13.216L21.3756 17.8691L11.0813 0.885593Z" fill="#4B6B9A"/>
    <path d="M11.0802 13.216V23.9141L9.61011 23.0519L0.800842 17.8691H0.807717C0.807717 17.8475 0.830634 17.8179 0.837509 17.7962L2.12429 15.6696L9.61125 12.2957V13.8903L11.0802 13.216Z" fill="#343535"/>
    <path d="M11.0801 13.216V23.9176L9.61002 23.0553L0.787004 17.8771L0.785858 17.8634L0.800754 17.8486L9.61002 13.8767L11.0801 13.216Z" fill="#3E5578"/>
    <path d="M11.0801 0.885593V13.216L0.785858 17.8691L11.0801 0.885593Z" fill="#6DB2D8"/>
    <path d="M6.91425 33.3035C7.07008 33.3695 7.22363 33.4356 7.37259 33.4926C7.22363 33.4356 7.07466 33.3695 6.91425 33.3035Z" fill="#335F8A"/>
    <path d="M7.37698 33.4926C7.53053 33.5518 7.69324 33.6065 7.85366 33.6566C7.6915 33.6118 7.5323 33.557 7.37698 33.4926Z" fill="#335F8A"/>
    <path d="M8.26056 33.792C8.38431 33.8296 8.50233 33.8581 8.62608 33.8877C8.50921 33.8604 8.3866 33.8217 8.26056 33.792Z" fill="#335F8A"/>
    <path d="M0.331149 20.0322L11.0735 26.3506C10.9276 27.3099 10.6687 28.2489 10.3023 29.1482C9.43833 31.2224 7.70925 33.4071 4.3439 31.7407C2.99524 30.6423 1.90675 29.2619 1.15594 27.6977C0.405122 26.1334 0.0104429 24.4239 0 22.6908C0.00623659 21.7948 0.117368 20.9026 0.331149 20.0322V20.0322Z" fill="#6DB2D8"/>
    <path d="M17.8044 31.7407L17.7746 31.7635C17.7161 31.8068 17.66 31.8512 17.6096 31.8956L17.5947 31.9093C17.5362 31.9605 17.4709 32.0049 17.4113 32.0494C17.3461 32.1018 17.2776 32.1501 17.2062 32.194C17.1349 32.2388 17.0664 32.2879 17.0011 32.341C16.9347 32.3922 16.8751 32.4218 16.8178 32.4663L16.78 32.4879C16.7158 32.5323 16.6494 32.5688 16.5898 32.6109C16.5851 32.6112 16.5806 32.6127 16.5768 32.6153C16.5729 32.6179 16.5699 32.6215 16.568 32.6257C16.5015 32.6702 16.4351 32.7066 16.3698 32.751C16.3045 32.7955 16.222 32.8319 16.1498 32.874C16.0776 32.9162 16.002 32.9549 15.9298 32.988H15.9206L15.7006 33.1019L15.4714 33.2158C15.2453 33.3199 15.016 33.4172 14.7839 33.5074C14.635 33.5643 14.4677 33.6213 14.3072 33.6725C14.2443 33.696 14.18 33.7158 14.1147 33.7318L13.9028 33.7978C13.7767 33.8343 13.6598 33.8639 13.5349 33.8935C13.4903 33.9072 13.4387 33.9152 13.394 33.93L13.3149 33.9448L13.1167 33.9881C13.0503 34.0029 13.0021 34.0108 12.9334 34.0245C12.8791 34.0381 12.824 34.048 12.7684 34.0541C12.7088 34.0621 12.6423 34.0769 12.585 34.0838C12.5548 34.0812 12.5245 34.0863 12.4968 34.0986L12.3559 34.1134H12.2825C12.2318 34.1223 12.1805 34.1273 12.129 34.1282C12.0652 34.1372 12.0009 34.1422 11.9365 34.143H11.7887C11.736 34.143 11.7004 34.1509 11.6581 34.1509H10.8651C10.7961 34.1553 10.7268 34.1553 10.6577 34.1509H10.5042C10.4595 34.1509 10.416 34.143 10.3713 34.143H10.2235C10.1603 34.1348 10.0969 34.1298 10.0332 34.1282C9.98161 34.1305 9.92991 34.1256 9.8797 34.1134H9.80178C9.75609 34.1044 9.7097 34.0994 9.66314 34.0986C9.63325 34.097 9.60364 34.092 9.5749 34.0838C9.51319 34.078 9.45194 34.0681 9.39157 34.0541C9.33586 34.0487 9.28068 34.0388 9.22657 34.0245C9.16483 34.0157 9.10363 34.0035 9.04323 33.9881C8.98365 33.9733 8.91031 33.9596 8.845 33.9448L8.76365 33.93C8.71251 33.9264 8.66163 33.92 8.61125 33.9106C8.4852 33.881 8.36145 33.8445 8.24343 33.8149L8.02343 33.7489C7.95697 33.7272 7.89051 33.7124 7.83093 33.6896C7.66593 33.6384 7.51467 33.5757 7.35425 33.5256C7.19384 33.4755 7.038 33.4026 6.89592 33.3365C6.82258 33.3001 6.74238 33.2705 6.66675 33.234L6.43758 33.1201L6.21758 33.0062C6.14424 32.9697 6.07205 32.9253 5.99757 32.8923C5.92309 32.8592 5.84976 32.8114 5.77757 32.7693C5.70538 32.7271 5.64465 32.6884 5.57934 32.644L5.55757 32.6292C5.49062 32.5926 5.4263 32.5515 5.36507 32.5061L5.3284 32.4845C5.26996 32.448 5.20465 32.4036 5.14507 32.3592C5.08548 32.3148 5.00642 32.2658 4.93996 32.2123C4.8735 32.1587 4.80131 32.1189 4.73485 32.0676L4.55152 31.9275L4.53662 31.9138C4.48011 31.8717 4.42508 31.8276 4.37162 31.7817L4.34183 31.7589C7.69915 33.4242 9.44084 31.2338 10.3002 29.1732C10.6671 28.274 10.9267 27.335 11.0737 26.3757C11.2192 27.338 11.478 28.2801 11.8448 29.1823C12.7122 31.2156 14.447 33.4083 17.8044 31.7407V31.7407Z" fill="#529BBA"/>
    <path d="M13.5278 33.8877C13.6516 33.8581 13.7776 33.8217 13.8956 33.792C13.7776 33.8217 13.6516 33.8604 13.5278 33.8877Z" fill="#335F8A"/>
    <path d="M14.3058 33.6623C14.4708 33.611 14.622 33.5484 14.7847 33.4983C14.6289 33.5552 14.4685 33.6122 14.3058 33.6623Z" fill="#335F8A"/>
    <path d="M22.1536 22.6896C22.1431 24.4229 21.7485 26.1327 20.9979 27.6972C20.2473 29.2618 19.1592 30.6427 17.8109 31.7418C14.4535 33.4071 12.7118 31.2155 11.8525 29.1561C11.4865 28.2567 11.2277 27.3178 11.0813 26.3586L21.8236 20.0401C22.0435 20.9063 22.1544 21.7963 22.1536 22.6896V22.6896Z" fill="#4B6B9A"/>
    <path d="M34.0111 33.8502H30.3673V9.67461H34.0111V11.3832C34.6745 10.6869 35.4775 10.1368 36.3682 9.76851C37.259 9.40023 38.2176 9.22196 39.182 9.24526C40.1464 9.26856 41.0952 9.4929 41.9669 9.90377C42.8386 10.3146 43.6138 10.9029 44.2424 11.6304C45.6919 13.2735 46.4559 15.4047 46.3782 17.5888C46.4481 19.7389 45.6904 21.8345 44.2596 23.4482C43.6229 24.1714 42.8402 24.7532 41.9625 25.156C41.0848 25.5587 40.1316 25.7733 39.165 25.7857C38.1983 25.7982 37.2399 25.6083 36.3519 25.2283C35.464 24.8483 34.6664 24.2869 34.0111 23.5803V33.8502V33.8502ZM42.6703 17.5888C42.7236 16.2582 42.2882 14.9538 41.4453 13.9188C41.0661 13.461 40.5876 13.0945 40.0457 12.8465C39.5038 12.5986 38.9125 12.4757 38.316 12.487C37.706 12.4652 37.0987 12.5779 36.5377 12.8169C35.9766 13.056 35.4757 13.4156 35.071 13.8698C34.2111 14.8834 33.7675 16.1823 33.8289 17.5068C33.7789 18.8298 34.2211 20.1247 35.071 21.1439C35.4678 21.6046 35.9645 21.9698 36.5238 22.2121C37.0831 22.4543 37.6904 22.5674 38.3 22.5427C38.8925 22.5548 39.4801 22.4338 40.019 22.1886C40.5579 21.9434 41.0341 21.5805 41.4121 21.1268C42.2596 20.1451 42.7079 18.8842 42.6691 17.5911L42.6703 17.5888Z" fill="white"/>
    <path d="M49.4902 17.3942C49.4741 16.3165 49.682 15.2472 50.1008 14.2531C50.5196 13.259 51.1403 12.3615 51.924 11.6168C53.5252 10.0839 55.6626 9.22883 57.8856 9.2318C60.1086 9.23478 62.2437 10.0956 63.8408 11.6327C65.3929 13.2035 66.2612 15.3181 66.2582 17.5199C66.2552 19.7217 65.3811 21.8339 63.8247 23.4005C63.0318 24.1775 62.0896 24.7879 61.0543 25.1952C60.019 25.6024 58.9118 25.7982 57.7987 25.7709C56.6981 25.7974 55.6039 25.5972 54.5849 25.1827C53.566 24.7683 52.6444 24.1487 51.8781 23.3629C51.0942 22.5806 50.4784 21.6482 50.0679 20.6222C49.6574 19.5962 49.4608 18.4979 49.4902 17.3942V17.3942ZM53.2153 17.4602C53.1413 18.8146 53.5924 20.1456 54.4758 21.1793C54.9107 21.64 55.4405 22.0021 56.0289 22.2407C56.6174 22.4794 57.2508 22.589 57.8858 22.5621C58.5192 22.5877 59.1508 22.4791 59.7388 22.2434C60.3267 22.0078 60.8575 21.6505 61.2958 21.1952C62.1215 20.1543 62.5706 18.8673 62.5706 17.5417C62.5706 16.216 62.1215 14.929 61.2958 13.8881C60.8609 13.4274 60.3312 13.0653 59.7427 12.8267C59.1542 12.588 58.5208 12.4784 57.8858 12.5053C57.2557 12.4799 56.6276 12.5903 56.0445 12.829C55.4614 13.0677 54.9372 13.429 54.5079 13.8881C53.6243 14.8654 53.1604 16.1474 53.2153 17.4602V17.4602Z" fill="white"/>
    <path d="M70.1352 9.67464H73.7779V11.0757C74.2876 10.5074 74.8857 10.024 75.5493 9.64388C76.1336 9.36917 76.7743 9.23382 77.4205 9.24863C78.4921 9.28369 79.5339 9.60816 80.4341 10.1872L78.7623 13.4905C78.1849 13.0369 77.4775 12.7777 76.7421 12.7501C74.7552 12.7501 73.763 14.2309 73.763 17.2107V25.3243H70.1191V9.67464H70.1352Z" fill="white"/>
    <path d="M86.2789 13.0429V25.3266H82.6363V13.0429H81.0803V9.67463H82.6363V3.93031H86.2789V9.67463H89.1103V13.0429H86.2789Z" fill="white"/>
    <path d="M91.0297 3.15693C91.0274 2.85004 91.0879 2.54589 91.2074 2.26294C91.327 1.98 91.5032 1.72416 91.7253 1.51098C92.1711 1.06824 92.7755 0.819556 93.4056 0.819556C94.0358 0.819556 94.6402 1.06824 95.086 1.51098C95.3121 1.72449 95.4908 1.98263 95.6105 2.26883C95.7303 2.55504 95.7885 2.86297 95.7815 3.17288C95.7871 3.48512 95.7283 3.79519 95.6087 4.08396C95.489 4.37273 95.3112 4.63407 95.086 4.85186C94.8712 5.07659 94.6115 5.25419 94.3236 5.37326C94.0357 5.49233 93.726 5.55024 93.4142 5.54328C93.0996 5.54929 92.787 5.49103 92.4959 5.3721C92.2048 5.25317 91.9413 5.0761 91.7218 4.85186C91.497 4.63089 91.32 4.36653 91.2018 4.07505C91.0835 3.78357 91.0265 3.47112 91.0343 3.15693H91.0297ZM95.219 9.67468V25.3266H91.5763V9.67468H95.219Z" fill="white"/>
    <path d="M108.977 12.3413L105.96 13.936C105.48 12.9655 104.9 12.4871 104.204 12.4871C103.886 12.4861 103.579 12.6035 103.344 12.8163C103.23 12.9236 103.14 13.0541 103.08 13.1989C103.021 13.3437 102.994 13.4995 103 13.6558C103 14.2481 103.696 14.8575 105.103 15.4327C106.535 15.9438 107.857 16.7199 108.999 17.72C109.693 18.4905 110.056 19.5011 110.008 20.5346C110.023 21.25 109.88 21.96 109.588 22.6141C109.296 23.2683 108.863 23.8506 108.319 24.3197C107.587 24.9453 106.714 25.3868 105.774 25.607C104.835 25.8273 103.855 25.8199 102.919 25.5855C101.983 25.351 101.117 24.8964 100.394 24.2598C99.6713 23.6233 99.1131 22.8234 98.7663 21.9277L101.878 20.4959C102.14 21.0176 102.474 21.4997 102.872 21.9277C103.301 22.3298 103.872 22.5486 104.461 22.5371C105.683 22.5371 106.295 21.9774 106.295 20.8581C106.295 20.2157 105.814 19.6051 104.87 19.0641C104.506 18.8829 104.141 18.7018 103.777 18.5378C103.413 18.3738 103.032 18.1961 102.668 18.0116C101.822 17.6568 101.061 17.1299 100.432 16.4647C99.8639 15.7498 99.5706 14.8568 99.605 13.9462C99.5851 13.3168 99.7002 12.6903 99.9428 12.1085C100.185 11.5268 100.55 11.0031 101.012 10.5723C101.955 9.68863 103.21 9.20982 104.506 9.2396C105.482 9.23529 106.435 9.53101 107.236 10.0863C108.036 10.6415 108.644 11.4291 108.977 12.3413V12.3413Z" fill="white"/>
</svg>
