<svg width="188" height="26" viewBox="0 0 188 26" fill="none" 
    xmlns="http://www.w3.org/2000/svg">
    <path fill-rule="evenodd" clip-rule="evenodd" d="M33.9403 19.1263C33.7158 18.9131 33.5911 18.7947 33.8156 18.4158L34.7137 16.9473C34.9132 16.6158 35.3373 16.6158 35.5618 16.7815C35.6866 16.8526 37.7072 18.25 39.3287 18.25C40.6259 18.25 41.5988 17.4447 41.5988 16.4263C41.5988 15.2184 40.5261 14.3894 38.4306 13.5842C36.0857 12.6842 33.7408 11.2631 33.7408 8.46839C33.7408 6.36049 35.3872 3.92102 39.3536 3.92102C41.8981 3.92102 43.8439 5.1526 44.3428 5.50786C44.5923 5.64997 44.6671 6.0526 44.4925 6.28944L43.5445 7.63944C43.345 7.92365 42.9708 8.11313 42.6714 7.92365C42.4719 7.80523 40.576 6.62102 39.2039 6.62102C37.782 6.62102 37.0087 7.52102 37.0087 8.27892C37.0087 9.39207 37.9317 10.15 39.9523 10.9315C42.3721 11.8552 45.166 13.2289 45.166 16.2842C45.166 18.7237 42.9458 20.9737 39.4285 20.9737C36.2853 20.9737 34.4393 19.5763 33.9403 19.1263ZM47.1118 12.471C47.1118 7.73418 51.0782 3.92102 56.0674 3.92102C61.0566 3.92102 65.048 7.73418 65.048 12.471C65.048 15.6921 63.0772 18.5342 60.1835 20.05L63.3017 24.7158C63.5263 25.0473 63.3017 25.4263 62.9026 25.4263H60.2583C60.1586 25.4263 59.934 25.3315 59.8592 25.1894L57.19 20.9026C56.7909 20.95 56.3668 20.9737 56.0674 20.9737C51.0782 20.9737 47.1118 17.2079 47.1118 12.471ZM50.3548 12.471C50.3548 15.4552 52.9242 17.8947 56.0674 17.8947C59.2106 17.8947 61.805 15.4552 61.805 12.471C61.805 9.48681 59.2106 6.99997 56.0674 6.99997C52.9242 6.99997 50.3548 9.48681 50.3548 12.471ZM68.0914 14.4605V4.60786C68.0914 4.37102 68.3159 4.15786 68.5653 4.15786H70.9352C71.2096 4.15786 71.4092 4.37102 71.4092 4.60786V14.2947C71.4092 16.3079 72.8561 17.8947 75.0264 17.8947C77.1966 17.8947 78.6685 16.3079 78.6685 14.3184V4.60786C78.6685 4.37102 78.868 4.15786 79.1424 4.15786H81.5123C81.7618 4.15786 81.9863 4.37102 81.9863 4.60786V14.4605C81.9863 18.0605 78.9678 20.9737 75.0264 20.9737C71.1098 20.9737 68.0914 18.0605 68.0914 14.4605ZM84.431 20.7368C84.0568 20.7368 83.8572 20.4289 84.0069 20.121L91.7651 4.18155C91.8399 4.03944 91.9647 3.92102 92.1892 3.92102H92.4386C92.6881 3.92102 92.7879 4.03944 92.8627 4.18155L100.546 20.121C100.696 20.4289 100.496 20.7368 100.122 20.7368H97.9517C97.5775 20.7368 97.4029 20.5947 97.2283 20.2631L96.0059 17.7052H88.5471L87.3247 20.2631C87.2249 20.5 87.0004 20.7368 86.6013 20.7368H84.431ZM89.7694 15.0763H94.7836L92.289 9.86576H92.2141L89.7694 15.0763ZM102.816 20.2868V4.60786C102.816 4.37102 103.016 4.15786 103.29 4.15786H110.425C113.418 4.15786 115.863 6.43155 115.863 9.24997C115.863 11.4289 114.341 13.2052 112.171 14.0342L115.588 20.05C115.763 20.3579 115.588 20.7368 115.164 20.7368H112.545C112.321 20.7368 112.196 20.6184 112.146 20.5237L108.828 14.2473H106.059V20.2868C106.059 20.5237 105.835 20.7368 105.585 20.7368H103.29C103.016 20.7368 102.816 20.5237 102.816 20.2868ZM106.084 11.7131H110.15C111.472 11.7131 112.62 10.6237 112.62 9.29734C112.62 8.04207 111.472 6.99997 110.15 6.99997H106.084V11.7131ZM119.43 20.2868V4.60786C119.43 4.37102 119.63 4.15786 119.904 4.15786H130.057C130.332 4.15786 130.531 4.37102 130.531 4.60786V6.54997C130.531 6.78681 130.332 6.99997 130.057 6.99997H122.673V10.8842H128.835C129.084 10.8842 129.309 11.0973 129.309 11.3342V13.3C129.309 13.5605 129.084 13.75 128.835 13.75H122.673V17.8947H130.057C130.332 17.8947 130.531 18.1079 130.531 18.3447V20.2868C130.531 20.5237 130.332 20.7368 130.057 20.7368H119.904C119.63 20.7368 119.43 20.5237 119.43 20.2868Z" fill="#3964DF"/>
    <path fill-rule="evenodd" clip-rule="evenodd" d="M134.59 20.3773V4.48931C134.59 4.24931 134.788 4.03331 135.062 4.03331H137.349C137.598 4.03331 137.822 4.24931 137.822 4.48931V17.9533H144.161C144.435 17.9533 144.633 18.1693 144.633 18.4093V20.3773C144.633 20.6173 144.435 20.8333 144.161 20.8333H135.062C134.788 20.8333 134.59 20.6173 134.59 20.3773Z" fill="#819CEA"/>
    <path fill-rule="evenodd" clip-rule="evenodd" d="M147.144 20.3773V4.48931C147.144 4.24931 147.368 4.03331 147.617 4.03331H149.929C150.177 4.03331 150.401 4.24931 150.401 4.48931V20.3773C150.401 20.6173 150.177 20.8333 149.929 20.8333H147.617C147.368 20.8333 147.144 20.6173 147.144 20.3773Z" fill="#819CEA"/>
    <path fill-rule="evenodd" clip-rule="evenodd" d="M154.926 20.3773V4.22531C154.926 3.98531 155.15 3.79331 155.398 3.79331H156.02L166.362 14.4013H166.387V4.48931C166.387 4.24931 166.586 4.03331 166.859 4.03331H169.146C169.395 4.03331 169.619 4.24931 169.619 4.48931V20.6413C169.619 20.8813 169.395 21.0733 169.146 21.0733H168.55L158.158 10.0573H158.133V20.3773C158.133 20.6173 157.934 20.8333 157.66 20.8333H155.398C155.15 20.8333 154.926 20.6173 154.926 20.3773Z" fill="#819CEA"/>
    <path fill-rule="evenodd" clip-rule="evenodd" d="M174.143 20.2573V4.60931C174.143 4.29731 174.392 4.03331 174.74 4.03331H176.928C177.251 4.03331 177.524 4.29731 177.524 4.60931V11.0893L183.789 4.27331C183.889 4.15331 184.038 4.03331 184.262 4.03331H186.748C187.22 4.03331 187.469 4.53731 187.145 4.89731L180.657 11.9533L187.618 19.9933C187.866 20.3053 187.667 20.8333 187.17 20.8333H184.46C184.212 20.8333 184.063 20.7373 184.013 20.6653L177.524 12.9373V20.2573C177.524 20.5693 177.251 20.8333 176.928 20.8333H174.74C174.392 20.8333 174.143 20.5693 174.143 20.2573Z" fill="#819CEA"/>
    <path fill-rule="evenodd" clip-rule="evenodd" d="M0 0.975952H19.0112C21.9278 0.975952 24.2921 3.21453 24.2921 5.97595V19.024C24.2921 21.7854 21.9278 24.024 19.0112 24.024H5.2809C2.36434 24.024 0 21.7854 0 19.024L0 0.975952ZM3.42715 3.8781V19.1069C3.42715 20.2115 4.37288 21.1069 5.5395 21.1069H18.7742C19.9408 21.1069 20.8866 20.2115 20.8866 19.1069V5.8781C20.8866 4.77353 19.9408 3.8781 18.7742 3.8781H3.42715ZM7.11917 3.8781H10.5238V11.2703V15.5105C10.5238 16.615 9.57803 17.5105 8.4114 17.5105H3.42715V14.6993H7.11917V3.8781ZM7.11917 3.8781H10.5238H7.11917ZM3.42715 17.5105V14.6993V17.5105ZM17.1945 21.1069H13.79V13.7148V9.47455C13.79 8.36998 14.7357 7.47455 15.9023 7.47455H20.8866V10.2857H17.1945V21.1069ZM20.8866 7.47455V10.2857V7.47455ZM17.1945 21.1069H13.79H17.1945Z" fill="#3964DF"/>
</svg>
