<svg width="200" height="120" xmlns="http://www.w3.org/2000/svg" 
	 viewBox="0 0 202.9 54.8" style="enable-background:new 0 0 202.9 54.8;" xml:space="preserve">
<style type="text/css">
	.st0-niftywallet{fill:url(#XMLID_151_);}
	.st1-niftywallet{fill:#653C95;}
	.st2-niftywallet{fill:url(#XMLID_152_);}
	.st3-niftywallet{opacity:0.1;fill:#FFFFFF;}
	.st4-niftywallet{fill:url(#XMLID_153_);}
	.st5-niftywallet{fill:#74C594;}
</style>
<g id="XMLID_2_">
	<linearGradient id="XMLID_151_" gradientUnits="userSpaceOnUse" x1="9.094947e-013" y1="17.4707" x2="36.3809" y2="17.4707">
		<stop  offset="0" style="stop-color:#311D53"/>
		<stop  offset="4.301075e-002" style="stop-color:#2C164E"/>
		<stop  offset="1" style="stop-color:#663D96"/>
	</linearGradient>
	<path id="XMLID_30_" class="st0-niftywallet" d="M3.7,33c0,0-2.2-2.1-2.8-2.8s-2.1-3.6,0.3-6.3S21,4.4,23.9,1.4s5.4-0.2,6.5,1.1
		c1.1,1.3,6,5.8,6,5.8s-4,19.1-5.4,20.2c-1.4,1.2-11.7,5.3-12,5.6c-0.3,0.3-6.7,0.8-6.7,0.8H9.4"/>
	<g id="XMLID_3_">
		<path id="XMLID_4_" class="st1-niftywallet" d="M71.6,17.5c0-0.7,0.3-1.1,0.9-1.1c0.5,0,0.9,0.3,1.3,0.9l9.9,14.6V17.4c0-0.6,0.3-1,0.9-1
			c0.6,0,0.9,0.3,0.9,1v16.8c0,0.7-0.3,1.1-0.9,1.1c-0.5,0-0.9-0.3-1.3-0.8l-9.9-14.6v14.4c0,0.6-0.3,1-0.9,1c-0.6,0-0.9-0.3-0.9-1
			V17.5z"/>
		<path id="XMLID_6_" class="st1-niftywallet" d="M91,17.5c0.7,0,1.3,0.6,1.3,1.3c0,0.7-0.6,1.3-1.3,1.3c-0.7,0-1.3-0.6-1.3-1.3
			C89.7,18.1,90.3,17.5,91,17.5z M90.1,23.5c0-0.6,0.3-0.9,0.9-0.9c0.6,0,1,0.3,1,0.9v10.8c0,0.6-0.3,0.9-1,0.9c-0.6,0-1-0.3-1-0.9
			V23.5z"/>
		<path id="XMLID_11_" class="st1-niftywallet" d="M96.6,24.2h-1.7c-0.7,0-1-0.3-1-0.9c0-0.7,0.4-1,1-1h1.7c0.2-4.1,2-4.8,4.8-4.8
			c0.7,0,1.1,0.3,1.1,0.9c0,0.6-0.4,0.8-1.1,0.8c-1.4,0-3-0.5-3,3.1c0.3,0,0.8,0,1.6,0c0.7,0,1,0.3,1,1c0,0.7-0.4,1-1.1,1h-1.6v10.1
			c0,0.6-0.3,0.9-0.9,0.9c-0.6,0-0.9-0.3-0.9-0.9V24.2z"/>
		<path id="XMLID_13_" class="st1-niftywallet" d="M104.5,20.1c0-0.6,0.3-0.9,0.9-0.9c0.6,0,0.9,0.3,0.9,0.9v2.2h2.2c0.7,0,1,0.4,1,1
			c0,0.6-0.3,0.9-0.9,0.9h-2.3v6.5c0,2,0.5,3.1,2.2,3.1c0.7,0,1.1,0.3,1.1,0.8c0,0.6-0.4,0.9-1.1,0.9c-3,0-4-1.8-4-4.8v-6.5H97
			c-0.6,0-0.9-0.3-0.9-0.9c0-0.6,0.3-1,0.8-1h7.6V20.1z"/>
		<path id="XMLID_31_" class="st1-niftywallet" d="M197.5,20.1c0-0.6,0.3-0.9,0.9-0.9c0.6,0,0.9,0.3,0.9,0.9v2.2h2.2c0.7,0,1,0.4,1,1
			c0,0.6-0.3,0.9-0.9,0.9h-2.3v6.5c0,2,0.8,3.1,2.5,3.1c0.7,0,1.1,0.3,1.1,0.8c0,0.6-0.4,0.9-1.1,0.9c-3,0-4.3-1.8-4.3-4.8v-6.5
			l-1.8,0c-0.6,0-0.9-0.3-0.9-0.9c0-0.6,0.3-1,0.8-1l1.9,0V20.1z"/>
		<path id="XMLID_15_" class="st1-niftywallet" d="M115.9,35.5l-4.6-11.4c-0.1-0.2-0.1-0.4-0.1-0.6c0-0.6,0.3-0.9,0.9-0.9c0.5,0,0.9,0.3,1.1,0.9
			l3.8,9.4l4-9.3c0.2-0.5,0.5-0.8,1.1-0.8c0.6,0,0.9,0.3,0.9,0.9c0,0.2,0,0.4-0.1,0.6l-6.6,15c-0.2,0.6-0.6,0.8-1.1,0.8
			c-0.6,0-0.9-0.3-0.9-0.9c0-0.2,0-0.4,0.1-0.6L115.9,35.5z"/>
		<path id="XMLID_17_" class="st1-niftywallet" d="M138.5,32.7l4.3-15.4c0.2-0.6,0.6-1,1.3-1c0.7,0,1.1,0.3,1.3,1l4.2,15.4l5.9-15.3
			c0.1-0.7,0.4-1,1-1c0.5,0,1,0.4,1,1c0,0.1,0,0.2,0,0.2L151.2,34c-0.2,0.8-0.8,1.3-1.6,1.3c-0.6,0-1.3-0.3-1.5-1.2l-4-14.7l-4,14.3
			c-0.3,1.1-1,1.6-1.7,1.6c-0.7,0-1.4-0.6-1.6-1.5l-6.2-16.3c0-0.1,0-0.2,0-0.2c0-0.6,0.5-0.9,1-0.9c0.6,0,0.9,0.3,1,0.9L138.5,32.7
			z"/>
		<path id="XMLID_19_" class="st1-niftywallet" d="M163.2,22.6c2.9,0,4.5,1.8,4.5,4v8c0,0.4-0.3,0.8-0.8,0.8c-0.5,0-0.8-0.4-0.8-0.8
			c0-0.4,0-0.6,0-0.8c-1,1-2.4,1.6-3.8,1.6c-2.2,0-4.2-1.2-4.2-3.7c0-2.6,2.4-3.9,4.7-3.9c1.3,0,3.3,0.3,3.3,0.3v-1.3
			c0-1.5-1.2-2.6-3.3-2.6c-1.4,0-3,0.8-3.7,0.8c-0.4,0-0.8-0.2-0.8-0.7c0-0.3,0.2-0.6,0.6-0.8C159.9,23.1,161.7,22.6,163.2,22.6z
			 M162.6,33.9c3.3,0,3.3-4.3,3.3-4.3s-1.5-0.2-3.1-0.2c-1.5,0-3,0.7-3,2.3C159.7,33.2,161.1,33.9,162.6,33.9z"/>
		<path id="XMLID_22_" class="st1-niftywallet" d="M172,18.2c0-0.6,0.3-1,0.9-1c0.6,0,1,0.3,1,1v16.1c0,0.6-0.3,0.9-0.9,0.9
			c-0.6,0-0.9-0.3-0.9-0.9V18.2z"/>
		<path id="XMLID_24_" class="st1-niftywallet" d="M177.4,18.2c0-0.6,0.3-1,0.9-1c0.6,0,1,0.3,1,1v16.1c0,0.6-0.3,0.9-0.9,0.9
			c-0.6,0-0.9-0.3-0.9-0.9V18.2z"/>
		<path id="XMLID_26_" class="st1-niftywallet" d="M193.8,27.5c0,1.4-0.2,2.1-1.4,2.1l-7.9,0c0,2.3,2.2,4.2,4.5,4.2c1.4,0,1.9-0.1,3-1.1
			c0.3-0.3,0.7-0.5,1.1-0.5c0.5,0,0.8,0.3,0.8,0.9c0,0.2-0.1,0.4-0.2,0.5c-1.2,1.5-2.5,2.1-4.7,2.1c-4.2,0-6.5-3-6.5-7
			c0-3.7,2.3-6.5,6.2-6.5C191.1,22,193.8,23.8,193.8,27.5z M191.9,27.7c0-2.6-1.6-3.8-3.2-3.8c-2.4,0-4.3,1.2-4.3,3.8L191.9,27.7z"
			/>
	</g>
	<linearGradient id="XMLID_152_" gradientUnits="userSpaceOnUse" x1="52.0335" y1="13.003" x2="16.1551" y2="45.2517">
		<stop  offset="0" style="stop-color:#8262AA"/>
		<stop  offset="0.7849" style="stop-color:#623D8F"/>
		<stop  offset="0.8333" style="stop-color:#552E87"/>
	</linearGradient>
	<path id="XMLID_1_" class="st2-niftywallet" d="M3.2,32.4c0,0,3.1,0.7,5.4-1.4S31.9,7.8,34.8,5.3s4.3-1.7,6-0.6s15.6,15.6,17.6,17.5
		s1.4,5.7-0.3,7.6c-1.7,1.9-18.7,19.8-22.5,22.4s-8.4,4.3-13.1-0.5S3.2,32.4,3.2,32.4z"/>
	<path id="XMLID_34_" class="st3-niftywallet" d="M12.4,41.2c0,0,1.2,0.3,2.1-0.6s9.3-9.2,10.5-10.2c1.2-1,1.7-0.7,2.4-0.2s6.2,6.2,7,6.9
		s0.6,2.3-0.1,3c-0.7,0.7-7.4,7.8-9,8.9s-3.3,1.7-5.2-0.2C18.2,47,12.4,41.2,12.4,41.2z"/>
	<linearGradient id="XMLID_153_" gradientUnits="userSpaceOnUse" x1="58.2917" y1="6.9375" x2="37.351" y2="25.6445">
		<stop  offset="0" style="stop-color:#8262AA"/>
		<stop  offset="0.7849" style="stop-color:#623D8F"/>
		<stop  offset="0.8333" style="stop-color:#552E87"/>
	</linearGradient>
	<path id="XMLID_35_" class="st4-niftywallet" d="M54.5,15.6l-6.3-6.3c-0.7-0.7-2-0.7-2.7,0l-7.3,7.3c0,0,0,0.1-0.1,0.1
		c-1.6,1.2-2.7,3.1-2.7,5.2c0,3.6,2.9,6.4,6.4,6.4c2.2,0,4.1-1.1,5.3-2.7c0,0,0,0,0,0l7.3-7.3C55.2,17.6,55.2,16.4,54.5,15.6z"/>
	<circle id="XMLID_29_" class="st5-niftywallet" cx="41.6" cy="21.9" r="3.9"/>
</g>
</svg>
