<svg width="35" height="35" viewBox="0 0 35 35" fill="none" 
    xmlns="http://www.w3.org/2000/svg">
    <path d="M7.29346 18.7748L8.06075 18.4491L17.5044 14.4614L27.7078 18.7748L23.8768 26.4646L14.4962 27.7525L7.45453 20.361L7.29346 18.7748Z" fill="#133444"/>
    <path d="M25.5858 14.0268C23.9014 12.0542 21.5139 10.7705 18.899 10.4315L18.7325 10.4103C17.9167 10.3141 17.0918 10.3141 16.276 10.4103L16.1073 10.4304C13.4921 10.7684 11.1042 12.0523 9.42048 14.0258L8.99602 14.7099L8.29076 15.852L7.77488 16.6863C7.76891 16.7101 7.75938 16.7329 7.74658 16.754V16.7677L8.88392 17.4265L16.1182 21.5823L17.5146 22.3828V12.4502L16.1182 13.0614V11.5799L17.5146 10.9687L18.9099 11.5799L26.0081 14.7194L25.5858 14.0268Z" fill="#C42370"/>
    <path d="M28.0213 21.2419C28.0113 22.851 27.6365 24.4382 26.9236 25.8907C26.2107 27.3431 25.1771 28.6251 23.8964 29.6454C22.9102 30.4331 21.7846 31.0397 20.5748 31.4357C19.587 31.7507 18.5539 31.9106 17.5143 31.9094C11.697 31.9094 6.979 26.8844 6.979 21.2419C6.98224 20.4075 7.08783 19.5764 7.29354 18.7664L17.4969 24.632L27.7013 18.7664C27.9157 19.575 28.0232 20.4068 28.0213 21.2419Z" fill="#1C4D6B"/>
    <path d="M16.2712 10.4198L17.4989 10.9559L16.1025 11.5714V10.3447L16.2712 10.4198Z" fill="black"/>
    <path d="M16.1084 13.0603L17.5048 12.4427V22.3775L16.1084 21.577V13.0603Z" fill="black"/>
    <path d="M17.5044 12.447V22.3818L27.2822 16.7667L17.5044 12.447Z" fill="#1D4259"/>
    <path d="M17.5044 1V12.4469L27.2822 16.7666L17.5044 1Z" fill="#4B6B9A"/>
    <path d="M17.5034 12.4469V22.3785L16.107 21.578L7.73975 16.7666H7.74628C7.74628 16.7465 7.76804 16.7191 7.77457 16.699L8.9968 14.7247L16.1081 11.5925V13.073L17.5034 12.4469Z" fill="#343535"/>
    <path d="M17.5029 12.447V22.3818L16.1065 21.5813L7.72619 16.7741L7.7251 16.7614L7.73925 16.7477L16.1065 13.0603L17.5029 12.447Z" fill="#3E5578"/>
    <path d="M17.5029 1V12.4469L7.7251 16.7666L17.5029 1Z" fill="#6DB2D8"/>
    <path d="M13.5464 31.0951C13.6944 31.1564 13.8402 31.2178 13.9817 31.2706C13.8402 31.2178 13.6988 31.1564 13.5464 31.0951Z" fill="#335F8A"/>
    <path d="M13.9858 31.2706C14.1317 31.3256 14.2862 31.3764 14.4386 31.4229C14.2846 31.3813 14.1334 31.3305 13.9858 31.2706Z" fill="#335F8A"/>
    <path d="M14.8252 31.5487C14.9427 31.5836 15.0548 31.61 15.1724 31.6375C15.0614 31.6122 14.9449 31.5762 14.8252 31.5487Z" fill="#335F8A"/>
    <path d="M7.29354 18.7748L17.4969 24.6405C17.3583 25.5311 17.1125 26.4027 16.7644 27.2376C15.9438 29.1632 14.3015 31.1914 11.105 29.6443C9.82397 28.6247 8.79009 27.3431 8.07695 25.891C7.3638 24.4389 6.98892 22.8518 6.979 21.2429C6.98493 20.4111 7.09048 19.5828 7.29354 18.7748Z" fill="#6DB2D8"/>
    <path d="M23.8897 29.6443L23.8614 29.6655C23.8058 29.7056 23.7525 29.7469 23.7046 29.7881L23.6905 29.8008C23.635 29.8484 23.5729 29.8896 23.5163 29.9309C23.4544 29.9796 23.3893 30.0244 23.3215 30.0652C23.2538 30.1068 23.1888 30.1523 23.1267 30.2016C23.0636 30.2492 23.007 30.2767 22.9526 30.3179L22.9167 30.338C22.8557 30.3792 22.7926 30.4131 22.736 30.4522C22.7316 30.4524 22.7273 30.4538 22.7237 30.4562C22.72 30.4587 22.7171 30.462 22.7153 30.4659C22.6522 30.5072 22.5891 30.541 22.527 30.5823C22.465 30.6235 22.3866 30.6573 22.3181 30.6965C22.2495 30.7356 22.1777 30.7715 22.1091 30.8022H22.1004L21.8914 30.908L21.6738 31.0137C21.459 31.1104 21.2412 31.2007 21.0207 31.2844C20.8793 31.3373 20.7204 31.3902 20.568 31.4377C20.5082 31.4595 20.4471 31.4779 20.3851 31.4927L20.1838 31.5541C20.0641 31.5879 19.9531 31.6154 19.8344 31.6429C19.792 31.6556 19.743 31.663 19.7006 31.6767L19.6255 31.6905L19.4372 31.7307C19.3741 31.7444 19.3283 31.7518 19.263 31.7645C19.2115 31.7771 19.1591 31.7863 19.1063 31.792C19.0497 31.7994 18.9866 31.8131 18.9322 31.8195C18.9035 31.8171 18.8747 31.8218 18.8484 31.8332L18.7145 31.847H18.6449C18.5967 31.8553 18.5479 31.8599 18.499 31.8607C18.4384 31.8691 18.3774 31.8737 18.3162 31.8745H18.1758C18.1257 31.8745 18.092 31.8819 18.0517 31.8819H17.2986C17.233 31.8859 17.1672 31.8859 17.1016 31.8819H16.9557C16.9133 31.8819 16.8719 31.8745 16.8295 31.8745H16.6891C16.6291 31.8669 16.5688 31.8623 16.5084 31.8607C16.4594 31.8629 16.4103 31.8583 16.3626 31.847H16.2886C16.2452 31.8386 16.2011 31.8341 16.1569 31.8332C16.1285 31.8318 16.1004 31.8272 16.0731 31.8195C16.0144 31.8141 15.9563 31.805 15.8989 31.792C15.846 31.7869 15.7936 31.7777 15.7422 31.7645C15.6836 31.7563 15.6254 31.745 15.5681 31.7307C15.5115 31.7169 15.4418 31.7042 15.3798 31.6905L15.3025 31.6767C15.2539 31.6734 15.2056 31.6674 15.1578 31.6587C15.038 31.6313 14.9205 31.5974 14.8084 31.5699L14.5994 31.5086C14.5363 31.4885 14.4732 31.4747 14.4166 31.4536C14.2599 31.406 14.1162 31.3479 13.9638 31.3013C13.8115 31.2548 13.6634 31.1871 13.5285 31.1258C13.4588 31.092 13.3826 31.0645 13.3108 31.0306L13.0931 30.9249L12.8842 30.8191C12.8145 30.7853 12.746 30.7441 12.6752 30.7134C12.6045 30.6827 12.5348 30.6383 12.4663 30.5992C12.3977 30.5601 12.34 30.5241 12.278 30.4829L12.2573 30.4691C12.1937 30.4352 12.1326 30.397 12.0744 30.3549L12.0396 30.3348C11.9841 30.301 11.9221 30.2597 11.8655 30.2185C11.8089 30.1773 11.7338 30.1318 11.6707 30.0821C11.6075 30.0324 11.539 29.9954 11.4758 29.9478L11.3017 29.8177L11.2876 29.805C11.2339 29.7659 11.1816 29.725 11.1308 29.6824L11.1025 29.6612C14.2914 31.2072 15.9457 29.1737 16.762 27.2608C17.1105 26.426 17.3571 25.5543 17.4966 24.6637C17.6349 25.5571 17.8807 26.4316 18.2291 27.2693C19.053 29.1568 20.7008 31.1924 23.8897 29.6443Z" fill="#529BBA"/>
    <path d="M19.8281 31.6375C19.9457 31.61 20.0654 31.5762 20.1775 31.5487C20.0654 31.5762 19.9457 31.6122 19.8281 31.6375Z" fill="#335F8A"/>
    <path d="M20.5669 31.4282C20.7236 31.3806 20.8673 31.3224 21.0218 31.2759C20.8738 31.3288 20.7214 31.3816 20.5669 31.4282Z" fill="#335F8A"/>
    <path d="M28.0212 21.2419C28.0112 22.851 27.6364 24.4382 26.9235 25.8907C26.2106 27.3431 25.177 28.6251 23.8963 29.6454C20.7074 31.1914 19.0531 29.1569 18.2369 27.245C17.8893 26.41 17.6435 25.5384 17.5044 24.6479L27.7077 18.7822C27.9166 19.5863 28.0219 20.4125 28.0212 21.2419Z" fill="#4B6B9A"/>
</svg>
