<svg width="160" height="30" viewBox="0 0 160 30" fill="none" 
    xmlns="http://www.w3.org/2000/svg">
    <g clip-path="url(#formaticLogo)">
        <path d="M43.96 24.5656H47.46V16.993H53.8137V13.9297H47.4662V9.12634H55.4925V6.06299H43.96V24.5656Z" fill="white"/>
        <path d="M62.425 11.7387C61.5454 11.7092 60.6689 11.8568 59.8497 12.1723C59.0305 12.4878 58.286 12.9646 57.6621 13.5732C57.0383 14.1817 56.5483 14.9092 56.2224 15.7107C55.8965 16.5122 55.7417 17.3706 55.7675 18.233C55.7675 19.9639 56.4689 21.6238 57.7174 22.8477C58.966 24.0716 60.6593 24.7592 62.425 24.7592C64.1907 24.7592 65.8841 24.0716 67.1326 22.8477C68.3811 21.6238 69.0825 19.9639 69.0825 18.233C69.1061 17.3712 68.9498 16.5137 68.6232 15.7132C68.2965 14.9127 67.8065 14.1861 67.183 13.5779C66.5596 12.9698 65.816 12.493 64.9978 12.1767C64.1796 11.8604 63.3041 11.7114 62.425 11.7387V11.7387ZM62.425 21.5905C61.976 21.6005 61.5297 21.5199 61.1137 21.3539C60.6978 21.1878 60.3211 20.9397 60.007 20.625C59.6929 20.3104 59.4481 19.9358 59.2878 19.5245C59.1274 19.1133 59.055 18.6741 59.075 18.2343C59.075 17.803 59.1617 17.376 59.33 16.9776C59.4984 16.5791 59.7451 16.2171 60.0562 15.9122C60.3673 15.6073 60.7366 15.3654 61.143 15.2003C61.5495 15.0353 61.9851 14.9504 62.425 14.9504C62.8649 14.9504 63.3006 15.0353 63.707 15.2003C64.1134 15.3654 64.4827 15.6073 64.7938 15.9122C65.1049 16.2171 65.3517 16.5791 65.52 16.9776C65.6884 17.376 65.775 17.803 65.775 18.2343C65.7942 18.674 65.7213 19.113 65.5608 19.524C65.4002 19.9351 65.1554 20.3096 64.8415 20.6243C64.5276 20.939 64.1512 21.1873 63.7356 21.3539C63.32 21.5205 62.8739 21.6019 62.425 21.5929V21.5905Z" fill="white"/>
        <path d="M86.9475 7.22583H83.6337V12.0047H81.3062V14.6355H83.6337V24.546H86.9475V14.6367H89.66V12.0059H86.9475V7.22583Z" fill="white"/>
        <path d="M107.06 11.7387C106.232 11.7271 105.417 11.942 104.707 12.3593C103.997 12.7766 103.42 13.3799 103.04 14.1012C102.674 13.3577 102.09 12.7382 101.363 12.3221C100.635 11.906 99.7978 11.7123 98.9575 11.7657C98.2081 11.748 97.4683 11.9346 96.8206 12.3045C96.1729 12.6744 95.6426 13.2132 95.2887 13.861V12.0059H91.935V24.5472H95.285V17.8593C95.2284 17.4877 95.2561 17.1085 95.3663 16.7486C95.4765 16.3887 95.6663 16.0572 95.9223 15.7775C96.1783 15.4979 96.4942 15.2771 96.8472 15.131C97.2003 14.9848 97.582 14.9169 97.965 14.932C99.2787 14.932 100.292 15.9 100.321 17.6449V24.5472H103.671V17.8593C103.671 15.9527 104.767 14.932 106.272 14.932C107.647 14.932 108.685 15.9257 108.685 17.7258V24.5472H111.999V17.3778C111.985 13.6981 110.15 11.7387 107.06 11.7387V11.7387Z" fill="white"/>
        <path d="M124.749 13.5645C124.278 12.9772 123.674 12.5061 122.984 12.1891C122.295 11.872 121.539 11.7178 120.778 11.7387C119.908 11.7308 119.045 11.8951 118.242 12.2218C117.438 12.5486 116.71 13.031 116.102 13.6402C115.493 14.2494 115.016 14.9729 114.7 15.7671C114.383 16.5614 114.234 17.4101 114.26 18.2625C114.234 19.1152 114.383 19.9645 114.7 20.7592C115.016 21.5539 115.493 22.2778 116.103 22.8873C116.712 23.4968 117.44 23.9793 118.244 24.3061C119.048 24.6328 119.911 24.7969 120.781 24.7886C121.544 24.801 122.299 24.6403 122.988 24.3192C123.677 23.998 124.281 23.525 124.753 22.9371V24.5485H128.101V12.0059H124.753L124.749 13.5645ZM121.241 21.6518C120.78 21.6639 120.321 21.5854 119.892 21.4209C119.462 21.2563 119.071 21.0091 118.74 20.6937C118.41 20.3783 118.147 20.0013 117.968 19.5847C117.788 19.1682 117.696 18.7207 117.696 18.2686C117.696 17.8165 117.788 17.369 117.968 16.9524C118.147 16.5359 118.41 16.1588 118.74 15.8435C119.071 15.5281 119.462 15.2809 119.892 15.1163C120.321 14.9518 120.78 14.8733 121.241 14.8854C121.702 14.8733 122.161 14.9518 122.591 15.1163C123.02 15.2809 123.412 15.5281 123.742 15.8435C124.073 16.1588 124.336 16.5359 124.515 16.9524C124.694 17.369 124.787 17.8165 124.787 18.2686C124.787 18.7207 124.694 19.1682 124.515 19.5847C124.336 20.0013 124.073 20.3783 123.742 20.6937C123.412 21.0091 123.02 21.2563 122.591 21.4209C122.161 21.5854 121.702 21.6639 121.241 21.6518V21.6518Z" fill="white"/>
        <path d="M136.249 7.22583H132.94V12.0047H130.612V14.6355H132.94V24.546H136.254V14.6367H138.967V12.0059H136.254L136.249 7.22583Z" fill="white"/>
        <path d="M143.151 5.18564C142.599 5.16475 142.061 5.35948 141.656 5.72707C141.25 6.09466 141.01 6.60506 140.987 7.14618C141.009 7.68996 141.248 8.20361 141.653 8.57569C142.058 8.94777 142.596 9.14827 143.151 9.13368C143.684 9.13368 144.196 8.92609 144.573 8.55658C144.949 8.18707 145.161 7.6859 145.161 7.16333C145.161 6.64077 144.949 6.1396 144.573 5.77009C144.196 5.40058 143.684 5.19299 143.151 5.19299V5.18564Z" fill="white"/>
        <path d="M144.795 12.0046H141.481V24.5448H144.795V12.0046Z" fill="white"/>
        <path d="M157.316 20.4129C157.004 20.8111 156.601 21.1323 156.14 21.3512C155.678 21.5701 155.171 21.6805 154.659 21.6738C154.193 21.6814 153.73 21.5985 153.297 21.4298C152.864 21.2611 152.47 21.01 152.136 20.691C151.803 20.372 151.537 19.9915 151.354 19.5712C151.172 19.151 151.076 18.6995 151.073 18.2428C151.077 17.7911 151.175 17.345 151.359 16.931C151.544 16.5171 151.811 16.1437 152.146 15.8331C152.48 15.5224 152.875 15.281 153.307 15.123C153.739 14.9651 154.198 14.8938 154.659 14.9136C155.169 14.902 155.676 15.0077 156.137 15.2221C156.598 15.4366 157.002 15.7539 157.316 16.1487L159.974 14.1784C159.081 13.1256 157.883 12.3628 156.539 11.9906C155.195 11.6183 153.768 11.6541 152.445 12.0931C151.122 12.5322 149.966 13.3539 149.129 14.45C148.292 15.5461 147.813 16.865 147.756 18.233C147.796 19.6127 148.264 20.9477 149.099 22.0592C149.934 23.1707 151.095 24.0057 152.427 24.4526C153.76 24.8994 155.199 24.9367 156.554 24.5594C157.908 24.1821 159.113 23.4084 160.006 22.3416L157.316 20.4129Z" fill="white"/>
        <path d="M71.4424 12.0046V24.5472H74.7924V14.8793H77.8187C78.2485 14.8608 78.6532 14.6761 78.9443 14.3655C79.2353 14.055 79.3888 13.644 79.3712 13.2226V12.0071L71.4424 12.0046Z" fill="white"/>
        <path d="M22.9862 0H0V30.0012H7.6625V7.51133H30.6487V0H22.9862Z" fill="#617BFF"/>
        <path d="M15.3675 22.4887H22.9837V30H23.2512C25.2115 29.999 27.0912 29.235 28.477 27.8759C29.8628 26.5167 30.6412 24.6737 30.6412 22.7521V15.0215H15.3675V22.4887Z" fill="#617BFF"/>
    </g>
    <defs>
        <clipPath id="formaticLogo">
            <rect width="160" height="30" fill="white"/>
        </clipPath>
    </defs>
</svg>
