<svg width="35" height="35" viewBox="0 0 35 35" fill="none" 
    xmlns="http://www.w3.org/2000/svg">
    <path d="M6.56755 19.7937L6.16175 20.1995C5.75178 20.6094 5.74614 21.2685 6.14916 21.6715L15.8419 31.3643C16.2449 31.7673 16.904 31.7616 17.314 31.3517L17.7198 30.9459C18.1297 30.5359 18.1354 29.8768 17.7323 29.4738L8.0396 19.7811C7.63658 19.378 6.97752 19.3837 6.56755 19.7937Z" fill="url(#paint0_linear)"/>
    <path fill-rule="evenodd" clip-rule="evenodd" d="M5.61695 12.0688L10.4499 7.23586C13.6488 4.03697 17.2699 4.25329 20.0798 7.06324C20.4747 7.49362 20.8321 7.957 21.1484 8.44852C21.228 8.57454 21.3172 8.69417 21.4152 8.80637C21.5933 8.98442 21.7754 9.02997 22.1571 8.91287C23.3124 8.59504 24.529 8.61381 25.6625 8.96695C26.7959 9.32008 27.7987 9.99276 28.5519 10.9052C31.2956 13.6489 31.5563 17.358 28.017 20.8973L21.2312 27.6831C20.868 28.0463 20.5807 28.0223 20.2236 27.6652L5.63483 13.0765C5.27775 12.7194 5.25866 12.4271 5.61695 12.0688ZM15.4226 14.5226L16.5797 13.3656C16.7303 13.2334 16.8511 13.0706 16.9339 12.8885C17.0166 12.7064 17.0592 12.5092 17.0589 12.3105C17.0585 12.1117 17.0152 11.9162 16.9318 11.7372C16.8485 11.5582 16.7271 11.4 16.576 11.2735C16.4485 11.1238 16.29 11.0037 16.1111 10.9213C15.9323 10.8389 15.7371 10.7961 15.5389 10.7957C15.3407 10.7954 15.1439 10.8375 14.9619 10.9193C14.78 11.0011 14.6169 11.1206 14.4839 11.2698L13.3308 12.4229C12.9676 12.7861 12.9916 13.0734 13.3487 13.4305L14.419 14.5008C14.776 14.8657 15.0672 14.8858 15.4305 14.5225L15.4226 14.5226ZM20.8654 19.9654L23.9099 16.9209C24.7948 16.0361 24.9833 15.2229 24.2477 14.4874C23.5335 13.7732 22.7049 13.9344 21.8141 14.8251L18.7736 17.8657C18.4104 18.2289 18.4344 18.5162 18.7915 18.8733L19.8618 19.9436C20.2178 20.3075 20.51 20.3286 20.8733 19.9654L20.8654 19.9654Z" fill="#2926CF"/>
    <defs>
        <linearGradient id="paint0_linear" x1="8.37537" y1="20.2832" x2="5.79444" y2="23.7149" gradientUnits="userSpaceOnUse">
            <stop stop-color="#CF0BC3"/>
            <stop offset="1" stop-color="#FF3568"/>
        </linearGradient>
    </defs>
</svg>
