<svg width="108" height="29" viewBox="0 0 108 29" fill="none" 
    xmlns="http://www.w3.org/2000/svg">
    <path d="M2.02993 8.20485H1.31245C0.587605 8.20485 0 8.77927 0 9.48785V26.5295C0 27.2381 0.587605 27.8125 1.31245 27.8125H2.02993C2.75478 27.8125 3.34238 27.2381 3.34238 26.5295V9.48785C3.34238 8.77927 2.75478 8.20485 2.02993 8.20485Z" fill="url(#bitskiLogo)"/>
    <path fill-rule="evenodd" clip-rule="evenodd" d="M8.01898 0.578621H16.5639C22.2197 0.578621 25.2296 3.95205 25.2296 8.89244C25.1982 9.61789 25.1045 10.3395 24.9496 11.0496C24.9086 11.2304 24.8817 11.4139 24.8691 11.5987C24.8691 11.9118 24.9899 12.1119 25.4309 12.3446C26.7331 13.0808 27.792 14.1667 28.4819 15.4736C29.1717 16.7805 29.4635 18.2534 29.3227 19.7175C29.3227 24.5416 26.2743 28.0313 20.0166 28.0313H8.01898C7.37675 28.0313 7.14401 27.7576 7.14401 27.1298V1.48014C7.14401 0.852327 7.3855 0.578621 8.01898 0.578621V0.578621ZM14.5182 11.3558H16.5639C16.814 11.372 17.0647 11.3352 17.2988 11.2478C17.5329 11.1604 17.745 11.0245 17.9203 10.8495C18.0957 10.6745 18.2303 10.4645 18.3148 10.2339C18.3993 10.0033 18.4319 9.75748 18.4101 9.51342C18.4298 9.2698 18.3958 9.0249 18.3105 8.79519C18.2253 8.56548 18.0906 8.3563 17.9157 8.18173C17.7408 8.00716 17.5296 7.87125 17.2964 7.78316C17.0633 7.69507 16.8135 7.65683 16.5639 7.67103H14.5253C13.883 7.67103 13.6503 7.94474 13.6503 8.57255V10.4543C13.6433 11.0889 13.883 11.3626 14.5253 11.3626L14.5182 11.3558ZM14.5182 20.9253H19.9011C21.4655 20.9253 22.351 20.3761 22.351 19.0829C22.351 17.8272 21.476 17.2405 19.9011 17.2405H14.5253C13.883 17.2405 13.6503 17.5142 13.6503 18.142V20.0237C13.6433 20.6567 13.883 20.9321 14.5253 20.9321L14.5182 20.9253ZM31.8181 27.1281V9.32353C31.8181 8.69572 32.0596 8.42201 32.6931 8.42201H37.6279C38.2702 8.42201 38.5029 8.69572 38.5029 9.32353V27.1281C38.5029 27.7559 38.2614 28.0296 37.6279 28.0296H32.6931C32.0561 28.0296 31.8181 27.7559 31.8181 27.1281V27.1281ZM31.8181 5.40269V1.48014C31.8181 0.852327 32.0596 0.578621 32.6931 0.578621H37.6279C38.2702 0.578621 38.5029 0.852327 38.5029 1.48014V5.40269C38.5029 6.0305 38.2614 6.30421 37.6279 6.30421H32.6931C32.0561 6.30421 31.8181 6.0305 31.8181 5.40269V5.40269ZM43.933 14.8935H41.644C41.0018 14.8935 40.7218 14.6574 40.7218 14.0381V9.28419C40.7218 8.65637 40.9633 8.42885 41.644 8.42885H43.9312C44.5734 8.42885 44.8062 8.15515 44.8062 7.52733V1.48014C44.8062 0.852327 45.0477 0.578621 45.6811 0.578621H50.616C51.2582 0.578621 51.4909 0.852327 51.4909 1.48014V7.52391C51.4909 8.15173 51.7324 8.42543 52.3659 8.42543H56.9385C57.5807 8.42543 57.8607 8.6615 57.8607 9.28077V14.0244C57.8607 14.6522 57.5807 14.8798 56.9385 14.8798H52.3957C51.7534 14.8798 51.5207 15.1535 51.5207 15.7813V27.1281C51.5207 27.7559 51.2792 28.0296 50.6457 28.0296H45.6951C45.0529 28.0296 44.8202 27.7559 44.8202 27.1281V15.795C44.8132 15.1672 44.5734 14.8917 43.9312 14.8917L43.933 14.8935ZM68.0418 28.4214C65.0081 28.4078 62.0321 27.6092 59.4164 26.1069C59.3218 26.0496 59.2402 25.9742 59.1764 25.8851C59.1127 25.7961 59.0681 25.6952 59.0456 25.5888C59.023 25.4823 59.0228 25.3725 59.045 25.266C59.0673 25.1595 59.1115 25.0585 59.1749 24.9693L60.9808 21.6352C61.3011 21.0467 61.7823 21.0861 62.344 21.3991C64.0589 22.4072 66.0014 22.9865 67.9998 23.0858C69.0831 23.0858 69.8845 22.7728 69.8845 22.0594C69.8845 21.3923 69.1618 21.1579 68.0786 21.1579H67.2036C62.47 21.1579 59.2204 18.8434 59.2204 14.8438C59.2204 10.3739 63.3118 8.02001 67.8056 8.02001C70.4361 7.93726 73.041 8.54698 75.3478 9.78541C75.4533 9.83126 75.5471 9.89941 75.6224 9.98496C75.6977 10.0705 75.7526 10.1713 75.7833 10.2801C75.8139 10.389 75.8195 10.5031 75.7995 10.6142C75.7796 10.7254 75.7347 10.8308 75.6681 10.923L73.6224 14.4128C73.553 14.5257 73.4595 14.6228 73.3482 14.6972C73.237 14.7717 73.1106 14.8219 72.9777 14.8443C72.8449 14.8667 72.7086 14.8608 72.5783 14.8271C72.4479 14.7934 72.3266 14.7326 72.2224 14.6488C70.9211 13.8212 69.4001 13.3847 67.8476 13.3932C66.6436 13.3932 66.0417 13.7849 66.0417 14.3341C66.0417 15.0012 66.6436 15.2749 68.3691 15.2749H69.3718C73.9041 15.2749 76.8335 17.4321 76.8335 21.1972C76.8265 25.8725 73.1762 28.4214 68.0418 28.4214V28.4214ZM92.8735 17.4013L99.3657 26.892C99.7665 27.4805 99.5267 28.0296 98.804 28.0296H92.9925C92.6398 28.0682 92.2834 28.003 91.9688 27.8424C91.6543 27.6818 91.3959 27.4331 91.2268 27.1281L88.0979 22.6975C87.7374 22.1843 87.3752 22.1843 86.9342 22.6188L86.6139 22.9319C86.3991 23.1135 86.2348 23.3455 86.1366 23.6061C86.0384 23.8666 86.0093 24.1473 86.0522 24.4218V27.1589C86.0522 27.7474 85.8107 28.0142 85.1772 28.0142H80.1952C79.5932 28.0142 79.3534 27.7405 79.3534 27.1589V1.4408C79.3534 0.852327 79.5949 0.585464 80.1952 0.585464H85.1702C85.8125 0.585464 86.0452 0.85917 86.0452 1.4408V12.8526C86.0452 13.4804 86.6472 13.6361 87.0952 13.1263L90.5058 9.36288C90.7194 9.07842 90.9969 8.84568 91.317 8.68256C91.637 8.51944 91.9911 8.43031 92.352 8.42201H98.6098C99.3727 8.42201 99.5722 9.08917 99.0507 9.59895L92.9925 15.9062C92.5112 16.4194 92.3905 16.7358 92.8735 17.403V17.4013ZM101.291 27.1281V9.32353C101.291 8.69572 101.532 8.42201 102.166 8.42201H107.1C107.743 8.42201 107.975 8.69572 107.975 9.32353V27.1281C107.975 27.7559 107.734 28.0296 107.1 28.0296H102.166C101.537 28.0296 101.291 27.7559 101.291 27.1281V27.1281ZM101.291 5.40269V1.48014C101.291 0.852327 101.532 0.578621 102.166 0.578621H107.1C107.743 0.578621 107.975 0.852327 107.975 1.48014V5.40269C107.975 6.0305 107.734 6.30421 107.1 6.30421H102.166C101.537 6.30421 101.291 6.0305 101.291 5.40269V5.40269Z" fill="white"/>
    <defs>
        <linearGradient id="bitskiLogo" x1="3.19532" y1="10.2244" x2="-2.11881" y2="10.9806" gradientUnits="userSpaceOnUse">
            <stop stop-color="#CF0BC3"/>
            <stop offset="1" stop-color="#FF3568"/>
        </linearGradient>
    </defs>
</svg>
