<svg width="35" height="35" viewBox="0 0 35 35" fill="none" 
    xmlns="http://www.w3.org/2000/svg">
    <path d="M29 5L19 12.5L21 8L29 5Z" fill="#E2761B"/>
    <path d="M5.94629 5L15.8705 12.501L14.1109 8.04665L5.94629 5Z" fill="#E4761B"/>
    <path d="M25 22L22.7788 26.3058L28.48 27.8744L30 22H25Z" fill="#E4761B"/>
    <path d="M5 22L6.6289 27.6509L12.33 26.0823L10 22H5Z" fill="#E4761B"/>
    <path d="M11.8997 15.3263L10.311 17.7294L15.972 17.9808L15.7709 11.8976L11.8997 15.3263Z" fill="#E4761B"/>
    <path d="M23.0907 15.326L19.1693 11.8269L19.0386 17.9805L24.6894 17.7292L23.0907 15.326Z" fill="#E4761B"/>
    <path d="M12 26.5L15.6202 24.6477L12.6842 22.3552L12 26.5Z" fill="#E4761B"/>
    <path d="M19.3701 24.6477L23 26.5L22.3062 22.3552L19.3701 24.6477Z" fill="#E4761B"/>
    <path d="M23 26.5L19.3711 24.6467L19.6426 27.0068L19.6124 28L23 26.5Z" fill="#D7C1B3"/>
    <path d="M12 26.5L15.389 28L15.3689 27.0068L15.6202 24.6467L12 26.5Z" fill="#D7C1B3"/>
    <path d="M15 21L13 20.046L14.4113 19L15 21Z" fill="#233447" stroke="#233447" stroke-linecap="round" stroke-linejoin="round"/>
    <path d="M20 21L20.5866 19L22 20.046L20 21Z" fill="#233447" stroke="#233447" stroke-linecap="round" stroke-linejoin="round"/>
    <path d="M12.2217 26.307L13 22H9L12.2217 26.307Z" fill="#CD6116"/>
    <path d="M22 22L22.7795 26.307L26 22H22Z" fill="#CD6116"/>
    <path d="M24.6899 17.7295L19.0391 17.9809L19.5619 20.8867L20.3965 19.1372L22.4075 20.0522L24.6899 17.7295Z" fill="#CD6116"/>
    <path d="M12.6036 20.0522L14.6145 19.1372L15.4391 20.8867L15.972 17.9809L10.311 17.7295L12.6036 20.0522Z" fill="#CD6116"/>
    <path d="M10.311 17.7295L12.684 22.3548L12.6036 20.0522L10.311 17.7295Z" fill="#E4751F" stroke="#E4751F" stroke-linecap="round" stroke-linejoin="round"/>
    <path d="M22.4072 20.0522L22.3066 22.3548L24.6897 17.7295L22.4072 20.0522Z" fill="#E4751F" stroke="#E4751F" stroke-linecap="round" stroke-linejoin="round"/>
    <path d="M15.9724 17.9807L15.4395 20.8866L16.1031 24.3153L16.2539 19.8007L15.9724 17.9807Z" fill="#E4751F" stroke="#E4751F" stroke-linecap="round" stroke-linejoin="round"/>
    <path d="M19.0391 17.9807L18.7676 19.7906L18.8882 24.3153L19.5619 20.8866L19.0391 17.9807Z" fill="#E4751F" stroke="#E4751F" stroke-linecap="round" stroke-linejoin="round"/>
    <path d="M19.5743 20.9081L19 24.639L19.4114 25L21.9143 22.5055L22 20L19.5743 20.9081Z" fill="#F6851B" stroke="#F6851B" stroke-linecap="round" stroke-linejoin="round"/>
    <path d="M13 20L13.069 22.5055L15.5862 25L16 24.639L15.431 20.9081L13 20Z" fill="#F6851B" stroke="#F6851B" stroke-linecap="round" stroke-linejoin="round"/>
    <path d="M19.7 27.8245L19.7314 26.6857L19.4695 26.4163H15.52L15.279 26.6857L15.3 27.8245L12 26L13.1524 27.102L15.4886 29H19.501L21.8476 27.102L23 26L19.7 27.8245Z" fill="#C0AD9E"/>
    <path d="M19.6824 24.3898L19.1176 24H15.8588L15.2941 24.3898L15 27L15.2706 26.7402H19.7059L20 27L19.6824 24.3898Z" fill="#161616"/>
    <path d="M29.4658 12.9132L30.3204 8.81082L29.0434 5L19.3706 12.1792L23.0909 15.3264L28.3497 16.8648L29.516 15.5074L29.0133 15.1454L29.8177 14.4114L29.1943 13.9288L29.9987 13.3154L29.4658 12.9132Z" fill="#763D16"/>
    <path d="M4.68018 8.81082L5.53485 12.9132L4.99188 13.3154L5.79627 13.9288L5.18292 14.4114L5.98732 15.1454L5.48457 15.5074L6.64089 16.8648L11.8996 15.3264L15.6199 12.1792L5.9471 5L4.68018 8.81082Z" fill="#763D16"/>
    <path d="M28.1879 16.5322L22.8031 15L24.4402 17.3934L22 22H25H30L28.1879 16.5322Z" fill="#F6851B"/>
    <path d="M12.1948 15L6.79613 16.5322L5 22H10H13L10.5639 17.3934L12.1948 15Z" fill="#F6851B"/>
    <path d="M19.0815 17.7701L19.4237 12.0643L21 8H14L15.5556 12.0643L15.9185 17.7701L16.043 19.5698L16.0533 24H18.9259L18.9467 19.5698L19.0815 17.7701Z" fill="#F6851B"/>
</svg>
