<svg width="35" height="35" viewBox="0 0 35 35" fill="none" 
    xmlns="http://www.w3.org/2000/svg">
    <path fill-rule="evenodd" clip-rule="evenodd" d="M6 6H24C26.7614 6 29 8.23391 29 10.9896V24.0104C29 26.7661 26.7614 29 24 29H11C8.23858 29 6 26.7661 6 24.0104L6 6ZM9.24485 8.8961V24.0932C9.24485 25.1954 10.1403 26.089 11.2449 26.089H23.7756C24.8802 26.089 25.7756 25.1954 25.7756 24.0932V10.8919C25.7756 9.78966 24.8802 8.8961 23.7756 8.8961H9.24485ZM12.7405 8.8961H15.964V16.2728V20.5042C15.964 21.6065 15.0686 22.5 13.964 22.5H9.24485V19.6948H12.7405V8.8961ZM12.7405 8.8961H15.964H12.7405ZM9.24485 22.5V19.6948V22.5ZM22.2799 26.089H19.0564V18.7123V14.4809C19.0564 13.3786 19.9519 12.4851 21.0564 12.4851H25.7756V15.2903H22.2799V26.089ZM25.7756 12.4851V15.2903V12.4851ZM22.2799 26.089H19.0564H22.2799Z" fill="#3964DF"/>
</svg>
