<svg width="191" height="36" viewBox="0 0 191 36" fill="none" 
    xmlns="http://www.w3.org/2000/svg">
    <path d="M167.213 16.0622C167.838 16.3752 168.463 16.6879 169.05 17.0691C169.786 17.5358 170.36 18.2123 170.695 19.0079C171.029 19.8035 171.107 20.6802 170.919 21.5208C170.586 23.3453 168.949 25.103 165.782 25.103C164.54 25.1182 163.328 24.7258 162.34 23.9882C161.794 23.6116 161.362 23.0981 161.088 22.5015C160.815 21.9048 160.71 21.247 160.784 20.5968C160.786 20.5756 160.795 20.5556 160.81 20.5406C160.825 20.5255 160.846 20.5165 160.867 20.515H163.185C163.207 20.5165 163.227 20.5255 163.243 20.5406C163.258 20.5556 163.267 20.5756 163.269 20.5968C163.271 20.8217 163.299 21.0457 163.352 21.2644C163.528 21.7553 163.855 22.1804 164.288 22.4807C164.721 22.781 165.238 22.9416 165.768 22.9403C166.286 22.9773 166.804 22.8688 167.262 22.6275C167.719 22.3862 168.097 22.0221 168.351 21.5778C168.575 21.0902 168.603 20.538 168.431 20.0308C168.259 19.5237 167.898 19.0987 167.421 18.8404C166.776 18.4489 165.41 17.7467 164.366 17.2103C163.702 16.8694 163.169 16.5952 163.034 16.5105C159.994 14.6574 160.508 8.78625 166.159 8.78625C167.256 8.78904 168.321 9.14838 169.189 9.80814C169.662 10.1828 170.048 10.6535 170.319 11.188C170.589 11.7225 170.739 12.3081 170.758 12.9048C170.761 12.9167 170.761 12.9292 170.758 12.9412C170.755 12.9532 170.75 12.9643 170.741 12.9737C170.733 12.983 170.723 12.9903 170.711 12.9949C170.7 12.9995 170.687 13.0013 170.675 13.0001H168.536C168.516 13.0015 168.496 12.9952 168.48 12.9825C168.465 12.9698 168.455 12.9517 168.453 12.932C168.361 12.5237 168.168 12.1441 167.889 11.8279C167.611 11.5116 167.256 11.2686 166.857 11.1209C166.459 10.9733 166.029 10.9256 165.607 10.9823C165.185 11.039 164.784 11.1983 164.44 11.4456C164.201 11.6014 164.001 11.8084 163.856 12.0511C163.71 12.2938 163.622 12.5658 163.6 12.8466C163.577 13.1273 163.62 13.4095 163.724 13.6717C163.829 13.9339 163.993 14.1693 164.204 14.3602C164.795 14.7841 165.423 15.1571 166.079 15.4749C166.452 15.6811 166.832 15.8717 167.213 16.0622Z" fill="white"/>
    <path d="M66.2294 9.08721H69.7353C69.7569 9.08866 69.7772 9.09773 69.7925 9.11276C69.8079 9.12779 69.8171 9.14775 69.8186 9.16895V24.8886C69.8171 24.9098 69.8079 24.9298 69.7925 24.9448C69.7772 24.9599 69.7569 24.9689 69.7353 24.9704H67.4161C67.3944 24.9689 67.3741 24.9599 67.3588 24.9448C67.3435 24.9298 67.3342 24.9098 67.3328 24.8886V12.9419C67.3352 12.9208 67.3293 12.8995 67.3162 12.8825C67.3032 12.8655 67.284 12.8541 67.2626 12.8506C67.2412 12.8471 67.2193 12.8518 67.2013 12.8637C67.1834 12.8756 67.1708 12.8939 67.1661 12.9146L65.2497 19.1079L65.1108 19.5439C65.1036 19.5598 65.0919 19.5734 65.0772 19.583C65.0624 19.5927 65.0452 19.598 65.0274 19.5984H63.2499C63.2316 19.6008 63.2131 19.5966 63.1977 19.5866C63.1824 19.5765 63.1713 19.5614 63.1665 19.5439L63.0277 19.1079L61.1112 12.9146C61.1044 12.8961 61.0912 12.8804 61.0739 12.8704C61.0565 12.8604 61.0361 12.8567 61.0163 12.86C60.9965 12.8632 60.9784 12.8732 60.9653 12.8882C60.9522 12.9031 60.9449 12.9222 60.9446 12.9419V24.8886C60.9431 24.9098 60.9339 24.9298 60.9186 24.9448C60.9032 24.9599 60.8829 24.9689 60.8613 24.9704H58.556C58.5344 24.9689 58.514 24.9599 58.4987 24.9448C58.4834 24.9298 58.4741 24.9098 58.4727 24.8886V9.16895C58.4741 9.14775 58.4834 9.12779 58.4987 9.11276C58.514 9.09773 58.5344 9.08866 58.556 9.08721H62.0909C62.1092 9.08479 62.1278 9.08899 62.1431 9.09902C62.1584 9.10906 62.1695 9.12422 62.1743 9.1417L64.0768 15.299C64.0823 15.3165 64.0933 15.3319 64.1083 15.3428C64.1233 15.3537 64.1415 15.3596 64.1601 15.3596C64.1788 15.3596 64.197 15.3537 64.212 15.3428C64.227 15.3319 64.238 15.3165 64.2434 15.299L66.146 9.1417C66.1532 9.12579 66.1649 9.11223 66.1796 9.10258C66.1944 9.09293 66.2116 9.0876 66.2294 9.08721Z" fill="white"/>
    <path d="M133.549 9.08721C133.531 9.0876 133.514 9.09293 133.499 9.10258C133.484 9.11223 133.473 9.12579 133.466 9.1417L131.563 15.299C131.558 15.3165 131.546 15.3319 131.531 15.3428C131.516 15.3537 131.498 15.3596 131.48 15.3596C131.461 15.3596 131.443 15.3537 131.428 15.3428C131.413 15.3319 131.402 15.3165 131.396 15.299L129.494 9.1417C129.489 9.12422 129.478 9.10906 129.463 9.09902C129.447 9.08899 129.429 9.08479 129.41 9.08721H125.884C125.863 9.08866 125.842 9.09773 125.827 9.11276C125.812 9.12779 125.802 9.14775 125.801 9.16895V24.8886C125.802 24.9098 125.812 24.9298 125.827 24.9448C125.842 24.9599 125.863 24.9689 125.884 24.9704H128.2C128.221 24.9689 128.242 24.9599 128.257 24.9448C128.272 24.9298 128.282 24.9098 128.283 24.8886V12.9419C128.283 12.9222 128.291 12.9031 128.304 12.8882C128.317 12.8732 128.335 12.8632 128.355 12.86C128.375 12.8567 128.395 12.8604 128.412 12.8704C128.43 12.8804 128.443 12.8961 128.45 12.9146L130.366 19.1079L130.505 19.5439C130.51 19.5614 130.521 19.5765 130.536 19.5866C130.552 19.5966 130.57 19.6008 130.588 19.5984H132.366C132.384 19.598 132.401 19.5927 132.416 19.583C132.43 19.5734 132.442 19.5598 132.449 19.5439L132.588 19.1079L134.505 12.9146C134.511 12.8961 134.525 12.8804 134.542 12.8704C134.559 12.8604 134.58 12.8567 134.599 12.86C134.619 12.8632 134.637 12.8732 134.65 12.8882C134.664 12.9031 134.671 12.9222 134.671 12.9419V24.8886C134.673 24.9098 134.682 24.9298 134.697 24.9448C134.713 24.9599 134.733 24.9689 134.755 24.9704H137.074C137.095 24.9689 137.116 24.9599 137.131 24.9448C137.146 24.9298 137.155 24.9098 137.157 24.8886V9.16895C137.155 9.14775 137.146 9.12779 137.131 9.11276C137.116 9.09773 137.095 9.08866 137.074 9.08721H133.549Z" fill="white"/>
    <path d="M92.6874 9.08724H103.642C103.653 9.08671 103.664 9.08846 103.674 9.09238C103.685 9.0963 103.694 9.1023 103.702 9.11C103.71 9.1177 103.716 9.12692 103.72 9.13708C103.724 9.14724 103.726 9.15811 103.725 9.16898V11.131C103.724 11.1522 103.715 11.1722 103.699 11.1872C103.684 11.2022 103.664 11.2113 103.642 11.2127H99.4076V24.8899C99.4061 24.9111 99.3968 24.9311 99.3815 24.9461C99.3662 24.9611 99.3459 24.9702 99.3243 24.9717H97.0051C96.9835 24.9702 96.9631 24.9611 96.9478 24.9461C96.9325 24.9311 96.9232 24.9111 96.9217 24.8899V11.2127H92.6874C92.6658 11.2113 92.6454 11.2022 92.6301 11.1872C92.6148 11.1722 92.6055 11.1522 92.6041 11.131V9.16898C92.6055 9.14778 92.6148 9.12782 92.6301 9.11279C92.6454 9.09776 92.6658 9.08869 92.6874 9.08724Z" fill="white"/>
    <path fill-rule="evenodd" clip-rule="evenodd" d="M117.317 24.9705H119.428C119.441 24.9702 119.454 24.9669 119.466 24.9609C119.478 24.9549 119.489 24.9463 119.497 24.9358C119.505 24.9253 119.51 24.9132 119.513 24.9003C119.515 24.8874 119.515 24.8741 119.511 24.8615L115.152 9.08729C115.147 9.06981 115.136 9.05462 115.121 9.04459C115.105 9.03456 115.087 9.03036 115.069 9.03278H112.039C112.021 9.03317 112.004 9.03849 111.989 9.04814C111.974 9.05779 111.963 9.07138 111.955 9.08729L107.596 24.8615C107.593 24.8741 107.592 24.8874 107.595 24.9003C107.597 24.9132 107.603 24.9253 107.611 24.9358C107.619 24.9463 107.629 24.9549 107.641 24.9609C107.653 24.9669 107.666 24.9702 107.679 24.9705H109.79C109.808 24.9701 109.825 24.9648 109.84 24.9551C109.855 24.9455 109.866 24.9319 109.873 24.916L111.136 20.3255C111.141 20.3081 111.152 20.2929 111.167 20.2828C111.182 20.2728 111.201 20.2686 111.219 20.271H115.89C115.908 20.2714 115.925 20.2768 115.94 20.2864C115.955 20.2961 115.967 20.3096 115.974 20.3255L117.236 24.916C117.245 24.9303 117.256 24.9427 117.27 24.9521C117.284 24.9615 117.3 24.9678 117.317 24.9705ZM111.777 18.0229L113.472 11.8792C113.477 11.8617 113.488 11.8463 113.503 11.8354C113.518 11.8245 113.536 11.8187 113.555 11.8187C113.574 11.8187 113.592 11.8245 113.607 11.8354C113.622 11.8463 113.633 11.8617 113.638 11.8792L115.332 18.0229C115.336 18.0356 115.336 18.0488 115.334 18.0617C115.331 18.0746 115.326 18.0867 115.318 18.0972C115.31 18.1077 115.299 18.1163 115.288 18.1223C115.276 18.1283 115.263 18.1316 115.249 18.1319H111.862C111.848 18.1318 111.835 18.1286 111.823 18.1227C111.811 18.1168 111.801 18.1082 111.792 18.0977C111.784 18.0872 111.779 18.075 111.776 18.062C111.773 18.0491 111.774 18.0357 111.777 18.0229Z" fill="white"/>
    <path fill-rule="evenodd" clip-rule="evenodd" d="M155.416 24.9705H153.305C153.288 24.9696 153.271 24.9641 153.257 24.9545C153.243 24.9448 153.232 24.9315 153.225 24.916L151.962 20.3255C151.955 20.3096 151.943 20.2961 151.929 20.2864C151.914 20.2768 151.897 20.2714 151.879 20.271H147.208C147.189 20.2686 147.171 20.2728 147.155 20.2828C147.14 20.2929 147.129 20.3081 147.124 20.3255L145.862 24.916C145.855 24.9319 145.843 24.9455 145.828 24.9551C145.814 24.9648 145.796 24.9701 145.778 24.9705H143.668C143.654 24.9699 143.641 24.9665 143.63 24.9604C143.618 24.9544 143.608 24.9458 143.6 24.9354C143.592 24.9249 143.586 24.9129 143.583 24.9001C143.581 24.8873 143.581 24.8741 143.584 24.8615L147.944 9.08729C147.951 9.07138 147.963 9.05779 147.977 9.04814C147.992 9.03849 148.009 9.03317 148.027 9.03278H151.057C151.075 9.03036 151.094 9.03456 151.109 9.04459C151.125 9.05462 151.136 9.06981 151.14 9.08729L155.5 24.8615C155.503 24.8741 155.504 24.8874 155.501 24.9003C155.499 24.9132 155.493 24.9253 155.485 24.9358C155.477 24.9463 155.467 24.9549 155.455 24.9609C155.443 24.9669 155.43 24.9702 155.416 24.9705ZM149.46 11.8792L147.766 18.0229C147.762 18.0357 147.762 18.0491 147.764 18.062C147.767 18.075 147.773 18.0872 147.781 18.0977C147.789 18.1082 147.799 18.1168 147.812 18.1227C147.824 18.1286 147.837 18.1318 147.85 18.1319H151.238C151.251 18.1316 151.264 18.1283 151.276 18.1223C151.288 18.1163 151.298 18.1077 151.306 18.0972C151.314 18.0867 151.32 18.0746 151.322 18.0617C151.325 18.0488 151.324 18.0356 151.321 18.0229L149.627 11.8792C149.621 11.8617 149.61 11.8463 149.595 11.8354C149.58 11.8245 149.562 11.8187 149.543 11.8187C149.525 11.8187 149.507 11.8245 149.492 11.8354C149.477 11.8463 149.465 11.8617 149.46 11.8792Z" fill="white"/>
    <path d="M79.233 22.6404V17.7639C79.2344 17.7427 79.2437 17.7227 79.259 17.7077C79.2743 17.6927 79.2946 17.6836 79.3163 17.6821H85.4949C85.5165 17.6807 85.5368 17.6716 85.5522 17.6566C85.5675 17.6416 85.5767 17.6216 85.5782 17.6004V15.6384C85.5767 15.6172 85.5675 15.5972 85.5522 15.5822C85.5368 15.5671 85.5165 15.5581 85.4949 15.5566H79.3163C79.2946 15.5552 79.2743 15.5461 79.259 15.5311C79.2437 15.516 79.2344 15.4961 79.233 15.4749V11.3068C79.2344 11.2856 79.2437 11.2656 79.259 11.2506C79.2743 11.2356 79.2946 11.2265 79.3163 11.2251H86.3433C86.3649 11.2236 86.3852 11.2145 86.4005 11.1995C86.4159 11.1845 86.4251 11.1645 86.4266 11.1433V9.18129C86.4251 9.16008 86.4159 9.14013 86.4005 9.1251C86.3852 9.11007 86.3649 9.10099 86.3433 9.09955H76.833C76.8114 9.10099 76.791 9.11007 76.7757 9.1251C76.7604 9.14013 76.7512 9.16008 76.7497 9.18129V24.8874C76.7512 24.9086 76.7604 24.9285 76.7757 24.9436C76.791 24.9586 76.8114 24.9677 76.833 24.9691H86.6349C86.6565 24.9677 86.6769 24.9586 86.6922 24.9436C86.7075 24.9285 86.7168 24.9086 86.7182 24.8874V22.8163C86.7168 22.7951 86.7075 22.7752 86.6922 22.7601C86.6769 22.7451 86.6565 22.736 86.6349 22.7346H79.3036C79.2824 22.7296 79.2636 22.7175 79.2507 22.7002C79.2377 22.683 79.2315 22.6618 79.233 22.6404Z" fill="white"/>
    <path d="M182.216 16.6987L190.242 24.8317C190.292 24.8751 190.252 24.9704 190.201 24.9841H187.243C187.223 24.9807 187.203 24.9712 187.188 24.9568L180.244 17.9275C180.202 17.873 180.105 17.9139 180.105 17.982V24.8986C180.104 24.9198 180.095 24.9398 180.079 24.9548C180.064 24.9698 180.044 24.9789 180.022 24.9804H177.703C177.681 24.9789 177.661 24.9698 177.645 24.9548C177.63 24.9398 177.621 24.9198 177.619 24.8986V9.17891C177.621 9.15771 177.63 9.13775 177.645 9.12272C177.661 9.10769 177.681 9.09862 177.703 9.09717H180.022C180.044 9.09862 180.064 9.10769 180.079 9.12272C180.095 9.13775 180.104 9.15771 180.105 9.17891V15.309C180.105 15.3247 180.11 15.3401 180.119 15.3531C180.128 15.3661 180.141 15.3761 180.156 15.382C180.171 15.3878 180.187 15.3892 180.203 15.3859C180.219 15.3826 180.233 15.3748 180.244 15.3635L186.367 9.1244C186.374 9.11608 186.382 9.10931 186.392 9.1046C186.401 9.09988 186.412 9.09735 186.423 9.09717H189.381C189.397 9.09664 189.413 9.10104 189.427 9.10981C189.441 9.11858 189.451 9.13129 189.457 9.14618C189.463 9.16107 189.465 9.17742 189.461 9.19303C189.457 9.20864 189.448 9.22275 189.436 9.23342L182.216 16.5897C182.203 16.6049 182.195 16.6242 182.195 16.6442C182.195 16.6643 182.203 16.6836 182.216 16.6987Z" fill="white"/>
    <path d="M37.2133 0L22.214 11.2495L25.2138 4.49978L37.2133 0Z" fill="#E2761B"/>
    <path d="M2.63464 0L17.5203 11.2509L14.881 4.56975L2.63464 0Z" fill="#E4761B"/>
    <path d="M31.2132 25.4989L27.8816 31.9574L36.4329 34.3101L38.7128 25.4989H31.2132Z" fill="#E4761B"/>
    <path d="M1.21478 25.4989L3.65801 33.9749L12.2093 31.6221L8.71442 25.4989H1.21478Z" fill="#E4761B"/>
    <path d="M11.5636 15.4889L9.18073 19.0934L17.6717 19.4704L17.3701 10.346L11.5636 15.4889Z" fill="#E4761B"/>
    <path d="M28.3499 15.4885L22.468 10.2401L22.272 19.4701L30.7479 19.093L28.3499 15.4885Z" fill="#E4761B"/>
    <path d="M11.7146 32.2486L17.1447 29.4704L12.7409 26.0318L11.7146 32.2486Z" fill="#E4761B"/>
    <path d="M22.7694 29.4704L28.214 32.2486L27.1733 26.0318L22.7694 29.4704Z" fill="#E4761B"/>
    <path d="M28.2133 32.2487L22.7702 29.4689L23.1774 33.0089L23.1321 34.4986L28.2133 32.2487Z" fill="#D7C1B3"/>
    <path d="M11.7142 32.2488L16.7974 34.4987L16.7672 33.009L17.1443 29.4691L11.7142 32.2488Z" fill="#D7C1B3"/>
    <path d="M16.2143 23.9988L13.2145 22.5679L15.3314 20.999L16.2143 23.9988Z" fill="#233447" stroke="#233447" stroke-linecap="round" stroke-linejoin="round"/>
    <path d="M23.7134 23.9988L24.5932 20.999L26.7133 22.5679L23.7134 23.9988Z" fill="#233447" stroke="#233447" stroke-linecap="round" stroke-linejoin="round"/>
    <path d="M12.0467 31.959L13.2142 25.4987H7.21445L12.0467 31.959Z" fill="#CD6116"/>
    <path d="M26.7138 25.4987L27.883 31.959L32.7135 25.4987H26.7138Z" fill="#CD6116"/>
    <path d="M30.7481 19.0933L22.2722 19.4703L23.0565 23.829L24.3083 21.2047L27.3246 22.5772L30.7481 19.0933Z" fill="#CD6116"/>
    <path d="M12.6192 22.5772L15.6355 21.2047L16.8722 23.829L17.6715 19.4703L9.18054 19.0933L12.6192 22.5772Z" fill="#CD6116"/>
    <path d="M9.18076 19.0936L12.74 26.0312L12.6194 22.5775L9.18076 19.0936Z" fill="#E4751F" stroke="#E4751F" stroke-linecap="round" stroke-linejoin="round"/>
    <path d="M27.3241 22.5774L27.1733 26.0311L30.7477 19.0935L27.3241 22.5774Z" fill="#E4751F" stroke="#E4751F" stroke-linecap="round" stroke-linejoin="round"/>
    <path d="M17.6728 19.4701L16.8734 23.8287L17.8688 28.9716L18.0951 22.1999L17.6728 19.4701Z" fill="#E4751F" stroke="#E4751F" stroke-linecap="round" stroke-linejoin="round"/>
    <path d="M22.2724 19.4701L21.8652 22.1848L22.0462 28.9716L23.0566 23.8287L22.2724 19.4701Z" fill="#E4751F" stroke="#E4751F" stroke-linecap="round" stroke-linejoin="round"/>
    <path d="M23.0754 23.8611L22.214 29.4571L22.8311 29.9987L26.5852 26.257L26.7138 22.499L23.0754 23.8611Z" fill="#F6851B" stroke="#F6851B" stroke-linecap="round" stroke-linejoin="round"/>
    <path d="M13.2145 22.499L13.3179 26.257L17.0936 29.9987L17.7143 29.4571L16.8609 23.8611L13.2145 22.499Z" fill="#F6851B" stroke="#F6851B" stroke-linecap="round" stroke-linejoin="round"/>
    <path d="M23.2636 34.2354L23.3108 32.5273L22.9179 32.1232H16.9939L16.6325 32.5273L16.6639 34.2354L11.7142 31.4988L13.4427 33.1518L16.9468 35.9986H22.9651L26.4849 33.1518L28.2134 31.4988L23.2636 34.2354Z" fill="#C0AD9E"/>
    <path d="M23.2369 29.0833L22.3899 28.4986H17.5019L16.6549 29.0833L16.2137 32.9984L16.6196 32.6087H23.2722L23.7134 32.9984L23.2369 29.0833Z" fill="#161616"/>
    <path d="M37.9119 11.8693L39.1938 5.71596L37.2785 0L22.7699 10.7683L28.3501 15.4889L36.2378 17.7964L37.9873 15.7604L37.2332 15.2174L38.4397 14.1165L37.5047 13.3925L38.7112 12.4725L37.9119 11.8693Z" fill="#763D16"/>
    <path d="M0.734863 5.71596L2.01681 11.8693L1.2024 12.4725L2.40893 13.3925L1.48895 14.1165L2.69548 15.2174L1.9414 15.7604L3.67579 17.7964L11.5635 15.4889L17.1437 10.7683L2.63516 0L0.734863 5.71596Z" fill="#763D16"/>
    <path d="M35.9949 17.2975L27.9181 14.9994L30.3736 18.5893L26.7135 25.4989H31.2133H38.713L35.9949 17.2975Z" fill="#F6851B"/>
    <path d="M12.0066 14.9994L3.90888 17.2975L1.21481 25.4989H8.71445H13.2142L9.56022 18.5893L12.0066 14.9994Z" fill="#F6851B"/>
    <path d="M22.3357 19.1542L22.849 10.5959L25.2134 4.49976H14.7139L17.0471 10.5959L17.5915 19.1542L17.7782 21.8537L17.7937 28.4986H22.1024L22.1335 21.8537L22.3357 19.1542Z" fill="#F6851B"/>
</svg>
