<svg width="196" height="40" viewBox="0 0 196 40" fill="none" xmlns="http://www.w3.org/2000/svg">
<rect width="196" height="40" rx="4" fill="#2C2C2C"/>
<mask id="mask0_12_85" style="mask-type:alpha" maskUnits="userSpaceOnUse" x="0" y="0" width="196" height="40">
<rect width="196" height="40" rx="4" fill="#2C2C2C"/>
</mask>
<g mask="url(#mask0_12_85)">
<rect y="8.9444" width="24.448" height="3.30379" fill="#D9D9D9" fill-opacity="0.1"/>
<rect y="27.4456" width="24.448" height="3.30379" fill="#D9D9D9" fill-opacity="0.1"/>
<rect x="28.4128" y="8.9444" width="36.3417" height="3.30379" fill="#D9D9D9" fill-opacity="0.1"/>
<rect x="28.4128" y="27.4456" width="36.3417" height="3.30379" fill="#D9D9D9" fill-opacity="0.1"/>
<rect x="68.7188" y="8.9444" width="27.7518" height="3.30379" fill="#D9D9D9" fill-opacity="0.1"/>
<rect x="68.7188" y="27.4456" width="27.7518" height="3.30379" fill="#D9D9D9" fill-opacity="0.1"/>
<rect x="21.144" y="18.195" width="23.1265" height="3.30379" fill="#D9D9D9" fill-opacity="0.1"/>
<rect x="21.144" width="23.1265" height="3.30379" fill="#D9D9D9" fill-opacity="0.1"/>
<rect x="21.144" y="36.6962" width="23.1265" height="3.30379" fill="#D9D9D9" fill-opacity="0.1"/>
<rect x="48.2354" y="18.195" width="37.0024" height="3.30379" fill="#D9D9D9" fill-opacity="0.1"/>
<rect x="48.2354" width="37.0024" height="3.30379" fill="#D9D9D9" fill-opacity="0.1"/>
<rect x="48.2354" y="36.6962" width="37.0024" height="3.30379" fill="#D9D9D9" fill-opacity="0.1"/>
<rect y="18.195" width="17.1797" height="3.30379" fill="#D9D9D9" fill-opacity="0.1"/>
<rect width="17.1797" height="3.30379" fill="#D9D9D9" fill-opacity="0.1"/>
<rect y="36.6962" width="17.1797" height="3.30379" fill="#D9D9D9" fill-opacity="0.1"/>
</g>
<rect width="196" height="40" rx="4" fill="url(#paint0_linear_12_85)"/>
<path fill-rule="evenodd" clip-rule="evenodd" d="M18.4881 17.5394L26.5266 25.7356L34.4794 17.6268L41 24.2753L33.424 32L31.4749 30.0658L37.154 24.2753L34.4794 21.5483L26.5266 29.6571L18.4881 21.4608L15.846 24.1547L21.6114 30.0331L19.6625 31.9674L12 24.1547L18.4881 17.5394Z" fill="white"/>
<path fill-rule="evenodd" clip-rule="evenodd" d="M34.512 21.4607L26.4734 13.2644L18.5206 21.3731L12 14.7247L19.5761 7L21.5251 8.93425L15.846 14.7247L18.5206 17.4517L26.4734 9.34297L34.512 17.5392L37.1539 14.8453L31.3886 8.96685L33.3375 7.03261L41 14.8453L34.512 21.4607Z" fill="white"/>
<path fill-rule="evenodd" clip-rule="evenodd" d="M25.2734 31.8075V26.6435H27.8985V31.8075H25.2734Z" fill="white"/>
<path fill-rule="evenodd" clip-rule="evenodd" d="M25.2734 12.3565V7.19257H27.8985V12.3565H25.2734Z" fill="white"/>
<path d="M70.44 19.176C71.0587 19.3787 71.5493 19.72 71.912 20.2C72.2747 20.6693 72.456 21.256 72.456 21.96C72.456 22.9307 72.0827 23.6827 71.336 24.216C70.5893 24.7387 69.5013 25 68.072 25H62.504V13.8H67.752C69.0747 13.8 70.0933 14.0613 70.808 14.584C71.5227 15.096 71.88 15.8053 71.88 16.712C71.88 17.2667 71.752 17.7573 71.496 18.184C71.24 18.6107 70.888 18.9413 70.44 19.176ZM64.584 15.432V18.52H67.528C68.2533 18.52 68.808 18.392 69.192 18.136C69.5867 17.8693 69.784 17.4853 69.784 16.984C69.784 16.472 69.5867 16.088 69.192 15.832C68.808 15.5653 68.2533 15.432 67.528 15.432H64.584ZM67.944 23.368C69.5547 23.368 70.36 22.8293 70.36 21.752C70.36 20.6747 69.5547 20.136 67.944 20.136H64.584V23.368H67.944ZM82.7559 16.456V25H80.8519V23.912C80.5319 24.296 80.1319 24.5947 79.6519 24.808C79.1719 25.0107 78.6545 25.112 78.0999 25.112C76.9585 25.112 76.0572 24.7973 75.3959 24.168C74.7452 23.528 74.4199 22.584 74.4199 21.336V16.456H76.4199V21.064C76.4199 21.832 76.5905 22.408 76.9319 22.792C77.2839 23.1653 77.7799 23.352 78.4199 23.352C79.1345 23.352 79.6999 23.1333 80.1159 22.696C80.5425 22.248 80.7559 21.608 80.7559 20.776V16.456H82.7559ZM93.8545 16.456V23.704C93.8545 26.712 92.3185 28.216 89.2465 28.216C88.4252 28.216 87.6465 28.1093 86.9105 27.896C86.1745 27.6933 85.5665 27.3947 85.0865 27L85.9825 25.496C86.3558 25.8053 86.8252 26.0507 87.3905 26.232C87.9665 26.424 88.5478 26.52 89.1345 26.52C90.0732 26.52 90.7612 26.3067 91.1985 25.88C91.6358 25.4533 91.8545 24.8027 91.8545 23.928V23.48C91.5132 23.8533 91.0972 24.136 90.6065 24.328C90.1158 24.52 89.5772 24.616 88.9905 24.616C88.1798 24.616 87.4438 24.4453 86.7825 24.104C86.1318 23.752 85.6145 23.2613 85.2305 22.632C84.8572 22.0027 84.6705 21.2827 84.6705 20.472C84.6705 19.6613 84.8572 18.9467 85.2305 18.328C85.6145 17.6987 86.1318 17.2133 86.7825 16.872C87.4438 16.5307 88.1798 16.36 88.9905 16.36C89.6092 16.36 90.1692 16.4613 90.6705 16.664C91.1825 16.8667 91.6092 17.176 91.9505 17.592V16.456H93.8545ZM89.2945 22.92C90.0518 22.92 90.6705 22.696 91.1505 22.248C91.6412 21.7893 91.8865 21.1973 91.8865 20.472C91.8865 19.7573 91.6412 19.176 91.1505 18.728C90.6705 18.28 90.0518 18.056 89.2945 18.056C88.5265 18.056 87.8972 18.28 87.4065 18.728C86.9265 19.176 86.6865 19.7573 86.6865 20.472C86.6865 21.1973 86.9265 21.7893 87.4065 22.248C87.8972 22.696 88.5265 22.92 89.2945 22.92ZM109.034 19.176C109.652 19.3787 110.143 19.72 110.506 20.2C110.868 20.6693 111.05 21.256 111.05 21.96C111.05 22.9307 110.676 23.6827 109.93 24.216C109.183 24.7387 108.095 25 106.666 25H101.098V13.8H106.346C107.668 13.8 108.687 14.0613 109.402 14.584C110.116 15.096 110.474 15.8053 110.474 16.712C110.474 17.2667 110.346 17.7573 110.09 18.184C109.834 18.6107 109.482 18.9413 109.034 19.176ZM103.178 15.432V18.52H106.122C106.847 18.52 107.402 18.392 107.786 18.136C108.18 17.8693 108.378 17.4853 108.378 16.984C108.378 16.472 108.18 16.088 107.786 15.832C107.402 15.5653 106.847 15.432 106.122 15.432H103.178ZM106.538 23.368C108.148 23.368 108.954 22.8293 108.954 21.752C108.954 20.6747 108.148 20.136 106.538 20.136H103.178V23.368H106.538ZM116.918 25.112C116.054 25.112 115.275 24.9253 114.582 24.552C113.888 24.1787 113.344 23.6613 112.95 23C112.566 22.328 112.374 21.5707 112.374 20.728C112.374 19.8853 112.566 19.1333 112.95 18.472C113.344 17.8107 113.888 17.2933 114.582 16.92C115.275 16.5467 116.054 16.36 116.918 16.36C117.792 16.36 118.576 16.5467 119.27 16.92C119.963 17.2933 120.502 17.8107 120.886 18.472C121.28 19.1333 121.478 19.8853 121.478 20.728C121.478 21.5707 121.28 22.328 120.886 23C120.502 23.6613 119.963 24.1787 119.27 24.552C118.576 24.9253 117.792 25.112 116.918 25.112ZM116.918 23.4C117.654 23.4 118.262 23.1547 118.742 22.664C119.222 22.1733 119.462 21.528 119.462 20.728C119.462 19.928 119.222 19.2827 118.742 18.792C118.262 18.3013 117.654 18.056 116.918 18.056C116.182 18.056 115.574 18.3013 115.094 18.792C114.624 19.2827 114.39 19.928 114.39 20.728C114.39 21.528 114.624 22.1733 115.094 22.664C115.574 23.1547 116.182 23.4 116.918 23.4ZM131.662 16.456V25H129.758V23.912C129.438 24.296 129.038 24.5947 128.558 24.808C128.078 25.0107 127.561 25.112 127.006 25.112C125.865 25.112 124.963 24.7973 124.302 24.168C123.651 23.528 123.326 22.584 123.326 21.336V16.456H125.326V21.064C125.326 21.832 125.497 22.408 125.838 22.792C126.19 23.1653 126.686 23.352 127.326 23.352C128.041 23.352 128.606 23.1333 129.022 22.696C129.449 22.248 129.662 21.608 129.662 20.776V16.456H131.662ZM139.129 16.36C140.206 16.36 141.07 16.6747 141.721 17.304C142.371 17.9333 142.697 18.8667 142.697 20.104V25H140.697V20.36C140.697 19.6133 140.521 19.0533 140.169 18.68C139.817 18.296 139.315 18.104 138.665 18.104C137.929 18.104 137.347 18.328 136.921 18.776C136.494 19.2133 136.281 19.848 136.281 20.68V25H134.281V16.456H136.185V17.56C136.515 17.1653 136.931 16.8667 137.433 16.664C137.934 16.4613 138.499 16.36 139.129 16.36ZM150.37 24.536C150.135 24.728 149.847 24.872 149.506 24.968C149.175 25.064 148.823 25.112 148.45 25.112C147.511 25.112 146.786 24.8667 146.274 24.376C145.762 23.8853 145.506 23.1707 145.506 22.232V18.12H144.098V16.52H145.506V14.568H147.506V16.52H149.794V18.12H147.506V22.184C147.506 22.6 147.607 22.92 147.81 23.144C148.013 23.3573 148.306 23.464 148.69 23.464C149.138 23.464 149.511 23.3467 149.81 23.112L150.37 24.536ZM159.859 16.456L155.859 25.688C155.486 26.616 155.032 27.2667 154.499 27.64C153.966 28.024 153.32 28.216 152.563 28.216C152.136 28.216 151.715 28.1467 151.299 28.008C150.883 27.8693 150.542 27.6773 150.275 27.432L151.075 25.96C151.267 26.1413 151.491 26.2853 151.747 26.392C152.014 26.4987 152.28 26.552 152.547 26.552C152.899 26.552 153.187 26.4613 153.411 26.28C153.646 26.0987 153.859 25.7947 154.051 25.368L154.195 25.032L150.467 16.456H152.547L155.235 22.776L157.939 16.456H159.859Z" fill="#E8E8E8"/>
<path d="M173.506 20.875H166V22.125H173.506V24L176 21.5L173.506 19V20.875Z" fill="#E8E8E8"/>
<defs>
<linearGradient id="paint0_linear_12_85" x1="111.5" y1="40" x2="9" y2="40" gradientUnits="userSpaceOnUse">
<stop stop-color="#2C2C2C"/>
<stop offset="1" stop-color="#2C2C2C" stop-opacity="0"/>
</linearGradient>
</defs>
</svg>
