<svg width="256" height="368" xmlns="http://www.w3.org/2000/svg">
<path d="M8 0H232L160 368H8C5.87827 368 3.84344 367.157 2.34315 365.657C0.842856 364.157 0 362.122 0 360V8C0 5.87827 0.842856 3.84344 2.34315 2.34315C3.84344 0.842855 5.87827 0 8 0V0Z" fill="#49BC98" fill-opacity="0.2"/>
<path d="M8 368H256L184 0H8C5.87827 0 3.84344 0.842855 2.34315 2.34315C0.842856 3.84344 0 5.87827 0 8V360C0 362.122 0.842856 364.157 2.34315 365.657C3.84344 367.157 5.87827 368 8 368Z" fill="#49BC98" fill-opacity="0.5"/>
<path d="M0 368V0H184L208 122.667L160 368H0Z" fill="#49BC98"/>
</svg>
