<svg width="580" height="400" xmlns="http://www.w3.org/2000/svg">
 <!-- Created with Method Draw - http://github.com/duopixel/Method-Draw/ -->

 <g>
  <title>background</title>
  <rect fill="#454e5a" id="canvas_background" height="402" width="582" y="-1" x="-1"/>
  <g display="none" overflow="visible" y="0" x="0" height="100%" width="100%" id="canvasGrid">
   <rect fill="url(#gridpattern)" stroke-width="0" y="0" x="0" height="100%" width="100%"/>
  </g>
 </g>
 <g>
  <title>Layer 1</title>
  <defs>
   <style>.cls-1,.cls-2{fill:#f5b403}.cls-1{opacity:.3}.cls-2{opacity:.5}.cls-3{fill:#f3b306}</style>
  </defs>
  <g stroke="null" id="svg_12">
   <g transform="rotate(180 -1625.64404296875,3098.375732421875) matrix(1.5336190679146295,0,0,1.5687747227658329,-3054.976351635769,-2027.6451650898616) " stroke="null" id="svg_7">
    <path stroke="null" fill="#fff" class="cls-1" d="m-1919.69721,3711.871345l0,343.530671l-577.309098,-110.420573l0,-233.110098a0,0 0 0 1 12.550198,-12.268953l552.208702,0a0,0 0 0 1 12.550198,12.268953z" id="svg_10"/>
    <path stroke="null" fill="#fff" class="cls-2" d="m-2497.006308,3711.871345l0,380.337529l577.309098,-110.420573l0,-269.916956a0,0 0 0 0 -12.550198,-12.268953l-552.208702,0a0,0 0 0 0 -12.550198,12.268953z" id="svg_9"/>
    <path stroke="null" fill="#fff" class="cls-3" d="m-2497.006308,3699.602392l577.309098,0l0,282.185908l-192.436889,36.806858l-384.872209,-73.613715l0,-245.379051z" id="svg_8"/>
    <path id="svg_49" fill="#FFE9BF" d="m-2497.802828,3698.905762l29.405588,0l-9.451796,48.30918l-19.953792,0c-0.27853,0 -0.545652,-0.110665 -0.742603,-0.307577c-0.196951,-0.196912 -0.307597,-0.464057 -0.307597,-0.742622l0,-46.20878c0,-0.27853 0.110646,-0.545652 0.307597,-0.742603c0.19695,-0.196951 0.464073,-0.307597 0.742603,-0.307597z" opacity="0.5"/>
    <path id="svg_50" fill="#FFC555" d="m-2497.802828,3747.214941l32.556186,0l-9.451796,-48.30918l-23.10439,0c-0.27853,0 -0.545652,0.110646 -0.742603,0.307597c-0.196951,0.19695 -0.307597,0.464073 -0.307597,0.742603l0,46.20878c0,0.278565 0.110646,0.54571 0.307597,0.742622c0.19695,0.196912 0.464073,0.307577 0.742603,0.307577z" opacity="0.5"/>
    <path id="svg_51" fill="#519CCF" d="m-2498.853027,3747.214941l0,-48.30918l24.15459,0l3.150599,16.103104l-6.301197,32.206076l-21.003991,0z"/>
   </g>
  </g>
  <g id="svg_23">
   <defs transform="translate(-140,11) ">
    <style>.cls-1,.cls-2,.cls-3{fill:#c63b86}.cls-1{opacity:.3}.cls-2{opacity:.5}</style>
   </defs>
   <g transform="matrix(0.1312749444299124,0,0,0.1312749444299124,0,0) " id="svg_19">
    <path class="cls-1" d="m-1058.463989,83.793602l224,0l-72,368l-152,0a8,8 0 0 1 -8,-8l0,-352a8,8 0 0 1 8,-8z" id="svg_22"/>
    <path class="cls-2" d="m-1058.463989,451.793602l248,0l-72,-368l-176,0a8,8 0 0 0 -8,8l0,352a8,8 0 0 0 8,8z" id="svg_21"/>
    <path class="cls-3" d="m-1066.463989,451.793602l0,-368l184,0l24,122.667l-48,245.333l-160,0z" id="svg_20"/>
   </g>
  </g>
  <g stroke="null" transform="rotate(90 289.99996948242193,196.5000152587891) " id="svg_66">
   <path stroke="null" id="svg_63" fill="#FFE9BF" d="m100.777385,-92.258313l353.215505,0l-113.533555,577.516601l-239.68195,0c-3.34566,0 -6.554292,-1.322952 -8.920032,-3.67696c-2.365746,-2.354008 -3.694808,-5.547612 -3.694808,-8.877748l0,-552.407184c0,-3.329713 1.329062,-6.52305 3.694808,-8.877513c2.36574,-2.354471 5.574371,-3.677196 8.920032,-3.677196z" opacity="0.5"/>
   <path stroke="null" id="svg_64" fill="#FFC555" d="m100.777385,485.258288l391.060023,0l-113.533555,-577.516601l-277.526468,0c-3.34566,0 -6.554292,1.322725 -8.920032,3.677196c-2.365746,2.354463 -3.694808,5.5478 -3.694808,8.877513l0,552.407184c0,3.330136 1.329062,6.523741 3.694808,8.877748c2.36574,2.354008 5.574371,3.67696 8.920032,3.67696z" opacity="0.5"/>
   <path stroke="null" id="svg_65" fill="#519CCF" d="m88.162546,485.258288l0,-577.516601l290.141308,0l37.844518,192.506057l-75.689037,385.010545l-252.296789,0z"/>
  </g>
 </g>
</svg>