<svg width="580" height="400" xmlns="http://www.w3.org/2000/svg">
 <!-- Created with Method Draw - http://github.com/duopixel/Method-Draw/ -->

 <g>
  <title>background</title>
  <rect fill="#454e5a" id="canvas_background" height="402" width="582" y="-1" x="-1"/>
 </g>
 <g>
  <title>Layer 1</title>
  <defs>
   <style>.cls-1,.cls-2,.cls-3{fill:#fff}.cls-1{opacity:.3}.cls-2{opacity:.5}</style>
  </defs>
  <g id="svg_12">
   <g transform="matrix(0.1312749444299124,0,0,0.1312749444299124,0,0) " id="svg_7">
    <path class="cls-1" d="m2089.104004,1339.52002l224,0l-72,368l-152,0a8,8 0 0 1 -8,-8l0,-352a8,8 0 0 1 8,-8z" id="svg_10"/>
    <path class="cls-2" d="m2089.104004,1707.52002l248,0l-72,-368l-176,0a8,8 0 0 0 -8,8l0,352a8,8 0 0 0 8,8z" id="svg_9"/>
    <path class="cls-3" d="m2081.104004,1707.52002l0,-368l184,0l24,122.667l-48,245.333l-160,0z" id="svg_8"/>
   </g>
  </g>
  <defs>
   <style>.cls-1,.cls-2,.cls-3{fill:#fff}.cls-1{opacity:.3}.cls-2{opacity:.5}</style>
  </defs>
  <g transform="rotate(27 344.50018310546875,200.00001525878906) " opacity="0" stroke="null" id="svg_24">
   <g stroke="null" transform="matrix(0.5570562433004695,0,0,0.025296669873218835,-886.0951509340812,141.9600180477937) " id="svg_19">
    <path fill="#DDDDDD" stroke="null" class="cls-1" d="m2089.104004,2110.373047l224,0l-72,368l-152,0a8,8 0 0 1 -8,-8l0,-352a8,8 0 0 1 8,-8z" id="svg_22"/>
    <path fill="#DDDDDD" stroke="null" class="cls-2" d="m2089.104004,2478.373047l248,0l-72,-368l-176,0a8,8 0 0 0 -8,8l0,352a8,8 0 0 0 8,8z" id="svg_21"/>
    <path fill="#DDDDDD" stroke="null" class="cls-3" d="m2081.104004,2478.373047l0,-368l184,0l24,122.667l-48,245.333l-160,0z" id="svg_20"/>
   </g>
  </g>
  <defs>
   <style>.cls-1,.cls-2,.cls-3{fill:#fff}.cls-1{opacity:.3}.cls-2{opacity:.5}</style>
  </defs>
  <g stroke="null" transform="rotate(90 290.5000610351563,200.49993896484378) " id="svg_36">
   <g stroke="null" transform="matrix(1.5492438072057673,0,0,1.5633402678490687,-3097.493913719851,-1994.0170936364134) " id="svg_31">
    <path stroke="null" class="cls-1" d="m2066.869554,1219.736122l224,0l-72,368l-152,0a8,8 0 0 1 -8,-8l0,-352a8,8 0 0 1 8,-8z" id="svg_34"/>
    <path stroke="null" class="cls-2" d="m2066.869554,1587.736122l248,0l-72,-368l-176,0a8,8 0 0 0 -8,8l0,352a8,8 0 0 0 8,8z" id="svg_33"/>
    <path stroke="null" class="cls-3" d="m2058.869554,1587.736122l0,-368l184,0l24,122.667l-48,245.333l-160,0z" id="svg_32"/>
   </g>
  </g>
  <defs>
   <style>.cls-1,.cls-2,.cls-3{fill:#38776f}.cls-1{opacity:.3}.cls-2{opacity:.5}</style>
  </defs>
  <g id="svg_48">
   <g transform="matrix(0.1312749444299124,0,0,0.1312749444299124,0,0) " id="svg_43">
    <path class="cls-1" d="m2089.104004,1339.52002l224,0l-72,368l-152,0a8,8 0 0 1 -8,-8l0,-352a8,8 0 0 1 8,-8z" id="svg_46"/>
    <path class="cls-2" d="m2089.104004,1707.52002l248,0l-72,-368l-176,0a8,8 0 0 0 -8,8l0,352a8,8 0 0 0 8,8z" id="svg_45"/>
    <path class="cls-3" d="m2081.104004,1707.52002l0,-368l184,0l24,122.667l-48,245.333l-160,0z" id="svg_44"/>
   </g>
  </g>
  <defs>
   <style>.cls-1,.cls-2,.cls-3{fill:#fff}.cls-1{opacity:.3}.cls-2{opacity:.5}</style>
  </defs>
  <g id="svg_60">
   <g transform="matrix(0.1312749444299124,0,0,0.1312749444299124,0,0) " id="svg_55">
    <path class="cls-1" d="m2089.104004,1339.52002l224,0l-72,368l-152,0a8,8 0 0 1 -8,-8l0,-352a8,8 0 0 1 8,-8z" id="svg_58"/>
    <path class="cls-2" d="m2089.104004,1707.52002l248,0l-72,-368l-176,0a8,8 0 0 0 -8,8l0,352a8,8 0 0 0 8,8z" id="svg_57"/>
    <path class="cls-3" d="m2081.104004,1707.52002l0,-368l184,0l24,122.667l-48,245.333l-160,0z" id="svg_56"/>
   </g>
  </g>
  <defs>
   <style>.cls-1,.cls-2,.cls-3{fill:#fff}.cls-1{opacity:.3}.cls-2{opacity:.5}</style>
  </defs>
  <g stroke="null" transform="rotate(90 291.49963378906256,200.00018310546878) " id="svg_72">
   <g stroke="null" transform="matrix(1.545337460479632,0,0,1.5633401034449252,-3086.9022846547773,-1996.2172010474333) " id="svg_67">
    <path stroke="null" class="cls-1" d="m2066.190349,1220.823595l224,0l-72,368l-152,0a8,8 0 0 1 -8,-8l0,-352a8,8 0 0 1 8,-8z" id="svg_70"/>
    <path stroke="null" class="cls-2" d="m2066.190349,1588.823595l248,0l-72,-368l-176,0a8,8 0 0 0 -8,8l0,352a8,8 0 0 0 8,8z" id="svg_69"/>
    <path stroke="null" class="cls-3" d="m2058.190349,1588.823595l0,-368l184,0l24,122.667l-48,245.333l-160,0z" id="svg_68"/>
   </g>
  </g>
  <defs>
   <style>.cls-1,.cls-2,.cls-3{fill:#1bbc9a}.cls-1{opacity:.3}.cls-2{opacity:.5}</style>
  </defs>
  <g id="svg_84">
   <g transform="matrix(0.1312749444299124,0,0,0.1312749444299124,0,0) " id="svg_79">
    <path class="cls-1" d="m2089.104004,1339.52002l224,0l-72,368l-152,0a8,8 0 0 1 -8,-8l0,-352a8,8 0 0 1 8,-8z" id="svg_82"/>
    <path class="cls-2" d="m2089.104004,1707.52002l248,0l-72,-368l-176,0a8,8 0 0 0 -8,8l0,352a8,8 0 0 0 8,8z" id="svg_81"/>
    <path class="cls-3" d="m2081.104004,1707.52002l0,-368l184,0l24,122.667l-48,245.333l-160,0z" id="svg_80"/>
   </g>
  </g>
  <defs>
   <style>.cls-1,.cls-2,.cls-3{fill:#8a3d78}.cls-1{opacity:.3}.cls-2{opacity:.5}</style>
  </defs>
  <g id="svg_96">
   <g transform="matrix(0.1312749444299124,0,0,0.1312749444299124,0,0) " id="svg_91">
    <path class="cls-1" d="m2089.104004,1339.52002l224,0l-72,368l-152,0a8,8 0 0 1 -8,-8l0,-352a8,8 0 0 1 8,-8z" id="svg_94"/>
    <path class="cls-2" d="m2089.104004,1707.52002l248,0l-72,-368l-176,0a8,8 0 0 0 -8,8l0,352a8,8 0 0 0 8,8z" id="svg_93"/>
    <path class="cls-3" d="m2081.104004,1707.52002l0,-368l184,0l24,122.667l-48,245.333l-160,0z" id="svg_92"/>
   </g>
  </g>
  <defs>
   <style>.cls-1,.cls-2,.cls-3{fill:#8878b5}.cls-1{opacity:.3}.cls-2{opacity:.5}</style>
  </defs>
  <g id="svg_108">
   <g transform="matrix(0.1312749444299124,0,0,0.1312749444299124,0,0) " id="svg_103">
    <path class="cls-1" d="m2089.104004,1339.52002l224,0l-72,368l-152,0a8,8 0 0 1 -8,-8l0,-352a8,8 0 0 1 8,-8z" id="svg_106"/>
    <path class="cls-2" d="m2089.104004,1707.52002l248,0l-72,-368l-176,0a8,8 0 0 0 -8,8l0,352a8,8 0 0 0 8,8z" id="svg_105"/>
    <path class="cls-3" d="m2081.104004,1707.52002l0,-368l184,0l24,122.667l-48,245.333l-160,0z" id="svg_104"/>
   </g>
  </g>
  <defs>
   <clipPath id="svg_112">
    <rect x="273.196808" y="175.867264" id="svg_118" fill="white" height="368" width="256"/>
   </clipPath>
  </defs>
  <g id="svg_119">
   <g transform="matrix(0.1312749444299124,0,0,0.1312749444299124,0,0) " id="svg_114" clip-path="url(#svg_112)">
    <path id="svg_115" fill="#ACE6FF" d="m2264.104004,1339.686401l51,0l-26,123l-25,0l0,-123z" opacity="0.4"/>
    <path id="svg_116" fill="#55CCFF" d="m2241.104004,1707.686401l96,0l-48,-245l-48,0l0,245z" opacity="0.4"/>
    <path id="svg_117" fill="#231C3D" d="m2081.104004,1707.686401l0,-368.333008l184,0l24,123.000008l-48,245.333l-160,0z"/>
   </g>
  </g>
  <defs>
   <clipPath id="svg_123">
    <rect x="273.196808" y="175.867264" id="svg_129" fill="white" height="368" width="256"/>
   </clipPath>
  </defs>
  <g id="svg_130">
   <g transform="matrix(0.1312749444299124,0,0,0.1312749444299124,0,0) " id="svg_125" clip-path="url(#svg_123)">
    <path id="svg_126" fill="#ACE6FF" d="m2264.104004,1339.686401l51,0l-26,123l-25,0l0,-123z" opacity="0.4"/>
    <path id="svg_127" fill="#55CCFF" d="m2241.104004,1707.686401l96,0l-48,-245l-48,0l0,245z" opacity="0.4"/>
    <path id="svg_128" fill="#231C3D" d="m2081.104004,1707.686401l0,-368.333008l184,0l24,123.000008l-48,245.333l-160,0z"/>
   </g>
  </g>
  <defs>
   <style>.cls-1,.cls-2,.cls-3{fill:#1bbc9a}.cls-1{opacity:.3}.cls-2{opacity:.5}</style>
  </defs>
  <g id="svg_142">
   <g transform="matrix(0.1312749444299124,0,0,0.1312749444299124,0,0) " id="svg_137">
    <path class="cls-1" d="m2089.104004,1339.52002l224,0l-72,368l-152,0a8,8 0 0 1 -8,-8l0,-352a8,8 0 0 1 8,-8z" id="svg_140"/>
    <path class="cls-2" d="m2089.104004,1707.52002l248,0l-72,-368l-176,0a8,8 0 0 0 -8,8l0,352a8,8 0 0 0 8,8z" id="svg_139"/>
    <path class="cls-3" d="m2081.104004,1707.52002l0,-368l184,0l24,122.667l-48,245.333l-160,0z" id="svg_138"/>
   </g>
  </g>
  <defs>
   <style>.cls-1,.cls-2,.cls-3{fill:#884294}.cls-1{opacity:.3}.cls-2{opacity:.5}</style>
  </defs>
  <g id="svg_154">
   <g transform="matrix(0.1312749444299124,0,0,0.1312749444299124,0,0) " id="svg_149">
    <path class="cls-1" d="m2089.104004,1339.52002l224,0l-72,368l-152,0a8,8 0 0 1 -8,-8l0,-352a8,8 0 0 1 8,-8z" id="svg_152"/>
    <path class="cls-2" d="m2089.104004,1707.52002l248,0l-72,-368l-176,0a8,8 0 0 0 -8,8l0,352a8,8 0 0 0 8,8z" id="svg_151"/>
    <path class="cls-3" d="m2081.104004,1707.52002l0,-368l184,0l24,122.667l-48,245.333l-160,0z" id="svg_150"/>
   </g>
  </g>
 </g>
</svg>