<?xml version="1.0" encoding="UTF-8"?>
<svg xmlns="http://www.w3.org/2000/svg" xmlns:xlink="http://www.w3.org/1999/xlink" width="48pt" height="48pt" viewBox="0 0 48 48" version="1.1">
<g id="surface1969163">
<path style=" stroke:none;fill-rule:nonzero;fill:rgb(20.392157%,59.607843%,85.882353%);fill-opacity:1;" d="M 19.335938 4 L 18.351562 9.046875 C 16.710938 9.667969 15.191406 10.535156 13.859375 11.628906 L 9.011719 9.957031 L 4.347656 18.042969 L 8.226562 21.414062 C 8.089844 22.257812 8 23.117188 8 24 C 8 24.882812 8.089844 25.742188 8.226562 26.585938 L 4.347656 29.957031 L 9.011719 38.042969 L 13.859375 36.371094 C 15.191406 37.464844 16.710938 38.332031 18.351562 38.953125 L 19.335938 44 L 28.664062 44 L 29.648438 38.953125 C 31.289062 38.332031 32.808594 37.464844 34.140625 36.371094 L 38.988281 38.042969 L 43.652344 29.957031 L 39.773438 26.585938 C 39.910156 25.742188 40 24.882812 40 24 C 40 23.117188 39.910156 22.257812 39.773438 21.414062 L 43.652344 18.042969 L 38.988281 9.957031 L 34.140625 11.628906 C 32.808594 10.535156 31.289062 9.667969 29.648438 9.046875 L 28.664062 4 Z M 24 16 C 28.417969 16 32 19.582031 32 24 C 32 28.417969 28.417969 32 24 32 C 19.582031 32 16 28.417969 16 24 C 16 19.582031 19.582031 16 24 16 Z M 24 16 "/>
</g>
</svg>
