<svg id="settings-24px" xmlns="http://www.w3.org/2000/svg" width="18" height="18" viewBox="0 0 18 18">
  <path id="Path_2947" data-name="Path 2947" d="M0,0H18V18H0Z" fill="none"/>
  <path id="Path_2948" data-name="Path 2948" d="M13.846,9.646A4.925,4.925,0,0,0,13.887,9a4.022,4.022,0,0,0-.048-.646l1.378-1.086a.34.34,0,0,0,.081-.419L14,4.566a.33.33,0,0,0-.4-.151l-1.622.66a4.78,4.78,0,0,0-1.1-.646l-.244-1.746A.33.33,0,0,0,10.3,2.4H7.7a.323.323,0,0,0-.319.282L7.133,4.428a4.886,4.886,0,0,0-1.1.646l-1.622-.66a.322.322,0,0,0-.4.151l-1.3,2.282a.315.315,0,0,0,.081.419L4.174,8.354a3.874,3.874,0,0,0-.014,1.293L2.783,10.733a.34.34,0,0,0-.081.419L4,13.434a.33.33,0,0,0,.4.151l1.622-.66a4.78,4.78,0,0,0,1.1.646l.244,1.746A.335.335,0,0,0,7.7,15.6H10.3a.318.318,0,0,0,.319-.282l.244-1.746a4.641,4.641,0,0,0,1.1-.646l1.622.66a.322.322,0,0,0,.4-.151l1.3-2.282a.321.321,0,0,0-.081-.419ZM9,11.475A2.475,2.475,0,1,1,11.443,9,2.467,2.467,0,0,1,9,11.475Z" transform="translate(0 0)" fill="#2274a5"/>
</svg>
