<svg xmlns="http://www.w3.org/2000/svg" xmlns:xlink="http://www.w3.org/1999/xlink" width="457.13" height="376.598" viewBox="0 0 457.13 376.598">
  <defs>
    <clipPath id="clip-path">
      <path id="Path_288" data-name="Path 288" d="M634.816-1267.475a1.472,1.472,0,0,0-.561-.383,1.553,1.553,0,0,0-.749-.128L626.89-1268a3.055,3.055,0,0,0-.75.126,2.164,2.164,0,0,0-.562.38,1.5,1.5,0,0,0-.376.571,1.632,1.632,0,0,0-.126.762l-.005,2.225a3.293,3.293,0,0,0,.124.764,2.2,2.2,0,0,0,.373.572,2.229,2.229,0,0,0,.624.447,1.558,1.558,0,0,0,.748.128l6.492.014a.226.226,0,0,1,.187.064.233.233,0,0,1,.062.19l0,2.226a.235.235,0,0,1-.062.19.227.227,0,0,1-.188.064l-6.554-.014a.223.223,0,0,1-.187-.065.236.236,0,0,1-.062-.191v-.381a.271.271,0,0,0-.249-.255l-1.124,0a.271.271,0,0,0-.25.254v.382a3.243,3.243,0,0,0,.124.763,2.2,2.2,0,0,0,.373.573,1.472,1.472,0,0,0,.561.383,1.56,1.56,0,0,0,.748.129l6.617.014a3.13,3.13,0,0,0,.75-.126,2.2,2.2,0,0,0,.562-.38,1.515,1.515,0,0,0,.376-.572,1.648,1.648,0,0,0,.126-.763l0-2.225a3.248,3.248,0,0,0-.123-.763,2.228,2.228,0,0,0-.373-.573,2.223,2.223,0,0,0-.624-.446,1.555,1.555,0,0,0-.749-.129l-6.491-.013a.225.225,0,0,1-.187-.064.238.238,0,0,1-.062-.191l0-2.225a.237.237,0,0,1,.063-.191.226.226,0,0,1,.187-.063l6.554.013a.227.227,0,0,1,.187.064.236.236,0,0,1,.062.191v.381a.272.272,0,0,0,.25.255l1.124,0a.271.271,0,0,0,.25-.254v-.381a3.245,3.245,0,0,0-.123-.764l-.373-.573" transform="translate(-625 1268)" fill="none" clip-rule="evenodd"/>
    </clipPath>
    <clipPath id="clip-path-2">
      <path id="Path_287" data-name="Path 287" d="M625-1285.75h97.969V-1327H625Z" transform="translate(-625 1327)" fill="none"/>
    </clipPath>
    <clipPath id="clip-path-3">
      <path id="Path_291" data-name="Path 291" d="M659.593-1266.105a.232.232,0,0,1,.064-.19.234.234,0,0,1,.19-.062l6.634.014a.233.233,0,0,1,.19.063.234.234,0,0,1,.063.19l-.014,6.634a.232.232,0,0,1-.063.19.231.231,0,0,1-.19.062l-6.634-.013a.231.231,0,0,1-.189-.064.229.229,0,0,1-.063-.189Zm8.28-1.373a1.492,1.492,0,0,0-.567-.38,1.6,1.6,0,0,0-.758-.127l-6.7-.014a3.137,3.137,0,0,0-.758.125,2.172,2.172,0,0,0-.569.377,1.486,1.486,0,0,0-.38.568,1.6,1.6,0,0,0-.128.758l-.013,6.634a3.181,3.181,0,0,0,.124.759,2.214,2.214,0,0,0,.378.57,1.511,1.511,0,0,0,.568.38,1.609,1.609,0,0,0,.758.127l6.634.014a3.179,3.179,0,0,0,.758-.125,2.173,2.173,0,0,0,.569-.377,1.484,1.484,0,0,0,.38-.568,1.6,1.6,0,0,0,.128-.757l.013-6.572a3.17,3.17,0,0,0-.124-.758A1.987,1.987,0,0,0,667.873-1267.478Z" transform="translate(-658 1268)" fill="none" clip-rule="evenodd"/>
    </clipPath>
    <clipPath id="clip-path-5">
      <path id="Path_294" data-name="Path 294" d="M703.167-1267.908l-1.344,0c-.064,0-.192.064-.192.13L696.686-1259l-4.909-8.869c-.064-.065-.128-.13-.192-.13l-1.344,0c-.064,0-.192.065-.192.13a.2.2,0,0,0,0,.26c.956,1.761,1.913,3.456,2.869,5.152s1.913,3.391,2.933,5.153c.064.065.128.13.192.13l1.344,0c.064,0,.192-.064.192-.129.514-.911,1.028-1.757,1.478-2.6.513-.846.963-1.692,1.413-2.538l1.413-2.538c.513-.846.963-1.692,1.477-2.6a.2.2,0,0,0,0-.26c0-.066-.064-.066-.192-.066" transform="translate(-690 1268)" fill="none" clip-rule="evenodd"/>
    </clipPath>
    <clipPath id="clip-path-7">
      <path id="Path_297" data-name="Path 297" d="M729.649-1266.123a.227.227,0,0,1,.063-.188.232.232,0,0,1,.188-.062l6.592.014a.231.231,0,0,1,.188.063.23.23,0,0,1,.062.187l-.006,2.875a.23.23,0,0,1-.063.188.231.231,0,0,1-.188.062l-6.592-.014a.235.235,0,0,1-.188-.063.227.227,0,0,1-.062-.188Zm8.226-1.3a2.256,2.256,0,0,0-.627-.438,1.6,1.6,0,0,0-.753-.127l-8.224-.017a.27.27,0,0,0-.252.25l-.02,9.81a.27.27,0,0,0,.25.251l1.13,0a.269.269,0,0,0,.252-.25l.007-3.437h.251l3.516.007,3.006,3.568a.234.234,0,0,0,.188.063l1.445,0c.063,0,.188-.062.188-.124.063-.063,0-.188-.062-.25l-2.755-3.255,1,0a3.184,3.184,0,0,0,.754-.123,2.259,2.259,0,0,0,.628-.436,1.48,1.48,0,0,0,.378-.562,1.582,1.582,0,0,0,.127-.75l.006-2.875a3.12,3.12,0,0,0-.124-.75A.657.657,0,0,0,737.876-1267.418Z" transform="translate(-728 1268)" fill="none" clip-rule="evenodd"/>
    </clipPath>
    <clipPath id="clip-path-9">
      <path id="Path_300" data-name="Path 300" d="M771.527-1267.979l-1.334,0c-.064,0-.127.062-.191.062-.636.748-1.273,1.558-1.91,2.369-.573.748-1.21,1.5-1.719,2.181l-3.674-4.565a.236.236,0,0,0-.191-.062l-1.27,0c-.064,0-.191.062-.191.124a.187.187,0,0,0,0,.25c.76,1,1.52,2.063,2.28,3.064s1.52,2,2.216,3l-.008,3.621a.27.27,0,0,0,.253.25l1.143,0a.271.271,0,0,0,.255-.249l.008-3.621,4.585-6.046a.188.188,0,0,0,0-.25.255.255,0,0,0-.254-.125" transform="translate(-761 1268)" fill="none" clip-rule="evenodd"/>
    </clipPath>
    <clipPath id="clip-path-11">
      <path id="Path_303" data-name="Path 303" d="M804.568-1267l-1.172,0a.273.273,0,0,0-.261.248l-.017,7.9-7.079-8.041a.245.245,0,0,0-.195-.062l-1.562,0a.275.275,0,0,0-.261.249l-.021,9.769a.273.273,0,0,0,.26.249l1.172,0a.274.274,0,0,0,.261-.248l.017-7.964,7.079,8.04a.242.242,0,0,0,.195.063l1.563,0a.274.274,0,0,0,.261-.249l.021-9.768c0-.124-.13-.187-.26-.187" transform="translate(-794 1267)" fill="none" clip-rule="evenodd"/>
    </clipPath>
    <clipPath id="clip-path-13">
      <path id="Path_306" data-name="Path 306" d="M710.4-1312.08l-1.122,1.589,1.966,2.868.268-.53,9.205-18.07Zm-1.111-4.087-3.891-.008,2.87,3.931a.557.557,0,0,0,.853,0l1.283-1.748.481-.635c.053-.053.053-.106.107-.159.322-1.273.538-2.545-.847-2.866a1.538,1.538,0,0,1,.105.477A.908.908,0,0,1,709.292-1316.167ZM697-1326.271l11.307,22.408a.552.552,0,0,0,.959,0l1.552-3.02-2.019-3.028Zm14.422,11.01,4.329-5.826-7.089-.015a1.009,1.009,0,0,1-1.01-1.01c-2.559.579-3.148,1.85-3.579,3.918l5.223.011h.107C712.121-1318.071,712.171-1316.745,711.422-1315.261Zm-7.51-2.933c.112-2.651,1.076-4.56,4.594-4.87h.16l8.528.017,1.39-1.907a.53.53,0,0,0-.425-.849l-18.815-.038a.537.537,0,0,0-.428.848Z" transform="translate(-697 1326.271)" fill="none" clip-rule="evenodd"/>
    </clipPath>
  </defs>
  <g id="Group_4324" data-name="Group 4324" transform="translate(-713.5 -2689.402)">
    <g id="Group_4325" data-name="Group 4325" transform="translate(958.889 2868.404) rotate(90)">
      <g id="Group_4300" data-name="Group 4300" transform="translate(6.847 2.358)">
        <g id="Path_2958" data-name="Path 2958" transform="translate(1.651 2.297)">
          <path d="M 40.56278991699219 96.24781036376953 L 3.356518507003784 96.24781036376953 L 1.499998092651367 93.62244415283203 L 1.499998092651367 4.125380516052246 L 3.356520175933838 1.499998569488525 L 40.56278991699219 1.499998569488525 L 42.69450378417969 4.514651775360107 L 43.14278411865234 5.148612022399902 L 43.91923904418945 5.148612022399902 L 46.65520477294922 5.148612022399902 L 48.63762664794922 7.951391220092773 L 48.63762664794922 89.62274932861328 L 46.53235244750977 92.59921264648438 L 43.91923904418945 92.59921264648438 L 43.14278411865234 92.59921264648438 L 42.69450378417969 93.23316955566406 L 40.56278991699219 96.24781036376953 Z" stroke="none"/>
          <path d="M 4.132949829101562 3 L 2.999996185302734 4.602149963378906 L 2.999996185302734 93.14565277099609 L 4.132953643798828 94.74781036376953 L 39.78634643554688 94.74781036376953 L 41.46976470947266 92.36713409423828 L 42.3663330078125 91.09919738769531 L 43.91924285888672 91.09919738769531 L 45.75602722167969 91.09919738769531 L 47.13762664794922 89.14588928222656 L 47.13762664794922 8.428260803222656 L 45.87886810302734 6.648597717285156 L 43.91924285888672 6.648597717285156 L 42.36634826660156 6.648597717285156 L 41.46976470947266 5.38067626953125 L 39.78633880615234 3 L 4.132949829101562 3 M 2.580089569091797 0 L 41.33924102783203 0 L 43.91924285888672 3.648597717285156 L 47.43153381347656 3.648597717285156 L 50.13762664794922 7.474533081054688 L 50.13762664794922 90.099609375 L 47.30867385864258 94.09919738769531 L 43.91924285888672 94.09919738769531 L 41.33924102783203 97.74781036376953 L 2.580089569091797 97.74781036376953 L -3.814697265625e-06 94.09919738769531 L -3.814697265625e-06 3.648597717285156 L 2.580089569091797 0 Z" stroke="none" fill="#f4f4f4"/>
        </g>
        <path id="Path_2959" data-name="Path 2959" d="M43.963,0H2.744L0,3.812V98.323l2.744,3.812H43.963l2.744-3.812h3.6l3.008-4.18V7.811l-2.878-4H46.707Z" fill="none" stroke="#f4f4f4" stroke-width="1"/>
      </g>
      <path id="Path_2960" data-name="Path 2960" d="M41.586,2.358,39.264,0H2.458L0,2.358Z" transform="translate(9.411 0)" fill="#f4f4f4"/>
      <path id="Path_2961" data-name="Path 2961" d="M6.847,0,0,2.383v76.9L6.847,81.67Z" transform="translate(0 12.545)" fill="#f4f4f4"/>
    </g>
    <text id="_01" data-name="01" transform="translate(876 2974)" fill="#f4f4f4" font-size="13" font-family="Montserrat-Regular, Montserrat" letter-spacing="-0.006em"><tspan x="0" y="0">01</tspan></text>
    <text id="_02" data-name="02" transform="translate(808 2872)" fill="#f4f4f4" font-size="13" font-family="Montserrat-Regular, Montserrat" letter-spacing="-0.006em"><tspan x="0" y="0">02</tspan></text>
    <g id="groups-24px" transform="translate(852.941 2974)">
      <rect id="Rectangle_2500" data-name="Rectangle 2500" width="92" height="92" transform="translate(0.484)" fill="none"/>
      <g id="Group_4093" data-name="Group 4093" transform="translate(0.056 22.958)">
        <path id="Path_2989" data-name="Path 2989" d="M46.3,32.041a40.936,40.936,0,0,1,16.358,3.472,11.514,11.514,0,0,1,6.79,10.532V52.3h-46.3V46.084a11.433,11.433,0,0,1,6.79-10.532A40.279,40.279,0,0,1,46.3,32.041Zm-30.864.964A7.716,7.716,0,1,0,7.716,25.29,7.739,7.739,0,0,0,15.432,33.006Zm4.36,4.244a26.939,26.939,0,0,0-4.36-.386A26.815,26.815,0,0,0,4.707,39.1,7.758,7.758,0,0,0,0,46.239V52.3H17.361V46.084A17.356,17.356,0,0,1,19.791,37.25ZM77.16,33.006a7.716,7.716,0,1,0-7.716-7.716A7.739,7.739,0,0,0,77.16,33.006ZM92.591,46.239A7.758,7.758,0,0,0,87.885,39.1,26.227,26.227,0,0,0,72.8,37.25a17.356,17.356,0,0,1,2.431,8.835V52.3H92.591ZM46.3,6A11.574,11.574,0,1,1,34.722,17.574,11.558,11.558,0,0,1,46.3,6Z" transform="translate(0 -6)" fill="#fff"/>
      </g>
    </g>
    <text id="Governance_Smart_Contract" data-name="Governance 
Smart Contract" transform="translate(904.932 2896)" fill="#f4f4f4" font-size="9" font-family="Montserrat-SemiBold, Montserrat" font-weight="600"><tspan x="-29.048" y="0">Governance </tspan><tspan x="-35.645" y="11">Smart Contract</tspan></text>
    <g id="Group_4321" data-name="Group 4321" transform="translate(1030.018 2868.402)">
      <g id="Group_4320" data-name="Group 4320" transform="translate(104.494 0) rotate(90)">
        <g id="Group_4300-2" data-name="Group 4300" transform="translate(6.847 2.358)">
          <g id="Path_2958-2" data-name="Path 2958" transform="translate(1.651 2.297)">
            <path d="M 40.56278991699219 96.24781036376953 L 3.356518507003784 96.24781036376953 L 1.499998092651367 93.62244415283203 L 1.499998092651367 4.125380516052246 L 3.356520175933838 1.499998569488525 L 40.56278991699219 1.499998569488525 L 42.69450378417969 4.514651775360107 L 43.14278411865234 5.148612022399902 L 43.91923904418945 5.148612022399902 L 46.65520477294922 5.148612022399902 L 48.63762664794922 7.951391220092773 L 48.63762664794922 89.62274932861328 L 46.53235244750977 92.59921264648438 L 43.91923904418945 92.59921264648438 L 43.14278411865234 92.59921264648438 L 42.69450378417969 93.23316955566406 L 40.56278991699219 96.24781036376953 Z" stroke="none"/>
            <path d="M 4.132949829101562 3 L 2.999996185302734 4.602149963378906 L 2.999996185302734 93.14565277099609 L 4.132953643798828 94.74781036376953 L 39.78634643554688 94.74781036376953 L 41.46976470947266 92.36713409423828 L 42.3663330078125 91.09919738769531 L 43.91924285888672 91.09919738769531 L 45.75602722167969 91.09919738769531 L 47.13762664794922 89.14588928222656 L 47.13762664794922 8.428260803222656 L 45.87886810302734 6.648597717285156 L 43.91924285888672 6.648597717285156 L 42.36634826660156 6.648597717285156 L 41.46976470947266 5.38067626953125 L 39.78633880615234 3 L 4.132949829101562 3 M 2.580089569091797 0 L 41.33924102783203 0 L 43.91924285888672 3.648597717285156 L 47.43153381347656 3.648597717285156 L 50.13762664794922 7.474533081054688 L 50.13762664794922 90.099609375 L 47.30867385864258 94.09919738769531 L 43.91924285888672 94.09919738769531 L 41.33924102783203 97.74781036376953 L 2.580089569091797 97.74781036376953 L -3.814697265625e-06 94.09919738769531 L -3.814697265625e-06 3.648597717285156 L 2.580089569091797 0 Z" stroke="none" fill="#fff"/>
          </g>
          <path id="Path_2959-2" data-name="Path 2959" d="M43.963,0H2.744L0,3.812V98.323l2.744,3.812H43.963l2.744-3.812h3.6l3.008-4.18V7.811l-2.878-4H46.707Z" fill="none" stroke="#fff" stroke-width="1"/>
        </g>
        <path id="Path_2960-2" data-name="Path 2960" d="M41.586,2.358,39.264,0H2.458L0,2.358Z" transform="translate(9.411 0)" fill="#fff"/>
        <path id="Path_2961-2" data-name="Path 2961" d="M6.847,0,0,2.383v76.9L6.847,81.67Z" transform="translate(0 12.545)" fill="#fff"/>
      </g>
      <text id="Timelock_Smart_Contract" data-name="Timelock 
Smart Contract" transform="translate(51.914 27.598)" fill="#f4f4f4" font-size="9" font-family="Montserrat-SemiBold, Montserrat" font-weight="600"><tspan x="-22.41" y="0">Timelock </tspan><tspan x="-35.645" y="11">Smart Contract</tspan></text>
    </g>
    <g id="Group_4319" data-name="Group 4319" transform="translate(714 2774.146)">
      <g id="Group_4318" data-name="Group 4318" transform="translate(104.494 0) rotate(90)">
        <g id="Group_4300-3" data-name="Group 4300" transform="translate(6.847 2.358)">
          <g id="Path_2958-3" data-name="Path 2958" transform="translate(1.651 2.297)">
            <path d="M 40.56278991699219 96.24781036376953 L 3.356518507003784 96.24781036376953 L 1.499998092651367 93.62244415283203 L 1.499998092651367 4.125380516052246 L 3.356520175933838 1.499998569488525 L 40.56278991699219 1.499998569488525 L 42.69450378417969 4.514651775360107 L 43.14278411865234 5.148612022399902 L 43.91923904418945 5.148612022399902 L 46.65520477294922 5.148612022399902 L 48.63762664794922 7.951391220092773 L 48.63762664794922 89.62274932861328 L 46.53235244750977 92.59921264648438 L 43.91923904418945 92.59921264648438 L 43.14278411865234 92.59921264648438 L 42.69450378417969 93.23316955566406 L 40.56278991699219 96.24781036376953 Z" stroke="none"/>
            <path d="M 4.132949829101562 3 L 2.999996185302734 4.602149963378906 L 2.999996185302734 93.14565277099609 L 4.132953643798828 94.74781036376953 L 39.78634643554688 94.74781036376953 L 41.46976470947266 92.36713409423828 L 42.3663330078125 91.09919738769531 L 43.91924285888672 91.09919738769531 L 45.75602722167969 91.09919738769531 L 47.13762664794922 89.14588928222656 L 47.13762664794922 8.428260803222656 L 45.87886810302734 6.648597717285156 L 43.91924285888672 6.648597717285156 L 42.36634826660156 6.648597717285156 L 41.46976470947266 5.38067626953125 L 39.78633880615234 3 L 4.132949829101562 3 M 2.580089569091797 0 L 41.33924102783203 0 L 43.91924285888672 3.648597717285156 L 47.43153381347656 3.648597717285156 L 50.13762664794922 7.474533081054688 L 50.13762664794922 90.099609375 L 47.30867385864258 94.09919738769531 L 43.91924285888672 94.09919738769531 L 41.33924102783203 97.74781036376953 L 2.580089569091797 97.74781036376953 L -3.814697265625e-06 94.09919738769531 L -3.814697265625e-06 3.648597717285156 L 2.580089569091797 0 Z" stroke="none" fill="#fff"/>
          </g>
          <path id="Path_2959-3" data-name="Path 2959" d="M43.963,0H2.744L0,3.812V98.323l2.744,3.812H43.963l2.744-3.812h3.6l3.008-4.18V7.811l-2.878-4H46.707Z" fill="none" stroke="#fff" stroke-width="1"/>
        </g>
        <path id="Path_2960-3" data-name="Path 2960" d="M41.586,2.358,39.264,0H2.458L0,2.358Z" transform="translate(9.411 0)" fill="#fff"/>
        <path id="Path_2961-3" data-name="Path 2961" d="M6.847,0,0,2.383v76.9L6.847,81.67Z" transform="translate(0 12.545)" fill="#fff"/>
      </g>
      <text id="Staking_Smart_Contract" data-name="Staking 
Smart Contract" transform="translate(51.932 27.854)" fill="#f4f4f4" font-size="9" font-family="Montserrat-SemiBold, Montserrat" font-weight="600"><tspan x="-19.08" y="0">Staking </tspan><tspan x="-35.645" y="11">Smart Contract</tspan></text>
    </g>
    <g id="Group_4323" data-name="Group 4323" transform="translate(18249.932 19495)">
      <g id="Group_4322" data-name="Group 4322" transform="translate(-17260.914 -16805.598)">
        <g id="Group_4320-2" data-name="Group 4320" transform="translate(181.613 0) rotate(90)">
          <g id="Group_4300-4" data-name="Group 4300" transform="translate(11.9 4.099)">
            <g id="Path_2958-4" data-name="Path 2958" transform="translate(2.87 3.992)">
              <path d="M 71.07223510742188 168.3882598876953 L 5.260700702667236 168.3882598876953 L 1.499997615814209 163.0700988769531 L 1.499997615814209 6.818167686462402 L 5.260715007781982 1.500008702278137 L 71.07223510742188 1.500008702278137 L 75.10806274414062 7.207417964935303 L 75.55633544921875 7.841372489929199 L 76.33279418945312 7.841372489929199 L 81.660888671875 7.841372489929199 L 85.64049530029297 13.46780872344971 L 85.64049530029297 156.1185913085938 L 81.44739532470703 162.046875 L 76.33279418945312 162.046875 L 75.55633544921875 162.046875 L 75.10806274414062 162.6808319091797 L 71.07223510742188 168.3882598876953 Z" stroke="none"/>
              <path d="M 6.037132263183594 3 L 3.000007629394531 7.294921875 L 3.000007629394531 162.5933227539062 L 6.037117004394531 166.8882446289062 L 70.2957763671875 166.8882446289062 L 73.88331604003906 161.8147888183594 L 74.77989196777344 160.5468597412109 L 76.33279418945312 160.5468597412109 L 80.67105102539062 160.5468597412109 L 84.14048767089844 155.6417236328125 L 84.14048767089844 13.94467163085938 L 80.88455200195312 9.341354370117188 L 76.33279418945312 9.341354370117188 L 74.77989196777344 9.341354370117188 L 73.88331604003906 8.07342529296875 L 70.29578399658203 3 L 6.037132263183594 3 M 4.484245300292969 0 L 71.84867858886719 0 L 76.33279418945312 6.341354370117188 L 82.43722534179688 6.341354370117188 L 87.14048767089844 12.99093627929688 L 87.14048767089844 156.595458984375 L 82.22372436523438 163.5468597412109 L 76.33279418945312 163.5468597412109 L 71.84867858886719 169.8882446289062 L 4.484245300292969 169.8882446289062 L 7.62939453125e-06 163.5468597412109 L 7.62939453125e-06 6.341354370117188 L 4.484245300292969 0 Z" stroke="none" fill="#fff"/>
            </g>
            <path id="Path_2959-4" data-name="Path 2959" d="M76.409,0H4.769L0,6.625V170.889l4.769,6.625h71.64l4.769-6.625h6.265l5.229-7.264V13.575l-5-6.95H81.178Z" transform="translate(0 0)" fill="none" stroke="#fff" stroke-width="1"/>
          </g>
          <path id="Path_2960-4" data-name="Path 2960" d="M72.277,4.1,68.241,0H4.271L0,4.1Z" transform="translate(16.356 0)" fill="#fff"/>
          <path id="Path_2961-4" data-name="Path 2961" d="M11.9,0,0,4.142V137.8l11.9,4.142Z" transform="translate(0 21.804)" fill="#fff"/>
        </g>
      </g>
      <g id="logo" transform="translate(-17815 -15487.729)">
        <g id="Group_362" data-name="Group 362" transform="translate(604.089 -1279.569)" clip-path="url(#clip-path)">
          <g id="Group_361" data-name="Group 361" transform="translate(0 -30.422)" clip-path="url(#clip-path-2)">
            <path id="Path_286" data-name="Path 286" d="M620-1273h15.469v15.469H620Z" transform="translate(-622.578 1300.844)" fill="#fff"/>
          </g>
        </g>
        <g id="Group_364" data-name="Group 364" transform="translate(621.104 -1279.569)" clip-path="url(#clip-path-3)">
          <g id="Group_363" data-name="Group 363" transform="translate(-17.016 -30.422)" clip-path="url(#clip-path-2)">
            <path id="Path_289" data-name="Path 289" d="M653-1273h15.469v15.469H653Z" transform="translate(-638.563 1300.844)" fill="#fff"/>
          </g>
        </g>
        <g id="Group_366" data-name="Group 366" transform="translate(637.605 -1279.569)" clip-path="url(#clip-path-5)">
          <g id="Group_365" data-name="Group 365" transform="translate(-33.516 -30.422)" clip-path="url(#clip-path-2)">
            <path id="Path_292" data-name="Path 292" d="M685-1273h18.563v15.984H685Z" transform="translate(-654.062 1300.844)" fill="#fff"/>
          </g>
        </g>
        <g id="Group_368" data-name="Group 368" transform="translate(657.198 -1279.569)" clip-path="url(#clip-path-7)">
          <g id="Group_367" data-name="Group 367" transform="translate(-53.109 -30.422)" clip-path="url(#clip-path-2)">
            <path id="Path_295" data-name="Path 295" d="M723-1273h15.469v15.469H723Z" transform="translate(-672.469 1300.844)" fill="#fff"/>
          </g>
        </g>
        <g id="Group_370" data-name="Group 370" transform="translate(674.214 -1279.569)" clip-path="url(#clip-path-9)">
          <g id="Group_369" data-name="Group 369" transform="translate(-70.125 -30.422)" clip-path="url(#clip-path-2)">
            <path id="Path_298" data-name="Path 298" d="M756-1273h15.984v15.469H756Z" transform="translate(-688.453 1300.844)" fill="#fff"/>
          </g>
        </g>
        <g id="Group_372" data-name="Group 372" transform="translate(691.23 -1279.053)" clip-path="url(#clip-path-11)">
          <g id="Group_371" data-name="Group 371" transform="translate(-87.141 -30.938)" clip-path="url(#clip-path-2)">
            <path id="Path_301" data-name="Path 301" d="M789-1272h15.984v15.469H789Z" transform="translate(-704.437 1300.359)" fill="#fff"/>
          </g>
        </g>
        <g id="Group_374" data-name="Group 374" transform="translate(573.526 -1285.271)" clip-path="url(#clip-path-13)">
          <g id="Group_373" data-name="Group 373" transform="translate(-37.125 -0.376)" clip-path="url(#clip-path-2)">
            <path id="Path_304" data-name="Path 304" d="M692-1331.271h28.875v27.844H692Z" transform="translate(-657.453 1329.069)" fill="#fff"/>
          </g>
        </g>
      </g>
      <text id="Protocol" transform="translate(-17169 -16737)" fill="#fdfdfd" font-size="9" font-family="Helvetica"><tspan x="-16.508" y="0">Protocol</tspan></text>
    </g>
    <g id="arrow_right_alt-24px" transform="translate(886.932 2986.07) rotate(-90)">
      <path id="Path_2990" data-name="Path 2990" d="M0,0H50.73V24H0Z" fill="none"/>
      <path id="Path_2991" data-name="Path 2991" d="M36.075,11H4v2H36.075v3L46.73,12,36.075,8Z" fill="#fff"/>
    </g>
    <g id="arrow_right_alt-24px-2" data-name="arrow_right_alt-24px" transform="translate(971.566 2886.705)">
      <path id="Path_2990-2" data-name="Path 2990" d="M0,0H50.73V24H0Z" fill="none"/>
      <path id="Path_2991-2" data-name="Path 2991" d="M36.075,11H4v2H36.075v3L46.73,12,36.075,8Z" fill="#fff"/>
    </g>
    <g id="arrow_right_alt-24px-3" data-name="arrow_right_alt-24px" transform="translate(1069.932 2852.07) rotate(-90)">
      <path id="Path_2990-3" data-name="Path 2990" d="M0,0H50.73V24H0Z" fill="none"/>
      <path id="Path_2991-3" data-name="Path 2991" d="M36.075,11H4v2H36.075v3L46.73,12,36.075,8Z" fill="#fff"/>
    </g>
    <g id="arrow_right_alt-24px-4" data-name="arrow_right_alt-24px" transform="translate(838.383 2881.125) rotate(-135)">
      <path id="Path_2990-4" data-name="Path 2990" d="M0,0H50.73V24H0Z" fill="none"/>
      <path id="Path_2991-4" data-name="Path 2991" d="M36.075,11H4v2H36.075v3L46.73,12,36.075,8Z" fill="#fff"/>
    </g>
    <g id="arrow_right_alt-24px-5" data-name="arrow_right_alt-24px" transform="translate(835.482 2820.283) rotate(45)">
      <path id="Path_2990-5" data-name="Path 2990" d="M0,0H50.73V24H0Z" fill="none"/>
      <path id="Path_2991-5" data-name="Path 2991" d="M36.075,11H4v2H36.075v3L46.73,12,36.075,8Z" fill="#fff"/>
    </g>
    <text id="_03" data-name="03" transform="translate(850 2837)" fill="#f4f4f4" font-size="13" font-family="Montserrat-Regular, Montserrat" letter-spacing="-0.006em"><tspan x="0" y="0">03</tspan></text>
    <text id="_04" data-name="04" transform="translate(986 2885)" fill="#f4f4f4" font-size="13" font-family="Montserrat-Regular, Montserrat" letter-spacing="-0.006em"><tspan x="0" y="0">04</tspan></text>
    <text id="_05" data-name="05" transform="translate(1092 2838)" fill="#f4f4f4" font-size="13" font-family="Montserrat-Regular, Montserrat" letter-spacing="-0.006em"><tspan x="0" y="0">05</tspan></text>
    <text id="Community" transform="translate(860 3061)" fill="#f4f4f4" font-size="13" font-family="Montserrat-Regular, Montserrat" letter-spacing="-0.006em"><tspan x="0" y="0">Community</tspan></text>
  </g>
</svg>
