<svg xmlns="http://www.w3.org/2000/svg" width="650.666" height="545.554" viewBox="0 0 650.666 545.554">
  <g id="SOV_ALL" data-name="SOV ALL" transform="translate(-635.003 -1770)">
    <text id="Total_Supply_100_000_000_SOV" data-name="Total Supply
100,000,000
SOV" transform="translate(960 2026)" fill="#ededed" font-size="26" font-family="Helvetica-Light, Helvetica" font-weight="300" letter-spacing="-0.006em"><tspan x="-69.983" y="0">Total Supply</tspan><tspan x="-71.539" y="31">100,000,000</tspan><tspan x="-25.852" y="62">SOV</tspan></text>
    <text id="CALLS" transform="translate(658 2021)" fill="#fff" font-size="21" font-family="Roboto-Medium, Roboto" font-weight="500"><tspan x="0" y="0">25.0%</tspan></text>
    <text id="CALLS-2" data-name="CALLS" transform="translate(1210 1792)" fill="#fff" font-size="21" font-family="Roboto-Medium, Roboto" font-weight="500"><tspan x="0" y="0">10.0%</tspan></text>
    <text id="CALLS-3" data-name="CALLS" transform="translate(658 2300)" fill="#fff" font-size="21" font-family="Roboto-Medium, Roboto" font-weight="500"><tspan x="0" y="0">38.1%</tspan></text>
    <text id="CALLS-4" data-name="CALLS" transform="translate(1220 2202)" fill="#fff" font-size="21" font-family="Roboto-Medium, Roboto" font-weight="500"><tspan x="0" y="0">5.0%</tspan></text>
    <text id="CALLS-5" data-name="CALLS" transform="translate(658 1792)" fill="#fff" font-size="21" font-family="Roboto-Medium, Roboto" font-weight="500"><tspan x="0" y="0">16.9%</tspan></text>
    <text id="CALLS-6" data-name="CALLS" transform="translate(1220 1997)" fill="#fff" font-size="21" font-family="Roboto-Medium, Roboto" font-weight="500"><tspan x="0" y="0">5.0%</tspan></text>
  </g>
  <path id="Path_2960" data-name="Path 2960" d="M-16064.849-12605.97h380.7v75.938" transform="translate(16065.997 12643)" fill="none" stroke="#fff" stroke-linecap="round" stroke-width="1"/>
  <path id="Path_2963" data-name="Path 2963" d="M-15824.179-12605.969h-90.622l-76.677,166.4" transform="translate(16474.345 12643.196)" fill="none" stroke="#fff" stroke-linecap="round" stroke-width="1"/>
  <path id="Path_2961" data-name="Path 2961" d="M-16043.5-12586.43h150.6" transform="translate(16043.997 12852.46)" fill="none" stroke="#fff" stroke-linecap="round" stroke-width="1"/>
  <path id="Path_2962" data-name="Path 2962" d="M-16042.829-12561.484h265.933l45.862-93.178" transform="translate(16043.524 13106.538)" fill="none" stroke="#fff" stroke-linecap="round" stroke-width="1"/>
  <path id="Path_2964" data-name="Path 2964" d="M-15868.758-12552.5h-90.066l-70.359-109.647" transform="translate(16518.356 12999.559)" fill="none" stroke="#fff" stroke-linecap="round" stroke-width="1"/>
  <path id="Path_2965" data-name="Path 2965" d="M-15944.973-12586.43h-89.863l-60.558,42.258" transform="translate(16594.681 12827.93)" fill="none" stroke="#fff" stroke-linecap="round" stroke-width="1"/>
  <g id="Group_4072" data-name="Group 4072" transform="translate(203.054 480.926) rotate(-104)">
    <path id="Subtraction_69" data-name="Subtraction 69" d="M167.529,167.4H100.968a99.984,99.984,0,0,0-3.348-25.406A100.778,100.778,0,0,0,87.487,117.5,100.744,100.744,0,0,0,70.906,96.048,99.978,99.978,0,0,0,49.97,80.28,101.055,101.055,0,0,0,.365,67.237H0V0A168.443,168.443,0,0,1,82.594,21.775a166.627,166.627,0,0,1,34.856,26.27,167.906,167.906,0,0,1,27.61,35.734,167.938,167.938,0,0,1,16.948,41.046,166.663,166.663,0,0,1,5.52,42.575Z" transform="translate(167.525 0)" fill="#46408d" stroke="#fff" stroke-width="3"/>
    <path id="Subtraction_74" data-name="Subtraction 74" d="M54.025,290.774h0A167.517,167.517,0,0,1,167.372,0h.153V67.238a100.07,100.07,0,0,0-49.8,13.481,101.242,101.242,0,0,0-16.52,11.9,99.948,99.948,0,0,0-23.56,31.064,100.793,100.793,0,0,0-9.425,56.5,99.991,99.991,0,0,0,4.361,19.265A101.266,101.266,0,0,0,99.5,241.347l-45.47,49.425Z" transform="translate(0 0)" fill="#312c70" stroke="#fff" stroke-width="3"/>
    <path id="Subtraction_70" data-name="Subtraction 70" d="M31.8,147.269,0,88.764c.812-.44,1.64-.9,2.46-1.376a100.734,100.734,0,0,0,21.5-16.63,99.981,99.981,0,0,0,15.785-21A101.055,101.055,0,0,0,52.727,0h66.561A168.443,168.443,0,0,1,97.544,82.666a166.634,166.634,0,0,1-26.278,34.888A167.9,167.9,0,0,1,35.51,145.187c-1.243.717-2.492,1.417-3.713,2.081Z" transform="translate(215.766 167.401)" fill="#5d57a3" stroke="#fff" stroke-width="3"/>
    <path id="Subtraction_71" data-name="Subtraction 71" d="M20.492,78.767A168.594,168.594,0,0,1,0,77.51L8.113,11.168a101.038,101.038,0,0,0,12.762.813A100.082,100.082,0,0,0,44.988,9.032,100.56,100.56,0,0,0,68.344,0l31.68,58.57A167.656,167.656,0,0,1,60.9,73.8,166.766,166.766,0,0,1,20.492,78.767Z" transform="translate(147.19 256.289)" fill="#736db4" stroke="#fff" stroke-width="3"/>
    <path id="Subtraction_72" data-name="Subtraction 72" d="M50.766,75.238A168.083,168.083,0,0,1,0,60.678L28.4,0A100.848,100.848,0,0,0,58.842,8.892L50.766,75.238Z" transform="translate(96.52 258.573)" fill="#9690d6" stroke="#fff" stroke-width="3"/>
    <path id="Subtraction_73" data-name="Subtraction 73" d="M42.578,77.946h0A166.661,166.661,0,0,1,0,49.293L45.616,0A99.956,99.956,0,0,0,71.061,17.307L42.578,77.945Z" transform="translate(53.728 241.206)" fill="#bfbbed" stroke="#fff" stroke-width="3"/>
  </g>
</svg>
