<svg xmlns="http://www.w3.org/2000/svg" xmlns:xlink="http://www.w3.org/1999/xlink" width="216.474" height="38.211" viewBox="0 0 216.474 38.211"><defs><clipPath id="a"><path d="M641.533-1267.116a2.479,2.479,0,0,0-.945-.644,2.614,2.614,0,0,0-1.262-.216L628.183-1268a5.146,5.146,0,0,0-1.263.212,3.651,3.651,0,0,0-.947.64,2.53,2.53,0,0,0-.633.962,2.748,2.748,0,0,0-.212,1.284l-.008,3.747a5.541,5.541,0,0,0,.208,1.286,3.7,3.7,0,0,0,.629.963,3.755,3.755,0,0,0,1.05.753,2.626,2.626,0,0,0,1.261.216l10.933.023a.38.38,0,0,1,.315.108.392.392,0,0,1,.1.32l-.007,3.748a.4.4,0,0,1-.105.32.382.382,0,0,1-.316.108l-11.039-.023a.375.375,0,0,1-.314-.109.4.4,0,0,1-.105-.321v-.642a.456.456,0,0,0-.419-.43l-1.892,0a.457.457,0,0,0-.422.427v.643a5.467,5.467,0,0,0,.208,1.285,3.711,3.711,0,0,0,.629.964,2.477,2.477,0,0,0,.945.645,2.627,2.627,0,0,0,1.261.217l11.144.023a5.256,5.256,0,0,0,1.263-.212,3.7,3.7,0,0,0,.947-.64,2.551,2.551,0,0,0,.633-.963,2.777,2.777,0,0,0,.212-1.284l.007-3.747a5.472,5.472,0,0,0-.207-1.285,3.756,3.756,0,0,0-.629-.965,3.746,3.746,0,0,0-1.05-.751,2.619,2.619,0,0,0-1.262-.217l-10.932-.023a.378.378,0,0,1-.315-.108.4.4,0,0,1-.105-.322l.008-3.747a.4.4,0,0,1,.105-.321.381.381,0,0,1,.315-.106l11.039.022a.383.383,0,0,1,.315.109.4.4,0,0,1,.105.321l0,.642a.458.458,0,0,0,.42.43l1.892,0a.456.456,0,0,0,.421-.427v-.643a5.462,5.462,0,0,0-.207-1.286q-.315-.482-.629-.965" transform="translate(-625 1268)" fill="none" clip-rule="evenodd"/></clipPath><clipPath id="b"><path d="M625-1257.526H790V-1327H625Z" transform="translate(-625 1327)" fill="none"/></clipPath><clipPath id="c"><path d="M660.683-1264.809a.39.39,0,0,1,.107-.32.4.4,0,0,1,.319-.1l11.174.023a.392.392,0,0,1,.319.106.394.394,0,0,1,.105.32l-.023,11.173a.391.391,0,0,1-.106.32.389.389,0,0,1-.32.1l-11.174-.022a.389.389,0,0,1-.318-.108.385.385,0,0,1-.105-.319Zm13.945-2.313a2.514,2.514,0,0,0-.956-.641,2.689,2.689,0,0,0-1.277-.215l-11.28-.023a5.276,5.276,0,0,0-1.277.211,3.656,3.656,0,0,0-.959.636,2.5,2.5,0,0,0-.641.956,2.7,2.7,0,0,0-.216,1.276L658-1253.748a5.352,5.352,0,0,0,.21,1.278,3.735,3.735,0,0,0,.636.959,2.545,2.545,0,0,0,.957.641,2.709,2.709,0,0,0,1.277.215l11.174.023a5.36,5.36,0,0,0,1.277-.211,3.66,3.66,0,0,0,.959-.635,2.5,2.5,0,0,0,.641-.957,2.7,2.7,0,0,0,.216-1.276l.022-11.068a5.338,5.338,0,0,0-.21-1.277A3.344,3.344,0,0,0,674.628-1267.121Z" transform="translate(-658 1268)" fill="none" clip-rule="evenodd"/></clipPath><clipPath id="e"><path d="M712.176-1267.845l-2.263,0c-.108,0-.323.108-.323.219l-8.329,14.793-8.268-14.938c-.108-.109-.216-.22-.323-.22l-2.263-.005c-.108,0-.323.109-.323.22a.336.336,0,0,0,0,.438c1.61,2.966,3.221,5.821,4.832,8.677s3.222,5.712,4.94,8.678c.108.11.216.22.323.22l2.263,0c.108,0,.323-.109.323-.218.865-1.534,1.731-2.959,2.488-4.383.864-1.424,1.622-2.849,2.38-4.274l2.38-4.274c.864-1.424,1.622-2.849,2.487-4.384a.338.338,0,0,0,0-.438c0-.111-.108-.111-.323-.111" transform="translate(-690 1268)" fill="none" clip-rule="evenodd"/></clipPath><clipPath id="g"><path d="M730.778-1264.838a.383.383,0,0,1,.107-.316.392.392,0,0,1,.317-.1l11.1.023a.39.39,0,0,1,.317.105.387.387,0,0,1,.1.315l-.009,4.842a.388.388,0,0,1-.107.316.39.39,0,0,1-.317.1l-11.1-.023a.4.4,0,0,1-.317-.106.382.382,0,0,1-.1-.316Zm13.855-2.182a3.8,3.8,0,0,0-1.055-.738,2.688,2.688,0,0,0-1.269-.214L728.458-1268a.454.454,0,0,0-.424.42L728-1251.057a.455.455,0,0,0,.422.422l1.9,0a.453.453,0,0,0,.424-.42l.012-5.788h.423l5.921.012,5.062,6.009a.394.394,0,0,0,.317.107l2.433,0c.106,0,.317-.1.317-.209.106-.106,0-.316-.1-.421l-4.64-5.482,1.691,0a5.358,5.358,0,0,0,1.27-.208,3.8,3.8,0,0,0,1.058-.735,2.494,2.494,0,0,0,.637-.946,2.665,2.665,0,0,0,.215-1.264l.01-4.842a5.26,5.26,0,0,0-.208-1.263A1.106,1.106,0,0,0,744.633-1267.021Z" transform="translate(-728 1268)" fill="none" clip-rule="evenodd"/></clipPath><clipPath id="i"><path d="M778.729-1267.965l-2.246,0c-.107,0-.214.1-.321.1-1.072,1.26-2.144,2.625-3.217,3.99-.966,1.259-2.038,2.519-2.9,3.674l-6.188-7.688a.4.4,0,0,0-.321-.1l-2.139,0c-.107,0-.321.1-.321.209a.314.314,0,0,0,0,.42c1.28,1.685,2.559,3.475,3.84,5.16s2.56,3.369,3.733,5.055l-.013,6.1a.455.455,0,0,0,.427.42l1.925,0a.456.456,0,0,0,.429-.419l.013-6.1,7.722-10.183a.317.317,0,0,0,0-.421.429.429,0,0,0-.428-.211" transform="translate(-761 1268)" fill="none" clip-rule="evenodd"/></clipPath><clipPath id="k"><path d="M811.8-1267l-1.974,0a.46.46,0,0,0-.44.418l-.029,13.309-11.923-13.543a.413.413,0,0,0-.328-.1l-2.632-.007a.463.463,0,0,0-.44.419L794-1250.055a.459.459,0,0,0,.438.419l1.974,0a.462.462,0,0,0,.44-.418l.029-13.414,11.923,13.541a.408.408,0,0,0,.328.106l2.632.005a.462.462,0,0,0,.44-.419l.035-16.452c0-.209-.218-.315-.437-.315" transform="translate(-794 1267)" fill="none" clip-rule="evenodd"/></clipPath><clipPath id="m"><path d="M719.573-1302.371l-1.891,2.676,3.312,4.83.451-.892,15.5-30.433Zm-1.871-6.883-6.553-.013,4.834,6.621a.938.938,0,0,0,1.436,0l2.161-2.944.81-1.07c.09-.089.09-.179.18-.268.543-2.143.907-4.287-1.426-4.827a2.593,2.593,0,0,1,.178.8A1.529,1.529,0,0,1,717.7-1309.254ZM697-1326.271l19.043,37.74a.93.93,0,0,0,1.616,0l2.614-5.086-3.4-5.1Zm24.29,18.542,7.291-9.812-11.939-.025a1.7,1.7,0,0,1-1.7-1.7c-4.311.974-5.3,3.116-6.028,6.6l8.8.018h.179C722.467-1312.46,722.551-1310.227,721.29-1307.729Zm-12.648-4.94c.188-4.465,1.812-7.679,7.737-8.2h.269l14.363.029,2.34-3.211a.892.892,0,0,0-.716-1.43l-31.689-.064a.905.905,0,0,0-.721,1.428Z" transform="translate(-697 1326.271)" fill="none" clip-rule="evenodd"/></clipPath></defs><g transform="translate(-573.526 1285.271)"><g transform="translate(625 -1275.667)" clip-path="url(#a)"><g transform="translate(0 -51.237)" clip-path="url(#b)"><path d="M620-1273h26.053v26.053H620Z" transform="translate(-624.342 1319.895)" fill="#fff"/></g></g><g transform="translate(653.658 -1275.667)" clip-path="url(#c)"><g transform="translate(-28.658 -51.237)" clip-path="url(#b)"><path d="M653-1273h26.053v26.053H653Z" transform="translate(-628.684 1319.895)" fill="#fff"/></g></g><g transform="translate(681.447 -1275.667)" clip-path="url(#e)"><g transform="translate(-56.447 -51.237)" clip-path="url(#b)"><path d="M685-1273h31.263v26.921H685Z" transform="translate(-632.895 1319.895)" fill="#fff"/></g></g><g transform="translate(714.447 -1275.667)" clip-path="url(#g)"><g transform="translate(-89.447 -51.237)" clip-path="url(#b)"><path d="M723-1273h26.053v26.053H723Z" transform="translate(-637.895 1319.895)" fill="#fff"/></g></g><g transform="translate(743.105 -1275.667)" clip-path="url(#i)"><g transform="translate(-118.105 -51.237)" clip-path="url(#b)"><path d="M756-1273h26.921v26.053H756Z" transform="translate(-642.237 1319.895)" fill="#fff"/></g></g><g transform="translate(771.763 -1274.799)" clip-path="url(#k)"><g transform="translate(-146.763 -52.105)" clip-path="url(#b)"><path d="M789-1272h26.921v26.053H789Z" transform="translate(-646.579 1319.763)" fill="#fff"/></g></g><g transform="translate(573.526 -1285.271)" clip-path="url(#m)"><g transform="translate(-62.526 -0.633)" clip-path="url(#b)"><path d="M692-1331.271h48.632v46.895H692Z" transform="translate(-633.816 1327.562)" fill="#fff"/></g></g></g></svg>