<?xml version="1.0" encoding="utf-8"?>
<!-- Generator: Adobe Illustrator 22.0.0, SVG Export Plug-In . SVG Version: 6.00 Build 0)  -->
<svg version="1.1" id="Capa_1" xmlns="http://www.w3.org/2000/svg" xmlns:xlink="http://www.w3.org/1999/xlink" x="0px" y="0px"
	 viewBox="0 0 400 87" style="enable-background:new 0 0 400 87;" xml:space="preserve">
<style type="text/css">
	.st0{fill-rule:evenodd;clip-rule:evenodd;}
</style>
<g>
	<g>
		<g>
			<path d="M121.3,28.8c-0.5-0.5-1.2-1-1.9-1.3c-0.7-0.3-1.5-0.5-2.4-0.5H95.8c-0.8,0-1.6,0.2-2.4,0.5c-0.7,0.3-1.4,0.7-1.9,1.3
				c-0.5,0.5-1,1.2-1.3,1.9c-0.3,0.7-0.5,1.5-0.5,2.4v7.1c0,0.8,0.2,1.6,0.5,2.4c0.3,0.7,0.7,1.3,1.3,1.9c0.5,0.6,1.2,1,1.9,1.3
				c0.7,0.3,1.5,0.5,2.4,0.5H117c0.3,0,0.5,0.1,0.7,0.3c0.2,0.2,0.3,0.4,0.3,0.6v7.1c0,0.3-0.1,0.5-0.3,0.7
				c-0.2,0.2-0.4,0.3-0.7,0.3H95.8c-0.3,0-0.5-0.1-0.7-0.3c-0.2-0.2-0.3-0.4-0.3-0.7V53c0-0.4-0.3-0.8-0.8-0.8h-3.6
				c-0.4,0-0.8,0.3-0.8,0.8v1.2c0,0.8,0.2,1.6,0.5,2.4c0.3,0.7,0.7,1.4,1.3,1.9c0.5,0.5,1.2,1,1.9,1.3c0.7,0.3,1.5,0.5,2.4,0.5H117
				c0.8,0,1.6-0.2,2.4-0.5c0.7-0.3,1.4-0.7,1.9-1.3c0.5-0.5,1-1.2,1.3-1.9c0.3-0.7,0.5-1.5,0.5-2.4v-7.1c0-0.8-0.2-1.6-0.5-2.4
				c-0.3-0.7-0.7-1.3-1.3-1.9c-0.5-0.6-1.2-1-1.9-1.3c-0.7-0.3-1.5-0.5-2.4-0.5H95.8c-0.3,0-0.5-0.1-0.7-0.3
				c-0.2-0.2-0.3-0.4-0.3-0.6v-7.1c0-0.3,0.1-0.5,0.3-0.7c0.2-0.2,0.4-0.3,0.7-0.3H117c0.3,0,0.5,0.1,0.7,0.3
				c0.2,0.2,0.3,0.4,0.3,0.7v1.2c0,0.4,0.3,0.8,0.8,0.8h3.6c0.4,0,0.8-0.3,0.8-0.8v-1.2c0-0.8-0.2-1.6-0.5-2.4
				C122.2,30,121.8,29.4,121.3,28.8z"/>
			<path d="M175.2,28.8c-0.5-0.5-1.2-1-1.9-1.3c-0.7-0.3-1.5-0.5-2.4-0.5h-21.2c-0.8,0-1.6,0.2-2.4,0.5c-0.7,0.3-1.4,0.7-1.9,1.3
				c-0.5,0.5-1,1.2-1.3,1.9c-0.3,0.7-0.5,1.5-0.5,2.4v21.2c0,0.8,0.2,1.6,0.5,2.4c0.3,0.7,0.7,1.4,1.3,1.9c0.5,0.5,1.2,1,1.9,1.3
				c0.7,0.3,1.5,0.5,2.4,0.5H171c0.8,0,1.6-0.2,2.4-0.5c0.7-0.3,1.4-0.7,1.9-1.3c0.5-0.5,1-1.2,1.3-1.9c0.3-0.7,0.5-1.5,0.5-2.4
				V33.1c0-0.8-0.2-1.6-0.5-2.4C176.2,30,175.8,29.4,175.2,28.8z M148.8,33.1c0-0.3,0.1-0.5,0.3-0.7c0.2-0.2,0.4-0.3,0.7-0.3H171
				c0.3,0,0.5,0.1,0.7,0.3c0.2,0.2,0.3,0.4,0.3,0.7v21.2c0,0.3-0.1,0.5-0.3,0.7c-0.2,0.2-0.4,0.3-0.7,0.3h-21.2
				c-0.3,0-0.5-0.1-0.7-0.3c-0.2-0.2-0.3-0.4-0.3-0.7V33.1z"/>
			<path d="M237.5,27.1h-4.2c-0.3,0-0.5,0.1-0.7,0.4l-15.6,27.1l-15.6-27.1c-0.1-0.2-0.4-0.4-0.7-0.4h-4.2c-0.3,0-0.5,0.1-0.7,0.4
				c-0.1,0.2-0.1,0.5,0,0.8c3,5.4,6.1,10.7,9.2,15.9c3,5.2,6.1,10.5,9.2,15.9c0.1,0.2,0.4,0.4,0.7,0.4h4.1c0.3,0,0.5-0.1,0.7-0.4
				c1.6-2.7,3.1-5.4,4.7-8c1.5-2.6,3-5.2,4.5-7.8l4.5-7.8c1.5-2.6,3.1-5.3,4.6-8c0.1-0.2,0.1-0.5,0-0.8
				C238,27.2,237.7,27.1,237.5,27.1z"/>
			<path d="M290.1,28.9c-0.5-0.6-1.2-1-1.9-1.3c-0.7-0.3-1.5-0.5-2.4-0.5h-26.4c-0.4,0-0.8,0.3-0.8,0.8v31.7c0,0.4,0.3,0.8,0.8,0.8
				h3.6c0.4,0,0.8-0.3,0.8-0.8V48.4c0,0,0.1,0,0.1,0c0.3,0,0.6,0,0.9,0h11.3l9.7,11.5c0.1,0.2,0.4,0.3,0.6,0.3h4.7
				c0.3,0,0.6-0.2,0.7-0.4c0.1-0.3,0.1-0.6-0.1-0.8l-8.9-10.6h3.2c0.8,0,1.6-0.2,2.4-0.5c0.7-0.3,1.4-0.8,1.9-1.3
				c0.5-0.5,1-1.2,1.3-1.9c0.3-0.7,0.5-1.5,0.5-2.4v-9.3c0-0.8-0.2-1.6-0.5-2.4C291,30.1,290.6,29.4,290.1,28.9z M263.7,33.2
				c0-0.3,0.1-0.5,0.3-0.7c0.2-0.2,0.4-0.3,0.7-0.3h21.2c0.3,0,0.5,0.1,0.6,0.3c0.2,0.2,0.3,0.4,0.3,0.7v9.3c0,0.3-0.1,0.5-0.3,0.7
				c-0.2,0.2-0.4,0.3-0.7,0.3h-21.2c-0.3,0-0.5-0.1-0.7-0.3c-0.2-0.2-0.3-0.4-0.3-0.6V33.2z"/>
			<path d="M344.4,27.1h-4.2c-0.2,0-0.5,0.1-0.6,0.3c-1.9,2.5-4,5.1-6.1,7.8c-1.9,2.4-3.7,4.7-5.5,7l-11.7-14.8
				c-0.1-0.2-0.4-0.3-0.6-0.3h-4.1c-0.3,0-0.5,0.2-0.7,0.4c-0.1,0.3-0.1,0.6,0.1,0.8c2.4,3.3,4.8,6.6,7.3,9.9
				c2.4,3.3,4.8,6.5,7.1,9.7v11.7c0,0.4,0.3,0.8,0.8,0.8h3.6c0.4,0,0.8-0.3,0.8-0.8V47.9L345,28.3c0.2-0.2,0.2-0.5,0.1-0.8
				C344.9,27.2,344.7,27.1,344.4,27.1z"/>
			<path d="M398.3,27.1h-3.6c-0.4,0-0.8,0.3-0.8,0.8v25.6L372,27.3c-0.1-0.2-0.4-0.3-0.6-0.3h-4.9c-0.4,0-0.8,0.3-0.8,0.8v31.7
				c0,0.4,0.3,0.8,0.8,0.8h3.6c0.4,0,0.8-0.3,0.8-0.8V34L392.8,60c0.1,0.2,0.4,0.3,0.6,0.3h4.9c0.4,0,0.8-0.3,0.8-0.8V27.8
				C399,27.4,398.7,27.1,398.3,27.1z"/>
		</g>
	</g>
	<g>
		<g>
			<path class="st0" d="M70.9,20.1H44.1c-2.1,0-3.8-1.7-3.8-3.8c-9.7,2.2-11.9,7.1-13.5,15h19.7c0.1,0,0.1,0,0.2,0
				c0.1,0,0.2,0,0.3,0c10.2,0.2,10.4,5.3,7.6,10.9L70.9,20.1z M26.2,31.2c0.3-10.1,4-17.4,17.4-18.6h0c0.2,0,0.4,0,0.6,0h32.3
				l5.2-7.1c1-1.3,0-3.2-1.6-3.2H8.8c-1.6,0-2.6,1.9-1.6,3.2L26.2,31.2z M54.6,42.3C54.6,42.3,54.6,42.3,54.6,42.3L54.6,42.3
				L54.6,42.3z M46.6,38.9H31.9l11,14.9c0.8,1.1,2.4,1.1,3.2,0l4.8-6.6l1.8-2.5v0c0.1-0.2,0.2-0.4,0.4-0.5c1.3-4.8,2.1-9.7-3.2-10.9
				c0,0,0,0,0,0l0,0c0.3,0.5,0.5,1.1,0.5,1.8v0C50.4,37.2,48.7,38.9,46.6,38.9z M0,0.6l43,85.1c0.8,1.5,2.9,1.5,3.6,0l5.8-11.5
				l-7.6-11.5L0,0.6z M50.8,54.4l-4.3,6l7.4,10.9l1-1.9L89.6,0.6L50.8,54.4z"/>
		</g>
	</g>
</g>
</svg>
