<svg width="200" height="44" viewBox="0 0 400 87" xmlns="http://www.w3.org/2000/svg" fill="#FFFFFF">
	<path class="st0" d="M121.7,28.6c-0.5-0.5-1.2-1-1.9-1.3c-0.7-0.3-1.5-0.5-2.4-0.5H96.3c-0.8,0-1.6,0.2-2.4,0.5
		c-0.7,0.3-1.4,0.7-1.9,1.3c-0.5,0.5-1,1.2-1.3,1.9c-0.3,0.7-0.5,1.5-0.5,2.4V40c0,0.8,0.2,1.6,0.5,2.4c0.3,0.7,0.7,1.3,1.3,1.9
		c0.5,0.6,1.2,1,1.9,1.3c0.7,0.3,1.5,0.5,2.4,0.5h21.2c0.3,0,0.5,0.1,0.7,0.3c0.2,0.2,0.3,0.4,0.3,0.6v7.1c0,0.3-0.1,0.5-0.3,0.7
		c-0.2,0.2-0.4,0.3-0.7,0.3H96.3c-0.3,0-0.5-0.1-0.7-0.3c-0.2-0.2-0.3-0.4-0.3-0.7v-1.2c0-0.4-0.3-0.8-0.8-0.8H91
		c-0.4,0-0.8,0.3-0.8,0.8v1.2c0,0.8,0.2,1.6,0.5,2.4c0.3,0.7,0.7,1.4,1.3,1.9c0.5,0.5,1.2,1,1.9,1.3c0.7,0.3,1.5,0.5,2.4,0.5h21.2
		c0.8,0,1.6-0.2,2.4-0.5c0.7-0.3,1.4-0.7,1.9-1.3c0.5-0.5,1-1.2,1.3-1.9c0.3-0.7,0.5-1.5,0.5-2.4V47c0-0.8-0.2-1.6-0.5-2.4
		c-0.3-0.7-0.7-1.3-1.3-1.9c-0.5-0.6-1.2-1-1.9-1.3c-0.7-0.3-1.5-0.5-2.4-0.5H96.3c-0.3,0-0.5-0.1-0.7-0.3
		c-0.2-0.2-0.3-0.4-0.3-0.6v-7.1c0-0.3,0.1-0.5,0.3-0.7c0.2-0.2,0.4-0.3,0.7-0.3h21.2c0.3,0,0.5,0.1,0.7,0.3
		c0.2,0.2,0.3,0.4,0.3,0.7v1.2c0,0.4,0.3,0.8,0.8,0.8h3.6c0.4,0,0.8-0.3,0.8-0.8v-1.2c0-0.8-0.2-1.6-0.5-2.4
		C122.7,29.8,122.3,29.2,121.7,28.6z"/>
	<path class="st0" d="M175.7,28.6c-0.5-0.5-1.2-1-1.9-1.3c-0.7-0.3-1.5-0.5-2.4-0.5h-21.2c-0.8,0-1.6,0.2-2.4,0.5
		c-0.7,0.3-1.4,0.7-1.9,1.3c-0.5,0.5-1,1.2-1.3,1.9c-0.3,0.7-0.5,1.5-0.5,2.4v21.2c0,0.8,0.2,1.6,0.5,2.4c0.3,0.7,0.7,1.4,1.3,1.9
		c0.5,0.5,1.2,1,1.9,1.3c0.7,0.3,1.5,0.5,2.4,0.5h21.2c0.8,0,1.6-0.2,2.4-0.5c0.7-0.3,1.4-0.7,1.9-1.3c0.5-0.5,1-1.2,1.3-1.9
		c0.3-0.7,0.5-1.5,0.5-2.4V32.9c0-0.8-0.2-1.6-0.5-2.4C176.7,29.8,176.3,29.2,175.7,28.6z M149.3,32.9c0-0.3,0.1-0.5,0.3-0.7
		c0.2-0.2,0.4-0.3,0.7-0.3h21.2c0.3,0,0.5,0.1,0.7,0.3c0.2,0.2,0.3,0.4,0.3,0.7v21.2c0,0.3-0.1,0.5-0.3,0.7
		c-0.2,0.2-0.4,0.3-0.7,0.3h-21.2c-0.3,0-0.5-0.1-0.7-0.3c-0.2-0.2-0.3-0.4-0.3-0.7V32.9z"/>
	<path class="st0" d="M238,26.9h-4.2c-0.3,0-0.5,0.1-0.7,0.4l-15.6,27.1l-15.6-27.1c-0.1-0.2-0.4-0.4-0.7-0.4h-4.2
		c-0.3,0-0.5,0.1-0.7,0.4c-0.1,0.2-0.1,0.5,0,0.8c3,5.4,6.1,10.7,9.2,15.9c3,5.2,6.1,10.5,9.2,15.9c0.1,0.2,0.4,0.4,0.7,0.4h4.1
		c0.3,0,0.5-0.1,0.7-0.4c1.6-2.7,3.1-5.4,4.7-8c1.5-2.6,3-5.2,4.5-7.8l4.5-7.8c1.5-2.6,3.1-5.3,4.6-8c0.1-0.2,0.1-0.5,0-0.8
		C238.5,27,238.2,26.9,238,26.9z"/>
	<path class="st0" d="M290.6,28.7c-0.5-0.6-1.2-1-1.9-1.3c-0.7-0.3-1.5-0.5-2.4-0.5h-26.4c-0.4,0-0.8,0.3-0.8,0.8v31.7
		c0,0.4,0.3,0.8,0.8,0.8h3.6c0.4,0,0.8-0.3,0.8-0.8V48.3c0,0,0.1,0,0.1,0c0.3,0,0.6,0,0.9,0h11.3l9.7,11.5
		c0.1,0.2,0.4,0.3,0.6,0.3h4.7c0.3,0,0.6-0.2,0.7-0.4c0.1-0.3,0.1-0.6-0.1-0.8l-8.9-10.6h3.2c0.8,0,1.6-0.2,2.4-0.5
		c0.7-0.3,1.4-0.8,1.9-1.3c0.5-0.5,1-1.2,1.3-1.9c0.3-0.7,0.5-1.5,0.5-2.4V33c0-0.8-0.2-1.6-0.5-2.4
		C291.5,29.9,291.1,29.3,290.6,28.7z M264.2,33c0-0.3,0.1-0.5,0.3-0.7c0.2-0.2,0.4-0.3,0.7-0.3h21.2c0.3,0,0.5,0.1,0.6,0.3
		c0.2,0.2,0.3,0.4,0.3,0.7v9.3c0,0.3-0.1,0.5-0.3,0.7c-0.2,0.2-0.4,0.3-0.7,0.3h-21.2c-0.3,0-0.5-0.1-0.7-0.3
		c-0.2-0.2-0.3-0.4-0.3-0.6V33z"/>
	<path class="st0" d="M344.9,26.9h-4.2c-0.2,0-0.5,0.1-0.6,0.3c-1.9,2.5-4,5.1-6.1,7.8c-1.9,2.4-3.7,4.7-5.5,7l-11.7-14.8
		c-0.1-0.2-0.4-0.3-0.6-0.3h-4.1c-0.3,0-0.5,0.2-0.7,0.4c-0.1,0.3-0.1,0.6,0.1,0.8c2.4,3.3,4.8,6.6,7.3,9.9
		c2.4,3.3,4.8,6.5,7.1,9.7v11.7c0,0.4,0.3,0.8,0.8,0.8h3.6c0.4,0,0.8-0.3,0.8-0.8V47.7l14.4-19.6c0.2-0.2,0.2-0.5,0.1-0.8
		C345.4,27,345.2,26.9,344.9,26.9z"/>
	<path class="st0" d="M398.8,26.9h-3.6c-0.4,0-0.8,0.3-0.8,0.8v25.6l-21.9-26.1c-0.1-0.2-0.4-0.3-0.6-0.3H367
		c-0.4,0-0.8,0.3-0.8,0.8v31.7c0,0.4,0.3,0.8,0.8,0.8h3.6c0.4,0,0.8-0.3,0.8-0.8V33.8l21.9,26.1c0.1,0.2,0.4,0.3,0.6,0.3h4.9
		c0.4,0,0.8-0.3,0.8-0.8V27.6C399.5,27.2,399.2,26.9,398.8,26.9z"/>
	<path class="st1" d="M26.7,31c0.3-10.1,4-17.4,17.4-18.6h0c0.2,0,0.4,0,0.6,0H77l5.2-7.1c1-1.3,0-3.2-1.6-3.2H9.3
		c-1.6,0-2.6,1.9-1.6,3.2L26.7,31z M55.1,42.1l16.3-22.1H44.6c-2.1,0-3.8-1.7-3.8-3.8c-9.7,2.2-11.9,7.1-13.5,15h19.7
		c0.1,0,0.1,0,0.2,0c0.1,0,0.2,0,0.3,0C57.7,31.3,57.9,36.4,55.1,42.1L55.1,42.1z M0.5,0.4l43,85.1c0.8,1.5,2.9,1.5,3.6,0L52.9,74
		l-7.6-11.5L0.5,0.4z M47.1,38.7H32.4l11,14.9c0.8,1.1,2.4,1.1,3.2,0l4.8-6.6l1.8-2.5v0c0.1-0.2,0.2-0.4,0.4-0.5
		c1.3-4.8,2.1-9.7-3.2-10.9c0,0,0,0,0,0l0,0c0.3,0.5,0.5,1.1,0.5,1.8v0C50.9,37,49.2,38.7,47.1,38.7z M51.3,54.2l-4.3,6L54.4,71
		l1-1.9L90.1,0.4L51.3,54.2z"/>
</svg>
