<svg xmlns="http://www.w3.org/2000/svg" width="122" height="99.239" viewBox="0 0 122 99.239">
  <g id="Staked_V1_-_white" data-name="Staked V1 - white" transform="translate(1)">
    <text id="SOVRYN" transform="translate(60 94.239)" fill="#e8e8e8" font-size="18" font-family="Orbitron-Bold, Orbitron" font-weight="700" letter-spacing="0.32em"><tspan x="-60.057" y="0">SOVRYN</tspan></text>
    <g id="Group_4513" data-name="Group 4513" transform="translate(23)">
      <path id="Path_2977" data-name="Path 2977" d="M1198.74,851.822l-.9,1.213-3.406,4.574-2.838,3.818a2.227,2.227,0,0,1-3.573,0l-2.711-3.64-1.079-1.458-5.621-7.557h13.033a2.869,2.869,0,0,0,2.877-2.877,2.3,2.3,0,0,0-.033-.395.379.379,0,0,0,.079.005,4.739,4.739,0,0,1,2.593.9,4.039,4.039,0,0,1,1.269,2.549C1198.6,849.885,1198.651,850.859,1198.74,851.822Z" transform="translate(-1153.141 -818.415)" fill="#e8e8e8"/>
      <path id="Path_2978" data-name="Path 2978" d="M1197.151,841.9a6.706,6.706,0,0,0-.161-1.714,5.648,5.648,0,0,0-.3-.863,3.9,3.9,0,0,0-.512-.8,6.22,6.22,0,0,0-3.128-1.892,12.284,12.284,0,0,0-3.311-.623h-.067c-.011,0-.023-.005-.039-.005v.005H1172.6a22.667,22.667,0,0,1,1.582-4.864,18.031,18.031,0,0,1,2.81-4.207,11.148,11.148,0,0,1,3.918-2.817,9.959,9.959,0,0,1,4.134-.74,2.032,2.032,0,0,0-.028.367,2.874,2.874,0,0,0,2.877,2.877h22.471l-13.434,18.065C1197.028,843.762,1197.134,842.859,1197.151,841.9Z" transform="translate(-1151.235 -811.406)" fill="#e8e8e8"/>
      <path id="Path_2979" data-name="Path 2979" d="M1178.347,815.362c-.227,0-.452,0-.678.021a12.249,12.249,0,0,0-5.113,1.534,12.683,12.683,0,0,0-4.062,3.729,19.331,19.331,0,0,0-2.41,4.758,23.945,23.945,0,0,0-1.163,5.109l-15.565-20.926a2.227,2.227,0,0,1,1.786-3.555h58.514a2.226,2.226,0,0,1,1.786,3.555l-4.306,5.789h-26.751C1179.819,815.375,1178.856,815.367,1178.347,815.362Z" transform="translate(-1143.73 -805.909)" fill="#e8e8e8"/>
      <path id="Path_2980" data-name="Path 2980" d="M1187.918,862.811c-.005-.005-.011,0-.016.005l-.9-1.2a2.655,2.655,0,0,1-.167-.262Z" transform="translate(-1155.748 -823.439)" fill="#e8e8e8"/>
      <path id="Path_2981" data-name="Path 2981" d="M1176.257,853.538l8.648,11.619-.111.211-4.291,8.225a2.781,2.781,0,0,1-4.947-.028l-4.235-8.364-14.669-28.993-2.917-5.754-12.409-24.53.122-.072,17.919,24.6,4.19,5.754,12.3,16.9A2.471,2.471,0,0,0,1176.257,853.538Z" transform="translate(-1141.326 -805.852)" fill="#e8e8e8"/>
      <path id="Path_2982" data-name="Path 2982" d="M1233.641,805.924l-18.025,34.547-2.387,4.574-9.088,17.424-6.533-8.776a2.573,2.573,0,0,0,.568-.562l6.043-8.086,3.423-4.574,14.5-19.4,2.427-3.244,8.954-11.976Z" transform="translate(-1159.16 -805.852)" fill="#e8e8e8"/>
    </g>
  </g>
</svg>
