<svg xmlns="http://www.w3.org/2000/svg" xmlns:xlink="http://www.w3.org/1999/xlink" width="283.813" height="38.211" viewBox="0 0 283.813 38.211">
  <defs>
    <clipPath id="clip-path">
      <path id="Path_288" data-name="Path 288" d="M641.533-1267.116a2.479,2.479,0,0,0-.945-.644,2.614,2.614,0,0,0-1.262-.216L628.183-1268a5.146,5.146,0,0,0-1.263.212,3.651,3.651,0,0,0-.947.64,2.53,2.53,0,0,0-.633.962,2.748,2.748,0,0,0-.212,1.284l-.008,3.747a5.541,5.541,0,0,0,.208,1.286,3.7,3.7,0,0,0,.629.963,3.755,3.755,0,0,0,1.05.753,2.626,2.626,0,0,0,1.261.216l10.933.023a.38.38,0,0,1,.315.108.392.392,0,0,1,.1.32l-.007,3.748a.4.4,0,0,1-.105.32.382.382,0,0,1-.316.108l-11.039-.023a.375.375,0,0,1-.314-.109.4.4,0,0,1-.105-.321v-.642a.456.456,0,0,0-.419-.43l-1.892,0a.457.457,0,0,0-.422.427v.643a5.467,5.467,0,0,0,.208,1.285,3.711,3.711,0,0,0,.629.964,2.477,2.477,0,0,0,.945.645,2.627,2.627,0,0,0,1.261.217l11.144.023a5.256,5.256,0,0,0,1.263-.212,3.7,3.7,0,0,0,.947-.64,2.551,2.551,0,0,0,.633-.963,2.777,2.777,0,0,0,.212-1.284l.007-3.747a5.472,5.472,0,0,0-.207-1.285,3.756,3.756,0,0,0-.629-.965,3.746,3.746,0,0,0-1.05-.751,2.619,2.619,0,0,0-1.262-.217l-10.932-.023a.378.378,0,0,1-.315-.108.4.4,0,0,1-.105-.322l.008-3.747a.4.4,0,0,1,.105-.321.381.381,0,0,1,.315-.106l11.039.022a.383.383,0,0,1,.315.109.4.4,0,0,1,.105.321l0,.642a.458.458,0,0,0,.42.43l1.892,0a.456.456,0,0,0,.421-.427v-.643a5.462,5.462,0,0,0-.207-1.286q-.315-.482-.629-.965" transform="translate(-625 1268)" fill="none" clip-rule="evenodd"/>
    </clipPath>
    <clipPath id="clip-path-2">
      <path id="Path_287" data-name="Path 287" d="M625-1257.526H790V-1327H625Z" transform="translate(-625 1327)" fill="none"/>
    </clipPath>
    <clipPath id="clip-path-3">
      <path id="Path_291" data-name="Path 291" d="M660.683-1264.809a.39.39,0,0,1,.107-.32.4.4,0,0,1,.319-.1l11.174.023a.392.392,0,0,1,.319.106.394.394,0,0,1,.105.32l-.023,11.173a.391.391,0,0,1-.106.32.389.389,0,0,1-.32.1l-11.174-.022a.389.389,0,0,1-.318-.108.385.385,0,0,1-.105-.319Zm13.945-2.313a2.514,2.514,0,0,0-.956-.641,2.689,2.689,0,0,0-1.277-.215l-11.28-.023a5.276,5.276,0,0,0-1.277.211,3.656,3.656,0,0,0-.959.636,2.5,2.5,0,0,0-.641.956,2.7,2.7,0,0,0-.216,1.276L658-1253.748a5.352,5.352,0,0,0,.21,1.278,3.735,3.735,0,0,0,.636.959,2.545,2.545,0,0,0,.957.641,2.709,2.709,0,0,0,1.277.215l11.174.023a5.36,5.36,0,0,0,1.277-.211,3.66,3.66,0,0,0,.959-.635,2.5,2.5,0,0,0,.641-.957,2.7,2.7,0,0,0,.216-1.276l.022-11.068a5.338,5.338,0,0,0-.21-1.277A3.344,3.344,0,0,0,674.628-1267.121Z" transform="translate(-658 1268)" fill="none" clip-rule="evenodd"/>
    </clipPath>
    <clipPath id="clip-path-5">
      <path id="Path_294" data-name="Path 294" d="M712.176-1267.845l-2.263,0c-.108,0-.323.108-.323.219l-8.329,14.793-8.268-14.938c-.108-.109-.216-.22-.323-.22l-2.263-.005c-.108,0-.323.109-.323.22a.336.336,0,0,0,0,.438c1.61,2.966,3.221,5.821,4.832,8.677s3.222,5.712,4.94,8.678c.108.11.216.22.323.22l2.263,0c.108,0,.323-.109.323-.218.865-1.534,1.731-2.959,2.488-4.383.864-1.424,1.622-2.849,2.38-4.274l2.38-4.274c.864-1.424,1.622-2.849,2.487-4.384a.338.338,0,0,0,0-.438c0-.111-.108-.111-.323-.111" transform="translate(-690 1268)" fill="none" clip-rule="evenodd"/>
    </clipPath>
    <clipPath id="clip-path-7">
      <path id="Path_297" data-name="Path 297" d="M730.778-1264.838a.383.383,0,0,1,.107-.316.392.392,0,0,1,.317-.1l11.1.023a.39.39,0,0,1,.317.105.387.387,0,0,1,.1.315l-.009,4.842a.388.388,0,0,1-.107.316.39.39,0,0,1-.317.1l-11.1-.023a.4.4,0,0,1-.317-.106.382.382,0,0,1-.1-.316Zm13.855-2.182a3.8,3.8,0,0,0-1.055-.738,2.688,2.688,0,0,0-1.269-.214L728.458-1268a.454.454,0,0,0-.424.42L728-1251.057a.455.455,0,0,0,.422.422l1.9,0a.453.453,0,0,0,.424-.42l.012-5.788h.423l5.921.012,5.062,6.009a.394.394,0,0,0,.317.107l2.433,0c.106,0,.317-.1.317-.209.106-.106,0-.316-.1-.421l-4.64-5.482,1.691,0a5.358,5.358,0,0,0,1.27-.208,3.8,3.8,0,0,0,1.058-.735,2.494,2.494,0,0,0,.637-.946,2.665,2.665,0,0,0,.215-1.264l.01-4.842a5.26,5.26,0,0,0-.208-1.263A1.106,1.106,0,0,0,744.633-1267.021Z" transform="translate(-728 1268)" fill="none" clip-rule="evenodd"/>
    </clipPath>
    <clipPath id="clip-path-9">
      <path id="Path_300" data-name="Path 300" d="M778.729-1267.965l-2.246,0c-.107,0-.214.1-.321.1-1.072,1.26-2.144,2.625-3.217,3.99-.966,1.259-2.038,2.519-2.9,3.674l-6.188-7.688a.4.4,0,0,0-.321-.1l-2.139,0c-.107,0-.321.1-.321.209a.314.314,0,0,0,0,.42c1.28,1.685,2.559,3.475,3.84,5.16s2.56,3.369,3.733,5.055l-.013,6.1a.455.455,0,0,0,.427.42l1.925,0a.456.456,0,0,0,.429-.419l.013-6.1,7.722-10.183a.317.317,0,0,0,0-.421.429.429,0,0,0-.428-.211" transform="translate(-761 1268)" fill="none" clip-rule="evenodd"/>
    </clipPath>
    <clipPath id="clip-path-11">
      <path id="Path_303" data-name="Path 303" d="M811.8-1267l-1.974,0a.46.46,0,0,0-.44.418l-.029,13.309-11.923-13.543a.413.413,0,0,0-.328-.1l-2.632-.007a.463.463,0,0,0-.44.419L794-1250.055a.459.459,0,0,0,.438.419l1.974,0a.462.462,0,0,0,.44-.418l.029-13.414,11.923,13.541a.408.408,0,0,0,.328.106l2.632.005a.462.462,0,0,0,.44-.419l.035-16.452c0-.209-.218-.315-.437-.315" transform="translate(-794 1267)" fill="none" clip-rule="evenodd"/>
    </clipPath>
  </defs>
  <g id="Group_4307" data-name="Group 4307" transform="translate(-1224.187 21608)">
    <text id="v.alpha" transform="translate(1451 -21596)" fill="#fff" font-size="12" font-family="Orbitron-Regular, Orbitron" letter-spacing="0.12em"><tspan x="0" y="0">v.alpha</tspan></text>
    <g id="logo" transform="translate(651 -20322.729)">
      <g id="Group_362" data-name="Group 362" transform="translate(625 -1275.667)" clip-path="url(#clip-path)">
        <g id="Group_361" data-name="Group 361" transform="translate(0 -51.237)" clip-path="url(#clip-path-2)">
          <path id="Path_286" data-name="Path 286" d="M620-1273h26.053v26.053H620Z" transform="translate(-624.342 1319.895)" fill="#fff"/>
        </g>
      </g>
      <g id="Group_364" data-name="Group 364" transform="translate(653.658 -1275.667)" clip-path="url(#clip-path-3)">
        <g id="Group_363" data-name="Group 363" transform="translate(-28.658 -51.237)" clip-path="url(#clip-path-2)">
          <path id="Path_289" data-name="Path 289" d="M653-1273h26.053v26.053H653Z" transform="translate(-628.684 1319.895)" fill="#fff"/>
        </g>
      </g>
      <g id="Group_366" data-name="Group 366" transform="translate(681.447 -1275.667)" clip-path="url(#clip-path-5)">
        <g id="Group_365" data-name="Group 365" transform="translate(-56.447 -51.237)" clip-path="url(#clip-path-2)">
          <path id="Path_292" data-name="Path 292" d="M685-1273h31.263v26.921H685Z" transform="translate(-632.895 1319.895)" fill="#fff"/>
        </g>
      </g>
      <g id="Group_368" data-name="Group 368" transform="translate(714.447 -1275.667)" clip-path="url(#clip-path-7)">
        <g id="Group_367" data-name="Group 367" transform="translate(-89.447 -51.237)" clip-path="url(#clip-path-2)">
          <path id="Path_295" data-name="Path 295" d="M723-1273h26.053v26.053H723Z" transform="translate(-637.895 1319.895)" fill="#fff"/>
        </g>
      </g>
      <g id="Group_370" data-name="Group 370" transform="translate(743.105 -1275.667)" clip-path="url(#clip-path-9)">
        <g id="Group_369" data-name="Group 369" transform="translate(-118.105 -51.237)" clip-path="url(#clip-path-2)">
          <path id="Path_298" data-name="Path 298" d="M756-1273h26.921v26.053H756Z" transform="translate(-642.237 1319.895)" fill="#fff"/>
        </g>
      </g>
      <g id="Group_372" data-name="Group 372" transform="translate(771.763 -1274.799)" clip-path="url(#clip-path-11)">
        <g id="Group_371" data-name="Group 371" transform="translate(-146.763 -52.105)" clip-path="url(#clip-path-2)">
          <path id="Path_301" data-name="Path 301" d="M789-1272h26.921v26.053H789Z" transform="translate(-646.579 1319.763)" fill="#fff"/>
        </g>
      </g>
      <g id="Group_4306" data-name="Group 4306" transform="translate(573.187 -1285.203)">
        <path id="Path_1" data-name="Path 1" d="M229.7,848.983l-.5.668-1.876,2.52-1.564,2.1a1.227,1.227,0,0,1-1.968,0l-1.493-2-.6-.8-3.1-4.163h7.18a1.58,1.58,0,0,0,1.585-1.585,1.259,1.259,0,0,0-.018-.217.213.213,0,0,0,.043,0,2.612,2.612,0,0,1,1.429.5,2.227,2.227,0,0,1,.7,1.4C229.62,847.916,229.65,848.452,229.7,848.983Z" transform="translate(-204.58 -830.58)" fill="#fff"/>
        <path id="Path_2" data-name="Path 2" d="M226.123,833.58a3.7,3.7,0,0,0-.089-.944,3.119,3.119,0,0,0-.166-.475,2.149,2.149,0,0,0-.282-.438,3.427,3.427,0,0,0-1.723-1.042,6.769,6.769,0,0,0-1.824-.343H222c-.006,0-.012,0-.021,0v0H212.6a12.512,12.512,0,0,1,.872-2.679,9.929,9.929,0,0,1,1.548-2.317,6.142,6.142,0,0,1,2.158-1.552,5.49,5.49,0,0,1,2.278-.408,1.093,1.093,0,0,0-.015.2,1.583,1.583,0,0,0,1.585,1.585H233.4l-7.4,9.951C226.055,834.608,226.114,834.11,226.123,833.58Z" transform="translate(-200.828 -816.783)" fill="#fff"/>
        <path id="Path_3" data-name="Path 3" d="M205.128,811.171c-.125,0-.249,0-.374.012a6.746,6.746,0,0,0-2.816.845,6.987,6.987,0,0,0-2.238,2.054,10.653,10.653,0,0,0-1.327,2.621,13.182,13.182,0,0,0-.64,2.814l-8.575-11.527a1.227,1.227,0,0,1,.984-1.958h32.234a1.226,1.226,0,0,1,.984,1.958l-2.372,3.189H206.25C205.939,811.178,205.408,811.174,205.128,811.171Z" transform="translate(-186.057 -805.964)" fill="#fff"/>
        <path id="Path_4" data-name="Path 4" d="M200.569,832.122l4.764,6.4-.061.116-2.364,4.531a1.532,1.532,0,0,1-2.725-.016l-2.333-4.608-8.081-15.972-1.606-3.17-6.836-13.513.067-.04,9.871,13.553,2.308,3.17,6.778,9.307A1.366,1.366,0,0,0,200.569,832.122Z" transform="translate(-181.326 -805.852)" fill="#fff"/>
        <path id="Path_5" data-name="Path 5" d="M257.458,805.892l-9.93,19.031-1.315,2.52-5.006,9.6-3.6-4.835a1.424,1.424,0,0,0,.313-.309l3.329-4.454,1.885-2.52,7.989-10.687,1.337-1.787,4.933-6.6Z" transform="translate(-216.428 -805.852)" fill="#fff"/>
      </g>
    </g>
  </g>
</svg>
