<svg width="25" height="25" viewBox="0 0 25 25" fill="none" xmlns="http://www.w3.org/2000/svg">
<path d="M3.57143 25C2.62423 25 1.71582 24.6237 1.04605 23.954C0.376274 23.2842 0 22.3758 0 21.4286V5.35714C0.00843353 3.93894 0.575553 2.58123 1.57839 1.57839C2.58123 0.575553 3.93894 0.00843353 5.35714 0L23.2143 0C23.6879 0 24.1421 0.188137 24.477 0.523024C24.8119 0.85791 25 1.31211 25 1.78571C25 2.25932 24.8119 2.71352 24.477 3.0484C24.1421 3.38329 23.6879 3.57143 23.2143 3.57143H5.35714C4.88354 3.57143 4.42934 3.75957 4.09445 4.09445C3.75957 4.42934 3.57143 4.88354 3.57143 5.35714C3.57143 5.83074 3.75957 6.28495 4.09445 6.61983C4.42934 6.95472 4.88354 7.14286 5.35714 7.14286H21.4286C22.3758 7.14286 23.2842 7.51913 23.954 8.1889C24.6237 8.85868 25 9.76708 25 10.7143V21.4286C25 22.3758 24.6237 23.2842 23.954 23.954C23.2842 24.6237 22.3758 25 21.4286 25H3.57143ZM17.8571 16.0714C17.8571 16.4246 17.9619 16.7699 18.1581 17.0635C18.3543 17.3572 18.6332 17.5861 18.9595 17.7212C19.2858 17.8564 19.6448 17.8917 19.9912 17.8228C20.3376 17.7539 20.6558 17.5839 20.9055 17.3341C21.1553 17.0844 21.3254 16.7662 21.3943 16.4198C21.4632 16.0734 21.4278 15.7144 21.2926 15.3881C21.1575 15.0618 20.9286 14.7829 20.6349 14.5867C20.3413 14.3904 19.996 14.2857 19.6429 14.2857C19.1693 14.2857 18.7151 14.4739 18.3802 14.8087C18.0453 15.1436 17.8571 15.5978 17.8571 16.0714Z" fill="white"/>
</svg>
