<svg xmlns="http://www.w3.org/2000/svg" width="500" height="500.002" viewBox="0 0 500 500.002">
  <g id="Group_6317" data-name="Group 6317" transform="translate(1861.273 -2866.174)">
    <path id="Path_6213-4" data-name="Path 6213-4" d="M250,0C388.068,0,500,111.93,500,250S388.068,500,250,500,0,388.072,0,250H0C0,111.93,111.927,0,250,0Z" transform="translate(-1861.273 2866.174)"/>
    <path id="Polygon_13" data-name="Polygon 13" d="M153.294,15.4a10,10,0,0,1,17.411,0L315.567,271.695a10,10,0,0,1-8.706,14.921H17.139a10,10,0,0,1-8.706-14.921Z" transform="translate(-1449.1 3281.133) rotate(180)" fill="#e9eae9"/>
    <circle id="Ellipse_364" data-name="Ellipse 364" cx="62.427" cy="62.427" r="62.427" transform="translate(-1673.526 3031.973)"/>
    <circle id="Ellipse_388" data-name="Ellipse 388" cx="36.427" cy="36.427" r="36.427" transform="translate(-1647.526 3057.973)" fill="#e9eae9"/>
  </g>
</svg>
