<svg xmlns="http://www.w3.org/2000/svg" width="44.803" height="41.65" viewBox="0 0 44.803 41.65">
  <path  data-name="Контур 1" d="M230.719,849.3l-.542.73-2.048,2.752-1.707,2.3a1.34,1.34,0,0,1-2.149,0l-1.63-2.189-.65-.877-3.381-4.546h7.84a1.725,1.725,0,0,0,1.731-1.731,1.374,1.374,0,0,0-.02-.237.231.231,0,0,0,.047,0,2.852,2.852,0,0,1,1.56.542,2.432,2.432,0,0,1,.763,1.533C230.632,848.138,230.665,848.724,230.719,849.3Z" transform="translate(-203.29 -829.208)"/>
  <path d="M227.366,834.518a4.039,4.039,0,0,0-.1-1.031,3.409,3.409,0,0,0-.181-.519,2.346,2.346,0,0,0-.308-.479,3.743,3.743,0,0,0-1.881-1.138,7.394,7.394,0,0,0-1.992-.375h-.04c-.007,0-.014,0-.023,0v0H212.6a13.661,13.661,0,0,1,.952-2.926,10.843,10.843,0,0,1,1.69-2.53,6.708,6.708,0,0,1,2.357-1.694,6,6,0,0,1,2.487-.445,1.194,1.194,0,0,0-.017.221,1.729,1.729,0,0,0,1.731,1.73h13.517L227.232,836.2C227.292,835.64,227.356,835.1,227.366,834.518Z" transform="translate(-199.746 -816.177)"/>
  <path d="M206.618,811.644c-.137,0-.272,0-.408.013a7.367,7.367,0,0,0-3.075.922,7.63,7.63,0,0,0-2.444,2.243,11.634,11.634,0,0,0-1.449,2.862,14.393,14.393,0,0,0-.7,3.073l-9.363-12.587a1.339,1.339,0,0,1,1.075-2.139h35.2a1.339,1.339,0,0,1,1.075,2.139l-2.59,3.482H207.845C207.5,811.652,206.925,811.647,206.618,811.644Z" transform="translate(-185.795 -805.957)"/>
  <path d="M202.338,834.537l5.2,6.989-.067.127-2.581,4.948a1.673,1.673,0,0,1-2.976-.017l-2.547-5.031-8.824-17.44-1.754-3.461L181.326,805.9l.074-.044,10.779,14.8,2.521,3.461,7.4,10.163A1.49,1.49,0,0,0,202.338,834.537Z" transform="translate(-181.326 -805.852)"/>
  <path d="M259.283,805.9,248.44,826.677,247,829.428l-5.466,10.481-3.93-5.279a1.556,1.556,0,0,0,.341-.338l3.635-4.864,2.058-2.752,8.724-11.669,1.46-1.951,5.386-7.2Z" transform="translate(-214.48 -805.852)"/>
</svg>
