<?xml version="1.0" encoding="UTF-8" standalone="no"?>
<svg
   width="30"
   height="30"
   viewBox="0 0 30 30"
   version="1.1"
   id="svg790"
   sodipodi:docname="babelfish_logo_sovryn_upd.svg"
   inkscape:version="1.2-dev (1d8154c6, 2021-12-02)"
   xmlns:inkscape="http://www.inkscape.org/namespaces/inkscape"
   xmlns:sodipodi="http://sodipodi.sourceforge.net/DTD/sodipodi-0.dtd"
   xmlns:xlink="http://www.w3.org/1999/xlink"
   xmlns="http://www.w3.org/2000/svg"
   xmlns:svg="http://www.w3.org/2000/svg">
  <defs
     id="defs794">
    <linearGradient
       inkscape:collect="always"
       id="linearGradient919087">
      <stop
         style="stop-color:#fceab6;stop-opacity:1"
         offset="0"
         id="stop919083" />
      <stop
         style="stop-color:#ffbf42;stop-opacity:1"
         offset="1"
         id="stop919085" />
    </linearGradient>
    <radialGradient
       inkscape:collect="always"
       xlink:href="#linearGradient919087"
       id="radialGradient31922-6-4-7"
       cx="108.34431"
       cy="213.44902"
       fx="108.34431"
       fy="213.44902"
       r="10.105834"
       gradientUnits="userSpaceOnUse"
       gradientTransform="matrix(0.11956931,0.24899661,-3.7650763,1.8080065,896.09238,-198.55008)" />
    <linearGradient
       inkscape:collect="always"
       xlink:href="#linearGradient5433"
       id="linearGradient42211"
       gradientUnits="userSpaceOnUse"
       x1="206.12633"
       y1="77.054871"
       x2="216.69331"
       y2="77.054871" />
    <linearGradient
       inkscape:collect="always"
       id="linearGradient5433">
      <stop
         style="stop-color:#be7a04;stop-opacity:1"
         offset="0"
         id="stop5429" />
      <stop
         style="stop-color:#eeba11;stop-opacity:1"
         offset="1"
         id="stop5431" />
    </linearGradient>
    <radialGradient
       inkscape:collect="always"
       xlink:href="#linearGradient919087"
       id="radialGradient32076-2-9-6"
       gradientUnits="userSpaceOnUse"
       gradientTransform="matrix(1.5784136,3.286947,-49.701785,23.867105,4716.4713,-2700.8843)"
       cx="153.58441"
       cy="96.830353"
       fx="153.58441"
       fy="96.830353"
       r="5.2834949" />
    <radialGradient
       inkscape:collect="always"
       xlink:href="#linearGradient5433"
       id="radialGradient5437-8-9-5-8-7-2-4-1-1-8-2-22-1-3"
       cx="69.803192"
       cy="331.40955"
       fx="69.803192"
       fy="331.40955"
       r="51.42268"
       gradientTransform="matrix(1.2020585,0.11793428,-0.14532154,1.0487741,34.042363,-24.345947)"
       gradientUnits="userSpaceOnUse" />
    <radialGradient
       inkscape:collect="always"
       xlink:href="#linearGradient919087"
       id="radialGradient30509-77-0-1"
       cx="59.632938"
       cy="539.0246"
       fx="59.632938"
       fy="539.0246"
       r="51.42268"
       gradientTransform="matrix(0.15844597,0.27764406,-4.9901718,2.016391,2714.8614,-748.13389)"
       gradientUnits="userSpaceOnUse" />
    <radialGradient
       inkscape:collect="always"
       xlink:href="#linearGradient919087"
       id="radialGradient908030"
       cx="91.995041"
       cy="266.30975"
       fx="91.995041"
       fy="266.30975"
       r="41.224411"
       gradientTransform="matrix(1.4813237,-0.30923125,0.07654318,0.36666819,-65.846823,117.41063)"
       gradientUnits="userSpaceOnUse" />
    <radialGradient
       inkscape:collect="always"
       xlink:href="#linearGradient919087"
       id="radialGradient908052"
       cx="113.88795"
       cy="184.61603"
       fx="113.88795"
       fy="184.61603"
       r="14.677105"
       gradientTransform="matrix(4.1606764,-0.86855476,0.21499102,1.0298814,-422.72992,95.395509)"
       gradientUnits="userSpaceOnUse" />
  </defs>
  <sodipodi:namedview
     id="namedview792"
     pagecolor="#ffffff"
     bordercolor="#666666"
     borderopacity="1.0"
     inkscape:pageshadow="2"
     inkscape:pageopacity="0.0"
     inkscape:pagecheckerboard="0"
     inkscape:blackoutopacity="0.0"
     showgrid="false"
     height="30px"
     inkscape:zoom="9.7787062"
     inkscape:cx="-20.401472"
     inkscape:cy="29.400617"
     inkscape:window-width="2560"
     inkscape:window-height="1377"
     inkscape:window-x="-8"
     inkscape:window-y="1072"
     inkscape:window-maximized="1"
     inkscape:current-layer="svg790" />
  <style
     type="text/css"
     id="style26439">
	.st0{fill:#131D36;stroke:#FFBF20;stroke-width:2;stroke-miterlimit:11.3386;}
	.st1{fill:#FFBF20;}
</style>
  <g
     id="g5716"
     transform="matrix(6.6071584,0,0,6.6071584,-739.26518,-1367.371)"
     inkscape:export-filename="C:\Users\xcprz\Desktop\BabelFish_Hyde\branding\BF_Logotype_large.png"
     inkscape:export-xdpi="180.52855"
     inkscape:export-ydpi="180.52855">
    <g
       id="g4458-9-6-9-0-3"
       transform="matrix(0.22464895,0,0,0.22464895,89.447401,162.04695)"
       inkscape:export-filename="C:\Users\xcprz\Desktop\BabelFish_Hyde\branding\BF_Logotype_large_v2.png"
       inkscape:export-xdpi="180.52855"
       inkscape:export-ydpi="180.52855">
      <circle
         inkscape:transform-center-y="-54.091682"
         inkscape:transform-center-x="139.09939"
         id="path6361-5-7-3-6-3-3-6-3-6-7-3-6-9-4-7-8-9-8"
         style="fill:url(#radialGradient31922-6-4-7);fill-opacity:1;stroke:#181a20;stroke-width:0.211667;stroke-miterlimit:4;stroke-dasharray:none;stroke-opacity:1"
         r="10"
         cy="210"
         cx="110" />
      <g
         id="g4365-4-9-3-2-7"
         transform="translate(48.503502,30.286179)">
        <circle
           style="fill:#181a20;fill-opacity:1;stroke:none;stroke-width:0.2144;stroke-linecap:round;stroke-linejoin:round;stroke-miterlimit:4;stroke-dasharray:none;stroke-opacity:1"
           id="path34611-4-3-8-76-67-7-4"
           cx="61.496498"
           cy="179.71382"
           r="9.375" />
        <g
           transform="matrix(0.2399564,0,0,0.2399564,51.028592,168.07849)"
           id="g7866-5-0-6-2-4-9-6-9-1-0-62-5-9">
          <g
             aria-label="$"
             transform="matrix(0.61804753,0,0,0.73449466,2.357747,-194.00449)"
             id="text857-7-20-1-8-8-6-8-9-8-4-8-5-7-82-9-3"
             style="font-style:normal;font-variant:normal;font-weight:normal;font-stretch:normal;font-size:54.6526px;line-height:1.25;font-family:Unispace;-inkscape-font-specification:'Unispace, Normal';font-variant-ligatures:normal;font-variant-caps:normal;font-variant-numeric:normal;font-variant-east-asian:normal;fill:#fffe9b;fill-opacity:1;stroke:#fbe300;stroke-width:0;stroke-miterlimit:4;stroke-dasharray:none;stroke-opacity:1" />
          <g
             transform="matrix(0.60383754,0,0,0.60383754,-64.036887,-2.917029)"
             style="font-size:87.9724px;line-height:1.25;font-family:'Century Gothic';-inkscape-font-specification:'Century Gothic';fill:#fffe9b;fill-opacity:1;stroke:#fbe300;stroke-width:0;stroke-miterlimit:4;stroke-dasharray:none;stroke-opacity:1"
             id="text861-6-4-6-02-6-9-1-5-9-5-5-1-6-4-0-8"
             aria-label="." />
          <g
             aria-label="."
             id="text861-6-3-8-9-3-9-87-9-4-3-5-3-1-1-0-4-0"
             style="font-size:87.9724px;line-height:1.25;font-family:'Century Gothic';-inkscape-font-specification:'Century Gothic';fill:url(#linearGradient42211);fill-opacity:1;stroke:none;stroke-width:0;stroke-miterlimit:4;stroke-dasharray:none;stroke-opacity:1"
             transform="matrix(0.60383754,0,0,0.60383754,-63.877077,-2.846434)">
            <path
               d="m 211.40983,70.677004 c 1.46047,0 2.70617,0.515464 3.7371,1.54639 1.03093,1.030927 1.54639,2.290947 1.54639,3.78006 0,1.46048 -0.51546,2.720504 -1.54639,3.78007 -1.03093,1.030927 -2.27663,1.54639 -3.7371,1.54639 -1.46048,0 -2.70618,-0.515463 -3.73711,-1.54639 -1.03093,-1.059566 -1.54639,-2.31959 -1.54639,-3.78007 0,-1.489113 0.51546,-2.749133 1.54639,-3.78006 1.03093,-1.030926 2.27663,-1.54639 3.73711,-1.54639 z"
               style="fill:url(#radialGradient32076-2-9-6);fill-opacity:1;stroke:none;stroke-width:0;stroke-miterlimit:4;stroke-dasharray:none;stroke-opacity:1"
               id="path3294-0-5-0-30-7-7-8-7-3-6-9-0-2-35-4-9"
               inkscape:connector-curvature="0"
               sodipodi:nodetypes="ssscscsss" />
          </g>
          <g
             style="font-style:normal;font-variant:normal;font-weight:normal;font-stretch:normal;font-size:54.6526px;line-height:1.25;font-family:Unispace;-inkscape-font-specification:'Unispace, Normal';font-variant-ligatures:normal;font-variant-caps:normal;font-variant-numeric:normal;font-variant-east-asian:normal;fill:#290f0a;fill-opacity:1;stroke:#fbe300;stroke-width:0;stroke-miterlimit:4;stroke-dasharray:none;stroke-opacity:1"
             id="text857-7-20-3-1-5-8-5-5-1-3-3-7-4-5-06-3-9"
             transform="matrix(0.61938204,0,0,0.73951519,3.160681,-194.9681)"
             aria-label="$" />
          <g
             style="font-style:normal;font-variant:normal;font-weight:normal;font-stretch:normal;font-size:54.6526px;line-height:1.25;font-family:Unispace;-inkscape-font-specification:'Unispace, Normal';font-variant-ligatures:normal;font-variant-caps:normal;font-variant-numeric:normal;font-variant-east-asian:normal;fill:url(#radialGradient5437-8-9-5-8-7-2-4-1-1-8-2-22-1-3);fill-opacity:1;stroke:none;stroke-width:0;stroke-miterlimit:4;stroke-dasharray:none;stroke-opacity:1"
             id="text857-7-2-0-8-24-9-52-4-9-2-5-8-3-8-07-4-4"
             transform="matrix(0.61804753,0,0,0.73449466,3.120878,-194.37646)"
             aria-label="$">
            <path
               id="path3238-4-3-8-9-3-9-0-2-1-1-5-7-0-7-4-5-3"
               style="font-style:normal;font-variant:normal;font-weight:normal;font-stretch:normal;font-size:54.6526px;font-family:Unispace;-inkscape-font-specification:'Unispace, Normal';font-variant-ligatures:normal;font-variant-caps:normal;font-variant-numeric:normal;font-variant-east-asian:normal;fill:url(#radialGradient30509-77-0-1);fill-opacity:1;stroke:none;stroke-width:0;stroke-miterlimit:4;stroke-dasharray:none;stroke-opacity:1"
               d="m 63.629154,303.76405 c -1.221969,10e-4 -2.508413,0.028 -3.27972,0.028 -0.96206,0 -1.725173,0.0282 -2.289137,0.0841 -0.563967,0.028 -1.011752,0.0979 -1.343495,0.20987 -0.29857,0.0839 -0.530874,0.22344 -0.696738,0.41931 -0.165874,0.1679 -0.331439,0.36413 -0.49731,0.58798 L 41.788421,325.40788 27.954625,305.09337 c -0.199047,-0.22385 -0.381427,-0.42008 -0.547291,-0.58798 -0.165874,-0.19587 -0.431281,-0.33536 -0.796201,-0.41931 -0.364919,-0.11193 -0.862623,-0.18189 -1.492939,-0.20987 -0.630316,-0.056 -1.443351,-0.0841 -2.438586,-0.0841 -1.161108,0 -2.073479,0.0282 -2.736971,0.0841 -0.66349,0.056 -1.127575,0.19589 -1.392972,0.41974 -0.265391,0.19587 -0.348432,0.48937 -0.248907,0.88111 0.132699,0.36377 0.398106,0.8535 0.796201,1.4691 l 16.76969,24.13423 -17.565891,24.97371 c -0.431269,0.61559 -0.696676,1.10533 -0.796201,1.46909 -0.06635,0.36376 0.01667,0.65726 0.248907,0.88112 0.265397,0.19584 0.713179,0.32169 1.343495,0.37768 0.630316,0.084 1.492768,0.12618 2.587524,0.12618 0.995236,0 1.79146,-0.0281 2.388603,-0.0841 0.59714,-0.028 1.061732,-0.0838 1.393476,-0.16781 0.364919,-0.11192 0.646633,-0.25185 0.84568,-0.41974 0.199048,-0.16789 0.381422,-0.37778 0.547294,-0.62961 l 14.481054,-21.61579 14.331104,21.61579 c 0.132698,0.25183 0.281959,0.46172 0.44783,0.62961 0.199048,0.1399 0.464455,0.26576 0.796201,0.37768 0.36492,0.11195 0.846322,0.18187 1.44346,0.20987 0.597143,0.056 1.426481,0.0841 2.488063,0.0841 0.624389,0 23.273855,0.75649 38.269631,-3.49218 12.123611,-3.43491 21.336891,-11.57351 21.209631,-26.89891 -0.25852,-13.31698 -14.57312,-18.37477 -14.91829,-18.5295 -11.151594,-5.9205 -29.69233,-5.38651 -40.600163,-5.91376 -0.371473,-0.007 -0.771579,-0.0101 -1.178903,-0.01 z m 7.25618,6.31565 c 2.296471,0.006 2.762807,0.034 5.296764,0.10324 0.001,3e-5 0.0021,-3e-5 0.003,0 v 4.00029 h -5.051536 c -2.25897,0 -4.007956,0.85613 -5.246745,2.56857 -1.23879,1.67601 -1.85797,3.37541 -1.85797,6.25378 0,1.38453 0.163848,2.13638 0.491758,3.41161 0.327918,1.23879 0.783253,2.34996 1.366212,3.33371 0.619389,0.94731 1.330047,1.71244 2.131617,2.2954 0.80157,0.58296 1.694148,0.87432 2.677899,0.87432 h 5.488765 v 11.42264 H 65.884499 c -1.099569,0 -1.236233,0.33613 -1.285433,1.1169 v 1.1152 c 0.108161,0.96718 0.200971,1.35918 1.591391,1.42958 h 9.994666 v 4.26209 c -8.542555,0.26751 -13.944402,0.1113 -13.944402,0.1113 L 47.16239,330.61258 61.419782,310.17614 c 0,0 4.104322,-0.10984 9.465547,-0.0964 z m 9.563024,0.2634 c 3.546684,0.17427 8.907853,0.45422 11.298741,0.89386 2.79367,0.51371 20.847601,2.53696 20.760281,18.76954 0.21579,17.74749 -19.178606,21.37804 -32.029232,22.08549 -0.01003,6.5e-4 -0.02979,0.0105 -0.02979,0.002 v -4.08875 h 6.854977 c 0.910882,0 1.730586,-0.2371 2.459287,-0.71075 0.728699,-0.51009 1.329792,-1.1838 1.803442,-2.02181 0.51009,-0.87444 0.892549,-1.89462 1.147598,-3.06054 0.29148,-1.20236 0.43723,-1.91789 0.43723,-3.30242 0,-1.42097 -0.14575,-2.19118 -0.43723,-3.46642 -0.255049,-1.27523 -0.655595,-2.40476 -1.202126,-3.38851 -0.510091,-0.98375 -1.129764,-1.76682 -1.858474,-2.34978 -0.692271,-0.58296 -1.475286,-0.87432 -2.349727,-0.87432 h -6.854977 v -10.93067 h 9.232797 c 0.930129,-0.0607 1.288718,-0.34654 1.533329,-1.29363 v -1.24393 c -0.18027,-0.48607 -0.219991,-0.99192 -1.46113,-1.17893 h -9.304996 z m -6.831571,7.55662 h 2.568341 v 10.93067 h -2.568341 c -0.874441,0 -1.585086,-0.51008 -2.131617,-1.53027 -0.510088,-1.05661 -0.765401,-2.3502 -0.765401,-3.88047 0,-1.63958 0.255313,-2.96948 0.765401,-3.98966 0.546531,-1.02018 1.286872,-1.72039 2.131617,-1.53027 z m 6.831571,15.0209 h 3.00557 c 0.546519,0 1.020455,0.16405 1.421244,0.49197 0.437222,0.32791 0.801583,0.76537 1.093073,1.3119 0.29148,0.51009 0.510104,1.11117 0.655843,1.80344 0.145709,0.69227 0.218614,1.40271 0.218614,2.13141 0,1.53027 -0.310089,2.86017 -0.929489,3.98966 -0.582962,1.12949 -1.402676,1.69426 -2.459285,1.69426 h -3.00557 z"
               inkscape:connector-curvature="0"
               sodipodi:nodetypes="sscccccccccssccccccccsccsccccccsscccsssccscsccssccsccccccccscscsccscccscccsccccccccscsscscscsccsscscccc" />
          </g>
        </g>
      </g>
    </g>
  </g>
</svg>
