<?xml version="1.0" encoding="UTF-8"?>
<svg width="690px" height="690px" viewBox="0 0 690 690" version="1.1" xmlns="http://www.w3.org/2000/svg" xmlns:xlink="http://www.w3.org/1999/xlink">
	<!-- Generator: Sketch 56 (81588) - https://sketch.com -->
	<title>moc/config/icon-riskpro</title>
	<desc>Created with Sketch.</desc>
	<g id="moc/config/icon-riskpro" stroke="none" stroke-width="1" fill="none" fill-rule="evenodd">
		<g transform="translate(1.518868, 1.518868)">
			<circle id="bg" fill="#FFFFFF" fill-rule="evenodd" cx="343.5" cy="343.5" r="316.617391"></circle>
			<path d="M343.97904,33.5328138 C261.236587,33.5328138 183.246965,65.9384742 124.484701,124.484701 C65.7224364,183.030927 33.5328138,261.236587 33.5328138,343.97904 C33.5328138,426.721493 65.9384742,504.711116 124.484701,563.47338 C183.030927,622.235644 261.02055,654.425267 343.97904,654.425267 C426.937531,654.425267 504.711116,622.019606 563.47338,563.47338 C622.235644,504.927153 654.425267,426.937531 654.425267,343.97904 C654.425267,261.02055 622.019606,183.246965 563.47338,124.484701 C504.927153,65.7224364 426.937531,33.5328138 343.97904,33.5328138 Z M343.97904,1.99130435 C533.012059,1.99130435 685.966776,155.378097 685.966776,343.97904 C685.966776,532.579984 532.796021,685.966776 343.97904,685.966776 C155.162059,685.966776 1.99130435,532.796021 1.99130435,343.97904 C1.99130435,155.162059 155.162059,1.99130435 343.97904,1.99130435 Z M151.057342,432.77055 L151.057342,450.485644 L133.12621,450.485644 L133.12621,432.77055 L123.188474,432.77055 L123.188474,450.485644 L105.257342,450.485644 L105.257342,432.77055 L79.3328138,432.77055 L79.3328138,249.786587 L105.257342,249.786587 L105.257342,230.775267 L123.188474,230.775267 L123.188474,249.786587 L133.12621,249.786587 L133.12621,230.775267 L151.057342,230.775267 L151.057342,249.786587 L162.291304,249.786587 C180.87055,249.786587 195.345078,253.891304 205.498852,261.884701 C215.652625,270.094135 220.837531,281.544135 220.837531,296.450738 C220.837531,307.468663 217.813002,316.758285 211.979984,324.103568 C206.146965,331.448852 198.369606,336.201682 188.863946,338.362059 C200.097908,341.17055 208.739418,346.571493 215.22055,354.564889 C221.701682,362.774323 224.942248,372.063946 224.942248,382.865833 C224.942248,398.636587 219.757342,410.734701 209.387531,419.592248 C199.017719,428.449795 183.895078,432.77055 164.451682,432.77055 L151.057342,432.77055 Z M123.62055,324.751682 L152.569606,324.751682 C167.908285,324.751682 175.685644,318.27055 175.685644,305.092248 C175.685644,291.913946 167.908285,285.432814 152.137531,285.432814 L123.62055,285.432814 L123.62055,324.751682 Z M179.790361,376.600738 C179.790361,370.119606 177.629984,364.934701 173.309229,361.262059 C168.988474,357.589418 162.939418,355.645078 154.946021,355.645078 L123.62055,355.645078 L123.62055,396.692248 L155.162059,396.692248 C171.580927,396.908285 179.790361,389.995078 179.790361,376.600738 Z M282.192248,368.607342 L282.192248,432.77055 L237.904512,432.77055 L237.904512,249.786587 L309.62904,249.786587 C331.448852,249.786587 347.867719,255.187531 359.317719,265.989418 C370.767719,276.791304 376.384701,291.265833 376.384701,309.62904 C376.384701,321.07904 373.792248,331.232814 368.82338,340.090361 C363.638474,348.947908 356.293191,355.861116 346.139418,361.046021 C336.201682,366.230927 323.887531,368.607342 309.62904,368.607342 L282.192248,368.607342 Z M331.232814,309.62904 C331.232814,293.642248 322.375267,285.648852 304.660172,285.648852 L282.192248,285.648852 L282.192248,333.177153 L304.660172,333.177153 C322.375267,333.177153 331.232814,325.399795 331.232814,309.62904 Z M453.294135,294.722436 C461.935644,289.537531 471.441304,286.945078 481.595078,286.945078 L481.595078,334.257342 L468.848852,334.257342 C457.182814,334.257342 448.109229,336.849795 441.628097,341.818663 C435.146965,346.787531 431.906399,355.213002 431.906399,367.095078 L431.906399,432.77055 L387.618663,432.77055 L387.618663,288.457342 L431.906399,288.457342 L431.906399,315.678097 C437.52338,306.82055 444.436587,299.907342 453.294135,294.722436 Z M595.87904,295.586587 C607.113002,301.635644 615.97055,310.061116 622.451682,321.295078 C628.932814,332.52904 632.17338,345.707342 632.17338,360.613946 C632.17338,375.52055 628.932814,388.698852 622.451682,399.932814 C615.97055,411.166776 607.113002,419.808285 595.87904,425.641304 C584.645078,431.690361 571.682814,434.498852 557.424323,434.498852 C543.165833,434.498852 530.203568,431.474323 518.969606,425.641304 C507.519606,419.592248 498.662059,411.166776 492.180927,399.932814 C485.699795,388.698852 482.459229,375.52055 482.459229,360.613946 C482.459229,345.707342 485.699795,332.52904 492.180927,321.295078 C498.662059,310.061116 507.519606,301.419606 518.969606,295.586587 C530.419606,289.537531 543.165833,286.72904 557.424323,286.72904 C571.682814,286.72904 584.42904,289.537531 595.87904,295.586587 Z M536.036587,334.041304 C530.203568,340.090361 527.395078,348.947908 527.395078,360.613946 C527.395078,372.063946 530.203568,380.921493 536.036587,386.97055 C541.869606,393.019606 548.998852,396.044135 557.424323,396.044135 C565.849795,396.044135 572.97904,393.019606 578.596021,386.97055 C584.213002,380.921493 587.237531,372.063946 587.237531,360.613946 C587.237531,349.163946 584.42904,340.306399 578.596021,334.041304 C572.97904,327.992248 565.849795,324.967719 557.424323,324.967719 C548.998852,324.967719 541.869606,327.992248 536.036587,334.041304 Z" id="Combined-Shape" fill="#FF9415" fill-rule="nonzero"></path>
		</g>
	</g>
</svg>
