<?xml version="1.0" encoding="UTF-8"?>
<svg width="690px" height="690px" viewBox="0 0 690 690" version="1.1" xmlns="http://www.w3.org/2000/svg" xmlns:xlink="http://www.w3.org/1999/xlink">
	<!-- Generator: Sketch 56 (81588) - https://sketch.com -->
	<title>moc/config/icon-stable</title>
	<desc>Created with Sketch.</desc>
	<g id="moc/config/icon-stable" stroke="none" stroke-width="1" fill="none" fill-rule="evenodd">
		<g transform="translate(1.518868, 1.518868)">
			<circle id="bg" fill="#FFFFFF" fill-rule="evenodd" cx="343.5" cy="343.5" r="316.617391"></circle>
			<path d="M343.97904,33.5328138 C261.02055,33.5328138 183.246965,65.9384742 124.484701,124.484701 C65.7224364,183.030927 33.5328138,261.02055 33.5328138,343.97904 C33.5328138,426.937531 65.9384742,504.711116 124.484701,563.47338 C183.030927,622.235644 261.02055,654.425267 343.97904,654.425267 C426.937531,654.425267 504.711116,622.019606 563.47338,563.47338 C622.235644,504.927153 654.425267,426.937531 654.425267,343.97904 C654.425267,261.02055 622.019606,183.246965 563.47338,124.484701 C504.927153,65.7224364 426.937531,33.5328138 343.97904,33.5328138 Z M343.97904,1.99130435 C532.796021,1.99130435 685.966776,155.162059 685.966776,343.97904 C685.966776,532.796021 532.796021,685.966776 343.97904,685.966776 C155.162059,685.966776 1.99130435,532.796021 1.99130435,343.97904 C1.99130435,155.162059 155.162059,1.99130435 343.97904,1.99130435 Z M250.434701,396.908285 C242.657342,410.734701 231.639418,421.536587 217.380927,429.313946 C202.906399,437.091304 186.055455,440.979984 166.612059,440.979984 L97.4799836,440.979984 L97.4799836,257.996021 L166.612059,257.996021 C186.271493,257.996021 203.338474,261.884701 217.596965,269.446021 C231.855455,277.007342 242.87338,287.809229 250.650738,301.419606 C258.428097,315.246021 262.100738,331.016776 262.100738,348.947908 C261.884701,367.311116 257.996021,383.08187 250.434701,396.908285 Z M202.690361,387.834701 C212.196021,378.761116 216.948852,365.798852 216.948852,349.379984 C216.948852,332.745078 212.196021,319.998852 202.690361,310.925267 C193.184701,301.851682 179.790361,297.314889 162.507342,297.314889 L141.551682,297.314889 L141.551682,401.877153 L162.507342,401.877153 C179.790361,401.445078 193.184701,396.908285 202.690361,387.834701 Z M382.433757,303.796021 C393.667719,309.845078 402.525267,318.27055 409.006399,329.504512 C415.487531,340.738474 418.728097,353.916776 418.728097,368.82338 C418.728097,383.729984 415.487531,396.908285 409.006399,408.142248 C402.525267,419.37621 393.667719,428.017719 382.433757,433.850738 C371.199795,439.899795 358.237531,442.708285 343.97904,442.708285 C329.72055,442.708285 316.758285,439.683757 305.524323,433.850738 C294.074323,427.801682 285.216776,419.37621 278.735644,408.142248 C272.254512,396.908285 269.013946,383.729984 269.013946,368.82338 C269.013946,353.916776 272.254512,340.738474 278.735644,329.504512 C285.216776,318.27055 294.074323,309.62904 305.524323,303.796021 C316.974323,297.746965 329.72055,294.938474 343.97904,294.938474 C358.453568,294.938474 371.199795,297.963002 382.433757,303.796021 Z M322.807342,342.466776 C316.974323,348.515833 314.165833,357.37338 314.165833,369.039418 C314.165833,380.489418 316.974323,389.346965 322.807342,395.396021 C328.640361,401.445078 335.769606,404.469606 344.195078,404.469606 C352.62055,404.469606 359.749795,401.445078 365.366776,395.396021 C370.983757,389.346965 374.008285,380.489418 374.008285,369.039418 C374.008285,357.589418 371.199795,348.73187 365.366776,342.466776 C359.749795,336.417719 352.62055,333.393191 344.195078,333.393191 C335.553568,333.177153 328.640361,336.201682 322.807342,342.466776 Z M572.97904,274.846965 C588.317719,287.161116 598.039418,303.579984 602.57621,324.535644 L555.696021,324.535644 C552.239418,316.110172 546.838474,309.413002 539.709229,304.660172 C532.579984,299.907342 524.154512,297.314889 514.216776,297.314889 C501.254512,297.314889 490.884701,302.067719 482.891304,311.57338 C474.897908,321.07904 471.009229,333.825267 471.009229,349.596021 C471.009229,365.366776 474.897908,378.113002 482.891304,387.402625 C490.884701,396.908285 501.254512,401.445078 514.216776,401.445078 C524.154512,401.445078 532.579984,399.068663 539.709229,394.099795 C546.838474,389.346965 552.239418,382.649795 555.696021,374.440361 L602.57621,374.440361 C598.039418,395.179984 588.317719,411.598852 572.97904,423.913002 C557.640361,436.227153 538.413002,442.492248 515.080927,442.492248 C497.365833,442.492248 481.811116,438.603568 468.200738,430.82621 C454.806399,423.048852 444.436587,412.030927 437.091304,397.772436 C429.746021,383.729984 426.07338,367.527153 426.07338,349.379984 C426.07338,331.232814 429.746021,315.246021 437.091304,300.987531 C444.436587,286.945078 454.806399,275.927153 468.200738,267.933757 C481.595078,260.156399 497.149795,256.267719 515.080927,256.267719 C538.413002,256.483757 557.640361,262.532814 572.97904,274.846965 Z" id="Combined-Shape" fill="#00A651" fill-rule="nonzero"></path>
		</g>
	</g>
</svg>
