<svg xmlns="http://www.w3.org/2000/svg" xmlns:xlink="http://www.w3.org/1999/xlink" width="38" height="38" viewBox="0 0 38 38">
  <defs>
    <clipPath id="clip-path">
      <path id="Path_2935" data-name="Path 2935" d="M710-1312.5l-1.089,1.542,1.908,2.782.26-.514,8.931-17.532Zm-1.078-3.966-3.775-.008,2.785,3.814a.54.54,0,0,0,.828,0l1.245-1.7.466-.616c.052-.052.052-.1.1-.154.313-1.235.522-2.47-.822-2.781a1.5,1.5,0,0,1,.1.463A.881.881,0,0,1,708.926-1316.468Zm-11.926-9.8,10.97,21.741a.536.536,0,0,0,.931,0l1.506-2.931-1.959-2.937Zm13.993,10.682,4.2-5.652-6.878-.015a.979.979,0,0,1-.98-.979c-2.483.561-3.055,1.795-3.473,3.8l5.068.011h.1C711.671-1318.315,711.719-1317.028,710.993-1315.589Zm-7.286-2.845c.109-2.572,1.044-4.424,4.457-4.726h.155l8.274.017,1.348-1.851a.514.514,0,0,0-.412-.824l-18.255-.037a.521.521,0,0,0-.415.822Z" transform="translate(-697 1326.271)" fill="none" clip-rule="evenodd"/>
    </clipPath>
    <clipPath id="clip-path-2">
      <path id="Path_2934" data-name="Path 2934" d="M625-1286.978h95.053V-1327H625Z" transform="translate(-625 1327)" fill="none"/>
    </clipPath>
  </defs>
  <g id="Group_6386" data-name="Group 6386" transform="translate(-310 -465.204)">
    <g id="Group_6231" data-name="Group 6231" transform="translate(310 465.667)">
      <g id="Group_6027" data-name="Group 6027" transform="translate(0 0)">
        <g id="Group_5995" data-name="Group 5995" transform="translate(0 0)">
          <g id="Group_3951" data-name="Group 3951" transform="translate(6.35 8.773)" clip-path="url(#clip-path)">
            <g id="Group_3950" data-name="Group 3950" transform="translate(-36.02 -0.365)" clip-path="url(#clip-path-2)">
              <path id="Path_2933" data-name="Path 2933" d="M692-1331.271h28.016v27.015H692Z" transform="translate(-658.482 1329.134)" fill="#fff"/>
            </g>
          </g>
          <circle id="Ellipse_357" data-name="Ellipse 357" cx="19" cy="19" r="19" transform="translate(0 -0.463)"/>
        </g>
        <g id="Group_5994" data-name="Group 5994" transform="translate(7.352 8.927)">
          <path id="Path_2977" data-name="Path 2977" d="M1184.923,847.483l-.282.381-1.068,1.435-.89,1.2a.7.7,0,0,1-1.12,0l-.85-1.142-.338-.457-1.763-2.37h4.088a.9.9,0,0,0,.9-.9.727.727,0,0,0-.01-.124.115.115,0,0,0,.025,0,1.485,1.485,0,0,1,.813.283,1.264,1.264,0,0,1,.4.8C1184.879,846.875,1184.9,847.181,1184.923,847.483Z" transform="translate(-1170.887 -837.276)" fill="#fff"/>
          <path id="Path_2978" data-name="Path 2978" d="M1180.3,829.187a2.117,2.117,0,0,0-.05-.538,1.834,1.834,0,0,0-.094-.27,1.236,1.236,0,0,0-.161-.25,1.953,1.953,0,0,0-.981-.594,3.852,3.852,0,0,0-1.038-.2h-.021l-.012,0v0H1172.6a7.11,7.11,0,0,1,.5-1.525,5.636,5.636,0,0,1,.882-1.319,3.487,3.487,0,0,1,1.229-.883,3.122,3.122,0,0,1,1.3-.232.668.668,0,0,0-.009.115.9.9,0,0,0,.9.9h7.047l-4.213,5.666C1180.26,829.772,1180.292,829.489,1180.3,829.187Z" transform="translate(-1166.225 -819.755)" fill="#fff"/>
          <path id="Path_2979" data-name="Path 2979" d="M1157.88,808.957c-.069,0-.137,0-.206.007a3.652,3.652,0,0,0-1.558.481,3.907,3.907,0,0,0-1.237,1.169,6.121,6.121,0,0,0-.734,1.492,7.676,7.676,0,0,0-.354,1.6l-4.742-6.563a.7.7,0,0,1,.544-1.115h17.829a.7.7,0,0,1,.544,1.115l-1.312,1.816H1158.5C1158.329,808.962,1158.036,808.959,1157.88,808.957Z" transform="translate(-1147.287 -805.993)" fill="#fff"/>
          <path id="Path_2980" data-name="Path 2980" d="M1187.178,861.81s0,0-.005,0l-.281-.377a.8.8,0,0,1-.052-.082Z" transform="translate(-1177.327 -849.755)" fill="#fff"/>
          <path id="Path_2981" data-name="Path 2981" d="M1152.281,820.447l2.713,3.556-.035.064-1.345,2.518a.882.882,0,0,1-1.551-.008l-1.328-2.56-4.6-8.874-.914-1.761-3.892-7.508.039-.022,5.62,7.53,1.314,1.761,3.859,5.171A.8.8,0,0,0,1152.281,820.447Z" transform="translate(-1141.326 -805.852)" fill="#fff"/>
          <path id="Path_2982" data-name="Path 2982" d="M1208.909,805.875l-5.653,10.835-.749,1.435-2.85,5.464-2.049-2.752a.8.8,0,0,0,.178-.176l1.9-2.536,1.074-1.435,4.548-6.084.761-1.017,2.808-3.756Z" transform="translate(-1186.113 -805.852)" fill="#fff"/>
        </g>
      </g>
    </g>
  </g>
</svg>
