<svg xmlns="http://www.w3.org/2000/svg" width="44" height="44" viewBox="0 0 44 44">
    <g fill="none" fill-rule="evenodd">
        <g>
            <g>
                <g transform="translate(-173 -223) translate(173 223)">
                    <ellipse cx="21.794" cy="22" fill="#F89B2B" fill-rule="nonzero" rx="21.794" ry="21.458"/>
                    <path fill="#FFF" d="M21.244 8.326c.687.203 1.306.339 1.994.474.206.068.206.135.137.27-.275 1.084-.55 2.235-.825 3.318 0 .067 0 .135-.069.27.55.136 1.169.271 1.719.407.069 0 .137-.136.206-.203.207-.88.413-1.693.688-2.573l.206-.812c0-.135.069-.203.206-.135.688.203 1.375.338 2.131.541.07 0 .07.068.138.068-.206.88-.412 1.692-.619 2.504-.069.339-.137.677-.275 1.016-.069.203 0 .27.206.338l2.27 1.016c.687.406 1.306.947 1.787 1.624.619 1.016.687 2.099.412 3.182-.206.744-.481 1.421-1.031 1.963-.412.406-.962.677-1.512.88-.07 0-.138.068-.276.068.276.203.55.338.826.541.825.61 1.375 1.354 1.65 2.302.137.744.068 1.557-.138 2.301-.275.948-.619 1.76-1.238 2.505-.756.88-1.718 1.354-2.818 1.489-1.444.203-2.819.068-4.194-.135-.206-.068-.344 0-.412.203-.276 1.083-.55 2.234-.826 3.317-.068.27-.068.338-.412.203-.619-.136-1.306-.339-1.925-.474-.206-.068-.206-.136-.137-.27.274-1.152.55-2.302.893-3.386 0-.135.069-.203-.069-.27-.55-.136-1.1-.271-1.718-.406-.138.609-.344 1.218-.482 1.827-.137.61-.343 1.219-.48 1.828-.07.135-.07.203-.276.135-.687-.203-1.375-.338-2.062-.474-.207-.067-.207-.135-.138-.27.275-1.151.55-2.302.894-3.385 0-.068.069-.135.069-.27-1.582-.407-3.163-.813-4.813-1.22.138-.27.207-.473.344-.744.275-.609.55-1.218.756-1.76.069-.203.138-.203.344-.203.481.136 1.031.27 1.512.339.55.135.963-.136 1.032-.61.893-3.452 1.787-6.904 2.612-10.424.138-.542-.206-1.151-.825-1.354-.619-.203-1.237-.339-1.787-.474-.138 0-.207-.068-.138-.203.138-.496.275-1.023.413-1.54l.158-.587.598.146c.504.116 1.008.221 1.512.356.757.203 1.513.339 2.27.542.206.068.274 0 .343-.203.275-1.15.55-2.234.825-3.385.069-.203.138-.27.344-.203zM19.938 22.88c-.138.677-.344 1.286-.482 1.963-.275.948-.481 1.895-.756 2.91.069 0 .137.069.137.069 1.1.27 2.27.609 3.438.676.825.068 1.581.068 2.338-.203 1.306-.406 1.856-2.098 1.1-3.181-.344-.542-.894-.88-1.444-1.219-1.238-.677-2.681-.947-4.056-1.218-.207-.068-.207 0-.276.203zm1.718-7.04c-.343 1.422-.687 2.775-1.1 4.197-.069.135 0 .203.138.27.275.068.481.136.756.204 1.031.135 1.925.338 3.025.338.137 0 .481-.067.756-.135 1.306-.27 1.994-1.76 1.306-2.91-.343-.61-.962-1.016-1.58-1.287-.963-.406-1.926-.61-2.957-.88-.206-.068-.275 0-.344.203z"/>
                </g>
            </g>
        </g>
    </g>
</svg>
