<svg xmlns="http://www.w3.org/2000/svg" width="44" height="44" viewBox="0 0 44 44">
    <g fill="none" fill-rule="evenodd">
        <g>
            <g>
                <g>
                    <path fill="#88C6A3" d="M22 0C9.85 0 0 9.85 0 22s9.85 22 22 22 22-9.85 22-22S34.15 0 22 0" transform="translate(-173 -339) translate(173 339)"/>
                    <path fill="#689E80" d="M22 5C12.626 5 5 12.626 5 22c0 9.374 7.626 17 17 17 9.374 0 17-7.626 17-17 0-9.374-7.626-17-17-17" transform="translate(-173 -339) translate(173 339)"/>
                    <path fill="#FFF" d="M26.35 25.725c-.232.914-1.242 1.676-2.55 1.991v-4.783c1.495.36 2.6 1.306 2.6 2.392 0 .136-.017.27-.05.4zm-5.15-5.67c-1.495-.361-2.6-1.306-2.6-2.392 0-1.087 1.105-2.032 2.6-2.392v4.783zm2.6.265v-5.05c1.495.361 2.6 1.306 2.6 2.393 0 .705.581 1.277 1.3 1.277.719 0 1.3-.572 1.3-1.277 0-2.468-2.236-4.531-5.2-5.006v-1.38c0-.706-.581-1.277-1.3-1.277-.719 0-1.3.571-1.3 1.277v1.38c-2.964.475-5.2 2.538-5.2 5.006 0 2.467 2.236 4.53 5.2 5.004v5.05c-1.495-.36-2.6-1.306-2.6-2.392 0-.706-.581-1.277-1.3-1.277-.719 0-1.3.571-1.3 1.277 0 2.468 2.236 4.53 5.2 5.005v1.393c0 .706.581 1.277 1.3 1.277.719 0 1.3-.571 1.3-1.277V30.33c2.964-.474 5.2-2.537 5.2-5.005s-2.236-4.53-5.2-5.005z" transform="translate(-173 -339) translate(173 339)"/>
                </g>
            </g>
        </g>
    </g>
</svg>
