<svg xmlns="http://www.w3.org/2000/svg" xmlns:xlink="http://www.w3.org/1999/xlink" width="449" height="302.676" viewBox="0 0 449 302.676">
  <defs>
    <filter id="Subtraction_55" x="112.708" y="80.318" width="263.001" height="222.358" filterUnits="userSpaceOnUse">
      <feOffset dy="3" input="SourceAlpha"/>
      <feGaussianBlur stdDeviation="3" result="blur"/>
      <feFlood flood-opacity="0.161"/>
      <feComposite operator="in" in2="blur"/>
      <feComposite in="SourceGraphic"/>
    </filter>
    <filter id="Subtraction_57" x="206.702" y="13.975" width="137.433" height="219.183" filterUnits="userSpaceOnUse">
      <feOffset dy="3" input="SourceAlpha"/>
      <feGaussianBlur stdDeviation="3" result="blur-2"/>
      <feFlood flood-opacity="0.161"/>
      <feComposite operator="in" in2="blur-2"/>
      <feComposite in="SourceGraphic"/>
    </filter>
    <filter id="Subtraction_59" x="215.702" y="9.498" width="124.075" height="110.122" filterUnits="userSpaceOnUse">
      <feOffset dy="3" input="SourceAlpha"/>
      <feGaussianBlur result="blur-3"/>
      <feFlood flood-opacity="0.161"/>
      <feComposite operator="in" in2="blur-3"/>
      <feComposite in="SourceGraphic"/>
    </filter>
  </defs>
  <g id="Group_3960" data-name="Group 3960" transform="translate(365 1353)">
    <text id="CALLS" transform="translate(38.5 -1331)" fill="#fff" font-size="21" font-family="Roboto-Medium, Roboto" font-weight="500"><tspan x="0" y="0">23%</tspan></text>
    <text id="CALLS-2" data-name="CALLS" transform="translate(-363.5 -1265)" fill="#fff" font-size="21" font-family="Roboto-Medium, Roboto" font-weight="500"><tspan x="0" y="0">50%</tspan></text>
    <text id="CALLS-3" data-name="CALLS" transform="translate(-363.5 -1236)" fill="#fff" font-size="17" font-family="Roboto-Light, Roboto" font-weight="300"><tspan x="0" y="0">Pool</tspan></text>
    <text id="CALLS-4" data-name="CALLS" transform="translate(70.5 -1302)" fill="#fff" font-size="17" font-family="Roboto-Light, Roboto" font-weight="300"><tspan x="-95.451" y="0">Genesis Sale</tspan></text>
    <text id="CALLS-5" data-name="CALLS" transform="translate(66.5 -1205)" fill="#fff" font-size="16" font-family="Roboto-Light, Roboto" font-weight="300"><tspan x="-76.711" y="0">Public Sale</tspan></text>
    <text id="CALLS-6" data-name="CALLS" transform="translate(-0.5 -1118)" fill="#fff" font-size="16" font-family="Roboto-Light, Roboto" font-weight="300"><tspan x="0" y="0">Dev Team</tspan></text>
    <text id="CALLS-7" data-name="CALLS" transform="translate(38.5 -1232)" fill="#fff" font-size="21" font-family="Roboto-Medium, Roboto" font-weight="500"><tspan x="0" y="0">23%</tspan></text>
    <text id="CALLS-8" data-name="CALLS" transform="translate(38.5 -1147)" fill="#fff" font-size="21" font-family="Roboto-Medium, Roboto" font-weight="500"><tspan x="0" y="0">23%</tspan></text>
    <path id="Exclusion_10" data-name="Exclusion 10" d="M95.861,191.72a96.568,96.568,0,0,1-19.319-1.948,95.336,95.336,0,0,1-34.277-14.424A96.139,96.139,0,0,1,7.533,133.174,95.376,95.376,0,0,1,1.948,115.18a96.794,96.794,0,0,1,0-38.638A95.335,95.335,0,0,1,16.372,42.264,96.141,96.141,0,0,1,58.548,7.533,95.377,95.377,0,0,1,76.542,1.948a96.794,96.794,0,0,1,38.639,0,95.334,95.334,0,0,1,34.277,14.424,96.14,96.14,0,0,1,34.73,42.176,95.376,95.376,0,0,1,5.586,17.994,96.8,96.8,0,0,1,0,38.638,95.334,95.334,0,0,1-14.424,34.277,96.139,96.139,0,0,1-42.176,34.73,95.378,95.378,0,0,1-17.994,5.586A96.567,96.567,0,0,1,95.861,191.72ZM95.337,23.048a72.993,72.993,0,0,0-41,12.525,73.551,73.551,0,0,0-26.57,32.266,73.239,73.239,0,0,0,6.762,69.548,73.551,73.551,0,0,0,32.266,26.57A73.24,73.24,0,0,0,136.34,157.2a73.548,73.548,0,0,0,26.57-32.266,73.24,73.24,0,0,0-6.761-69.548,73.55,73.55,0,0,0-32.266-26.57A72.877,72.877,0,0,0,95.337,23.048Z" transform="translate(-245.683 -1308.933)" fill="#4d4d4d"/>
    <g transform="matrix(1, 0, 0, 1, -365, -1353)" filter="url(#Subtraction_55)">
      <path id="Subtraction_55-2" data-name="Subtraction 55" d="M0,220v-36.67a72.836,72.836,0,0,0,27.5-5.756,73.271,73.271,0,0,0,12.457-6.761,73.816,73.816,0,0,0,10.854-8.955A73.819,73.819,0,0,0,59.763,151a73.32,73.32,0,0,0,6.761-12.457A72.866,72.866,0,0,0,72.289,110a72.874,72.874,0,0,0-5.764-28.546A73.279,73.279,0,0,0,59.763,69a73.759,73.759,0,0,0-8.955-10.854,73.827,73.827,0,0,0-10.854-8.956A73.414,73.414,0,0,0,27.5,42.426,72.855,72.855,0,0,0,0,36.67V0A110.872,110.872,0,0,1,21.123,2.23a109.435,109.435,0,0,1,20.648,6.41A110,110,0,0,1,60.457,18.782a110.853,110.853,0,0,1,16.28,13.432A110.852,110.852,0,0,1,90.17,48.494a110.062,110.062,0,0,1,10.142,18.686,109.4,109.4,0,0,1,6.41,20.649A110.8,110.8,0,0,1,108.957,110a110.806,110.806,0,0,1-2.236,22.17,109.408,109.408,0,0,1-6.41,20.648A110.055,110.055,0,0,1,90.17,171.5a110.865,110.865,0,0,1-13.432,16.281,110.847,110.847,0,0,1-16.28,13.432,110.058,110.058,0,0,1-18.686,10.142,109.48,109.48,0,0,1-20.648,6.41A110.8,110.8,0,0,1,0,220Z" transform="translate(312.23 86.32) rotate(60)" fill="#6e6e6e"/>
    </g>
    <g transform="matrix(1, 0, 0, 1, -365, -1353)" filter="url(#Subtraction_57)">
      <path id="Subtraction_57-2" data-name="Subtraction 57" d="M88.405,201.183l-34.487-32.16a74.149,74.149,0,0,0,5.846-7.545,73.286,73.286,0,0,0,6.761-12.457,72.865,72.865,0,0,0,5.763-28.545A72.867,72.867,0,0,0,66.526,91.93a73.327,73.327,0,0,0-6.761-12.457,73.848,73.848,0,0,0-8.956-10.854,73.9,73.9,0,0,0-10.854-8.955A73.413,73.413,0,0,0,27.5,52.9,72.848,72.848,0,0,0,0,47.147V0A121.353,121.353,0,0,1,23.234,2.443a119.922,119.922,0,0,1,22.615,7.02A120.623,120.623,0,0,1,66.314,20.571,121.46,121.46,0,0,1,84.145,35.283,121.464,121.464,0,0,1,98.857,53.114a120.613,120.613,0,0,1,11.108,20.465,119.953,119.953,0,0,1,7.02,22.615,121.316,121.316,0,0,1,2.448,24.281,121.312,121.312,0,0,1-2.448,24.28,119.925,119.925,0,0,1-7.02,22.615,120.534,120.534,0,0,1-11.108,20.465,121.668,121.668,0,0,1-10.451,13.346Z" transform="translate(215.7 19.97)" fill="#bababa"/>
    </g>
    <g transform="matrix(1, 0, 0, 1, -365, -1353)" filter="url(#Subtraction_59)">
      <path id="Subtraction_59-2" data-name="Subtraction 59" d="M68.33,107.122h0c-.544-1.582-1.152-3.168-1.806-4.715a73.329,73.329,0,0,0-6.761-12.457A73.909,73.909,0,0,0,50.808,79.1a73.821,73.821,0,0,0-10.853-8.954A73.23,73.23,0,0,0,27.5,63.38,72.829,72.829,0,0,0,0,57.624V0A131.874,131.874,0,0,1,25.345,2.657a130.1,130.1,0,0,1,24.581,7.631A130.79,130.79,0,0,1,72.171,22.362,131.744,131.744,0,0,1,91.553,38.353a131.748,131.748,0,0,1,15.991,19.381,131,131,0,0,1,12.075,22.245c1.678,3.968,3.177,8.075,4.456,12.207L68.331,107.122Z" transform="translate(215.7 9.5)" fill="#fcfcfc"/>
    </g>
    <line id="Line_945" data-name="Line 945" x1="141.542" transform="translate(-64.535 -1281.826)" fill="none" stroke="#fff" stroke-linecap="round" stroke-width="1"/>
    <line id="Line_946" data-name="Line 946" x1="137.646" transform="translate(-54.146 -1188.33)" fill="none" stroke="#fff" stroke-linecap="round" stroke-width="1"/>
    <line id="Line_947" data-name="Line 947" x1="135.049" transform="translate(-364.5 -1223.391)" fill="none" stroke="#fff" stroke-linecap="round" stroke-width="1"/>
    <line id="Line_948" data-name="Line 948" x1="116.87" transform="translate(-39.862 -1102.626)" fill="none" stroke="#fff" stroke-linecap="round" stroke-width="1"/>
    <line id="Line_949" data-name="Line 949" x1="67.525" y1="35.061" transform="translate(-107.387 -1137.687)" fill="none" stroke="#fff" stroke-linecap="round" stroke-width="1"/>
  </g>
</svg>
