<svg width="26" height="26" viewBox="0 0 26 26" fill="none" xmlns="http://www.w3.org/2000/svg">
<path d="M0.91958 9.75H23.4878L22.5682 11.9167H0L0.91958 9.75ZM0.91958 14.0833H21.6487L20.7291 16.25H0L0.91958 14.0833ZM25.0639 6.03647C23.6049 4.33339 21.6462 3.11122 19.4537 2.53581C17.2612 1.9604 14.941 2.05962 12.808 2.82C10.675 3.58038 8.83256 4.96511 7.53062 6.78626C6.22868 8.6074 5.53032 10.7768 5.53032 13C5.53032 15.2232 6.22868 17.3926 7.53062 19.2137C8.83256 21.0349 10.675 22.4196 12.808 23.18C14.941 23.9404 17.2612 24.0396 19.4537 23.4642C21.6462 22.8888 23.6049 21.6666 25.0639 19.9635V23.0065C23.0827 24.6159 20.6663 25.6263 18.1093 25.9147C15.5522 26.203 12.9646 25.757 10.6617 24.6307C8.35887 23.5045 6.44002 21.7468 5.13887 19.5715C3.83772 17.3962 3.21041 14.8973 3.33334 12.3791C3.45627 9.86093 4.32413 7.43206 5.83124 5.38831C7.33834 3.34457 9.41966 1.77413 11.8217 0.868238C14.2238 -0.0376499 16.843 -0.239896 19.3603 0.286128C21.8777 0.812152 24.1845 2.04375 26 3.83094L25.0639 6.03647Z" fill="#E8E8E8"/>
</svg>
