<svg width="17" height="25" viewBox="0 0 17 25" fill="none" xmlns="http://www.w3.org/2000/svg">
<path d="M11.2832 11.7818V13.4984H7.03848C7.35029 14.3932 7.50619 15.1216 7.5062 15.6836V15.715C7.50619 16.8594 6.90289 18.1496 5.69628 19.5854C5.21744 20.1684 4.59317 20.8447 3.82348 21.6144C5.05105 20.8028 6.32022 20.397 7.63099 20.397C8.35939 20.397 9.2126 20.5533 10.1906 20.8657C11.335 21.1985 12.1571 21.3649 12.6569 21.3649C13.4894 21.3649 14.3531 21.0527 15.2479 20.4285L16.5587 22.4889C15.3724 23.6543 14.0092 24.2369 12.4692 24.2369C11.5534 24.2369 10.2322 23.9454 8.50547 23.3624L7.912 23.1443C7.2255 22.915 6.53868 22.8004 5.85155 22.8004C4.74908 22.8004 3.61518 23.1856 2.44985 23.9559L0.951424 21.8955C3.07379 20.0639 4.32232 18.4928 4.69701 17.182C4.80115 16.8074 4.85323 16.412 4.85323 15.9961C4.85323 15.9961 4.85323 15.9856 4.85323 15.9646V15.9332C4.85323 15.1425 4.60333 14.3309 4.10355 13.4984H0.67041V11.7818H3.19859C2.24155 10.2005 1.71095 9.06661 1.60681 8.3801C1.56489 8.19277 1.54393 7.98447 1.54394 7.7552V7.44275C1.54393 5.38263 2.3765 3.69718 4.04163 2.3864C5.41526 1.30428 7.04863 0.763206 8.94175 0.763184H8.97319C11.3248 0.763206 13.1458 1.53322 14.4363 3.07322L14.9669 3.85339C15.5283 4.81044 15.8194 6.19424 15.8404 8.00478H13.0941C13.0109 4.80028 11.5957 3.19803 8.8484 3.198C6.99656 3.19803 5.69595 3.85341 4.94659 5.16415C4.61381 5.74715 4.44743 6.41333 4.44743 7.16269V7.19317C4.44743 7.98447 4.67637 8.81703 5.13425 9.69086V9.7223L5.16568 9.75278C5.24887 9.94014 5.36318 10.1691 5.50862 10.4396L5.78963 10.9083L6.28879 11.7818H11.2832Z" fill="#E8E8E8"/>
</svg>
