<svg width="56" height="56" viewBox="0 0 56 56" fill="none" xmlns="http://www.w3.org/2000/svg">
<path d="M38.717 26.2525C37.7617 22.9704 36.6844 21.2746 36.667 21.2442C36.6056 21.1692 35.0833 19.3475 31.4143 18L30.9295 19.32C32.6749 19.9611 33.9133 20.7431 34.5943 21.2484C32.5611 20.6413 30.1423 20.2694 28 20.2694C25.8577 20.2694 23.4389 20.6413 21.4057 21.2484C22.0867 20.7432 23.325 19.9611 25.0705 19.32L24.5857 18C20.9167 19.3475 19.3944 21.1692 19.333 21.2442C19.3156 21.2746 18.2383 22.9704 17.2831 26.2525C16.3624 29.4155 16.0127 33.8775 16 34.0564C16.082 34.1846 17.9687 37.4059 23.1106 37.4059L24.4139 35.5186C22.9538 35.1309 21.5614 34.5057 20.2869 33.6573L21.0661 32.4867C23.1223 33.8553 25.52 34.5788 28 34.5788C30.48 34.5788 32.8777 33.8553 34.9339 32.4867L35.7131 33.6573C34.4386 34.5057 33.0462 35.1309 31.5861 35.5186L32.8894 37.4059C38.0312 37.4059 39.918 34.1846 40 34.0564C39.9873 33.8775 39.6376 29.4155 38.717 26.2525ZM24.7488 29.9314H23.3426V27.5876H24.7488V29.9314ZM32.6574 29.9314H31.2512V27.5876H32.6574V29.9314Z" fill="white"/>
<circle opacity="0.1" cx="28" cy="28" r="27.5" stroke="white"/>
</svg>
