<svg width="56" height="56" viewBox="0 0 56 56" fill="none" xmlns="http://www.w3.org/2000/svg">
<path d="M40 20.3085C39.1075 20.7 38.1565 20.9595 37.165 21.0855C38.185 20.4765 38.9635 19.5195 39.3295 18.366C38.3785 18.933 37.3285 19.3335 36.2095 19.557C35.3065 18.5955 34.0195 18 32.6155 18C29.8915 18 27.6985 20.211 27.6985 22.9215C27.6985 23.3115 27.7315 23.6865 27.8125 24.0435C23.722 23.844 20.1025 21.8835 17.671 18.897C17.2465 19.6335 16.9975 20.4765 16.9975 21.384C16.9975 23.088 17.875 24.5985 19.183 25.473C18.3925 25.458 17.617 25.2285 16.96 24.867C16.96 24.882 16.96 24.9015 16.96 24.921C16.96 27.312 18.6655 29.298 20.902 29.7555C20.5015 29.865 20.065 29.9175 19.612 29.9175C19.297 29.9175 18.979 29.8995 18.6805 29.8335C19.318 31.782 21.127 33.2145 23.278 33.261C21.604 34.5705 19.4785 35.3595 17.1775 35.3595C16.774 35.3595 16.387 35.3415 16 35.292C18.1795 36.6975 20.7625 37.5 23.548 37.5C32.602 37.5 37.552 30 37.552 23.499C37.552 23.2815 37.5445 23.0715 37.534 22.863C38.5105 22.17 39.331 21.3045 40 20.3085Z" fill="white"/>
<circle opacity="0.1" cx="28" cy="28" r="27.5" stroke="white"/>
</svg>
