<svg xmlns="http://www.w3.org/2000/svg" width="149" height="149" viewBox="0 0 149 149">
    <g id="Group_6462" data-name="Group 6462" transform="translate(3918 2936)">
        <circle id="Ellipse_379" data-name="Ellipse 379" cx="74.5" cy="74.5" r="74.5" transform="translate(-3918 -2936)" fill="#e9eae9"/>
        <g id="Layer_1" data-name="Layer 1" transform="translate(-3892.473 -2910.474)">
            <path id="Path_6070" data-name="Path 6070" d="M30.05,41.293,49.134,22.209,68.227,41.3l11.1-11.1L49.134,0,18.946,30.188l11.1,11.1M0,49.134,11.1,38.028l11.1,11.1-11.1,11.1Zm30.05,7.842L49.134,76.059,68.227,56.967l11.11,11.1-.005.006-30.2,30.2L18.946,68.08l-.016-.016,11.12-11.089m46.009-7.836,11.1-11.1,11.1,11.1-11.1,11.1Z" transform="translate(-0.527 -0.526)" fill="#0f0f0f"/>
            <path id="Path_6071" data-name="Path 6071" d="M985.726,974.457h0L974.463,963.19l-8.328,8.326h0l-.957.958-1.973,1.973-.016.015.016.016,11.258,11.26,11.269-11.267.005-.007-.011-.006" transform="translate(-925.33 -925.329)" fill="#0f0f0f"/>
        </g>
    </g>
</svg>
