<svg id="XUSD" xmlns="http://www.w3.org/2000/svg" width="149" height="149" viewBox="0 0 149 149">
  <g id="Group_6400-2" transform="translate(149 502)">
    <circle id="Ellipse_357" cx="74.5" cy="74.5" r="74.5" transform="translate(-149 -502)" fill="#e9eae9"/>
  </g>
  <g id="Group_6460" data-name="Group 6460">
    <path id="Path_6090" data-name="Path 6090" d="M94.2,113,75.1,85.5,56.4,113h-21L64.7,72.8,36.8,33.9H57.6L75.8,59.6,93.7,33.9h19.8L85.8,72.1,115.3,113Z"/>
  </g>
  <g id="Group_6461" data-name="Group 6461">
    <path id="Path_6091" data-name="Path 6091" d="M87.3,47.1c3.5,2,6.6,5.4,9.3,10.1l6-8.3a30.089,30.089,0,0,0-10.2-9.3c-.7-.4-1.4-.7-2-1l-5.2,7.5A19.989,19.989,0,0,1,87.3,47.1Z" fill="#7d7e7d"/>
    <path id="Path_6092" data-name="Path 6092" d="M64,101.7a25.356,25.356,0,0,1-6.6-4.4,29.9,29.9,0,0,1-5.5-7.2l-6.4,8.8a38.129,38.129,0,0,0,5.5,5.9,32.374,32.374,0,0,0,7.6,4.7Z" fill="#7d7e7d"/>
    <path id="Path_6093" data-name="Path 6093" d="M90.4,101.2a25.309,25.309,0,0,1-3.3,1.6l4.9,7.1a22.715,22.715,0,0,0,9.4-7.4,17.581,17.581,0,0,0,2.6-5.1L85.8,72.1l.1-.1c-.1,0-.2,0-.2-.1l-6-1.3V53.9l-3.9,5.6-4.1-5.9V68.7l-2.2-.5a25.876,25.876,0,0,1-7.7-2.9A9.424,9.424,0,0,1,58,61.4a11.364,11.364,0,0,1-1.1-4.9,10.867,10.867,0,0,1,1.9-6.3,12.5,12.5,0,0,1,5.7-4.5c.4-.2.8-.3,1.2-.5l-4.9-6.8c-.2.1-.3.1-.5.2a22.7,22.7,0,0,0-9.6,8.1,19.755,19.755,0,0,0-2,3.8L64.5,72.7l-2.3,3.1c1.3.4,2.7.8,4.3,1.2l5,1.1V90.5L75,85.4,79.6,92V80.1l4.4,1c4.4,1,7.4,2.5,9,4.4a10.577,10.577,0,0,1-2.6,15.7Z" fill="#7d7e7d"/>
  </g>
</svg>
