<svg width="20" height="20" xmlns="http://www.w3.org/2000/svg" xmlns:xlink="http://www.w3.org/1999/xlink" xmlns:svgjs="http://svgjs.com/svgjs" viewBox="1048 518 20 20"><svg width="20" height="20" xmlns="http://www.w3.org/2000/svg" xmlns:xlink="http://www.w3.org/1999/xlink" xmlns:svgjs="http://svgjs.com/svgjs" fill="none" x="1048" y="518"><svg xmlns="http://www.w3.org/2000/svg" xmlns:xlink="http://www.w3.org/1999/xlink" width="20" height="20"><path paint-order="stroke fill markers" d="M0 0h20v20H0V0z"/></svg></svg><svg width="16" height="16" xmlns="http://www.w3.org/2000/svg" xmlns:xlink="http://www.w3.org/1999/xlink" xmlns:svgjs="http://svgjs.com/svgjs" viewBox="0.276 0 15.448 16" fill="#e9eae9" x="1050" y="520"><svg xmlns="http://www.w3.org/2000/svg" width="16" height="16" viewBox="0.662 0.4 14.676 15.2"><path paint-order="stroke fill markers" fill-rule="evenodd" d="M13.61 8.744c.032-.237.048-.483.048-.744a4.62 4.62 0 0 0-.055-.744l1.595-1.251a.39.39 0 0 0 .094-.483l-1.509-2.628a.382.382 0 0 0-.463-.175l-1.878.76c-.393-.3-.81-.554-1.273-.744L9.886.725A.38.38 0 0 0 9.509.4H6.49a.373.373 0 0 0-.37.324L5.84 2.735a5.66 5.66 0 0 0-1.273.744l-1.878-.76a.374.374 0 0 0-.464.175l-1.5 2.628c-.095.166-.064.372.094.483l1.595 1.25c-.04.238-.071.5-.071.745s.016.507.055.744L.802 9.995a.39.39 0 0 0-.095.483l1.51 2.628c.094.174.29.23.463.174l1.878-.76c.393.301.81.555 1.273.744l.283 2.011c.04.19.189.325.377.325H9.51a.367.367 0 0 0 .369-.325l.283-2.01c.464-.19.888-.444 1.273-.745l1.878.76c.173.064.37 0 .464-.174l1.508-2.628c.095-.174.055-.372-.094-.483l-1.58-1.251zM8 10.85c-1.556 0-2.83-1.283-2.83-2.85 0-1.568 1.274-2.85 2.83-2.85S10.829 6.432 10.829 8c0 1.567-1.273 2.85-2.83 2.85z"/></svg></svg></svg>