<svg xmlns="http://www.w3.org/2000/svg" width="17.002" height="24" viewBox="0 0 17.002 24">
  <g id="rsk_logo" transform="translate(0 -1.2)">
    <path id="Path_2982" data-name="Path 2982" d="M23.2,13.152V4.5a5.24,5.24,0,0,0-2.8,4.358,5.087,5.087,0,0,0,2.8,4.294" transform="translate(-17.097 -2.771)" fill="#006e3c"/>
    <path id="Path_2983" data-name="Path 2983" d="M37.9,4.5a5.24,5.24,0,0,1,2.8,4.358,5.087,5.087,0,0,1-2.8,4.294Z" transform="translate(-31.764 -2.771)" fill="#00b43c"/>
    <path id="Path_2984" data-name="Path 2984" d="M78.588,70.046l3.845-2.179a2.667,2.667,0,0,0-2.644-.144,2.606,2.606,0,0,0-1.2,2.323" transform="translate(-65.847 -55.507)" fill="#006e3c"/>
    <path id="Path_2985" data-name="Path 2985" d="M82.445,70.2a2.678,2.678,0,0,1-1.234,2.339,2.582,2.582,0,0,1-2.612-.16Z" transform="translate(-65.86 -57.837)" fill="#00b43c"/>
    <path id="Path_2986" data-name="Path 2986" d="M16.776,12a3.448,3.448,0,0,0-3.087-.1,3.106,3.106,0,0,0-1.374,2.457l-.517.291a1.435,1.435,0,0,0-.986-.4,1.366,1.366,0,0,0-.986.4L7.5,13.289a1.23,1.23,0,0,0,.048-.339,1.411,1.411,0,0,0-1.018-1.358v-.84c.679-.436,2.844-2.036,2.844-4.574,0-2.941-2.909-4.768-3.038-4.848L6.125,1.2l-.21.129c-.129.081-3.038,1.907-3.038,4.848,0,2.537,2.166,4.121,2.844,4.574v.84A1.392,1.392,0,0,0,4.7,12.949a1.23,1.23,0,0,0,.048.339L2.408,14.646a1.435,1.435,0,0,0-.986-.4,1.419,1.419,0,0,0-.4,2.78v2.812a1.419,1.419,0,0,0,.4,2.78,1.392,1.392,0,0,0,1.051-.469l2.279,1.309a1.23,1.23,0,0,0-.048.339,1.422,1.422,0,0,0,2.844,0,1.23,1.23,0,0,0-.048-.339l2.279-1.309a1.392,1.392,0,0,0,1.051.469,1.419,1.419,0,0,0,.4-2.78V17.022a1.425,1.425,0,0,0,1.018-1.358,1.99,1.99,0,0,0-.032-.323l.517-.291a3.677,3.677,0,0,0,1.552.372,2.485,2.485,0,0,0,1.261-.323A3.483,3.483,0,0,0,17,12.384v-.242Zm-5.56,4.154a.658.658,0,0,1-.388.129.57.57,0,0,1-.226-.048.335.335,0,0,1-.162-.1.658.658,0,0,1-.242-.4v-.178a.626.626,0,0,1,.388-.5A.516.516,0,0,1,10.812,15a.59.59,0,0,1,.242.048.639.639,0,0,1,.388.582.2.2,0,0,1-.016.1.587.587,0,0,1-.21.42m.226,5.042a.631.631,0,0,1-.63.63.546.546,0,0,1-.323-.1.639.639,0,0,1-.307-.533v-.016h0a.811.811,0,0,1,.032-.194.663.663,0,0,1,.485-.42c.032,0,.065-.016.113-.016a.622.622,0,0,1,.388.129.636.636,0,0,1,.242.517m-1.018-1.358a1.232,1.232,0,0,0-.517.275l-2.392-1.39h0a1.592,1.592,0,0,0,.032-.275,1.03,1.03,0,0,0-.065-.388l2.36-1.374a1.322,1.322,0,0,0,.582.339Zm-4.3,4.59a.629.629,0,0,1-.63-.533v-.1a.639.639,0,0,1,.388-.582.63.63,0,0,1,.485,0,.639.639,0,0,1,.388.582v.1a.657.657,0,0,1-.63.533m-1.39-5.705-2.392,1.39a1.232,1.232,0,0,0-.517-.275V17.022a1.322,1.322,0,0,0,.582-.339l2.36,1.358a1.625,1.625,0,0,0-.065.4,1.423,1.423,0,0,0,.032.275ZM2.069,21.192a.6.6,0,0,1-.307.533.583.583,0,0,1-.323.1.631.631,0,0,1-.63-.63.653.653,0,0,1,.242-.5.658.658,0,0,1,.388-.129.275.275,0,0,1,.113.016.544.544,0,0,1,.275.129.646.646,0,0,1,.21.291.811.811,0,0,1,.032.194h0M.792,15.665a.631.631,0,0,1,.63-.63.516.516,0,0,1,.226.048.626.626,0,0,1,.388.5v.194a.593.593,0,0,1-.242.4,1.421,1.421,0,0,1-.162.1.516.516,0,0,1-.226.048.622.622,0,0,1-.388-.129.874.874,0,0,1-.226-.533m4.945-3.216a.658.658,0,0,1,.388-.129.622.622,0,0,1,.388.129.573.573,0,0,1,.226.4v.1a.653.653,0,0,1-.242.5,1.421,1.421,0,0,1-.162.1.552.552,0,0,1-.453,0,.335.335,0,0,1-.162-.1.628.628,0,0,1-.242-.5v-.1a.764.764,0,0,1,.259-.4m1.018,6.012a.589.589,0,0,1-.242.469c-.032.016-.065.048-.1.065a.668.668,0,0,1-.307.081.558.558,0,0,1-.291-.081.338.338,0,0,1-.1-.065.62.62,0,0,1-.242-.485v-.016a.5.5,0,0,1,.016-.162.751.751,0,0,1,.21-.339.562.562,0,0,1,.242-.113.5.5,0,0,1,.162-.016.5.5,0,0,1,.162.016.6.6,0,0,1,.226.113.629.629,0,0,1,.21.323.606.606,0,0,1,.016.178c.032.016.032.032.032.032Zm2.683-3.135a1.23,1.23,0,0,0-.048.339,1.346,1.346,0,0,0,.048.356L7.063,17.394a1.42,1.42,0,0,0-.549-.307v-2.78a1.322,1.322,0,0,0,.582-.339ZM3.669,6.194c0-2.085,1.826-3.588,2.457-4.04.63.453,2.457,1.956,2.457,4.04A4.81,4.81,0,0,1,6.513,9.8V6.5a.393.393,0,0,0-.388-.388.383.383,0,0,0-.388.388V9.8a4.763,4.763,0,0,1-2.069-3.6m1.471,7.774a1.418,1.418,0,0,0,.582.339v2.78a1.629,1.629,0,0,0-.549.291L2.78,16a1.212,1.212,0,0,0,0-.679ZM2.828,21.434a1.223,1.223,0,0,0,.016-.242,1.361,1.361,0,0,0-.065-.436l2.327-1.341a1.484,1.484,0,0,0,.63.388v2.634a1.476,1.476,0,0,0-.6.339Zm4.283,1.341a1.377,1.377,0,0,0-.6-.339V19.8a1.342,1.342,0,0,0,.63-.388l2.327,1.341a1.239,1.239,0,0,0-.065.436,1.223,1.223,0,0,0,.016.242ZM15.127,14.4a2.1,2.1,0,0,1-1.552.129l.776-.453a.391.391,0,1,0-.388-.679l-.776.453a2.059,2.059,0,0,1,.889-1.277,2.438,2.438,0,0,1,2.085.016,2.481,2.481,0,0,1-1.034,1.81" fill="#e9eae9"/>
  </g>
</svg>
