<svg xmlns="http://www.w3.org/2000/svg" width="22" height="22" viewBox="0 0 22 22"><g transform="translate(-115 -309)"><circle cx="11" cy="11" r="11" transform="translate(115 309)" fill="#e9eae9"/><g transform="translate(118 312)"><path d="M0,0H16V16H0Z" fill="none"/><path d="M15,13v.667A1.337,1.337,0,0,1,13.667,15H4.333A1.333,1.333,0,0,1,3,13.667V4.333A1.333,1.333,0,0,1,4.333,3h9.333A1.337,1.337,0,0,1,15,4.333V5H9A1.333,1.333,0,0,0,7.667,6.333v5.333A1.333,1.333,0,0,0,9,13ZM9,11.667h6.667V6.333H9ZM11.667,10a1,1,0,1,1,1-1A1,1,0,0,1,11.667,10Z" transform="translate(-1 -1)"/></g></g></svg>