<svg width="433" height="371" xmlns="http://www.w3.org/2000/svg" xmlns:xlink="http://www.w3.org/1999/xlink" overflow="hidden"><defs><clipPath id="clip0"><rect x="284" y="116" width="433" height="371"/></clipPath><clipPath id="clip1"><path d="M716.651 375.018 367.283 486.139 285.143 227.887 634.511 116.766Z" fill-rule="evenodd" clip-rule="evenodd"/></clipPath><clipPath id="clip2"><path d="M716.651 375.018 367.283 486.139 285.143 227.887 634.511 116.766Z" fill-rule="evenodd" clip-rule="evenodd"/></clipPath><clipPath id="clip3"><path d="M716.651 375.018 367.283 486.139 285.143 227.887 634.511 116.766Z" fill-rule="evenodd" clip-rule="evenodd"/></clipPath></defs><g clip-path="url(#clip0)" transform="translate(-284 -116)"><g clip-path="url(#clip1)"><g clip-path="url(#clip2)"><g clip-path="url(#clip3)"><path d="M775.878 223.781 747.802 179.495 725.804 220.886 672.547 180.074 674.288 235.069 555.899 219.438 661.257 270.381 611.183 293.019 661.837 309.751 623.153 344.121 667.916 347.663 651.128 400.342 714.23 367.346 732.179 432.179 767.781 373.999 812.645 423.494 817.276 367.053 898.316 417.418 861.844 341.586 906.998 328.271 865.028 297.011 907.287 270.961 858.663 252.726 896.87 193.679 823.062 228.702 826.536 181.812Z" stroke="#000000" stroke-width="8.03709" fill="#FFFFFF" fill-rule="evenodd" transform="matrix(-0.964499 0.306771 -0.3031 -0.952959 1303.06 368.302)"/><text fill="#FFFFFF" font-family="Arial,Arial_MSFontService,sans-serif" font-weight="400" font-size="22" transform="matrix(-1.277 0.455223 -0.450849 -1.26138 561.962 300)">Coming <tspan x="16.7987" y="31.4315">Soon</tspan><tspan x="68.8802" y="31.2005">!</tspan></text></g></g></g><text font-family="Rowdies,Rowdies_MSFontService,sans-serif" font-weight="400" font-size="37" transform="matrix(0.827577 -0.561352 0.561352 0.827577 408.114 357)">COMING <tspan x="23.8153" y="45.1544">SOON</tspan></text></g></svg>